ISO-10303-21;
HEADER;
/* Generated by software containing ST-Developer
 * from STEP Tools, Inc. (www.steptools.com) 
 */

FILE_DESCRIPTION(
/* description */ (''),
/* implementation_level */ '2;1');

FILE_NAME(
/* name */ 
'C:\\Users\\Nathann\\ClawdDrive\\Objet3D\\neodrive\\neodrive-cad-ergon
omic-v1\\eggshellCorePrintedLeft.stp',
/* time_stamp */ '2026-03-22T11:05:25+01:00',
/* author */ ('Nathann'),
/* organization */ (''),
/* preprocessor_version */ 'ST-DEVELOPER v19',
/* originating_system */ 'Autodesk Inventor 2023',
/* authorisation */ '');

FILE_SCHEMA (('AUTOMOTIVE_DESIGN { 1 0 10303 214 3 1 1 }'));
ENDSEC;

DATA;
#10=MECHANICAL_DESIGN_GEOMETRIC_PRESENTATION_REPRESENTATION('',(#13),#1201);
#11=SHAPE_REPRESENTATION_RELATIONSHIP('SRR','None',#1208,#12);
#12=ADVANCED_BREP_SHAPE_REPRESENTATION('',(#14),#1200);
#13=STYLED_ITEM('',(#1217),#14);
#14=MANIFOLD_SOLID_BREP('Solid1',#644);
#15=CYLINDRICAL_SURFACE('',#713,4.25);
#16=CYLINDRICAL_SURFACE('',#714,4.25);
#17=CYLINDRICAL_SURFACE('',#715,4.25);
#18=CYLINDRICAL_SURFACE('',#716,4.25);
#19=CYLINDRICAL_SURFACE('',#717,4.25);
#20=CYLINDRICAL_SURFACE('',#718,4.25);
#21=CYLINDRICAL_SURFACE('',#719,4.25);
#22=CYLINDRICAL_SURFACE('',#720,4.25);
#23=CYLINDRICAL_SURFACE('',#721,4.25);
#24=CYLINDRICAL_SURFACE('',#722,4.25);
#25=CYLINDRICAL_SURFACE('',#723,4.25);
#26=CYLINDRICAL_SURFACE('',#724,4.25);
#27=CYLINDRICAL_SURFACE('',#725,4.25);
#28=CYLINDRICAL_SURFACE('',#726,4.25);
#29=CYLINDRICAL_SURFACE('',#727,4.25);
#30=CYLINDRICAL_SURFACE('',#728,4.25);
#31=CYLINDRICAL_SURFACE('',#729,380.);
#32=FACE_BOUND('',#143,.T.);
#33=FACE_BOUND('',#144,.T.);
#34=FACE_BOUND('',#145,.T.);
#35=FACE_BOUND('',#146,.T.);
#36=FACE_BOUND('',#147,.T.);
#37=FACE_BOUND('',#148,.T.);
#38=FACE_BOUND('',#149,.T.);
#39=FACE_BOUND('',#150,.T.);
#40=FACE_BOUND('',#151,.T.);
#41=FACE_BOUND('',#152,.T.);
#42=FACE_BOUND('',#153,.T.);
#43=FACE_BOUND('',#154,.T.);
#44=FACE_BOUND('',#155,.T.);
#45=FACE_BOUND('',#156,.T.);
#46=FACE_BOUND('',#157,.T.);
#47=FACE_BOUND('',#160,.T.);
#48=FACE_BOUND('',#161,.T.);
#49=FACE_BOUND('',#162,.T.);
#50=FACE_BOUND('',#163,.T.);
#51=FACE_BOUND('',#164,.T.);
#52=FACE_BOUND('',#165,.T.);
#53=FACE_BOUND('',#166,.T.);
#54=FACE_BOUND('',#167,.T.);
#55=FACE_BOUND('',#168,.T.);
#56=FACE_BOUND('',#169,.T.);
#57=FACE_BOUND('',#170,.T.);
#58=FACE_BOUND('',#171,.T.);
#59=FACE_BOUND('',#172,.T.);
#60=FACE_BOUND('',#173,.T.);
#61=FACE_BOUND('',#174,.T.);
#62=B_SPLINE_CURVE_WITH_KNOTS('',3,(#961,#962,#963,#964,#965,#966,#967,
#968,#969,#970,#971,#972,#973,#974,#975,#976,#977,#978,#979,#980),
 .UNSPECIFIED.,.F.,.F.,(4,2,2,2,2,2,2,2,2,4),(-103.942451377215,-97.0795203874266,
-90.2165893976382,-77.3285051979756,-64.440420998313,-51.5523367986504,
-38.6642525989878,-25.7761683993252,-12.8880841996626,0.),.UNSPECIFIED.);
#63=B_SPLINE_CURVE_WITH_KNOTS('',3,(#1067,#1068,#1069,#1070,#1071,#1072,
#1073,#1074),.UNSPECIFIED.,.F.,.F.,(4,2,2,4),(-9.34246334980525,-6.49640587521205,
-3.9164560443783,0.),.UNSPECIFIED.);
#64=B_SPLINE_CURVE_WITH_KNOTS('',3,(#1077,#1078,#1079,#1080,#1081,#1082,
#1083,#1084),.UNSPECIFIED.,.F.,.F.,(4,2,2,4),(-9.42922236635003,-6.67378946643841,
-3.9541555600354,-0.0853957492962969),.UNSPECIFIED.);
#65=B_SPLINE_CURVE_WITH_KNOTS('',3,(#1121,#1122,#1123,#1124,#1125,#1126,
#1127,#1128,#1129,#1130,#1131,#1132,#1133,#1134,#1135,#1136,#1137,#1138,
#1139,#1140),.UNSPECIFIED.,.F.,.F.,(4,2,2,2,2,2,2,2,2,4),(-33.3402417038958,
-30.6543773334099,-27.7344168900325,-23.9540706759146,-20.0895314508075,
-16.1414915608682,-12.1431148731178,-8.12048497307643,-4.07809849727713,
0.),.UNSPECIFIED.);
#66=B_SPLINE_CURVE_WITH_KNOTS('',3,(#1159,#1160,#1161,#1162,#1163,#1164,
#1165,#1166,#1167,#1168),.UNSPECIFIED.,.F.,.F.,(4,2,2,2,4),(-16.2007047704056,
-13.9037232505873,-10.2171981882616,-4.73268437003859,-4.17682640361376),
 .UNSPECIFIED.);
#67=CIRCLE('',#675,380.);
#68=CIRCLE('',#676,4.25);
#69=CIRCLE('',#677,4.25);
#70=CIRCLE('',#678,4.25);
#71=CIRCLE('',#679,4.25);
#72=CIRCLE('',#680,4.25);
#73=CIRCLE('',#681,4.25);
#74=CIRCLE('',#682,4.25);
#75=CIRCLE('',#683,4.25);
#76=CIRCLE('',#684,4.25);
#77=CIRCLE('',#685,4.25);
#78=CIRCLE('',#686,4.25);
#79=CIRCLE('',#687,4.25);
#80=CIRCLE('',#688,4.25);
#81=CIRCLE('',#689,4.25);
#82=CIRCLE('',#690,4.25);
#83=CIRCLE('',#691,4.25);
#84=CIRCLE('',#694,300.);
#85=CIRCLE('',#695,380.);
#86=CIRCLE('',#696,4.25);
#87=CIRCLE('',#697,4.25);
#88=CIRCLE('',#698,4.25);
#89=CIRCLE('',#699,4.25);
#90=CIRCLE('',#700,4.25);
#91=CIRCLE('',#701,4.25);
#92=CIRCLE('',#702,4.25);
#93=CIRCLE('',#703,4.25);
#94=CIRCLE('',#704,4.25);
#95=CIRCLE('',#705,4.25);
#96=CIRCLE('',#706,4.25);
#97=CIRCLE('',#707,4.25);
#98=CIRCLE('',#708,4.25);
#99=CIRCLE('',#709,4.25);
#100=CIRCLE('',#710,4.25);
#101=CIRCLE('',#711,4.25);
#102=(
BOUNDED_SURFACE()
B_SPLINE_SURFACE(1,2,((#938,#939,#940),(#941,#942,#943)),.UNSPECIFIED.,
 .F.,.F.,.F.)
B_SPLINE_SURFACE_WITH_KNOTS((2,2),(3,3),(-0.177777777777778,0.),(1.59302037841317,
2.68762734123457),.UNSPECIFIED.)
GEOMETRIC_REPRESENTATION_ITEM()
RATIONAL_B_SPLINE_SURFACE(((1.,0.853930856739052,1.),(1.,0.853930856739052,
1.)))
REPRESENTATION_ITEM('')
SURFACE()
);
#103=(
BOUNDED_SURFACE()
B_SPLINE_SURFACE(1,2,((#1013,#1014,#1015),(#1016,#1017,#1018)),
 .UNSPECIFIED.,.F.,.F.,.F.)
B_SPLINE_SURFACE_WITH_KNOTS((2,2),(3,3),(-0.19047619047619,0.),(1.5707963267949,
2.67908694178583),.UNSPECIFIED.)
GEOMETRIC_REPRESENTATION_ITEM()
RATIONAL_B_SPLINE_SURFACE(((1.,0.850350504278186,1.),(1.,0.850350504278186,
1.)))
REPRESENTATION_ITEM('')
SURFACE()
);
#104=(
BOUNDED_SURFACE()
B_SPLINE_SURFACE(2,2,((#1142,#1143,#1144,#1145,#1146),(#1147,#1148,#1149,
#1150,#1151),(#1152,#1153,#1154,#1155,#1156)),.UNSPECIFIED.,.F.,.F.,.F.)
B_SPLINE_SURFACE_WITH_KNOTS((3,3),(3,2,3),(3.14159265358979,4.71238898038469),
(0.,1.5707963267949,3.14159265358979),.UNSPECIFIED.)
GEOMETRIC_REPRESENTATION_ITEM()
RATIONAL_B_SPLINE_SURFACE(((1.,0.707106781186548,1.,0.707106781186548,1.),
(0.707106781186548,0.5,0.707106781186548,0.5,0.707106781186548),(1.,0.707106781186548,
1.,0.707106781186548,1.)))
REPRESENTATION_ITEM('')
SURFACE()
);
#105=(
BOUNDED_SURFACE()
B_SPLINE_SURFACE(1,2,((#1169,#1170,#1171),(#1172,#1173,#1174)),
 .UNSPECIFIED.,.F.,.F.,.F.)
B_SPLINE_SURFACE_WITH_KNOTS((2,2),(3,3),(-0.19047619047619,0.),(-2.92966323493415,
-1.5707963267949),.UNSPECIFIED.)
GEOMETRIC_REPRESENTATION_ITEM()
RATIONAL_B_SPLINE_SURFACE(((1.,0.777928834070253,1.),(1.,0.777928834070253,
1.)))
REPRESENTATION_ITEM('')
SURFACE()
);
#106=(
BOUNDED_SURFACE()
B_SPLINE_SURFACE(2,2,((#1176,#1177,#1178,#1179,#1180),(#1181,#1182,#1183,
#1184,#1185),(#1186,#1187,#1188,#1189,#1190)),.UNSPECIFIED.,.F.,.F.,.F.)
B_SPLINE_SURFACE_WITH_KNOTS((3,3),(3,2,3),(-1.5707963267949,1.22464679914735E-16),
(0.,1.5707963267949,3.14159265358979),.UNSPECIFIED.)
GEOMETRIC_REPRESENTATION_ITEM()
RATIONAL_B_SPLINE_SURFACE(((1.,0.707106781186548,1.,0.707106781186548,1.),
(0.707106781186548,0.5,0.707106781186548,0.5,0.707106781186548),(1.,0.707106781186548,
1.,0.707106781186548,1.)))
REPRESENTATION_ITEM('')
SURFACE()
);
#107=(
BOUNDED_SURFACE()
B_SPLINE_SURFACE(1,2,((#1192,#1193,#1194),(#1195,#1196,#1197)),
 .UNSPECIFIED.,.F.,.F.,.F.)
B_SPLINE_SURFACE_WITH_KNOTS((2,2),(3,3),(-0.177777777777778,0.),(-2.94481318595159,
-1.59302037841316),.UNSPECIFIED.)
GEOMETRIC_REPRESENTATION_ITEM()
RATIONAL_B_SPLINE_SURFACE(((1.,0.78014647723288,1.),(1.,0.78014647723288,
1.)))
REPRESENTATION_ITEM('')
SURFACE()
);
#108=FACE_OUTER_BOUND('',#139,.T.);
#109=FACE_OUTER_BOUND('',#140,.T.);
#110=FACE_OUTER_BOUND('',#141,.T.);
#111=FACE_OUTER_BOUND('',#142,.T.);
#112=FACE_OUTER_BOUND('',#158,.T.);
#113=FACE_OUTER_BOUND('',#159,.T.);
#114=FACE_OUTER_BOUND('',#175,.T.);
#115=FACE_OUTER_BOUND('',#176,.T.);
#116=FACE_OUTER_BOUND('',#177,.T.);
#117=FACE_OUTER_BOUND('',#178,.T.);
#118=FACE_OUTER_BOUND('',#179,.T.);
#119=FACE_OUTER_BOUND('',#180,.T.);
#120=FACE_OUTER_BOUND('',#181,.T.);
#121=FACE_OUTER_BOUND('',#182,.T.);
#122=FACE_OUTER_BOUND('',#183,.T.);
#123=FACE_OUTER_BOUND('',#184,.T.);
#124=FACE_OUTER_BOUND('',#185,.T.);
#125=FACE_OUTER_BOUND('',#186,.T.);
#126=FACE_OUTER_BOUND('',#187,.T.);
#127=FACE_OUTER_BOUND('',#188,.T.);
#128=FACE_OUTER_BOUND('',#189,.T.);
#129=FACE_OUTER_BOUND('',#190,.T.);
#130=FACE_OUTER_BOUND('',#191,.T.);
#131=FACE_OUTER_BOUND('',#192,.T.);
#132=FACE_OUTER_BOUND('',#193,.T.);
#133=FACE_OUTER_BOUND('',#194,.T.);
#134=FACE_OUTER_BOUND('',#195,.T.);
#135=FACE_OUTER_BOUND('',#196,.T.);
#136=FACE_OUTER_BOUND('',#197,.T.);
#137=FACE_OUTER_BOUND('',#198,.T.);
#138=FACE_OUTER_BOUND('',#199,.T.);
#139=EDGE_LOOP('',(#431,#432,#433,#434,#435,#436,#437,#438,#439,#440,#441,
#442));
#140=EDGE_LOOP('',(#443,#444,#445,#446));
#141=EDGE_LOOP('',(#447,#448,#449,#450));
#142=EDGE_LOOP('',(#451,#452,#453,#454,#455,#456,#457,#458));
#143=EDGE_LOOP('',(#459));
#144=EDGE_LOOP('',(#460));
#145=EDGE_LOOP('',(#461));
#146=EDGE_LOOP('',(#462));
#147=EDGE_LOOP('',(#463));
#148=EDGE_LOOP('',(#464));
#149=EDGE_LOOP('',(#465));
#150=EDGE_LOOP('',(#466));
#151=EDGE_LOOP('',(#467));
#152=EDGE_LOOP('',(#468));
#153=EDGE_LOOP('',(#469));
#154=EDGE_LOOP('',(#470));
#155=EDGE_LOOP('',(#471));
#156=EDGE_LOOP('',(#472));
#157=EDGE_LOOP('',(#473,#474));
#158=EDGE_LOOP('',(#475,#476,#477,#478));
#159=EDGE_LOOP('',(#479,#480,#481,#482,#483,#484,#485,#486));
#160=EDGE_LOOP('',(#487,#488));
#161=EDGE_LOOP('',(#489));
#162=EDGE_LOOP('',(#490));
#163=EDGE_LOOP('',(#491));
#164=EDGE_LOOP('',(#492));
#165=EDGE_LOOP('',(#493));
#166=EDGE_LOOP('',(#494));
#167=EDGE_LOOP('',(#495));
#168=EDGE_LOOP('',(#496));
#169=EDGE_LOOP('',(#497));
#170=EDGE_LOOP('',(#498));
#171=EDGE_LOOP('',(#499));
#172=EDGE_LOOP('',(#500));
#173=EDGE_LOOP('',(#501));
#174=EDGE_LOOP('',(#502));
#175=EDGE_LOOP('',(#503,#504,#505,#506,#507,#508));
#176=EDGE_LOOP('',(#509,#510,#511,#512));
#177=EDGE_LOOP('',(#513,#514,#515,#516));
#178=EDGE_LOOP('',(#517,#518,#519,#520));
#179=EDGE_LOOP('',(#521,#522,#523,#524));
#180=EDGE_LOOP('',(#525,#526,#527,#528));
#181=EDGE_LOOP('',(#529,#530,#531,#532));
#182=EDGE_LOOP('',(#533,#534,#535,#536));
#183=EDGE_LOOP('',(#537,#538,#539,#540));
#184=EDGE_LOOP('',(#541,#542,#543,#544));
#185=EDGE_LOOP('',(#545,#546,#547,#548));
#186=EDGE_LOOP('',(#549,#550,#551,#552));
#187=EDGE_LOOP('',(#553,#554,#555,#556));
#188=EDGE_LOOP('',(#557,#558,#559,#560));
#189=EDGE_LOOP('',(#561,#562,#563,#564));
#190=EDGE_LOOP('',(#565,#566,#567,#568));
#191=EDGE_LOOP('',(#569,#570,#571,#572));
#192=EDGE_LOOP('',(#573,#574,#575,#576));
#193=EDGE_LOOP('',(#577,#578,#579,#580));
#194=EDGE_LOOP('',(#581,#582,#583,#584));
#195=EDGE_LOOP('',(#585,#586));
#196=EDGE_LOOP('',(#587,#588,#589,#590));
#197=EDGE_LOOP('',(#591,#592,#593,#594,#595,#596));
#198=EDGE_LOOP('',(#597,#598,#599,#600));
#199=EDGE_LOOP('',(#601,#602,#603,#604));
#200=LINE('',#918,#239);
#201=LINE('',#922,#240);
#202=LINE('',#924,#241);
#203=LINE('',#926,#242);
#204=LINE('',#930,#243);
#205=LINE('',#934,#244);
#206=LINE('',#936,#245);
#207=LINE('',#937,#246);
#208=LINE('',#945,#247);
#209=LINE('',#948,#248);
#210=LINE('',#951,#249);
#211=LINE('',#953,#250);
#212=LINE('',#954,#251);
#213=LINE('',#958,#252);
#214=LINE('',#960,#253);
#215=LINE('',#1020,#254);
#216=LINE('',#1023,#255);
#217=LINE('',#1027,#256);
#218=LINE('',#1029,#257);
#219=LINE('',#1065,#258);
#220=LINE('',#1076,#259);
#221=LINE('',#1086,#260);
#222=LINE('',#1088,#261);
#223=LINE('',#1090,#262);
#224=LINE('',#1092,#263);
#225=LINE('',#1094,#264);
#226=LINE('',#1096,#265);
#227=LINE('',#1098,#266);
#228=LINE('',#1100,#267);
#229=LINE('',#1102,#268);
#230=LINE('',#1104,#269);
#231=LINE('',#1106,#270);
#232=LINE('',#1108,#271);
#233=LINE('',#1110,#272);
#234=LINE('',#1112,#273);
#235=LINE('',#1114,#274);
#236=LINE('',#1115,#275);
#237=LINE('',#1118,#276);
#238=LINE('',#1141,#277);
#239=VECTOR('',#741,10.);
#240=VECTOR('',#744,10.);
#241=VECTOR('',#745,10.);
#242=VECTOR('',#746,10.);
#243=VECTOR('',#749,10.);
#244=VECTOR('',#752,10.);
#245=VECTOR('',#753,10.);
#246=VECTOR('',#754,10.);
#247=VECTOR('',#755,10.);
#248=VECTOR('',#758,10.);
#249=VECTOR('',#761,10.);
#250=VECTOR('',#762,10.);
#251=VECTOR('',#763,10.);
#252=VECTOR('',#768,10.);
#253=VECTOR('',#769,10.);
#254=VECTOR('',#802,10.);
#255=VECTOR('',#805,10.);
#256=VECTOR('',#810,10.);
#257=VECTOR('',#811,10.);
#258=VECTOR('',#848,10.);
#259=VECTOR('',#849,10.);
#260=VECTOR('',#852,4.25);
#261=VECTOR('',#855,4.25);
#262=VECTOR('',#858,4.25);
#263=VECTOR('',#861,4.25);
#264=VECTOR('',#864,4.25);
#265=VECTOR('',#867,4.25);
#266=VECTOR('',#870,4.25);
#267=VECTOR('',#873,4.25);
#268=VECTOR('',#876,4.25);
#269=VECTOR('',#879,4.25);
#270=VECTOR('',#882,4.25);
#271=VECTOR('',#885,4.25);
#272=VECTOR('',#888,4.25);
#273=VECTOR('',#891,4.25);
#274=VECTOR('',#894,10.);
#275=VECTOR('',#895,10.);
#276=VECTOR('',#900,10.);
#277=VECTOR('',#903,10.);
#278=ELLIPSE('',#668,420.,300.);
#279=ELLIPSE('',#669,420.,300.);
#280=ELLIPSE('',#670,450.,330.);
#281=ELLIPSE('',#671,450.,330.);
#282=ELLIPSE('',#672,450.,330.);
#283=ELLIPSE('',#692,420.,300.);
#284=ELLIPSE('',#731,450.,330.);
#285=ELLIPSE('',#733,420.,300.);
#286=VERTEX_POINT('',#914);
#287=VERTEX_POINT('',#915);
#288=VERTEX_POINT('',#917);
#289=VERTEX_POINT('',#919);
#290=VERTEX_POINT('',#921);
#291=VERTEX_POINT('',#923);
#292=VERTEX_POINT('',#925);
#293=VERTEX_POINT('',#927);
#294=VERTEX_POINT('',#929);
#295=VERTEX_POINT('',#931);
#296=VERTEX_POINT('',#933);
#297=VERTEX_POINT('',#935);
#298=VERTEX_POINT('',#944);
#299=VERTEX_POINT('',#946);
#300=VERTEX_POINT('',#950);
#301=VERTEX_POINT('',#952);
#302=VERTEX_POINT('',#956);
#303=VERTEX_POINT('',#959);
#304=VERTEX_POINT('',#981);
#305=VERTEX_POINT('',#983);
#306=VERTEX_POINT('',#985);
#307=VERTEX_POINT('',#987);
#308=VERTEX_POINT('',#989);
#309=VERTEX_POINT('',#991);
#310=VERTEX_POINT('',#993);
#311=VERTEX_POINT('',#995);
#312=VERTEX_POINT('',#997);
#313=VERTEX_POINT('',#999);
#314=VERTEX_POINT('',#1001);
#315=VERTEX_POINT('',#1003);
#316=VERTEX_POINT('',#1005);
#317=VERTEX_POINT('',#1007);
#318=VERTEX_POINT('',#1009);
#319=VERTEX_POINT('',#1010);
#320=VERTEX_POINT('',#1019);
#321=VERTEX_POINT('',#1021);
#322=VERTEX_POINT('',#1025);
#323=VERTEX_POINT('',#1028);
#324=VERTEX_POINT('',#1031);
#325=VERTEX_POINT('',#1032);
#326=VERTEX_POINT('',#1035);
#327=VERTEX_POINT('',#1037);
#328=VERTEX_POINT('',#1039);
#329=VERTEX_POINT('',#1041);
#330=VERTEX_POINT('',#1043);
#331=VERTEX_POINT('',#1045);
#332=VERTEX_POINT('',#1047);
#333=VERTEX_POINT('',#1049);
#334=VERTEX_POINT('',#1051);
#335=VERTEX_POINT('',#1053);
#336=VERTEX_POINT('',#1055);
#337=VERTEX_POINT('',#1057);
#338=VERTEX_POINT('',#1059);
#339=VERTEX_POINT('',#1061);
#340=VERTEX_POINT('',#1064);
#341=VERTEX_POINT('',#1066);
#342=VERTEX_POINT('',#1075);
#343=VERTEX_POINT('',#1120);
#344=EDGE_CURVE('',#286,#287,#278,.T.);
#345=EDGE_CURVE('',#288,#286,#200,.T.);
#346=EDGE_CURVE('',#289,#288,#279,.T.);
#347=EDGE_CURVE('',#290,#289,#201,.T.);
#348=EDGE_CURVE('',#291,#290,#202,.T.);
#349=EDGE_CURVE('',#292,#291,#203,.T.);
#350=EDGE_CURVE('',#293,#292,#280,.T.);
#351=EDGE_CURVE('',#294,#293,#204,.T.);
#352=EDGE_CURVE('',#295,#294,#281,.T.);
#353=EDGE_CURVE('',#296,#295,#205,.T.);
#354=EDGE_CURVE('',#297,#296,#206,.T.);
#355=EDGE_CURVE('',#287,#297,#207,.T.);
#356=EDGE_CURVE('',#292,#298,#208,.T.);
#357=EDGE_CURVE('',#298,#299,#282,.T.);
#358=EDGE_CURVE('',#299,#293,#209,.T.);
#359=EDGE_CURVE('',#300,#290,#210,.T.);
#360=EDGE_CURVE('',#300,#301,#211,.T.);
#361=EDGE_CURVE('',#291,#301,#212,.T.);
#362=EDGE_CURVE('',#302,#301,#67,.T.);
#363=EDGE_CURVE('',#296,#302,#213,.T.);
#364=EDGE_CURVE('',#303,#295,#214,.T.);
#365=EDGE_CURVE('',#298,#303,#62,.T.);
#366=EDGE_CURVE('',#304,#304,#68,.T.);
#367=EDGE_CURVE('',#305,#305,#69,.T.);
#368=EDGE_CURVE('',#306,#306,#70,.T.);
#369=EDGE_CURVE('',#307,#307,#71,.T.);
#370=EDGE_CURVE('',#308,#308,#72,.T.);
#371=EDGE_CURVE('',#309,#309,#73,.T.);
#372=EDGE_CURVE('',#310,#310,#74,.T.);
#373=EDGE_CURVE('',#311,#311,#75,.T.);
#374=EDGE_CURVE('',#312,#312,#76,.T.);
#375=EDGE_CURVE('',#313,#313,#77,.T.);
#376=EDGE_CURVE('',#314,#314,#78,.T.);
#377=EDGE_CURVE('',#315,#315,#79,.T.);
#378=EDGE_CURVE('',#316,#316,#80,.T.);
#379=EDGE_CURVE('',#317,#317,#81,.T.);
#380=EDGE_CURVE('',#318,#319,#82,.T.);
#381=EDGE_CURVE('',#319,#318,#83,.T.);
#382=EDGE_CURVE('',#288,#320,#215,.T.);
#383=EDGE_CURVE('',#320,#321,#283,.T.);
#384=EDGE_CURVE('',#321,#289,#216,.T.);
#385=EDGE_CURVE('',#322,#321,#84,.T.);
#386=EDGE_CURVE('',#322,#287,#217,.T.);
#387=EDGE_CURVE('',#297,#323,#218,.T.);
#388=EDGE_CURVE('',#300,#323,#85,.T.);
#389=EDGE_CURVE('',#324,#325,#86,.T.);
#390=EDGE_CURVE('',#325,#324,#87,.T.);
#391=EDGE_CURVE('',#326,#326,#88,.T.);
#392=EDGE_CURVE('',#327,#327,#89,.T.);
#393=EDGE_CURVE('',#328,#328,#90,.T.);
#394=EDGE_CURVE('',#329,#329,#91,.T.);
#395=EDGE_CURVE('',#330,#330,#92,.T.);
#396=EDGE_CURVE('',#331,#331,#93,.T.);
#397=EDGE_CURVE('',#332,#332,#94,.T.);
#398=EDGE_CURVE('',#333,#333,#95,.T.);
#399=EDGE_CURVE('',#334,#334,#96,.T.);
#400=EDGE_CURVE('',#335,#335,#97,.T.);
#401=EDGE_CURVE('',#336,#336,#98,.T.);
#402=EDGE_CURVE('',#337,#337,#99,.T.);
#403=EDGE_CURVE('',#338,#338,#100,.T.);
#404=EDGE_CURVE('',#339,#339,#101,.T.);
#405=EDGE_CURVE('',#340,#286,#219,.T.);
#406=EDGE_CURVE('',#341,#340,#63,.T.);
#407=EDGE_CURVE('',#341,#342,#220,.T.);
#408=EDGE_CURVE('',#320,#342,#64,.T.);
#409=EDGE_CURVE('',#304,#339,#221,.T.);
#410=EDGE_CURVE('',#305,#338,#222,.T.);
#411=EDGE_CURVE('',#306,#337,#223,.T.);
#412=EDGE_CURVE('',#307,#336,#224,.T.);
#413=EDGE_CURVE('',#308,#335,#225,.T.);
#414=EDGE_CURVE('',#309,#334,#226,.T.);
#415=EDGE_CURVE('',#310,#333,#227,.T.);
#416=EDGE_CURVE('',#311,#332,#228,.T.);
#417=EDGE_CURVE('',#312,#331,#229,.T.);
#418=EDGE_CURVE('',#313,#330,#230,.T.);
#419=EDGE_CURVE('',#314,#329,#231,.T.);
#420=EDGE_CURVE('',#315,#328,#232,.T.);
#421=EDGE_CURVE('',#316,#327,#233,.T.);
#422=EDGE_CURVE('',#317,#326,#234,.T.);
#423=EDGE_CURVE('',#324,#319,#235,.T.);
#424=EDGE_CURVE('',#325,#318,#236,.T.);
#425=EDGE_CURVE('',#323,#302,#237,.T.);
#426=EDGE_CURVE('',#343,#299,#65,.T.);
#427=EDGE_CURVE('',#294,#343,#238,.T.);
#428=EDGE_CURVE('',#343,#303,#284,.T.);
#429=EDGE_CURVE('',#342,#341,#66,.T.);
#430=EDGE_CURVE('',#322,#340,#285,.T.);
#431=ORIENTED_EDGE('',*,*,#344,.F.);
#432=ORIENTED_EDGE('',*,*,#345,.F.);
#433=ORIENTED_EDGE('',*,*,#346,.F.);
#434=ORIENTED_EDGE('',*,*,#347,.F.);
#435=ORIENTED_EDGE('',*,*,#348,.F.);
#436=ORIENTED_EDGE('',*,*,#349,.F.);
#437=ORIENTED_EDGE('',*,*,#350,.F.);
#438=ORIENTED_EDGE('',*,*,#351,.F.);
#439=ORIENTED_EDGE('',*,*,#352,.F.);
#440=ORIENTED_EDGE('',*,*,#353,.F.);
#441=ORIENTED_EDGE('',*,*,#354,.F.);
#442=ORIENTED_EDGE('',*,*,#355,.F.);
#443=ORIENTED_EDGE('',*,*,#350,.T.);
#444=ORIENTED_EDGE('',*,*,#356,.T.);
#445=ORIENTED_EDGE('',*,*,#357,.T.);
#446=ORIENTED_EDGE('',*,*,#358,.T.);
#447=ORIENTED_EDGE('',*,*,#348,.T.);
#448=ORIENTED_EDGE('',*,*,#359,.F.);
#449=ORIENTED_EDGE('',*,*,#360,.T.);
#450=ORIENTED_EDGE('',*,*,#361,.F.);
#451=ORIENTED_EDGE('',*,*,#349,.T.);
#452=ORIENTED_EDGE('',*,*,#361,.T.);
#453=ORIENTED_EDGE('',*,*,#362,.F.);
#454=ORIENTED_EDGE('',*,*,#363,.F.);
#455=ORIENTED_EDGE('',*,*,#353,.T.);
#456=ORIENTED_EDGE('',*,*,#364,.F.);
#457=ORIENTED_EDGE('',*,*,#365,.F.);
#458=ORIENTED_EDGE('',*,*,#356,.F.);
#459=ORIENTED_EDGE('',*,*,#366,.F.);
#460=ORIENTED_EDGE('',*,*,#367,.F.);
#461=ORIENTED_EDGE('',*,*,#368,.F.);
#462=ORIENTED_EDGE('',*,*,#369,.F.);
#463=ORIENTED_EDGE('',*,*,#370,.F.);
#464=ORIENTED_EDGE('',*,*,#371,.F.);
#465=ORIENTED_EDGE('',*,*,#372,.F.);
#466=ORIENTED_EDGE('',*,*,#373,.F.);
#467=ORIENTED_EDGE('',*,*,#374,.F.);
#468=ORIENTED_EDGE('',*,*,#375,.F.);
#469=ORIENTED_EDGE('',*,*,#376,.F.);
#470=ORIENTED_EDGE('',*,*,#377,.F.);
#471=ORIENTED_EDGE('',*,*,#378,.F.);
#472=ORIENTED_EDGE('',*,*,#379,.F.);
#473=ORIENTED_EDGE('',*,*,#380,.F.);
#474=ORIENTED_EDGE('',*,*,#381,.F.);
#475=ORIENTED_EDGE('',*,*,#346,.T.);
#476=ORIENTED_EDGE('',*,*,#382,.T.);
#477=ORIENTED_EDGE('',*,*,#383,.T.);
#478=ORIENTED_EDGE('',*,*,#384,.T.);
#479=ORIENTED_EDGE('',*,*,#347,.T.);
#480=ORIENTED_EDGE('',*,*,#384,.F.);
#481=ORIENTED_EDGE('',*,*,#385,.F.);
#482=ORIENTED_EDGE('',*,*,#386,.T.);
#483=ORIENTED_EDGE('',*,*,#355,.T.);
#484=ORIENTED_EDGE('',*,*,#387,.T.);
#485=ORIENTED_EDGE('',*,*,#388,.F.);
#486=ORIENTED_EDGE('',*,*,#359,.T.);
#487=ORIENTED_EDGE('',*,*,#389,.F.);
#488=ORIENTED_EDGE('',*,*,#390,.F.);
#489=ORIENTED_EDGE('',*,*,#391,.F.);
#490=ORIENTED_EDGE('',*,*,#392,.F.);
#491=ORIENTED_EDGE('',*,*,#393,.F.);
#492=ORIENTED_EDGE('',*,*,#394,.F.);
#493=ORIENTED_EDGE('',*,*,#395,.F.);
#494=ORIENTED_EDGE('',*,*,#396,.F.);
#495=ORIENTED_EDGE('',*,*,#397,.F.);
#496=ORIENTED_EDGE('',*,*,#398,.F.);
#497=ORIENTED_EDGE('',*,*,#399,.F.);
#498=ORIENTED_EDGE('',*,*,#400,.F.);
#499=ORIENTED_EDGE('',*,*,#401,.F.);
#500=ORIENTED_EDGE('',*,*,#402,.F.);
#501=ORIENTED_EDGE('',*,*,#403,.F.);
#502=ORIENTED_EDGE('',*,*,#404,.F.);
#503=ORIENTED_EDGE('',*,*,#345,.T.);
#504=ORIENTED_EDGE('',*,*,#405,.F.);
#505=ORIENTED_EDGE('',*,*,#406,.F.);
#506=ORIENTED_EDGE('',*,*,#407,.T.);
#507=ORIENTED_EDGE('',*,*,#408,.F.);
#508=ORIENTED_EDGE('',*,*,#382,.F.);
#509=ORIENTED_EDGE('',*,*,#366,.T.);
#510=ORIENTED_EDGE('',*,*,#409,.T.);
#511=ORIENTED_EDGE('',*,*,#404,.T.);
#512=ORIENTED_EDGE('',*,*,#409,.F.);
#513=ORIENTED_EDGE('',*,*,#367,.T.);
#514=ORIENTED_EDGE('',*,*,#410,.T.);
#515=ORIENTED_EDGE('',*,*,#403,.T.);
#516=ORIENTED_EDGE('',*,*,#410,.F.);
#517=ORIENTED_EDGE('',*,*,#368,.T.);
#518=ORIENTED_EDGE('',*,*,#411,.T.);
#519=ORIENTED_EDGE('',*,*,#402,.T.);
#520=ORIENTED_EDGE('',*,*,#411,.F.);
#521=ORIENTED_EDGE('',*,*,#369,.T.);
#522=ORIENTED_EDGE('',*,*,#412,.T.);
#523=ORIENTED_EDGE('',*,*,#401,.T.);
#524=ORIENTED_EDGE('',*,*,#412,.F.);
#525=ORIENTED_EDGE('',*,*,#370,.T.);
#526=ORIENTED_EDGE('',*,*,#413,.T.);
#527=ORIENTED_EDGE('',*,*,#400,.T.);
#528=ORIENTED_EDGE('',*,*,#413,.F.);
#529=ORIENTED_EDGE('',*,*,#371,.T.);
#530=ORIENTED_EDGE('',*,*,#414,.T.);
#531=ORIENTED_EDGE('',*,*,#399,.T.);
#532=ORIENTED_EDGE('',*,*,#414,.F.);
#533=ORIENTED_EDGE('',*,*,#372,.T.);
#534=ORIENTED_EDGE('',*,*,#415,.T.);
#535=ORIENTED_EDGE('',*,*,#398,.T.);
#536=ORIENTED_EDGE('',*,*,#415,.F.);
#537=ORIENTED_EDGE('',*,*,#373,.T.);
#538=ORIENTED_EDGE('',*,*,#416,.T.);
#539=ORIENTED_EDGE('',*,*,#397,.T.);
#540=ORIENTED_EDGE('',*,*,#416,.F.);
#541=ORIENTED_EDGE('',*,*,#374,.T.);
#542=ORIENTED_EDGE('',*,*,#417,.T.);
#543=ORIENTED_EDGE('',*,*,#396,.T.);
#544=ORIENTED_EDGE('',*,*,#417,.F.);
#545=ORIENTED_EDGE('',*,*,#375,.T.);
#546=ORIENTED_EDGE('',*,*,#418,.T.);
#547=ORIENTED_EDGE('',*,*,#395,.T.);
#548=ORIENTED_EDGE('',*,*,#418,.F.);
#549=ORIENTED_EDGE('',*,*,#376,.T.);
#550=ORIENTED_EDGE('',*,*,#419,.T.);
#551=ORIENTED_EDGE('',*,*,#394,.T.);
#552=ORIENTED_EDGE('',*,*,#419,.F.);
#553=ORIENTED_EDGE('',*,*,#377,.T.);
#554=ORIENTED_EDGE('',*,*,#420,.T.);
#555=ORIENTED_EDGE('',*,*,#393,.T.);
#556=ORIENTED_EDGE('',*,*,#420,.F.);
#557=ORIENTED_EDGE('',*,*,#378,.T.);
#558=ORIENTED_EDGE('',*,*,#421,.T.);
#559=ORIENTED_EDGE('',*,*,#392,.T.);
#560=ORIENTED_EDGE('',*,*,#421,.F.);
#561=ORIENTED_EDGE('',*,*,#379,.T.);
#562=ORIENTED_EDGE('',*,*,#422,.T.);
#563=ORIENTED_EDGE('',*,*,#391,.T.);
#564=ORIENTED_EDGE('',*,*,#422,.F.);
#565=ORIENTED_EDGE('',*,*,#390,.T.);
#566=ORIENTED_EDGE('',*,*,#423,.T.);
#567=ORIENTED_EDGE('',*,*,#381,.T.);
#568=ORIENTED_EDGE('',*,*,#424,.F.);
#569=ORIENTED_EDGE('',*,*,#389,.T.);
#570=ORIENTED_EDGE('',*,*,#424,.T.);
#571=ORIENTED_EDGE('',*,*,#380,.T.);
#572=ORIENTED_EDGE('',*,*,#423,.F.);
#573=ORIENTED_EDGE('',*,*,#388,.T.);
#574=ORIENTED_EDGE('',*,*,#425,.T.);
#575=ORIENTED_EDGE('',*,*,#362,.T.);
#576=ORIENTED_EDGE('',*,*,#360,.F.);
#577=ORIENTED_EDGE('',*,*,#351,.T.);
#578=ORIENTED_EDGE('',*,*,#358,.F.);
#579=ORIENTED_EDGE('',*,*,#426,.F.);
#580=ORIENTED_EDGE('',*,*,#427,.F.);
#581=ORIENTED_EDGE('',*,*,#365,.T.);
#582=ORIENTED_EDGE('',*,*,#428,.F.);
#583=ORIENTED_EDGE('',*,*,#426,.T.);
#584=ORIENTED_EDGE('',*,*,#357,.F.);
#585=ORIENTED_EDGE('',*,*,#429,.F.);
#586=ORIENTED_EDGE('',*,*,#407,.F.);
#587=ORIENTED_EDGE('',*,*,#344,.T.);
#588=ORIENTED_EDGE('',*,*,#386,.F.);
#589=ORIENTED_EDGE('',*,*,#430,.T.);
#590=ORIENTED_EDGE('',*,*,#405,.T.);
#591=ORIENTED_EDGE('',*,*,#406,.T.);
#592=ORIENTED_EDGE('',*,*,#430,.F.);
#593=ORIENTED_EDGE('',*,*,#385,.T.);
#594=ORIENTED_EDGE('',*,*,#383,.F.);
#595=ORIENTED_EDGE('',*,*,#408,.T.);
#596=ORIENTED_EDGE('',*,*,#429,.T.);
#597=ORIENTED_EDGE('',*,*,#354,.T.);
#598=ORIENTED_EDGE('',*,*,#363,.T.);
#599=ORIENTED_EDGE('',*,*,#425,.F.);
#600=ORIENTED_EDGE('',*,*,#387,.F.);
#601=ORIENTED_EDGE('',*,*,#352,.T.);
#602=ORIENTED_EDGE('',*,*,#427,.T.);
#603=ORIENTED_EDGE('',*,*,#428,.T.);
#604=ORIENTED_EDGE('',*,*,#364,.T.);
#605=PLANE('',#667);
#606=PLANE('',#673);
#607=PLANE('',#674);
#608=PLANE('',#693);
#609=PLANE('',#712);
#610=PLANE('',#730);
#611=PLANE('',#732);
#612=PLANE('',#734);
#613=ADVANCED_FACE('',(#108),#605,.F.);
#614=ADVANCED_FACE('',(#109),#102,.F.);
#615=ADVANCED_FACE('',(#110),#606,.T.);
#616=ADVANCED_FACE('',(#111,#32,#33,#34,#35,#36,#37,#38,#39,#40,#41,#42,
#43,#44,#45,#46),#607,.F.);
#617=ADVANCED_FACE('',(#112),#103,.T.);
#618=ADVANCED_FACE('',(#113,#47,#48,#49,#50,#51,#52,#53,#54,#55,#56,#57,
#58,#59,#60,#61),#608,.T.);
#619=ADVANCED_FACE('',(#114),#609,.T.);
#620=ADVANCED_FACE('',(#115),#15,.F.);
#621=ADVANCED_FACE('',(#116),#16,.F.);
#622=ADVANCED_FACE('',(#117),#17,.F.);
#623=ADVANCED_FACE('',(#118),#18,.F.);
#624=ADVANCED_FACE('',(#119),#19,.F.);
#625=ADVANCED_FACE('',(#120),#20,.F.);
#626=ADVANCED_FACE('',(#121),#21,.F.);
#627=ADVANCED_FACE('',(#122),#22,.F.);
#628=ADVANCED_FACE('',(#123),#23,.F.);
#629=ADVANCED_FACE('',(#124),#24,.F.);
#630=ADVANCED_FACE('',(#125),#25,.F.);
#631=ADVANCED_FACE('',(#126),#26,.F.);
#632=ADVANCED_FACE('',(#127),#27,.F.);
#633=ADVANCED_FACE('',(#128),#28,.F.);
#634=ADVANCED_FACE('',(#129),#29,.F.);
#635=ADVANCED_FACE('',(#130),#30,.F.);
#636=ADVANCED_FACE('',(#131),#31,.T.);
#637=ADVANCED_FACE('',(#132),#610,.F.);
#638=ADVANCED_FACE('',(#133),#104,.F.);
#639=ADVANCED_FACE('',(#134),#611,.T.);
#640=ADVANCED_FACE('',(#135),#105,.T.);
#641=ADVANCED_FACE('',(#136),#106,.F.);
#642=ADVANCED_FACE('',(#137),#612,.T.);
#643=ADVANCED_FACE('',(#138),#107,.F.);
#644=CLOSED_SHELL('',(#613,#614,#615,#616,#617,#618,#619,#620,#621,#622,
#623,#624,#625,#626,#627,#628,#629,#630,#631,#632,#633,#634,#635,#636,#637,
#638,#639,#640,#641,#642,#643));
#645=DERIVED_UNIT_ELEMENT(#648,1.);
#646=DERIVED_UNIT_ELEMENT(#1203,-3.);
#647=DIMENSIONAL_EXPONENTS(1.,0.,0.,0.,0.,0.,0.);
#648=(
CONVERSION_BASED_UNIT('gram',#650)
MASS_UNIT()
NAMED_UNIT(#647)
);
#649=(
MASS_UNIT()
NAMED_UNIT(*)
SI_UNIT(.KILO.,.GRAM.)
);
#650=MASS_MEASURE_WITH_UNIT(MASS_MEASURE(0.001),#649);
#651=DERIVED_UNIT((#645,#646));
#652=MEASURE_REPRESENTATION_ITEM('density measure',
POSITIVE_RATIO_MEASURE(1.),#651);
#653=PROPERTY_DEFINITION_REPRESENTATION(#658,#655);
#654=PROPERTY_DEFINITION_REPRESENTATION(#659,#656);
#655=REPRESENTATION('material name',(#657),#1200);
#656=REPRESENTATION('density',(#652),#1200);
#657=DESCRIPTIVE_REPRESENTATION_ITEM('Generic','Generic');
#658=PROPERTY_DEFINITION('material property','material name',#1210);
#659=PROPERTY_DEFINITION('material property','density of part',#1210);
#660=DATE_TIME_ROLE('creation_date');
#661=APPLIED_DATE_AND_TIME_ASSIGNMENT(#662,#660,(#1210));
#662=DATE_AND_TIME(#663,#664);
#663=CALENDAR_DATE(2026,19,3);
#664=LOCAL_TIME(0,0,0.,#665);
#665=COORDINATED_UNIVERSAL_TIME_OFFSET(0,0,.BEHIND.);
#666=AXIS2_PLACEMENT_3D('placement',#912,#735,#736);
#667=AXIS2_PLACEMENT_3D('',#913,#737,#738);
#668=AXIS2_PLACEMENT_3D('',#916,#739,#740);
#669=AXIS2_PLACEMENT_3D('',#920,#742,#743);
#670=AXIS2_PLACEMENT_3D('',#928,#747,#748);
#671=AXIS2_PLACEMENT_3D('',#932,#750,#751);
#672=AXIS2_PLACEMENT_3D('',#947,#756,#757);
#673=AXIS2_PLACEMENT_3D('',#949,#759,#760);
#674=AXIS2_PLACEMENT_3D('',#955,#764,#765);
#675=AXIS2_PLACEMENT_3D('',#957,#766,#767);
#676=AXIS2_PLACEMENT_3D('',#982,#770,#771);
#677=AXIS2_PLACEMENT_3D('',#984,#772,#773);
#678=AXIS2_PLACEMENT_3D('',#986,#774,#775);
#679=AXIS2_PLACEMENT_3D('',#988,#776,#777);
#680=AXIS2_PLACEMENT_3D('',#990,#778,#779);
#681=AXIS2_PLACEMENT_3D('',#992,#780,#781);
#682=AXIS2_PLACEMENT_3D('',#994,#782,#783);
#683=AXIS2_PLACEMENT_3D('',#996,#784,#785);
#684=AXIS2_PLACEMENT_3D('',#998,#786,#787);
#685=AXIS2_PLACEMENT_3D('',#1000,#788,#789);
#686=AXIS2_PLACEMENT_3D('',#1002,#790,#791);
#687=AXIS2_PLACEMENT_3D('',#1004,#792,#793);
#688=AXIS2_PLACEMENT_3D('',#1006,#794,#795);
#689=AXIS2_PLACEMENT_3D('',#1008,#796,#797);
#690=AXIS2_PLACEMENT_3D('',#1011,#798,#799);
#691=AXIS2_PLACEMENT_3D('',#1012,#800,#801);
#692=AXIS2_PLACEMENT_3D('',#1022,#803,#804);
#693=AXIS2_PLACEMENT_3D('',#1024,#806,#807);
#694=AXIS2_PLACEMENT_3D('',#1026,#808,#809);
#695=AXIS2_PLACEMENT_3D('',#1030,#812,#813);
#696=AXIS2_PLACEMENT_3D('',#1033,#814,#815);
#697=AXIS2_PLACEMENT_3D('',#1034,#816,#817);
#698=AXIS2_PLACEMENT_3D('',#1036,#818,#819);
#699=AXIS2_PLACEMENT_3D('',#1038,#820,#821);
#700=AXIS2_PLACEMENT_3D('',#1040,#822,#823);
#701=AXIS2_PLACEMENT_3D('',#1042,#824,#825);
#702=AXIS2_PLACEMENT_3D('',#1044,#826,#827);
#703=AXIS2_PLACEMENT_3D('',#1046,#828,#829);
#704=AXIS2_PLACEMENT_3D('',#1048,#830,#831);
#705=AXIS2_PLACEMENT_3D('',#1050,#832,#833);
#706=AXIS2_PLACEMENT_3D('',#1052,#834,#835);
#707=AXIS2_PLACEMENT_3D('',#1054,#836,#837);
#708=AXIS2_PLACEMENT_3D('',#1056,#838,#839);
#709=AXIS2_PLACEMENT_3D('',#1058,#840,#841);
#710=AXIS2_PLACEMENT_3D('',#1060,#842,#843);
#711=AXIS2_PLACEMENT_3D('',#1062,#844,#845);
#712=AXIS2_PLACEMENT_3D('',#1063,#846,#847);
#713=AXIS2_PLACEMENT_3D('',#1085,#850,#851);
#714=AXIS2_PLACEMENT_3D('',#1087,#853,#854);
#715=AXIS2_PLACEMENT_3D('',#1089,#856,#857);
#716=AXIS2_PLACEMENT_3D('',#1091,#859,#860);
#717=AXIS2_PLACEMENT_3D('',#1093,#862,#863);
#718=AXIS2_PLACEMENT_3D('',#1095,#865,#866);
#719=AXIS2_PLACEMENT_3D('',#1097,#868,#869);
#720=AXIS2_PLACEMENT_3D('',#1099,#871,#872);
#721=AXIS2_PLACEMENT_3D('',#1101,#874,#875);
#722=AXIS2_PLACEMENT_3D('',#1103,#877,#878);
#723=AXIS2_PLACEMENT_3D('',#1105,#880,#881);
#724=AXIS2_PLACEMENT_3D('',#1107,#883,#884);
#725=AXIS2_PLACEMENT_3D('',#1109,#886,#887);
#726=AXIS2_PLACEMENT_3D('',#1111,#889,#890);
#727=AXIS2_PLACEMENT_3D('',#1113,#892,#893);
#728=AXIS2_PLACEMENT_3D('',#1116,#896,#897);
#729=AXIS2_PLACEMENT_3D('',#1117,#898,#899);
#730=AXIS2_PLACEMENT_3D('',#1119,#901,#902);
#731=AXIS2_PLACEMENT_3D('',#1157,#904,#905);
#732=AXIS2_PLACEMENT_3D('',#1158,#906,#907);
#733=AXIS2_PLACEMENT_3D('',#1175,#908,#909);
#734=AXIS2_PLACEMENT_3D('',#1191,#910,#911);
#735=DIRECTION('axis',(0.,0.,1.));
#736=DIRECTION('refdir',(1.,0.,0.));
#737=DIRECTION('center_axis',(0.,0.,-1.));
#738=DIRECTION('ref_axis',(-1.,0.,0.));
#739=DIRECTION('center_axis',(0.,0.,1.));
#740=DIRECTION('ref_axis',(-1.,0.,0.));
#741=DIRECTION('',(0.17364817766693,0.984807753012208,0.));
#742=DIRECTION('center_axis',(0.,0.,1.));
#743=DIRECTION('ref_axis',(-1.,0.,0.));
#744=DIRECTION('',(-1.22464679914735E-16,1.,0.));
#745=DIRECTION('',(-1.,0.,0.));
#746=DIRECTION('',(1.57661805436897E-15,-1.,0.));
#747=DIRECTION('center_axis',(0.,0.,-1.));
#748=DIRECTION('ref_axis',(-1.,0.,0.));
#749=DIRECTION('',(-0.17364817766693,-0.984807753012208,0.));
#750=DIRECTION('center_axis',(0.,0.,-1.));
#751=DIRECTION('ref_axis',(-1.,0.,0.));
#752=DIRECTION('',(1.57661805436897E-15,-1.,0.));
#753=DIRECTION('',(1.,0.,0.));
#754=DIRECTION('',(-1.22464679914735E-16,1.,0.));
#755=DIRECTION('',(0.,0.,-1.));
#756=DIRECTION('center_axis',(0.,0.,1.));
#757=DIRECTION('ref_axis',(-1.,0.,0.));
#758=DIRECTION('',(0.,0.,1.));
#759=DIRECTION('center_axis',(0.,-1.,0.));
#760=DIRECTION('ref_axis',(0.,0.,-1.));
#761=DIRECTION('',(0.,0.,1.));
#762=DIRECTION('',(1.,0.,0.));
#763=DIRECTION('',(0.,0.,-1.));
#764=DIRECTION('center_axis',(-1.,-1.57661805436897E-15,0.));
#765=DIRECTION('ref_axis',(0.,0.,1.));
#766=DIRECTION('center_axis',(-1.,-1.57661805436897E-15,0.));
#767=DIRECTION('ref_axis',(1.57661805436896E-15,-0.999999999999997,8.30632351672394E-8));
#768=DIRECTION('',(0.,0.,-1.));
#769=DIRECTION('',(0.,0.,1.));
#770=DIRECTION('center_axis',(1.,1.57661805436897E-15,0.));
#771=DIRECTION('ref_axis',(0.,0.,1.));
#772=DIRECTION('center_axis',(1.,1.57661805436897E-15,0.));
#773=DIRECTION('ref_axis',(0.,0.,1.));
#774=DIRECTION('center_axis',(1.,1.57661805436897E-15,0.));
#775=DIRECTION('ref_axis',(0.,0.,1.));
#776=DIRECTION('center_axis',(1.,1.57661805436897E-15,0.));
#777=DIRECTION('ref_axis',(0.,0.,1.));
#778=DIRECTION('center_axis',(1.,1.57661805436897E-15,0.));
#779=DIRECTION('ref_axis',(0.,0.,1.));
#780=DIRECTION('center_axis',(1.,1.57661805436897E-15,0.));
#781=DIRECTION('ref_axis',(0.,0.,1.));
#782=DIRECTION('center_axis',(1.,1.57661805436897E-15,0.));
#783=DIRECTION('ref_axis',(0.,0.,1.));
#784=DIRECTION('center_axis',(1.,1.57661805436897E-15,0.));
#785=DIRECTION('ref_axis',(0.,0.,1.));
#786=DIRECTION('center_axis',(1.,1.57661805436897E-15,0.));
#787=DIRECTION('ref_axis',(0.,0.,1.));
#788=DIRECTION('center_axis',(1.,1.57661805436897E-15,0.));
#789=DIRECTION('ref_axis',(0.,0.,1.));
#790=DIRECTION('center_axis',(1.,1.57661805436897E-15,0.));
#791=DIRECTION('ref_axis',(0.,0.,1.));
#792=DIRECTION('center_axis',(1.,1.57661805436897E-15,0.));
#793=DIRECTION('ref_axis',(0.,0.,1.));
#794=DIRECTION('center_axis',(1.,1.57661805436897E-15,0.));
#795=DIRECTION('ref_axis',(0.,0.,1.));
#796=DIRECTION('center_axis',(1.,1.57661805436897E-15,0.));
#797=DIRECTION('ref_axis',(0.,0.,1.));
#798=DIRECTION('center_axis',(1.,1.57661805436897E-15,0.));
#799=DIRECTION('ref_axis',(0.,0.,1.));
#800=DIRECTION('center_axis',(1.,1.57661805436897E-15,0.));
#801=DIRECTION('ref_axis',(0.,0.,1.));
#802=DIRECTION('',(0.,0.,-1.));
#803=DIRECTION('center_axis',(0.,0.,-1.));
#804=DIRECTION('ref_axis',(-1.,0.,0.));
#805=DIRECTION('',(0.,0.,1.));
#806=DIRECTION('center_axis',(-1.,-1.22464679914735E-16,0.));
#807=DIRECTION('ref_axis',(1.22464679914735E-16,-1.,0.));
#808=DIRECTION('center_axis',(-1.,1.22464679914735E-17,1.22464679914735E-17));
#809=DIRECTION('ref_axis',(1.22464679914735E-17,1.,1.1842378929335E-16));
#810=DIRECTION('',(0.,0.,1.));
#811=DIRECTION('',(0.,0.,-1.));
#812=DIRECTION('center_axis',(1.,1.57661805436897E-15,0.));
#813=DIRECTION('ref_axis',(1.57661805436896E-15,-0.999999999999997,8.30632351672394E-8));
#814=DIRECTION('center_axis',(-1.,-1.57661805436897E-15,0.));
#815=DIRECTION('ref_axis',(0.,0.,1.));
#816=DIRECTION('center_axis',(-1.,-1.57661805436897E-15,0.));
#817=DIRECTION('ref_axis',(0.,0.,1.));
#818=DIRECTION('center_axis',(-1.,-1.57661805436897E-15,0.));
#819=DIRECTION('ref_axis',(0.,0.,1.));
#820=DIRECTION('center_axis',(-1.,-1.57661805436897E-15,0.));
#821=DIRECTION('ref_axis',(0.,0.,1.));
#822=DIRECTION('center_axis',(-1.,-1.57661805436897E-15,0.));
#823=DIRECTION('ref_axis',(0.,0.,1.));
#824=DIRECTION('center_axis',(-1.,-1.57661805436897E-15,0.));
#825=DIRECTION('ref_axis',(0.,0.,1.));
#826=DIRECTION('center_axis',(-1.,-1.57661805436897E-15,0.));
#827=DIRECTION('ref_axis',(0.,0.,1.));
#828=DIRECTION('center_axis',(-1.,-1.57661805436897E-15,0.));
#829=DIRECTION('ref_axis',(0.,0.,1.));
#830=DIRECTION('center_axis',(-1.,-1.57661805436897E-15,0.));
#831=DIRECTION('ref_axis',(0.,0.,1.));
#832=DIRECTION('center_axis',(-1.,-1.57661805436897E-15,0.));
#833=DIRECTION('ref_axis',(0.,0.,1.));
#834=DIRECTION('center_axis',(-1.,-1.57661805436897E-15,0.));
#835=DIRECTION('ref_axis',(0.,0.,1.));
#836=DIRECTION('center_axis',(-1.,-1.57661805436897E-15,0.));
#837=DIRECTION('ref_axis',(0.,0.,1.));
#838=DIRECTION('center_axis',(-1.,-1.57661805436897E-15,0.));
#839=DIRECTION('ref_axis',(0.,0.,1.));
#840=DIRECTION('center_axis',(-1.,-1.57661805436897E-15,0.));
#841=DIRECTION('ref_axis',(0.,0.,1.));
#842=DIRECTION('center_axis',(-1.,-1.57661805436897E-15,0.));
#843=DIRECTION('ref_axis',(0.,0.,1.));
#844=DIRECTION('center_axis',(-1.,-1.57661805436897E-15,0.));
#845=DIRECTION('ref_axis',(0.,0.,1.));
#846=DIRECTION('center_axis',(-0.984807753012208,0.17364817766693,0.));
#847=DIRECTION('ref_axis',(-0.17364817766693,-0.984807753012208,0.));
#848=DIRECTION('',(0.,0.,1.));
#849=DIRECTION('',(-0.17364817766693,-0.984807753012208,0.));
#850=DIRECTION('center_axis',(-1.,0.,0.));
#851=DIRECTION('ref_axis',(0.,0.,1.));
#852=DIRECTION('',(-1.,0.,0.));
#853=DIRECTION('center_axis',(-1.,0.,0.));
#854=DIRECTION('ref_axis',(0.,0.,1.));
#855=DIRECTION('',(-1.,0.,0.));
#856=DIRECTION('center_axis',(-1.,0.,0.));
#857=DIRECTION('ref_axis',(0.,0.,1.));
#858=DIRECTION('',(-1.,0.,0.));
#859=DIRECTION('center_axis',(-1.,0.,0.));
#860=DIRECTION('ref_axis',(0.,0.,1.));
#861=DIRECTION('',(-1.,0.,0.));
#862=DIRECTION('center_axis',(-1.,0.,0.));
#863=DIRECTION('ref_axis',(0.,0.,1.));
#864=DIRECTION('',(-1.,0.,0.));
#865=DIRECTION('center_axis',(-1.,0.,0.));
#866=DIRECTION('ref_axis',(0.,0.,1.));
#867=DIRECTION('',(-1.,0.,0.));
#868=DIRECTION('center_axis',(-1.,0.,0.));
#869=DIRECTION('ref_axis',(0.,0.,1.));
#870=DIRECTION('',(-1.,0.,0.));
#871=DIRECTION('center_axis',(-1.,0.,0.));
#872=DIRECTION('ref_axis',(0.,0.,1.));
#873=DIRECTION('',(-1.,0.,0.));
#874=DIRECTION('center_axis',(-1.,0.,0.));
#875=DIRECTION('ref_axis',(0.,0.,1.));
#876=DIRECTION('',(-1.,0.,0.));
#877=DIRECTION('center_axis',(-1.,0.,0.));
#878=DIRECTION('ref_axis',(0.,0.,1.));
#879=DIRECTION('',(-1.,0.,0.));
#880=DIRECTION('center_axis',(-1.,0.,0.));
#881=DIRECTION('ref_axis',(0.,0.,1.));
#882=DIRECTION('',(-1.,0.,0.));
#883=DIRECTION('center_axis',(-1.,0.,0.));
#884=DIRECTION('ref_axis',(0.,0.,1.));
#885=DIRECTION('',(-1.,0.,0.));
#886=DIRECTION('center_axis',(-1.,0.,0.));
#887=DIRECTION('ref_axis',(0.,0.,1.));
#888=DIRECTION('',(-1.,0.,0.));
#889=DIRECTION('center_axis',(-1.,0.,0.));
#890=DIRECTION('ref_axis',(0.,0.,1.));
#891=DIRECTION('',(-1.,0.,0.));
#892=DIRECTION('center_axis',(-1.,0.,0.));
#893=DIRECTION('ref_axis',(0.,0.,1.));
#894=DIRECTION('',(1.,0.,0.));
#895=DIRECTION('',(1.,0.,0.));
#896=DIRECTION('center_axis',(-1.,0.,0.));
#897=DIRECTION('ref_axis',(0.,0.,1.));
#898=DIRECTION('center_axis',(-1.,0.,0.));
#899=DIRECTION('ref_axis',(0.,-0.999999999999997,8.30632351672394E-8));
#900=DIRECTION('',(1.,0.,0.));
#901=DIRECTION('center_axis',(-0.984807753012208,0.17364817766693,0.));
#902=DIRECTION('ref_axis',(0.,0.,1.));
#903=DIRECTION('',(0.,0.,-1.));
#904=DIRECTION('center_axis',(0.,0.,1.));
#905=DIRECTION('ref_axis',(-1.,0.,0.));
#906=DIRECTION('center_axis',(0.,0.,-1.));
#907=DIRECTION('ref_axis',(-1.,0.,0.));
#908=DIRECTION('center_axis',(0.,0.,-1.));
#909=DIRECTION('ref_axis',(-1.,0.,0.));
#910=DIRECTION('center_axis',(0.,1.,0.));
#911=DIRECTION('ref_axis',(0.,0.,1.));
#912=CARTESIAN_POINT('',(0.,0.,0.));
#913=CARTESIAN_POINT('Origin',(270.112211162036,-74.555859113142,0.));
#914=CARTESIAN_POINT('',(410.603293009579,63.1039625267419,0.));
#915=CARTESIAN_POINT('',(7.34788079488412E-15,300.,0.));
#916=CARTESIAN_POINT('Origin',(0.,0.,0.));
#917=CARTESIAN_POINT('',(375.873657476193,-133.8575880757,0.));
#918=CARTESIAN_POINT('',(396.71452279042,-15.6631675140235,0.));
#919=CARTESIAN_POINT('',(-5.87830463590729E-14,-300.,0.));
#920=CARTESIAN_POINT('Origin',(0.,0.,0.));
#921=CARTESIAN_POINT('',(1.07944815776578E-12,-380.,0.));
#922=CARTESIAN_POINT('',(-7.105427357601E-14,-187.277929556571,0.));
#923=CARTESIAN_POINT('',(10.0000000000011,-380.,0.));
#924=CARTESIAN_POINT('',(135.056105581019,-380.,0.));
#925=CARTESIAN_POINT('',(10.000000000001,-329.918508456592,0.));
#926=CARTESIAN_POINT('',(10.0000000000005,-37.2779295565712,0.));
#927=CARTESIAN_POINT('',(404.421864072493,-144.715777517722,0.));
#928=CARTESIAN_POINT('Origin',(0.,0.,0.));
#929=CARTESIAN_POINT('',(441.315591843335,64.5189500469786,0.));
#930=CARTESIAN_POINT('',(416.075453877248,-78.6249855247349,0.));
#931=CARTESIAN_POINT('',(9.99999999999996,329.918508456592,0.));
#932=CARTESIAN_POINT('Origin',(0.,0.,0.));
#933=CARTESIAN_POINT('',(9.99999999999988,380.,0.));
#934=CARTESIAN_POINT('',(10.0000000000005,-37.2779295565712,0.));
#935=CARTESIAN_POINT('',(-1.18781563554633E-13,380.,0.));
#936=CARTESIAN_POINT('',(135.056105581018,380.,0.));
#937=CARTESIAN_POINT('',(-7.105427357601E-14,-187.277929556571,0.));
#938=CARTESIAN_POINT('Ctrl Pts',(10.000000000001,-329.918508456592,-80.));
#939=CARTESIAN_POINT('Ctrl Pts',(284.16281744237,-325.449566371372,-80.));
#940=CARTESIAN_POINT('Ctrl Pts',(404.421864072493,-144.715777517722,-80.));
#941=CARTESIAN_POINT('Ctrl Pts',(10.000000000001,-329.918508456592,0.));
#942=CARTESIAN_POINT('Ctrl Pts',(284.16281744237,-325.449566371372,0.));
#943=CARTESIAN_POINT('Ctrl Pts',(404.421864072493,-144.715777517722,0.));
#944=CARTESIAN_POINT('',(10.000000000001,-329.918508456592,-80.));
#945=CARTESIAN_POINT('',(10.000000000001,-329.918508456592,0.));
#946=CARTESIAN_POINT('',(404.421864072493,-144.715777517722,-80.));
#947=CARTESIAN_POINT('Origin',(0.,0.,-80.));
#948=CARTESIAN_POINT('',(404.421864072493,-144.715777517722,0.));
#949=CARTESIAN_POINT('Origin',(1.07944815776578E-12,-380.,79.9999684359707));
#950=CARTESIAN_POINT('',(1.07944815776578E-12,-380.,-79.9999684359707));
#951=CARTESIAN_POINT('',(1.07944815776578E-12,-380.,-50.));
#952=CARTESIAN_POINT('',(10.0000000000011,-380.,-79.9999684359707));
#953=CARTESIAN_POINT('',(1.07944815776578E-12,-380.,-79.9999684359707));
#954=CARTESIAN_POINT('',(10.0000000000011,-380.,-50.));
#955=CARTESIAN_POINT('Origin',(10.0000000000005,0.,230.));
#956=CARTESIAN_POINT('',(9.99999999999988,379.999999999998,-80.0000372264707));
#957=CARTESIAN_POINT('Origin',(10.0000000000005,0.,-80.0000000000001));
#958=CARTESIAN_POINT('',(9.99999999999988,380.,-80.0000317798306));
#959=CARTESIAN_POINT('',(9.99999999999996,329.918508456592,-80.));
#960=CARTESIAN_POINT('',(9.99999999999996,329.918508456592,0.));
#961=CARTESIAN_POINT('Ctrl Pts',(10.000000000001,-329.918508456592,-80.));
#962=CARTESIAN_POINT('Ctrl Pts',(10.000000000001,-329.918508456592,-102.876436632628));
#963=CARTESIAN_POINT('Ctrl Pts',(9.99999999999983,-327.539142008852,-125.690962206261));
#964=CARTESIAN_POINT('Ctrl Pts',(9.99999999999982,-318.098532273182,-170.459257905845));
#965=CARTESIAN_POINT('Ctrl Pts',(9.99999999999984,-311.062838337876,-192.29187050011));
#966=CARTESIAN_POINT('Ctrl Pts',(9.99999999999979,-284.478122382174,-252.522479181692));
#967=CARTESIAN_POINT('Ctrl Pts',(9.99999999999987,-259.620126726213,-288.060562663253));
#968=CARTESIAN_POINT('Ctrl Pts',(9.99999999999977,-197.681034444952,-347.607953091566));
#969=CARTESIAN_POINT('Ctrl Pts',(9.99999999999989,-161.192109301275,-371.047954529989));
#970=CARTESIAN_POINT('Ctrl Pts',(9.99999999999976,-81.2832053711453,-402.621835066501));
#971=CARTESIAN_POINT('Ctrl Pts',(9.99999999999989,-38.6271992599837,-410.453850657568));
#972=CARTESIAN_POINT('Ctrl Pts',(9.99999999999975,47.2859639007685,-409.326351139807));
#973=CARTESIAN_POINT('Ctrl Pts',(9.99999999999988,89.7217442842504,-400.377615540905));
#974=CARTESIAN_POINT('Ctrl Pts',(9.99999999999976,168.774536995357,-366.717567649921));
#975=CARTESIAN_POINT('Ctrl Pts',(9.99999999999987,204.635761537563,-342.328063761821));
#976=CARTESIAN_POINT('Ctrl Pts',(9.99999999999977,264.990825401261,-281.175720180748));
#977=CARTESIAN_POINT('Ctrl Pts',(9.99999999999985,288.907637416165,-244.997530223014));
#978=CARTESIAN_POINT('Ctrl Pts',(9.9999999999998,321.527410348019,-165.509837632759));
#979=CARTESIAN_POINT('Ctrl Pts',(9.99999999999981,329.918508456592,-122.960280665542));
#980=CARTESIAN_POINT('Ctrl Pts',(9.99999999999981,329.918508456592,-80.));
#981=CARTESIAN_POINT('',(10.0000000000004,78.9949006766429,-430.349415872215));
#982=CARTESIAN_POINT('Origin',(10.0000000000004,78.9949006766429,-426.099415872215));
#983=CARTESIAN_POINT('',(10.0000000000002,154.02869885131,-404.093961847294));
#984=CARTESIAN_POINT('Origin',(10.0000000000002,154.02869885131,-399.843961847294));
#985=CARTESIAN_POINT('',(10.0000000000001,221.338854897738,-361.800196023276));
#986=CARTESIAN_POINT('Origin',(10.0000000000001,221.338854897738,-357.550196023276));
#987=CARTESIAN_POINT('',(10.,277.550156529025,-305.588904421962));
#988=CARTESIAN_POINT('Origin',(10.,277.550156529025,-301.338904421962));
#989=CARTESIAN_POINT('',(9.99999999999998,319.843934363423,-238.278755922156));
#990=CARTESIAN_POINT('Origin',(9.99999999999998,319.843934363423,-234.028755922156));
#991=CARTESIAN_POINT('',(9.99999999999993,346.09940177688,-163.24496243234));
#992=CARTESIAN_POINT('Origin',(9.99999999999993,346.09940177688,-158.99496243234));
#993=CARTESIAN_POINT('',(9.99999999999992,355.,-84.2500316719301));
#994=CARTESIAN_POINT('Origin',(9.99999999999992,355.,-80.0000316719301));
#995=CARTESIAN_POINT('',(10.000000000001,-355.,-84.2500316719301));
#996=CARTESIAN_POINT('Origin',(10.000000000001,-355.,-80.0000316719301));
#997=CARTESIAN_POINT('',(10.000000000001,-346.09940177688,-163.24496243234));
#998=CARTESIAN_POINT('Origin',(10.000000000001,-346.09940177688,-158.99496243234));
#999=CARTESIAN_POINT('',(10.0000000000009,-277.550156529025,-305.588904421962));
#1000=CARTESIAN_POINT('Origin',(10.0000000000009,-277.550156529025,-301.338904421962));
#1001=CARTESIAN_POINT('',(10.0000000000008,-221.338854897738,-361.800196023276));
#1002=CARTESIAN_POINT('Origin',(10.0000000000008,-221.338854897738,-357.550196023276));
#1003=CARTESIAN_POINT('',(10.000000000001,-319.843934363423,-238.278755922156));
#1004=CARTESIAN_POINT('Origin',(10.000000000001,-319.843934363423,-234.028755922156));
#1005=CARTESIAN_POINT('',(10.0000000000006,-78.9949006766429,-430.349415872215));
#1006=CARTESIAN_POINT('Origin',(10.0000000000006,-78.9949006766429,-426.099415872215));
#1007=CARTESIAN_POINT('',(10.0000000000007,-154.02869885131,-404.093961847294));
#1008=CARTESIAN_POINT('Origin',(10.0000000000007,-154.02869885131,-399.843961847294));
#1009=CARTESIAN_POINT('',(10.0000000000005,-6.7303389528206E-8,-439.249999999883));
#1010=CARTESIAN_POINT('',(10.0000000000005,-6.7303389528206E-8,-430.750000000118));
#1011=CARTESIAN_POINT('Origin',(10.0000000000005,-3.16719299320312E-5,-435.));
#1012=CARTESIAN_POINT('Origin',(10.0000000000005,3.16719299320312E-5,-435.));
#1013=CARTESIAN_POINT('Ctrl Pts',(0.,-300.,-80.));
#1014=CARTESIAN_POINT('Ctrl Pts',(259.905785543581,-300.,-80.));
#1015=CARTESIAN_POINT('Ctrl Pts',(375.873657476193,-133.857588075699,-80.));
#1016=CARTESIAN_POINT('Ctrl Pts',(0.,-300.,0.));
#1017=CARTESIAN_POINT('Ctrl Pts',(259.905785543581,-300.,0.));
#1018=CARTESIAN_POINT('Ctrl Pts',(375.873657476193,-133.857588075699,0.));
#1019=CARTESIAN_POINT('',(375.873657476193,-133.8575880757,-79.9999999999926));
#1020=CARTESIAN_POINT('',(375.873657476193,-133.8575880757,0.));
#1021=CARTESIAN_POINT('',(-5.87830463590729E-14,-300.,-80.));
#1022=CARTESIAN_POINT('Origin',(0.,0.,-80.));
#1023=CARTESIAN_POINT('',(-5.87830463590729E-14,-300.,0.));
#1024=CARTESIAN_POINT('Origin',(-5.87830463590729E-14,-300.,0.));
#1025=CARTESIAN_POINT('',(7.34788079488412E-15,300.,-80.));
#1026=CARTESIAN_POINT('Origin',(3.67394039744206E-15,-4.62591713909782E-15,
-80.));
#1027=CARTESIAN_POINT('',(7.34788079488412E-15,300.,0.));
#1028=CARTESIAN_POINT('',(-1.1878156355463E-13,379.999999999998,-80.0000372264707));
#1029=CARTESIAN_POINT('',(-1.18781563554633E-13,380.,80.0000317798306));
#1030=CARTESIAN_POINT('Origin',(4.80333297105574E-13,0.,-80.0000000000001));
#1031=CARTESIAN_POINT('',(4.80333297211686E-13,-6.7303389528206E-8,-430.750000000118));
#1032=CARTESIAN_POINT('',(4.80333297211686E-13,-6.7303389528206E-8,-439.249999999883));
#1033=CARTESIAN_POINT('Origin',(4.8033334704011E-13,-3.16719299320312E-5,
-435.));
#1034=CARTESIAN_POINT('Origin',(4.80333247171037E-13,3.16719299320312E-5,
-435.));
#1035=CARTESIAN_POINT('',(7.2317772460551E-13,-154.02869885131,-404.093961847294));
#1036=CARTESIAN_POINT('Origin',(7.2317772460551E-13,-154.02869885131,-399.843961847294));
#1037=CARTESIAN_POINT('',(6.04878083715452E-13,-78.9949006766429,-430.349415872215));
#1038=CARTESIAN_POINT('Origin',(6.04878083715452E-13,-78.9949006766429,
-426.099415872215));
#1039=CARTESIAN_POINT('',(9.84605018603349E-13,-319.843934363423,-238.278755922156));
#1040=CARTESIAN_POINT('Origin',(9.84605018603349E-13,-319.843934363423,
-234.028755922156));
#1041=CARTESIAN_POINT('',(8.29300131870701E-13,-221.338854897738,-361.800196023276));
#1042=CARTESIAN_POINT('Origin',(8.29300131870701E-13,-221.338854897738,
-357.550196023276));
#1043=CARTESIAN_POINT('',(9.17923884882168E-13,-277.550156529025,-305.588904421962));
#1044=CARTESIAN_POINT('Origin',(9.17923884882168E-13,-277.550156529025,
-301.338904421962));
#1045=CARTESIAN_POINT('',(1.0259998625533E-12,-346.09940177688,-163.24496243234));
#1046=CARTESIAN_POINT('Origin',(1.0259998625533E-12,-346.09940177688,-158.99496243234));
#1047=CARTESIAN_POINT('',(1.04003270640656E-12,-355.,-84.2500316719301));
#1048=CARTESIAN_POINT('Origin',(1.04003270640656E-12,-355.,-80.0000316719301));
#1049=CARTESIAN_POINT('',(-7.93661121954091E-14,355.,-84.2500316719301));
#1050=CARTESIAN_POINT('Origin',(-7.93661121954091E-14,355.,-80.0000316719301));
#1051=CARTESIAN_POINT('',(-6.53332683421535E-14,346.09940177688,-163.24496243234));
#1052=CARTESIAN_POINT('Origin',(-6.53332683421535E-14,346.09940177688,-158.99496243234));
#1053=CARTESIAN_POINT('',(-2.39384243922019E-14,319.843934363423,-238.278755922156));
#1054=CARTESIAN_POINT('Origin',(-2.39384243922019E-14,319.843934363423,
-234.028755922156));
#1055=CARTESIAN_POINT('',(4.27427093289801E-14,277.550156529025,-305.588904421962));
#1056=CARTESIAN_POINT('Origin',(4.27427093289801E-14,277.550156529025,-301.338904421962));
#1057=CARTESIAN_POINT('',(1.31366462340447E-13,221.338854897738,-361.800196023276));
#1058=CARTESIAN_POINT('Origin',(1.31366462340447E-13,221.338854897738,-357.550196023276));
#1059=CARTESIAN_POINT('',(2.37488869605638E-13,154.02869885131,-404.093961847294));
#1060=CARTESIAN_POINT('Origin',(2.37488869605638E-13,154.02869885131,-399.843961847294));
#1061=CARTESIAN_POINT('',(3.55788510495695E-13,78.9949006766429,-430.349415872215));
#1062=CARTESIAN_POINT('Origin',(3.55788510495695E-13,78.9949006766429,-426.099415872215));
#1063=CARTESIAN_POINT('Origin',(410.603293009579,63.103962526742,0.));
#1064=CARTESIAN_POINT('',(410.603293009579,63.103962526742,-79.9999999999869));
#1065=CARTESIAN_POINT('',(410.603293009579,63.1039625267419,0.));
#1066=CARTESIAN_POINT('',(403.517597370703,22.9189856706405,-160.));
#1067=CARTESIAN_POINT('Ctrl Pts',(403.517597370703,22.9189856706405,-160.));
#1068=CARTESIAN_POINT('Ctrl Pts',(404.848554907114,30.4672209495734,-154.412368215304));
#1069=CARTESIAN_POINT('Ctrl Pts',(406.034861936107,37.1951024355666,-147.761354004834));
#1070=CARTESIAN_POINT('Ctrl Pts',(407.950115651311,48.0570460105584,-133.42506359909));
#1071=CARTESIAN_POINT('Ctrl Pts',(408.703122988233,52.3275628313393,-125.956878098353));
#1072=CARTESIAN_POINT('Ctrl Pts',(410.152744748197,60.5487763639407,-105.974897532801));
#1073=CARTESIAN_POINT('Ctrl Pts',(410.603293009579,63.1039625267419,-93.054853481261));
#1074=CARTESIAN_POINT('Ctrl Pts',(410.603293009579,63.1039625267419,-80.));
#1075=CARTESIAN_POINT('',(382.959353115069,-93.6726112195983,-160.));
#1076=CARTESIAN_POINT('',(375.873657476193,-133.8575880757,-160.));
#1077=CARTESIAN_POINT('Ctrl Pts',(375.873657476193,-133.8575880757,-80.));
#1078=CARTESIAN_POINT('Ctrl Pts',(375.873657476193,-133.8575880757,-89.1832512391083));
#1079=CARTESIAN_POINT('Ctrl Pts',(376.096608568365,-132.593169599511,-98.3196037814957));
#1080=CARTESIAN_POINT('Ctrl Pts',(376.969229612305,-127.644289737599,-115.861414433877));
#1081=CARTESIAN_POINT('Ctrl Pts',(377.609005324771,-124.015941371409,-124.18831558218));
#1082=CARTESIAN_POINT('Ctrl Pts',(379.613517470659,-112.647788081235,-142.867913778929));
#1083=CARTESIAN_POINT('Ctrl Pts',(381.150565768888,-103.930754011549,-152.406341005794));
#1084=CARTESIAN_POINT('Ctrl Pts',(382.959353115069,-93.6726112195982,-160.));
#1085=CARTESIAN_POINT('Origin',(3.55788510495695E-13,78.9949006766429,-426.099415872215));
#1086=CARTESIAN_POINT('',(3.55788510495695E-13,78.9949006766429,-430.349415872215));
#1087=CARTESIAN_POINT('Origin',(2.37488869605638E-13,154.02869885131,-399.843961847294));
#1088=CARTESIAN_POINT('',(2.37488869605638E-13,154.02869885131,-404.093961847294));
#1089=CARTESIAN_POINT('Origin',(1.31366462340447E-13,221.338854897738,-357.550196023276));
#1090=CARTESIAN_POINT('',(1.31366462340447E-13,221.338854897738,-361.800196023276));
#1091=CARTESIAN_POINT('Origin',(4.27427093289801E-14,277.550156529025,-301.338904421962));
#1092=CARTESIAN_POINT('',(4.27427093289801E-14,277.550156529025,-305.588904421962));
#1093=CARTESIAN_POINT('Origin',(-2.39384243922019E-14,319.843934363423,
-234.028755922156));
#1094=CARTESIAN_POINT('',(-2.39384243922019E-14,319.843934363423,-238.278755922156));
#1095=CARTESIAN_POINT('Origin',(-6.53332683421535E-14,346.09940177688,-158.99496243234));
#1096=CARTESIAN_POINT('',(-6.53332683421535E-14,346.09940177688,-163.24496243234));
#1097=CARTESIAN_POINT('Origin',(-7.93661121954091E-14,355.,-80.0000316719301));
#1098=CARTESIAN_POINT('',(-7.93661121954091E-14,355.,-84.2500316719301));
#1099=CARTESIAN_POINT('Origin',(1.04003270640656E-12,-355.,-80.0000316719301));
#1100=CARTESIAN_POINT('',(1.04003270640656E-12,-355.,-84.2500316719301));
#1101=CARTESIAN_POINT('Origin',(1.0259998625533E-12,-346.09940177688,-158.99496243234));
#1102=CARTESIAN_POINT('',(1.0259998625533E-12,-346.09940177688,-163.24496243234));
#1103=CARTESIAN_POINT('Origin',(9.17923884882168E-13,-277.550156529025,
-301.338904421962));
#1104=CARTESIAN_POINT('',(9.17923884882168E-13,-277.550156529025,-305.588904421962));
#1105=CARTESIAN_POINT('Origin',(8.29300131870701E-13,-221.338854897738,
-357.550196023276));
#1106=CARTESIAN_POINT('',(8.29300131870701E-13,-221.338854897738,-361.800196023276));
#1107=CARTESIAN_POINT('Origin',(9.84605018603349E-13,-319.843934363423,
-234.028755922156));
#1108=CARTESIAN_POINT('',(9.84605018603349E-13,-319.843934363423,-238.278755922156));
#1109=CARTESIAN_POINT('Origin',(6.04878083715452E-13,-78.9949006766429,
-426.099415872215));
#1110=CARTESIAN_POINT('',(6.04878083715452E-13,-78.9949006766429,-430.349415872215));
#1111=CARTESIAN_POINT('Origin',(7.2317772460551E-13,-154.02869885131,-399.843961847294));
#1112=CARTESIAN_POINT('',(7.2317772460551E-13,-154.02869885131,-404.093961847294));
#1113=CARTESIAN_POINT('Origin',(4.80333247171037E-13,3.16719299320312E-5,
-435.));
#1114=CARTESIAN_POINT('',(4.80333297211686E-13,-6.7303389528206E-8,-430.750000000118));
#1115=CARTESIAN_POINT('',(4.80333297211686E-13,-6.7303389528206E-8,-439.249999999883));
#1116=CARTESIAN_POINT('Origin',(4.8033334704011E-13,-3.16719299320312E-5,
-435.));
#1117=CARTESIAN_POINT('Origin',(4.80333297105574E-13,0.,-80.0000000000001));
#1118=CARTESIAN_POINT('',(-1.1878156355463E-13,379.999999999998,-80.0000372264707));
#1119=CARTESIAN_POINT('Origin',(419.780922592868,-57.6102281646729,80.));
#1120=CARTESIAN_POINT('',(441.315591843335,64.5189500469786,-80.));
#1121=CARTESIAN_POINT('Ctrl Pts',(441.315591843335,64.5189500469787,-80.));
#1122=CARTESIAN_POINT('Ctrl Pts',(441.315591843335,64.5189500469787,-88.9533697695262));
#1123=CARTESIAN_POINT('Ctrl Pts',(441.116261567085,63.3884918754282,-97.8683842982058));
#1124=CARTESIAN_POINT('Ctrl Pts',(440.29476639561,58.7295612445384,-115.946905526773));
#1125=CARTESIAN_POINT('Ctrl Pts',(439.64140039928,55.0241385477494,-124.973477191518));
#1126=CARTESIAN_POINT('Ctrl Pts',(437.669332030294,43.8399830596762,-144.20730840015));
#1127=CARTESIAN_POINT('Ctrl Pts',(436.227581556445,35.6634098089124,-153.820554597201));
#1128=CARTESIAN_POINT('Ctrl Pts',(432.788022816445,16.1567028592459,-169.860124544966));
#1129=CARTESIAN_POINT('Ctrl Pts',(430.807048030143,4.92203656856646,-176.078088256046));
#1130=CARTESIAN_POINT('Ctrl Pts',(426.511282628254,-19.440459656509,-184.235327874721));
#1131=CARTESIAN_POINT('Ctrl Pts',(424.225946241957,-32.4012463558269,-186.011465963589));
#1132=CARTESIAN_POINT('Ctrl Pts',(419.630779366146,-58.4617327167206,-184.69098940071));
#1133=CARTESIAN_POINT('Ctrl Pts',(417.359733228813,-71.3414753868915,-181.543087441342));
#1134=CARTESIAN_POINT('Ctrl Pts',(413.125519913871,-95.3548923803073,-170.560787642197));
#1135=CARTESIAN_POINT('Ctrl Pts',(411.201251664187,-106.267959930419,-162.793746411736));
#1136=CARTESIAN_POINT('Ctrl Pts',(407.95117359629,-124.700068589219,-143.49067946014));
#1137=CARTESIAN_POINT('Ctrl Pts',(406.658282894873,-132.032416109379,-132.11365272423));
#1138=CARTESIAN_POINT('Ctrl Pts',(404.881331655995,-142.110007364778,-107.052999617847));
#1139=CARTESIAN_POINT('Ctrl Pts',(404.421864072493,-144.715777517722,-93.5936616575905));
#1140=CARTESIAN_POINT('Ctrl Pts',(404.421864072493,-144.715777517722,-80.));
#1141=CARTESIAN_POINT('',(441.315591843335,64.5189500469786,0.));
#1142=CARTESIAN_POINT('Ctrl Pts',(450.,-4.04133443718627E-14,-80.));
#1143=CARTESIAN_POINT('Ctrl Pts',(450.,-4.04133443718626E-14,-80.));
#1144=CARTESIAN_POINT('Ctrl Pts',(450.,0.,-80.));
#1145=CARTESIAN_POINT('Ctrl Pts',(450.,4.04133443718626E-14,-80.));
#1146=CARTESIAN_POINT('Ctrl Pts',(450.,4.04133443718627E-14,-80.));
#1147=CARTESIAN_POINT('Ctrl Pts',(450.,330.,-80.));
#1148=CARTESIAN_POINT('Ctrl Pts',(450.,330.,-410.));
#1149=CARTESIAN_POINT('Ctrl Pts',(450.,0.,-410.));
#1150=CARTESIAN_POINT('Ctrl Pts',(450.,-330.,-410.));
#1151=CARTESIAN_POINT('Ctrl Pts',(450.,-330.,-80.));
#1152=CARTESIAN_POINT('Ctrl Pts',(8.26636589424463E-14,330.,-80.));
#1153=CARTESIAN_POINT('Ctrl Pts',(8.26636589424463E-14,330.,-410.));
#1154=CARTESIAN_POINT('Ctrl Pts',(7.105427357601E-14,0.,-410.));
#1155=CARTESIAN_POINT('Ctrl Pts',(5.94448882095737E-14,-330.,-410.));
#1156=CARTESIAN_POINT('Ctrl Pts',(5.94448882095737E-14,-330.,-80.));
#1157=CARTESIAN_POINT('Origin',(0.,0.,-80.));
#1158=CARTESIAN_POINT('Origin',(397.936828738096,-35.3768127744788,-160.));
#1159=CARTESIAN_POINT('Ctrl Pts',(382.959353115069,-93.6726112195982,-160.));
#1160=CARTESIAN_POINT('Ctrl Pts',(386.265309081368,-86.7768685344883,-160.));
#1161=CARTESIAN_POINT('Ctrl Pts',(389.238315596101,-79.724945194669,-160.));
#1162=CARTESIAN_POINT('Ctrl Pts',(396.040150531066,-60.9755340548106,-160.));
#1163=CARTESIAN_POINT('Ctrl Pts',(399.271385499025,-49.123383577138,-160.));
#1164=CARTESIAN_POINT('Ctrl Pts',(404.709749732247,-19.0437000043192,-160.));
#1165=CARTESIAN_POINT('Ctrl Pts',(405.59497512594,-0.822057685579363,-160.));
#1166=CARTESIAN_POINT('Ctrl Pts',(403.902575548467,19.2382087234017,-160.));
#1167=CARTESIAN_POINT('Ctrl Pts',(403.722259404184,21.080550586112,-160.));
#1168=CARTESIAN_POINT('Ctrl Pts',(403.517597370703,22.9189856706405,-160.));
#1169=CARTESIAN_POINT('Ctrl Pts',(410.603293009579,63.103962526742,-80.));
#1170=CARTESIAN_POINT('Ctrl Pts',(339.244405502189,300.,-80.));
#1171=CARTESIAN_POINT('Ctrl Pts',(0.,300.,-80.));
#1172=CARTESIAN_POINT('Ctrl Pts',(410.603293009579,63.103962526742,0.));
#1173=CARTESIAN_POINT('Ctrl Pts',(339.244405502189,300.,0.));
#1174=CARTESIAN_POINT('Ctrl Pts',(0.,300.,0.));
#1175=CARTESIAN_POINT('Origin',(0.,0.,-80.));
#1176=CARTESIAN_POINT('Ctrl Pts',(2.57175827820944E-14,300.,-80.));
#1177=CARTESIAN_POINT('Ctrl Pts',(2.57175827820944E-14,300.,-380.));
#1178=CARTESIAN_POINT('Ctrl Pts',(3.5527136788005E-14,0.,-380.));
#1179=CARTESIAN_POINT('Ctrl Pts',(4.53366907939156E-14,-300.,-380.));
#1180=CARTESIAN_POINT('Ctrl Pts',(4.53366907939156E-14,-300.,-80.));
#1181=CARTESIAN_POINT('Ctrl Pts',(420.,300.,-80.));
#1182=CARTESIAN_POINT('Ctrl Pts',(420.,300.,-380.));
#1183=CARTESIAN_POINT('Ctrl Pts',(420.,0.,-380.));
#1184=CARTESIAN_POINT('Ctrl Pts',(420.,-300.,-380.));
#1185=CARTESIAN_POINT('Ctrl Pts',(420.,-300.,-80.));
#1186=CARTESIAN_POINT('Ctrl Pts',(420.,-3.67394039744206E-14,-80.));
#1187=CARTESIAN_POINT('Ctrl Pts',(420.,-3.67394039744206E-14,-80.));
#1188=CARTESIAN_POINT('Ctrl Pts',(420.,0.,-80.));
#1189=CARTESIAN_POINT('Ctrl Pts',(420.,3.67394039744206E-14,-80.));
#1190=CARTESIAN_POINT('Ctrl Pts',(420.,3.67394039744206E-14,-80.));
#1191=CARTESIAN_POINT('Origin',(-1.18781563554633E-13,380.,0.));
#1192=CARTESIAN_POINT('Ctrl Pts',(441.315591843335,64.5189500469782,-80.));
#1193=CARTESIAN_POINT('Ctrl Pts',(370.764409330909,324.03793257563,-80.));
#1194=CARTESIAN_POINT('Ctrl Pts',(9.99999999999981,329.918508456592,-80.));
#1195=CARTESIAN_POINT('Ctrl Pts',(441.315591843335,64.5189500469782,0.));
#1196=CARTESIAN_POINT('Ctrl Pts',(370.764409330909,324.03793257563,0.));
#1197=CARTESIAN_POINT('Ctrl Pts',(9.99999999999981,329.918508456592,0.));
#1198=UNCERTAINTY_MEASURE_WITH_UNIT(LENGTH_MEASURE(0.01),#1202,
'DISTANCE_ACCURACY_VALUE',
'Maximum model space distance between geometric entities at asserted c
onnectivities');
#1199=UNCERTAINTY_MEASURE_WITH_UNIT(LENGTH_MEASURE(0.01),#1202,
'DISTANCE_ACCURACY_VALUE',
'Maximum model space distance between geometric entities at asserted c
onnectivities');
#1200=(
GEOMETRIC_REPRESENTATION_CONTEXT(3)
GLOBAL_UNCERTAINTY_ASSIGNED_CONTEXT((#1198))
GLOBAL_UNIT_ASSIGNED_CONTEXT((#1202,#1204,#1205))
REPRESENTATION_CONTEXT('','3D')
);
#1201=(
GEOMETRIC_REPRESENTATION_CONTEXT(3)
GLOBAL_UNCERTAINTY_ASSIGNED_CONTEXT((#1199))
GLOBAL_UNIT_ASSIGNED_CONTEXT((#1202,#1204,#1205))
REPRESENTATION_CONTEXT('','3D')
);
#1202=(
LENGTH_UNIT()
NAMED_UNIT(*)
SI_UNIT(.MILLI.,.METRE.)
);
#1203=(
LENGTH_UNIT()
NAMED_UNIT(*)
SI_UNIT(.CENTI.,.METRE.)
);
#1204=(
NAMED_UNIT(*)
PLANE_ANGLE_UNIT()
SI_UNIT($,.RADIAN.)
);
#1205=(
NAMED_UNIT(*)
SI_UNIT($,.STERADIAN.)
SOLID_ANGLE_UNIT()
);
#1206=SHAPE_DEFINITION_REPRESENTATION(#1207,#1208);
#1207=PRODUCT_DEFINITION_SHAPE('',$,#1210);
#1208=SHAPE_REPRESENTATION('',(#666),#1200);
#1209=PRODUCT_DEFINITION_CONTEXT('part definition',#1214,'design');
#1210=PRODUCT_DEFINITION('eggshellCorePrinted',
'eggshellCorePrintedLeft',#1211,#1209);
#1211=PRODUCT_DEFINITION_FORMATION('',$,#1216);
#1212=PRODUCT_RELATED_PRODUCT_CATEGORY('eggshellCorePrintedLeft',
'eggshellCorePrintedLeft',(#1216));
#1213=APPLICATION_PROTOCOL_DEFINITION('international standard',
'automotive_design',2009,#1214);
#1214=APPLICATION_CONTEXT(
'Core Data for Automotive Mechanical Design Process');
#1215=PRODUCT_CONTEXT('part definition',#1214,'mechanical');
#1216=PRODUCT('eggshellCorePrinted','eggshellCorePrintedLeft',$,(#1215));
#1217=PRESENTATION_STYLE_ASSIGNMENT((#1218));
#1218=SURFACE_STYLE_USAGE(.BOTH.,#1221);
#1219=SURFACE_STYLE_RENDERING_WITH_PROPERTIES($,#1225,(#1220));
#1220=SURFACE_STYLE_TRANSPARENT(0.);
#1221=SURFACE_SIDE_STYLE('',(#1222,#1219));
#1222=SURFACE_STYLE_FILL_AREA(#1223);
#1223=FILL_AREA_STYLE('',(#1224));
#1224=FILL_AREA_STYLE_COLOUR('',#1225);
#1225=COLOUR_RGB('',0.749019607843137,0.749019607843137,0.749019607843137);
ENDSEC;
END-ISO-10303-21;
