ISO-10303-21;
HEADER;
/* Generated by software containing ST-Developer
 * from STEP Tools, Inc. (www.steptools.com) 
 */

FILE_DESCRIPTION(
/* description */ (''),
/* implementation_level */ '2;1');

FILE_NAME(
/* name */ 
'C:\\Users\\Nathann\\ClawdDrive\\Objet3D\\neodrive\\neodrive-cad-ergon
omic-v1\\eggshellCorePrinted.stp',
/* time_stamp */ '2026-03-22T11:05:07+01:00',
/* author */ ('Nathann'),
/* organization */ (''),
/* preprocessor_version */ 'ST-DEVELOPER v19',
/* originating_system */ 'Autodesk Inventor 2023',
/* authorisation */ '');

FILE_SCHEMA (('AUTOMOTIVE_DESIGN { 1 0 10303 214 3 1 1 }'));
ENDSEC;

DATA;
#10=MECHANICAL_DESIGN_GEOMETRIC_PRESENTATION_REPRESENTATION('',(#13),#1199);
#11=SHAPE_REPRESENTATION_RELATIONSHIP('SRR','None',#1206,#12);
#12=ADVANCED_BREP_SHAPE_REPRESENTATION('',(#14),#1198);
#13=STYLED_ITEM('',(#1215),#14);
#14=MANIFOLD_SOLID_BREP('Solid1',#644);
#15=ELLIPSE('',#721,450.,330.);
#16=ELLIPSE('',#722,450.,330.);
#17=ELLIPSE('',#723,450.,330.);
#18=ELLIPSE('',#724,450.,330.);
#19=ELLIPSE('',#726,420.,300.);
#20=ELLIPSE('',#727,420.,300.);
#21=ELLIPSE('',#731,420.,300.);
#22=ELLIPSE('',#733,420.,300.);
#23=(
BOUNDED_SURFACE()
B_SPLINE_SURFACE(1,2,((#1059,#1060,#1061),(#1062,#1063,#1064)),
 .UNSPECIFIED.,.F.,.F.,.F.)
B_SPLINE_SURFACE_WITH_KNOTS((2,2),(3,3),(0.,0.177777777777778),(-2.94481318595159,
-1.59302037841316),.UNSPECIFIED.)
GEOMETRIC_REPRESENTATION_ITEM()
RATIONAL_B_SPLINE_SURFACE(((1.,0.78014647723288,1.),(1.,0.78014647723288,
1.)))
REPRESENTATION_ITEM('')
SURFACE()
);
#24=(
BOUNDED_SURFACE()
B_SPLINE_SURFACE(2,2,((#1070,#1071,#1072,#1073,#1074),(#1075,#1076,#1077,
#1078,#1079),(#1080,#1081,#1082,#1083,#1084)),.UNSPECIFIED.,.F.,.F.,.F.)
B_SPLINE_SURFACE_WITH_KNOTS((3,3),(3,2,3),(3.14159265358979,4.71238898038469),
(0.,1.5707963267949,3.14159265358979),.UNSPECIFIED.)
GEOMETRIC_REPRESENTATION_ITEM()
RATIONAL_B_SPLINE_SURFACE(((1.,0.707106781186548,1.,0.707106781186548,1.),
(0.707106781186548,0.5,0.707106781186548,0.5,0.707106781186548),(1.,0.707106781186548,
1.,0.707106781186548,1.)))
REPRESENTATION_ITEM('')
SURFACE()
);
#25=(
BOUNDED_SURFACE()
B_SPLINE_SURFACE(1,2,((#1105,#1106,#1107),(#1108,#1109,#1110)),
 .UNSPECIFIED.,.F.,.F.,.F.)
B_SPLINE_SURFACE_WITH_KNOTS((2,2),(3,3),(0.,0.177777777777778),(1.59302037841316,
2.68762734123457),.UNSPECIFIED.)
GEOMETRIC_REPRESENTATION_ITEM()
RATIONAL_B_SPLINE_SURFACE(((1.,0.853930856739051,1.),(1.,0.853930856739051,
1.)))
REPRESENTATION_ITEM('')
SURFACE()
);
#26=(
BOUNDED_SURFACE()
B_SPLINE_SURFACE(2,2,((#1161,#1162,#1163,#1164,#1165),(#1166,#1167,#1168,
#1169,#1170),(#1171,#1172,#1173,#1174,#1175)),.UNSPECIFIED.,.F.,.F.,.F.)
B_SPLINE_SURFACE_WITH_KNOTS((3,3),(3,2,3),(-1.5707963267949,1.22464679914735E-16),
(0.,1.5707963267949,3.14159265358979),.UNSPECIFIED.)
GEOMETRIC_REPRESENTATION_ITEM()
RATIONAL_B_SPLINE_SURFACE(((1.,0.707106781186548,1.,0.707106781186548,1.),
(0.707106781186548,0.5,0.707106781186548,0.5,0.707106781186548),(1.,0.707106781186548,
1.,0.707106781186548,1.)))
REPRESENTATION_ITEM('')
SURFACE()
);
#27=(
BOUNDED_SURFACE()
B_SPLINE_SURFACE(1,2,((#1181,#1182,#1183),(#1184,#1185,#1186)),
 .UNSPECIFIED.,.F.,.F.,.F.)
B_SPLINE_SURFACE_WITH_KNOTS((2,2),(3,3),(0.,0.19047619047619),(1.5707963267949,
2.67908694178583),.UNSPECIFIED.)
GEOMETRIC_REPRESENTATION_ITEM()
RATIONAL_B_SPLINE_SURFACE(((1.,0.850350504278186,1.),(1.,0.850350504278186,
1.)))
REPRESENTATION_ITEM('')
SURFACE()
);
#28=(
BOUNDED_SURFACE()
B_SPLINE_SURFACE(1,2,((#1188,#1189,#1190),(#1191,#1192,#1193)),
 .UNSPECIFIED.,.F.,.F.,.F.)
B_SPLINE_SURFACE_WITH_KNOTS((2,2),(3,3),(0.,0.19047619047619),(-2.92966323493415,
-1.5707963267949),.UNSPECIFIED.)
GEOMETRIC_REPRESENTATION_ITEM()
RATIONAL_B_SPLINE_SURFACE(((1.,0.777928834070253,1.),(1.,0.777928834070253,
1.)))
REPRESENTATION_ITEM('')
SURFACE()
);
#29=FACE_BOUND('',#123,.T.);
#30=FACE_BOUND('',#124,.T.);
#31=FACE_BOUND('',#125,.T.);
#32=FACE_BOUND('',#126,.T.);
#33=FACE_BOUND('',#127,.T.);
#34=FACE_BOUND('',#128,.T.);
#35=FACE_BOUND('',#129,.T.);
#36=FACE_BOUND('',#130,.T.);
#37=FACE_BOUND('',#131,.T.);
#38=FACE_BOUND('',#132,.T.);
#39=FACE_BOUND('',#133,.T.);
#40=FACE_BOUND('',#134,.T.);
#41=FACE_BOUND('',#135,.T.);
#42=FACE_BOUND('',#136,.T.);
#43=FACE_BOUND('',#137,.T.);
#44=FACE_BOUND('',#149,.T.);
#45=FACE_BOUND('',#150,.T.);
#46=FACE_BOUND('',#151,.T.);
#47=FACE_BOUND('',#152,.T.);
#48=FACE_BOUND('',#153,.T.);
#49=FACE_BOUND('',#154,.T.);
#50=FACE_BOUND('',#155,.T.);
#51=FACE_BOUND('',#156,.T.);
#52=FACE_BOUND('',#157,.T.);
#53=FACE_BOUND('',#158,.T.);
#54=FACE_BOUND('',#159,.T.);
#55=FACE_BOUND('',#160,.T.);
#56=FACE_BOUND('',#161,.T.);
#57=FACE_BOUND('',#162,.T.);
#58=FACE_BOUND('',#163,.T.);
#59=B_SPLINE_CURVE_WITH_KNOTS('',3,(#1039,#1040,#1041,#1042,#1043,#1044,
#1045,#1046,#1047,#1048,#1049,#1050,#1051,#1052,#1053,#1054,#1055,#1056,
#1057,#1058),.UNSPECIFIED.,.F.,.F.,(4,2,2,2,2,2,2,2,2,4),(-103.942451377215,
-97.0795203874266,-90.2165893976382,-77.3285051979756,-64.440420998313,
-51.5523367986504,-38.6642525989878,-25.7761683993252,-12.8880841996626,
0.),.UNSPECIFIED.);
#60=B_SPLINE_CURVE_WITH_KNOTS('',3,(#1087,#1088,#1089,#1090,#1091,#1092,
#1093,#1094,#1095,#1096,#1097,#1098,#1099,#1100,#1101,#1102,#1103,#1104),
 .UNSPECIFIED.,.F.,.F.,(4,2,2,2,2,2,2,2,4),(-33.3588620244563,-29.4069377646521,
-25.1880437502633,-20.9705332310193,-16.7337669999214,-12.5047455332476,
-8.31342400055305,-4.16181104522591,0.),.UNSPECIFIED.);
#61=B_SPLINE_CURVE_WITH_KNOTS('',3,(#1129,#1130,#1131,#1132,#1133,#1134,
#1135,#1136),.UNSPECIFIED.,.F.,.F.,(4,2,2,4),(-9.42777927833998,-6.63587762849676,
-3.59405545398101,-0.085394056807342),.UNSPECIFIED.);
#62=B_SPLINE_CURVE_WITH_KNOTS('',3,(#1141,#1142,#1143,#1144,#1145,#1146,
#1147,#1148),.UNSPECIFIED.,.F.,.F.,(4,2,2,4),(-9.34199105999899,-6.67170398816796,
-3.83587014972191,0.),.UNSPECIFIED.);
#63=B_SPLINE_CURVE_WITH_KNOTS('',3,(#1151,#1152,#1153,#1154,#1155,#1156,
#1157,#1158,#1159,#1160),.UNSPECIFIED.,.F.,.F.,(4,2,2,2,4),(-13.6616991029089,
-11.6495414806283,-9.43722321017471,-4.74228489742383,-1.64189750664136),
 .UNSPECIFIED.);
#64=PLANE('',#718);
#65=PLANE('',#719);
#66=PLANE('',#720);
#67=PLANE('',#725);
#68=PLANE('',#728);
#69=PLANE('',#729);
#70=PLANE('',#730);
#71=PLANE('',#734);
#72=FACE_OUTER_BOUND('',#103,.T.);
#73=FACE_OUTER_BOUND('',#104,.T.);
#74=FACE_OUTER_BOUND('',#105,.T.);
#75=FACE_OUTER_BOUND('',#106,.T.);
#76=FACE_OUTER_BOUND('',#107,.T.);
#77=FACE_OUTER_BOUND('',#108,.T.);
#78=FACE_OUTER_BOUND('',#109,.T.);
#79=FACE_OUTER_BOUND('',#110,.T.);
#80=FACE_OUTER_BOUND('',#111,.T.);
#81=FACE_OUTER_BOUND('',#112,.T.);
#82=FACE_OUTER_BOUND('',#113,.T.);
#83=FACE_OUTER_BOUND('',#114,.T.);
#84=FACE_OUTER_BOUND('',#115,.T.);
#85=FACE_OUTER_BOUND('',#116,.T.);
#86=FACE_OUTER_BOUND('',#117,.T.);
#87=FACE_OUTER_BOUND('',#118,.T.);
#88=FACE_OUTER_BOUND('',#119,.T.);
#89=FACE_OUTER_BOUND('',#120,.T.);
#90=FACE_OUTER_BOUND('',#121,.T.);
#91=FACE_OUTER_BOUND('',#122,.T.);
#92=FACE_OUTER_BOUND('',#138,.T.);
#93=FACE_OUTER_BOUND('',#139,.T.);
#94=FACE_OUTER_BOUND('',#140,.T.);
#95=FACE_OUTER_BOUND('',#141,.T.);
#96=FACE_OUTER_BOUND('',#142,.T.);
#97=FACE_OUTER_BOUND('',#143,.T.);
#98=FACE_OUTER_BOUND('',#144,.T.);
#99=FACE_OUTER_BOUND('',#145,.T.);
#100=FACE_OUTER_BOUND('',#146,.T.);
#101=FACE_OUTER_BOUND('',#147,.T.);
#102=FACE_OUTER_BOUND('',#148,.T.);
#103=EDGE_LOOP('',(#422,#423,#424,#425));
#104=EDGE_LOOP('',(#426,#427,#428,#429));
#105=EDGE_LOOP('',(#430,#431,#432,#433));
#106=EDGE_LOOP('',(#434,#435,#436,#437));
#107=EDGE_LOOP('',(#438,#439,#440,#441));
#108=EDGE_LOOP('',(#442,#443,#444,#445));
#109=EDGE_LOOP('',(#446,#447,#448,#449));
#110=EDGE_LOOP('',(#450,#451,#452,#453));
#111=EDGE_LOOP('',(#454,#455,#456,#457));
#112=EDGE_LOOP('',(#458,#459,#460,#461));
#113=EDGE_LOOP('',(#462,#463,#464,#465));
#114=EDGE_LOOP('',(#466,#467,#468,#469));
#115=EDGE_LOOP('',(#470,#471,#472,#473));
#116=EDGE_LOOP('',(#474,#475,#476,#477));
#117=EDGE_LOOP('',(#478,#479,#480,#481));
#118=EDGE_LOOP('',(#482,#483,#484,#485));
#119=EDGE_LOOP('',(#486,#487,#488,#489));
#120=EDGE_LOOP('',(#490,#491,#492,#493));
#121=EDGE_LOOP('',(#494,#495,#496,#497));
#122=EDGE_LOOP('',(#498,#499,#500,#501,#502,#503,#504,#505));
#123=EDGE_LOOP('',(#506,#507));
#124=EDGE_LOOP('',(#508));
#125=EDGE_LOOP('',(#509));
#126=EDGE_LOOP('',(#510));
#127=EDGE_LOOP('',(#511));
#128=EDGE_LOOP('',(#512));
#129=EDGE_LOOP('',(#513));
#130=EDGE_LOOP('',(#514));
#131=EDGE_LOOP('',(#515));
#132=EDGE_LOOP('',(#516));
#133=EDGE_LOOP('',(#517));
#134=EDGE_LOOP('',(#518));
#135=EDGE_LOOP('',(#519));
#136=EDGE_LOOP('',(#520));
#137=EDGE_LOOP('',(#521));
#138=EDGE_LOOP('',(#522,#523,#524,#525));
#139=EDGE_LOOP('',(#526,#527,#528,#529));
#140=EDGE_LOOP('',(#530,#531,#532,#533));
#141=EDGE_LOOP('',(#534,#535,#536,#537,#538,#539,#540,#541,#542,#543,#544,
#545));
#142=EDGE_LOOP('',(#546,#547,#548,#549));
#143=EDGE_LOOP('',(#550,#551,#552,#553,#554,#555));
#144=EDGE_LOOP('',(#556,#557));
#145=EDGE_LOOP('',(#558,#559,#560,#561,#562,#563));
#146=EDGE_LOOP('',(#564,#565,#566,#567));
#147=EDGE_LOOP('',(#568,#569,#570,#571));
#148=EDGE_LOOP('',(#572,#573,#574,#575,#576,#577,#578,#579));
#149=EDGE_LOOP('',(#580,#581));
#150=EDGE_LOOP('',(#582));
#151=EDGE_LOOP('',(#583));
#152=EDGE_LOOP('',(#584));
#153=EDGE_LOOP('',(#585));
#154=EDGE_LOOP('',(#586));
#155=EDGE_LOOP('',(#587));
#156=EDGE_LOOP('',(#588));
#157=EDGE_LOOP('',(#589));
#158=EDGE_LOOP('',(#590));
#159=EDGE_LOOP('',(#591));
#160=EDGE_LOOP('',(#592));
#161=EDGE_LOOP('',(#593));
#162=EDGE_LOOP('',(#594));
#163=EDGE_LOOP('',(#595));
#164=LINE('',#917,#203);
#165=LINE('',#923,#204);
#166=LINE('',#929,#205);
#167=LINE('',#935,#206);
#168=LINE('',#941,#207);
#169=LINE('',#947,#208);
#170=LINE('',#953,#209);
#171=LINE('',#959,#210);
#172=LINE('',#965,#211);
#173=LINE('',#971,#212);
#174=LINE('',#977,#213);
#175=LINE('',#983,#214);
#176=LINE('',#989,#215);
#177=LINE('',#995,#216);
#178=LINE('',#1002,#217);
#179=LINE('',#1005,#218);
#180=LINE('',#1014,#219);
#181=LINE('',#1017,#220);
#182=LINE('',#1020,#221);
#183=LINE('',#1022,#222);
#184=LINE('',#1023,#223);
#185=LINE('',#1026,#224);
#186=LINE('',#1028,#225);
#187=LINE('',#1029,#226);
#188=LINE('',#1033,#227);
#189=LINE('',#1034,#228);
#190=LINE('',#1036,#229);
#191=LINE('',#1038,#230);
#192=LINE('',#1068,#231);
#193=LINE('',#1113,#232);
#194=LINE('',#1116,#233);
#195=LINE('',#1117,#234);
#196=LINE('',#1119,#235);
#197=LINE('',#1123,#236);
#198=LINE('',#1137,#237);
#199=LINE('',#1139,#238);
#200=LINE('',#1149,#239);
#201=LINE('',#1187,#240);
#202=LINE('',#1194,#241);
#203=VECTOR('',#741,4.25);
#204=VECTOR('',#748,4.25);
#205=VECTOR('',#755,4.25);
#206=VECTOR('',#762,4.25);
#207=VECTOR('',#769,4.25);
#208=VECTOR('',#776,4.25);
#209=VECTOR('',#783,4.25);
#210=VECTOR('',#790,4.25);
#211=VECTOR('',#797,4.25);
#212=VECTOR('',#804,4.25);
#213=VECTOR('',#811,4.25);
#214=VECTOR('',#818,4.25);
#215=VECTOR('',#825,4.25);
#216=VECTOR('',#832,4.25);
#217=VECTOR('',#839,10.);
#218=VECTOR('',#842,10.);
#219=VECTOR('',#853,10.);
#220=VECTOR('',#856,10.);
#221=VECTOR('',#859,10.);
#222=VECTOR('',#860,10.);
#223=VECTOR('',#861,10.);
#224=VECTOR('',#864,10.);
#225=VECTOR('',#865,10.);
#226=VECTOR('',#866,10.);
#227=VECTOR('',#869,10.);
#228=VECTOR('',#870,10.);
#229=VECTOR('',#871,10.);
#230=VECTOR('',#872,10.);
#231=VECTOR('',#875,10.);
#232=VECTOR('',#882,10.);
#233=VECTOR('',#885,10.);
#234=VECTOR('',#886,10.);
#235=VECTOR('',#887,10.);
#236=VECTOR('',#890,10.);
#237=VECTOR('',#897,10.);
#238=VECTOR('',#898,10.);
#239=VECTOR('',#899,10.);
#240=VECTOR('',#908,10.);
#241=VECTOR('',#909,10.);
#242=CIRCLE('',#668,4.25);
#243=CIRCLE('',#669,4.25);
#244=CIRCLE('',#671,4.25);
#245=CIRCLE('',#672,4.25);
#246=CIRCLE('',#674,4.25);
#247=CIRCLE('',#675,4.25);
#248=CIRCLE('',#677,4.25);
#249=CIRCLE('',#678,4.25);
#250=CIRCLE('',#680,4.25);
#251=CIRCLE('',#681,4.25);
#252=CIRCLE('',#683,4.25);
#253=CIRCLE('',#684,4.25);
#254=CIRCLE('',#686,4.25);
#255=CIRCLE('',#687,4.25);
#256=CIRCLE('',#689,4.25);
#257=CIRCLE('',#690,4.25);
#258=CIRCLE('',#692,4.25);
#259=CIRCLE('',#693,4.25);
#260=CIRCLE('',#695,4.25);
#261=CIRCLE('',#696,4.25);
#262=CIRCLE('',#698,4.25);
#263=CIRCLE('',#699,4.25);
#264=CIRCLE('',#701,4.25);
#265=CIRCLE('',#702,4.25);
#266=CIRCLE('',#704,4.25);
#267=CIRCLE('',#705,4.25);
#268=CIRCLE('',#707,4.25);
#269=CIRCLE('',#708,4.25);
#270=CIRCLE('',#710,4.25);
#271=CIRCLE('',#711,4.25);
#272=CIRCLE('',#713,4.25);
#273=CIRCLE('',#714,4.25);
#274=CIRCLE('',#716,380.);
#275=CIRCLE('',#717,380.);
#276=CIRCLE('',#732,300.);
#277=VERTEX_POINT('',#914);
#278=VERTEX_POINT('',#916);
#279=VERTEX_POINT('',#920);
#280=VERTEX_POINT('',#922);
#281=VERTEX_POINT('',#926);
#282=VERTEX_POINT('',#928);
#283=VERTEX_POINT('',#932);
#284=VERTEX_POINT('',#934);
#285=VERTEX_POINT('',#938);
#286=VERTEX_POINT('',#940);
#287=VERTEX_POINT('',#944);
#288=VERTEX_POINT('',#946);
#289=VERTEX_POINT('',#950);
#290=VERTEX_POINT('',#952);
#291=VERTEX_POINT('',#956);
#292=VERTEX_POINT('',#958);
#293=VERTEX_POINT('',#962);
#294=VERTEX_POINT('',#964);
#295=VERTEX_POINT('',#968);
#296=VERTEX_POINT('',#970);
#297=VERTEX_POINT('',#974);
#298=VERTEX_POINT('',#976);
#299=VERTEX_POINT('',#980);
#300=VERTEX_POINT('',#982);
#301=VERTEX_POINT('',#986);
#302=VERTEX_POINT('',#988);
#303=VERTEX_POINT('',#992);
#304=VERTEX_POINT('',#994);
#305=VERTEX_POINT('',#998);
#306=VERTEX_POINT('',#999);
#307=VERTEX_POINT('',#1001);
#308=VERTEX_POINT('',#1003);
#309=VERTEX_POINT('',#1010);
#310=VERTEX_POINT('',#1011);
#311=VERTEX_POINT('',#1013);
#312=VERTEX_POINT('',#1015);
#313=VERTEX_POINT('',#1019);
#314=VERTEX_POINT('',#1021);
#315=VERTEX_POINT('',#1025);
#316=VERTEX_POINT('',#1027);
#317=VERTEX_POINT('',#1031);
#318=VERTEX_POINT('',#1032);
#319=VERTEX_POINT('',#1035);
#320=VERTEX_POINT('',#1037);
#321=VERTEX_POINT('',#1065);
#322=VERTEX_POINT('',#1067);
#323=VERTEX_POINT('',#1085);
#324=VERTEX_POINT('',#1111);
#325=VERTEX_POINT('',#1115);
#326=VERTEX_POINT('',#1118);
#327=VERTEX_POINT('',#1120);
#328=VERTEX_POINT('',#1122);
#329=VERTEX_POINT('',#1127);
#330=VERTEX_POINT('',#1128);
#331=VERTEX_POINT('',#1138);
#332=VERTEX_POINT('',#1140);
#333=VERTEX_POINT('',#1176);
#334=VERTEX_POINT('',#1178);
#335=EDGE_CURVE('',#277,#277,#242,.T.);
#336=EDGE_CURVE('',#277,#278,#164,.T.);
#337=EDGE_CURVE('',#278,#278,#243,.T.);
#338=EDGE_CURVE('',#279,#279,#244,.T.);
#339=EDGE_CURVE('',#279,#280,#165,.T.);
#340=EDGE_CURVE('',#280,#280,#245,.T.);
#341=EDGE_CURVE('',#281,#281,#246,.T.);
#342=EDGE_CURVE('',#281,#282,#166,.T.);
#343=EDGE_CURVE('',#282,#282,#247,.T.);
#344=EDGE_CURVE('',#283,#283,#248,.T.);
#345=EDGE_CURVE('',#283,#284,#167,.T.);
#346=EDGE_CURVE('',#284,#284,#249,.T.);
#347=EDGE_CURVE('',#285,#285,#250,.T.);
#348=EDGE_CURVE('',#285,#286,#168,.T.);
#349=EDGE_CURVE('',#286,#286,#251,.T.);
#350=EDGE_CURVE('',#287,#287,#252,.T.);
#351=EDGE_CURVE('',#287,#288,#169,.T.);
#352=EDGE_CURVE('',#288,#288,#253,.T.);
#353=EDGE_CURVE('',#289,#289,#254,.T.);
#354=EDGE_CURVE('',#289,#290,#170,.T.);
#355=EDGE_CURVE('',#290,#290,#255,.T.);
#356=EDGE_CURVE('',#291,#291,#256,.T.);
#357=EDGE_CURVE('',#291,#292,#171,.T.);
#358=EDGE_CURVE('',#292,#292,#257,.T.);
#359=EDGE_CURVE('',#293,#293,#258,.T.);
#360=EDGE_CURVE('',#293,#294,#172,.T.);
#361=EDGE_CURVE('',#294,#294,#259,.T.);
#362=EDGE_CURVE('',#295,#295,#260,.T.);
#363=EDGE_CURVE('',#295,#296,#173,.T.);
#364=EDGE_CURVE('',#296,#296,#261,.T.);
#365=EDGE_CURVE('',#297,#297,#262,.T.);
#366=EDGE_CURVE('',#297,#298,#174,.T.);
#367=EDGE_CURVE('',#298,#298,#263,.T.);
#368=EDGE_CURVE('',#299,#299,#264,.T.);
#369=EDGE_CURVE('',#299,#300,#175,.T.);
#370=EDGE_CURVE('',#300,#300,#265,.T.);
#371=EDGE_CURVE('',#301,#301,#266,.T.);
#372=EDGE_CURVE('',#301,#302,#176,.T.);
#373=EDGE_CURVE('',#302,#302,#267,.T.);
#374=EDGE_CURVE('',#303,#303,#268,.T.);
#375=EDGE_CURVE('',#303,#304,#177,.T.);
#376=EDGE_CURVE('',#304,#304,#269,.T.);
#377=EDGE_CURVE('',#305,#306,#270,.T.);
#378=EDGE_CURVE('',#305,#307,#178,.T.);
#379=EDGE_CURVE('',#308,#307,#271,.T.);
#380=EDGE_CURVE('',#306,#308,#179,.T.);
#381=EDGE_CURVE('',#306,#305,#272,.T.);
#382=EDGE_CURVE('',#307,#308,#273,.T.);
#383=EDGE_CURVE('',#309,#310,#274,.T.);
#384=EDGE_CURVE('',#309,#311,#180,.T.);
#385=EDGE_CURVE('',#312,#311,#275,.T.);
#386=EDGE_CURVE('',#310,#312,#181,.T.);
#387=EDGE_CURVE('',#310,#313,#182,.T.);
#388=EDGE_CURVE('',#314,#312,#183,.T.);
#389=EDGE_CURVE('',#313,#314,#184,.T.);
#390=EDGE_CURVE('',#315,#309,#185,.T.);
#391=EDGE_CURVE('',#315,#316,#186,.T.);
#392=EDGE_CURVE('',#311,#316,#187,.T.);
#393=EDGE_CURVE('',#317,#318,#188,.T.);
#394=EDGE_CURVE('',#317,#314,#189,.T.);
#395=EDGE_CURVE('',#316,#319,#190,.T.);
#396=EDGE_CURVE('',#320,#319,#191,.T.);
#397=EDGE_CURVE('',#318,#320,#59,.T.);
#398=EDGE_CURVE('',#321,#318,#15,.T.);
#399=EDGE_CURVE('',#321,#322,#192,.T.);
#400=EDGE_CURVE('',#322,#317,#16,.T.);
#401=EDGE_CURVE('',#320,#323,#17,.T.);
#402=EDGE_CURVE('',#323,#321,#60,.T.);
#403=EDGE_CURVE('',#319,#324,#18,.T.);
#404=EDGE_CURVE('',#324,#323,#193,.T.);
#405=EDGE_CURVE('',#313,#325,#194,.T.);
#406=EDGE_CURVE('',#322,#324,#195,.T.);
#407=EDGE_CURVE('',#326,#315,#196,.T.);
#408=EDGE_CURVE('',#327,#326,#19,.T.);
#409=EDGE_CURVE('',#327,#328,#197,.T.);
#410=EDGE_CURVE('',#325,#328,#20,.T.);
#411=EDGE_CURVE('',#329,#330,#61,.T.);
#412=EDGE_CURVE('',#328,#329,#198,.T.);
#413=EDGE_CURVE('',#331,#327,#199,.T.);
#414=EDGE_CURVE('',#332,#331,#62,.T.);
#415=EDGE_CURVE('',#330,#332,#200,.T.);
#416=EDGE_CURVE('',#330,#332,#63,.T.);
#417=EDGE_CURVE('',#331,#333,#21,.T.);
#418=EDGE_CURVE('',#334,#333,#276,.T.);
#419=EDGE_CURVE('',#334,#329,#22,.T.);
#420=EDGE_CURVE('',#326,#333,#201,.T.);
#421=EDGE_CURVE('',#325,#334,#202,.T.);
#422=ORIENTED_EDGE('',*,*,#335,.F.);
#423=ORIENTED_EDGE('',*,*,#336,.T.);
#424=ORIENTED_EDGE('',*,*,#337,.F.);
#425=ORIENTED_EDGE('',*,*,#336,.F.);
#426=ORIENTED_EDGE('',*,*,#338,.F.);
#427=ORIENTED_EDGE('',*,*,#339,.T.);
#428=ORIENTED_EDGE('',*,*,#340,.F.);
#429=ORIENTED_EDGE('',*,*,#339,.F.);
#430=ORIENTED_EDGE('',*,*,#341,.F.);
#431=ORIENTED_EDGE('',*,*,#342,.T.);
#432=ORIENTED_EDGE('',*,*,#343,.F.);
#433=ORIENTED_EDGE('',*,*,#342,.F.);
#434=ORIENTED_EDGE('',*,*,#344,.F.);
#435=ORIENTED_EDGE('',*,*,#345,.T.);
#436=ORIENTED_EDGE('',*,*,#346,.F.);
#437=ORIENTED_EDGE('',*,*,#345,.F.);
#438=ORIENTED_EDGE('',*,*,#347,.F.);
#439=ORIENTED_EDGE('',*,*,#348,.T.);
#440=ORIENTED_EDGE('',*,*,#349,.F.);
#441=ORIENTED_EDGE('',*,*,#348,.F.);
#442=ORIENTED_EDGE('',*,*,#350,.F.);
#443=ORIENTED_EDGE('',*,*,#351,.T.);
#444=ORIENTED_EDGE('',*,*,#352,.F.);
#445=ORIENTED_EDGE('',*,*,#351,.F.);
#446=ORIENTED_EDGE('',*,*,#353,.F.);
#447=ORIENTED_EDGE('',*,*,#354,.T.);
#448=ORIENTED_EDGE('',*,*,#355,.F.);
#449=ORIENTED_EDGE('',*,*,#354,.F.);
#450=ORIENTED_EDGE('',*,*,#356,.F.);
#451=ORIENTED_EDGE('',*,*,#357,.T.);
#452=ORIENTED_EDGE('',*,*,#358,.F.);
#453=ORIENTED_EDGE('',*,*,#357,.F.);
#454=ORIENTED_EDGE('',*,*,#359,.F.);
#455=ORIENTED_EDGE('',*,*,#360,.T.);
#456=ORIENTED_EDGE('',*,*,#361,.F.);
#457=ORIENTED_EDGE('',*,*,#360,.F.);
#458=ORIENTED_EDGE('',*,*,#362,.F.);
#459=ORIENTED_EDGE('',*,*,#363,.T.);
#460=ORIENTED_EDGE('',*,*,#364,.F.);
#461=ORIENTED_EDGE('',*,*,#363,.F.);
#462=ORIENTED_EDGE('',*,*,#365,.F.);
#463=ORIENTED_EDGE('',*,*,#366,.T.);
#464=ORIENTED_EDGE('',*,*,#367,.F.);
#465=ORIENTED_EDGE('',*,*,#366,.F.);
#466=ORIENTED_EDGE('',*,*,#368,.F.);
#467=ORIENTED_EDGE('',*,*,#369,.T.);
#468=ORIENTED_EDGE('',*,*,#370,.F.);
#469=ORIENTED_EDGE('',*,*,#369,.F.);
#470=ORIENTED_EDGE('',*,*,#371,.F.);
#471=ORIENTED_EDGE('',*,*,#372,.T.);
#472=ORIENTED_EDGE('',*,*,#373,.F.);
#473=ORIENTED_EDGE('',*,*,#372,.F.);
#474=ORIENTED_EDGE('',*,*,#374,.F.);
#475=ORIENTED_EDGE('',*,*,#375,.T.);
#476=ORIENTED_EDGE('',*,*,#376,.F.);
#477=ORIENTED_EDGE('',*,*,#375,.F.);
#478=ORIENTED_EDGE('',*,*,#377,.F.);
#479=ORIENTED_EDGE('',*,*,#378,.T.);
#480=ORIENTED_EDGE('',*,*,#379,.F.);
#481=ORIENTED_EDGE('',*,*,#380,.F.);
#482=ORIENTED_EDGE('',*,*,#381,.F.);
#483=ORIENTED_EDGE('',*,*,#380,.T.);
#484=ORIENTED_EDGE('',*,*,#382,.F.);
#485=ORIENTED_EDGE('',*,*,#378,.F.);
#486=ORIENTED_EDGE('',*,*,#383,.F.);
#487=ORIENTED_EDGE('',*,*,#384,.T.);
#488=ORIENTED_EDGE('',*,*,#385,.F.);
#489=ORIENTED_EDGE('',*,*,#386,.F.);
#490=ORIENTED_EDGE('',*,*,#387,.F.);
#491=ORIENTED_EDGE('',*,*,#386,.T.);
#492=ORIENTED_EDGE('',*,*,#388,.F.);
#493=ORIENTED_EDGE('',*,*,#389,.F.);
#494=ORIENTED_EDGE('',*,*,#390,.F.);
#495=ORIENTED_EDGE('',*,*,#391,.T.);
#496=ORIENTED_EDGE('',*,*,#392,.F.);
#497=ORIENTED_EDGE('',*,*,#384,.F.);
#498=ORIENTED_EDGE('',*,*,#393,.F.);
#499=ORIENTED_EDGE('',*,*,#394,.T.);
#500=ORIENTED_EDGE('',*,*,#388,.T.);
#501=ORIENTED_EDGE('',*,*,#385,.T.);
#502=ORIENTED_EDGE('',*,*,#392,.T.);
#503=ORIENTED_EDGE('',*,*,#395,.T.);
#504=ORIENTED_EDGE('',*,*,#396,.F.);
#505=ORIENTED_EDGE('',*,*,#397,.F.);
#506=ORIENTED_EDGE('',*,*,#382,.T.);
#507=ORIENTED_EDGE('',*,*,#379,.T.);
#508=ORIENTED_EDGE('',*,*,#374,.T.);
#509=ORIENTED_EDGE('',*,*,#371,.T.);
#510=ORIENTED_EDGE('',*,*,#368,.T.);
#511=ORIENTED_EDGE('',*,*,#365,.T.);
#512=ORIENTED_EDGE('',*,*,#362,.T.);
#513=ORIENTED_EDGE('',*,*,#359,.T.);
#514=ORIENTED_EDGE('',*,*,#356,.T.);
#515=ORIENTED_EDGE('',*,*,#353,.T.);
#516=ORIENTED_EDGE('',*,*,#350,.T.);
#517=ORIENTED_EDGE('',*,*,#347,.T.);
#518=ORIENTED_EDGE('',*,*,#344,.T.);
#519=ORIENTED_EDGE('',*,*,#341,.T.);
#520=ORIENTED_EDGE('',*,*,#338,.T.);
#521=ORIENTED_EDGE('',*,*,#335,.T.);
#522=ORIENTED_EDGE('',*,*,#393,.T.);
#523=ORIENTED_EDGE('',*,*,#398,.F.);
#524=ORIENTED_EDGE('',*,*,#399,.T.);
#525=ORIENTED_EDGE('',*,*,#400,.T.);
#526=ORIENTED_EDGE('',*,*,#397,.T.);
#527=ORIENTED_EDGE('',*,*,#401,.T.);
#528=ORIENTED_EDGE('',*,*,#402,.T.);
#529=ORIENTED_EDGE('',*,*,#398,.T.);
#530=ORIENTED_EDGE('',*,*,#396,.T.);
#531=ORIENTED_EDGE('',*,*,#403,.T.);
#532=ORIENTED_EDGE('',*,*,#404,.T.);
#533=ORIENTED_EDGE('',*,*,#401,.F.);
#534=ORIENTED_EDGE('',*,*,#405,.F.);
#535=ORIENTED_EDGE('',*,*,#389,.T.);
#536=ORIENTED_EDGE('',*,*,#394,.F.);
#537=ORIENTED_EDGE('',*,*,#400,.F.);
#538=ORIENTED_EDGE('',*,*,#406,.T.);
#539=ORIENTED_EDGE('',*,*,#403,.F.);
#540=ORIENTED_EDGE('',*,*,#395,.F.);
#541=ORIENTED_EDGE('',*,*,#391,.F.);
#542=ORIENTED_EDGE('',*,*,#407,.F.);
#543=ORIENTED_EDGE('',*,*,#408,.F.);
#544=ORIENTED_EDGE('',*,*,#409,.T.);
#545=ORIENTED_EDGE('',*,*,#410,.F.);
#546=ORIENTED_EDGE('',*,*,#402,.F.);
#547=ORIENTED_EDGE('',*,*,#404,.F.);
#548=ORIENTED_EDGE('',*,*,#406,.F.);
#549=ORIENTED_EDGE('',*,*,#399,.F.);
#550=ORIENTED_EDGE('',*,*,#411,.F.);
#551=ORIENTED_EDGE('',*,*,#412,.F.);
#552=ORIENTED_EDGE('',*,*,#409,.F.);
#553=ORIENTED_EDGE('',*,*,#413,.F.);
#554=ORIENTED_EDGE('',*,*,#414,.F.);
#555=ORIENTED_EDGE('',*,*,#415,.F.);
#556=ORIENTED_EDGE('',*,*,#416,.F.);
#557=ORIENTED_EDGE('',*,*,#415,.T.);
#558=ORIENTED_EDGE('',*,*,#411,.T.);
#559=ORIENTED_EDGE('',*,*,#416,.T.);
#560=ORIENTED_EDGE('',*,*,#414,.T.);
#561=ORIENTED_EDGE('',*,*,#417,.T.);
#562=ORIENTED_EDGE('',*,*,#418,.F.);
#563=ORIENTED_EDGE('',*,*,#419,.T.);
#564=ORIENTED_EDGE('',*,*,#413,.T.);
#565=ORIENTED_EDGE('',*,*,#408,.T.);
#566=ORIENTED_EDGE('',*,*,#420,.T.);
#567=ORIENTED_EDGE('',*,*,#417,.F.);
#568=ORIENTED_EDGE('',*,*,#412,.T.);
#569=ORIENTED_EDGE('',*,*,#419,.F.);
#570=ORIENTED_EDGE('',*,*,#421,.F.);
#571=ORIENTED_EDGE('',*,*,#410,.T.);
#572=ORIENTED_EDGE('',*,*,#407,.T.);
#573=ORIENTED_EDGE('',*,*,#390,.T.);
#574=ORIENTED_EDGE('',*,*,#383,.T.);
#575=ORIENTED_EDGE('',*,*,#387,.T.);
#576=ORIENTED_EDGE('',*,*,#405,.T.);
#577=ORIENTED_EDGE('',*,*,#421,.T.);
#578=ORIENTED_EDGE('',*,*,#418,.T.);
#579=ORIENTED_EDGE('',*,*,#420,.F.);
#580=ORIENTED_EDGE('',*,*,#381,.T.);
#581=ORIENTED_EDGE('',*,*,#377,.T.);
#582=ORIENTED_EDGE('',*,*,#376,.T.);
#583=ORIENTED_EDGE('',*,*,#373,.T.);
#584=ORIENTED_EDGE('',*,*,#370,.T.);
#585=ORIENTED_EDGE('',*,*,#367,.T.);
#586=ORIENTED_EDGE('',*,*,#364,.T.);
#587=ORIENTED_EDGE('',*,*,#361,.T.);
#588=ORIENTED_EDGE('',*,*,#358,.T.);
#589=ORIENTED_EDGE('',*,*,#355,.T.);
#590=ORIENTED_EDGE('',*,*,#352,.T.);
#591=ORIENTED_EDGE('',*,*,#349,.T.);
#592=ORIENTED_EDGE('',*,*,#346,.T.);
#593=ORIENTED_EDGE('',*,*,#343,.T.);
#594=ORIENTED_EDGE('',*,*,#340,.T.);
#595=ORIENTED_EDGE('',*,*,#337,.T.);
#596=CYLINDRICAL_SURFACE('',#667,4.25);
#597=CYLINDRICAL_SURFACE('',#670,4.25);
#598=CYLINDRICAL_SURFACE('',#673,4.25);
#599=CYLINDRICAL_SURFACE('',#676,4.25);
#600=CYLINDRICAL_SURFACE('',#679,4.25);
#601=CYLINDRICAL_SURFACE('',#682,4.25);
#602=CYLINDRICAL_SURFACE('',#685,4.25);
#603=CYLINDRICAL_SURFACE('',#688,4.25);
#604=CYLINDRICAL_SURFACE('',#691,4.25);
#605=CYLINDRICAL_SURFACE('',#694,4.25);
#606=CYLINDRICAL_SURFACE('',#697,4.25);
#607=CYLINDRICAL_SURFACE('',#700,4.25);
#608=CYLINDRICAL_SURFACE('',#703,4.25);
#609=CYLINDRICAL_SURFACE('',#706,4.25);
#610=CYLINDRICAL_SURFACE('',#709,4.25);
#611=CYLINDRICAL_SURFACE('',#712,4.25);
#612=CYLINDRICAL_SURFACE('',#715,380.);
#613=ADVANCED_FACE('',(#72),#596,.F.);
#614=ADVANCED_FACE('',(#73),#597,.F.);
#615=ADVANCED_FACE('',(#74),#598,.F.);
#616=ADVANCED_FACE('',(#75),#599,.F.);
#617=ADVANCED_FACE('',(#76),#600,.F.);
#618=ADVANCED_FACE('',(#77),#601,.F.);
#619=ADVANCED_FACE('',(#78),#602,.F.);
#620=ADVANCED_FACE('',(#79),#603,.F.);
#621=ADVANCED_FACE('',(#80),#604,.F.);
#622=ADVANCED_FACE('',(#81),#605,.F.);
#623=ADVANCED_FACE('',(#82),#606,.F.);
#624=ADVANCED_FACE('',(#83),#607,.F.);
#625=ADVANCED_FACE('',(#84),#608,.F.);
#626=ADVANCED_FACE('',(#85),#609,.F.);
#627=ADVANCED_FACE('',(#86),#610,.F.);
#628=ADVANCED_FACE('',(#87),#611,.F.);
#629=ADVANCED_FACE('',(#88),#612,.T.);
#630=ADVANCED_FACE('',(#89),#64,.T.);
#631=ADVANCED_FACE('',(#90),#65,.T.);
#632=ADVANCED_FACE('',(#91,#29,#30,#31,#32,#33,#34,#35,#36,#37,#38,#39,
#40,#41,#42,#43),#66,.F.);
#633=ADVANCED_FACE('',(#92),#23,.F.);
#634=ADVANCED_FACE('',(#93),#24,.T.);
#635=ADVANCED_FACE('',(#94),#25,.F.);
#636=ADVANCED_FACE('',(#95),#67,.F.);
#637=ADVANCED_FACE('',(#96),#68,.F.);
#638=ADVANCED_FACE('',(#97),#69,.T.);
#639=ADVANCED_FACE('',(#98),#70,.F.);
#640=ADVANCED_FACE('',(#99),#26,.T.);
#641=ADVANCED_FACE('',(#100),#27,.T.);
#642=ADVANCED_FACE('',(#101),#28,.T.);
#643=ADVANCED_FACE('',(#102,#44,#45,#46,#47,#48,#49,#50,#51,#52,#53,#54,
#55,#56,#57,#58),#71,.T.);
#644=CLOSED_SHELL('',(#613,#614,#615,#616,#617,#618,#619,#620,#621,#622,
#623,#624,#625,#626,#627,#628,#629,#630,#631,#632,#633,#634,#635,#636,#637,
#638,#639,#640,#641,#642,#643));
#645=DERIVED_UNIT_ELEMENT(#648,1.);
#646=DERIVED_UNIT_ELEMENT(#1201,-3.);
#647=DIMENSIONAL_EXPONENTS(1.,0.,0.,0.,0.,0.,0.);
#648=(
CONVERSION_BASED_UNIT('gram',#650)
MASS_UNIT()
NAMED_UNIT(#647)
);
#649=(
MASS_UNIT()
NAMED_UNIT(*)
SI_UNIT(.KILO.,.GRAM.)
);
#650=MASS_MEASURE_WITH_UNIT(MASS_MEASURE(0.001),#649);
#651=DERIVED_UNIT((#645,#646));
#652=MEASURE_REPRESENTATION_ITEM('density measure',
POSITIVE_RATIO_MEASURE(1.),#651);
#653=PROPERTY_DEFINITION_REPRESENTATION(#658,#655);
#654=PROPERTY_DEFINITION_REPRESENTATION(#659,#656);
#655=REPRESENTATION('material name',(#657),#1198);
#656=REPRESENTATION('density',(#652),#1198);
#657=DESCRIPTIVE_REPRESENTATION_ITEM('Generic','Generic');
#658=PROPERTY_DEFINITION('material property','material name',#1208);
#659=PROPERTY_DEFINITION('material property','density of part',#1208);
#660=DATE_TIME_ROLE('creation_date');
#661=APPLIED_DATE_AND_TIME_ASSIGNMENT(#662,#660,(#1208));
#662=DATE_AND_TIME(#663,#664);
#663=CALENDAR_DATE(2026,19,3);
#664=LOCAL_TIME(0,0,0.,#665);
#665=COORDINATED_UNIVERSAL_TIME_OFFSET(0,0,.BEHIND.);
#666=AXIS2_PLACEMENT_3D('placement',#912,#735,#736);
#667=AXIS2_PLACEMENT_3D('',#913,#737,#738);
#668=AXIS2_PLACEMENT_3D('',#915,#739,#740);
#669=AXIS2_PLACEMENT_3D('',#918,#742,#743);
#670=AXIS2_PLACEMENT_3D('',#919,#744,#745);
#671=AXIS2_PLACEMENT_3D('',#921,#746,#747);
#672=AXIS2_PLACEMENT_3D('',#924,#749,#750);
#673=AXIS2_PLACEMENT_3D('',#925,#751,#752);
#674=AXIS2_PLACEMENT_3D('',#927,#753,#754);
#675=AXIS2_PLACEMENT_3D('',#930,#756,#757);
#676=AXIS2_PLACEMENT_3D('',#931,#758,#759);
#677=AXIS2_PLACEMENT_3D('',#933,#760,#761);
#678=AXIS2_PLACEMENT_3D('',#936,#763,#764);
#679=AXIS2_PLACEMENT_3D('',#937,#765,#766);
#680=AXIS2_PLACEMENT_3D('',#939,#767,#768);
#681=AXIS2_PLACEMENT_3D('',#942,#770,#771);
#682=AXIS2_PLACEMENT_3D('',#943,#772,#773);
#683=AXIS2_PLACEMENT_3D('',#945,#774,#775);
#684=AXIS2_PLACEMENT_3D('',#948,#777,#778);
#685=AXIS2_PLACEMENT_3D('',#949,#779,#780);
#686=AXIS2_PLACEMENT_3D('',#951,#781,#782);
#687=AXIS2_PLACEMENT_3D('',#954,#784,#785);
#688=AXIS2_PLACEMENT_3D('',#955,#786,#787);
#689=AXIS2_PLACEMENT_3D('',#957,#788,#789);
#690=AXIS2_PLACEMENT_3D('',#960,#791,#792);
#691=AXIS2_PLACEMENT_3D('',#961,#793,#794);
#692=AXIS2_PLACEMENT_3D('',#963,#795,#796);
#693=AXIS2_PLACEMENT_3D('',#966,#798,#799);
#694=AXIS2_PLACEMENT_3D('',#967,#800,#801);
#695=AXIS2_PLACEMENT_3D('',#969,#802,#803);
#696=AXIS2_PLACEMENT_3D('',#972,#805,#806);
#697=AXIS2_PLACEMENT_3D('',#973,#807,#808);
#698=AXIS2_PLACEMENT_3D('',#975,#809,#810);
#699=AXIS2_PLACEMENT_3D('',#978,#812,#813);
#700=AXIS2_PLACEMENT_3D('',#979,#814,#815);
#701=AXIS2_PLACEMENT_3D('',#981,#816,#817);
#702=AXIS2_PLACEMENT_3D('',#984,#819,#820);
#703=AXIS2_PLACEMENT_3D('',#985,#821,#822);
#704=AXIS2_PLACEMENT_3D('',#987,#823,#824);
#705=AXIS2_PLACEMENT_3D('',#990,#826,#827);
#706=AXIS2_PLACEMENT_3D('',#991,#828,#829);
#707=AXIS2_PLACEMENT_3D('',#993,#830,#831);
#708=AXIS2_PLACEMENT_3D('',#996,#833,#834);
#709=AXIS2_PLACEMENT_3D('',#997,#835,#836);
#710=AXIS2_PLACEMENT_3D('',#1000,#837,#838);
#711=AXIS2_PLACEMENT_3D('',#1004,#840,#841);
#712=AXIS2_PLACEMENT_3D('',#1006,#843,#844);
#713=AXIS2_PLACEMENT_3D('',#1007,#845,#846);
#714=AXIS2_PLACEMENT_3D('',#1008,#847,#848);
#715=AXIS2_PLACEMENT_3D('',#1009,#849,#850);
#716=AXIS2_PLACEMENT_3D('',#1012,#851,#852);
#717=AXIS2_PLACEMENT_3D('',#1016,#854,#855);
#718=AXIS2_PLACEMENT_3D('',#1018,#857,#858);
#719=AXIS2_PLACEMENT_3D('',#1024,#862,#863);
#720=AXIS2_PLACEMENT_3D('',#1030,#867,#868);
#721=AXIS2_PLACEMENT_3D('',#1066,#873,#874);
#722=AXIS2_PLACEMENT_3D('',#1069,#876,#877);
#723=AXIS2_PLACEMENT_3D('',#1086,#878,#879);
#724=AXIS2_PLACEMENT_3D('',#1112,#880,#881);
#725=AXIS2_PLACEMENT_3D('',#1114,#883,#884);
#726=AXIS2_PLACEMENT_3D('',#1121,#888,#889);
#727=AXIS2_PLACEMENT_3D('',#1124,#891,#892);
#728=AXIS2_PLACEMENT_3D('',#1125,#893,#894);
#729=AXIS2_PLACEMENT_3D('',#1126,#895,#896);
#730=AXIS2_PLACEMENT_3D('',#1150,#900,#901);
#731=AXIS2_PLACEMENT_3D('',#1177,#902,#903);
#732=AXIS2_PLACEMENT_3D('',#1179,#904,#905);
#733=AXIS2_PLACEMENT_3D('',#1180,#906,#907);
#734=AXIS2_PLACEMENT_3D('',#1195,#910,#911);
#735=DIRECTION('axis',(0.,0.,1.));
#736=DIRECTION('refdir',(1.,0.,0.));
#737=DIRECTION('center_axis',(1.,0.,0.));
#738=DIRECTION('ref_axis',(0.,0.,-1.));
#739=DIRECTION('center_axis',(-1.,-1.22464679914735E-16,0.));
#740=DIRECTION('ref_axis',(0.,0.,-1.));
#741=DIRECTION('',(-1.,0.,0.));
#742=DIRECTION('center_axis',(1.,1.22464679914735E-16,0.));
#743=DIRECTION('ref_axis',(0.,0.,-1.));
#744=DIRECTION('center_axis',(1.,0.,0.));
#745=DIRECTION('ref_axis',(0.,0.,-1.));
#746=DIRECTION('center_axis',(-1.,-1.22464679914735E-16,0.));
#747=DIRECTION('ref_axis',(0.,0.,-1.));
#748=DIRECTION('',(-1.,0.,0.));
#749=DIRECTION('center_axis',(1.,1.22464679914735E-16,0.));
#750=DIRECTION('ref_axis',(0.,0.,-1.));
#751=DIRECTION('center_axis',(1.,0.,0.));
#752=DIRECTION('ref_axis',(0.,0.,-1.));
#753=DIRECTION('center_axis',(-1.,-1.22464679914735E-16,0.));
#754=DIRECTION('ref_axis',(0.,0.,-1.));
#755=DIRECTION('',(-1.,0.,0.));
#756=DIRECTION('center_axis',(1.,1.22464679914735E-16,0.));
#757=DIRECTION('ref_axis',(0.,0.,-1.));
#758=DIRECTION('center_axis',(1.,0.,0.));
#759=DIRECTION('ref_axis',(0.,0.,-1.));
#760=DIRECTION('center_axis',(-1.,-1.22464679914735E-16,0.));
#761=DIRECTION('ref_axis',(0.,0.,-1.));
#762=DIRECTION('',(-1.,0.,0.));
#763=DIRECTION('center_axis',(1.,1.22464679914735E-16,0.));
#764=DIRECTION('ref_axis',(0.,0.,-1.));
#765=DIRECTION('center_axis',(1.,0.,0.));
#766=DIRECTION('ref_axis',(0.,0.,-1.));
#767=DIRECTION('center_axis',(-1.,-1.22464679914735E-16,0.));
#768=DIRECTION('ref_axis',(0.,0.,-1.));
#769=DIRECTION('',(-1.,0.,0.));
#770=DIRECTION('center_axis',(1.,1.22464679914735E-16,0.));
#771=DIRECTION('ref_axis',(0.,0.,-1.));
#772=DIRECTION('center_axis',(1.,0.,0.));
#773=DIRECTION('ref_axis',(0.,0.,-1.));
#774=DIRECTION('center_axis',(-1.,-1.22464679914735E-16,0.));
#775=DIRECTION('ref_axis',(0.,0.,-1.));
#776=DIRECTION('',(-1.,0.,0.));
#777=DIRECTION('center_axis',(1.,1.22464679914735E-16,0.));
#778=DIRECTION('ref_axis',(0.,0.,-1.));
#779=DIRECTION('center_axis',(1.,0.,0.));
#780=DIRECTION('ref_axis',(0.,0.,-1.));
#781=DIRECTION('center_axis',(-1.,-1.22464679914735E-16,0.));
#782=DIRECTION('ref_axis',(0.,0.,-1.));
#783=DIRECTION('',(-1.,0.,0.));
#784=DIRECTION('center_axis',(1.,1.22464679914735E-16,0.));
#785=DIRECTION('ref_axis',(0.,0.,-1.));
#786=DIRECTION('center_axis',(1.,0.,0.));
#787=DIRECTION('ref_axis',(0.,0.,-1.));
#788=DIRECTION('center_axis',(-1.,-1.22464679914735E-16,0.));
#789=DIRECTION('ref_axis',(0.,0.,-1.));
#790=DIRECTION('',(-1.,0.,0.));
#791=DIRECTION('center_axis',(1.,1.22464679914735E-16,0.));
#792=DIRECTION('ref_axis',(0.,0.,-1.));
#793=DIRECTION('center_axis',(1.,0.,0.));
#794=DIRECTION('ref_axis',(0.,0.,-1.));
#795=DIRECTION('center_axis',(-1.,-1.22464679914735E-16,0.));
#796=DIRECTION('ref_axis',(0.,0.,-1.));
#797=DIRECTION('',(-1.,0.,0.));
#798=DIRECTION('center_axis',(1.,1.22464679914735E-16,0.));
#799=DIRECTION('ref_axis',(0.,0.,-1.));
#800=DIRECTION('center_axis',(1.,0.,0.));
#801=DIRECTION('ref_axis',(0.,0.,-1.));
#802=DIRECTION('center_axis',(-1.,-1.22464679914735E-16,0.));
#803=DIRECTION('ref_axis',(0.,0.,-1.));
#804=DIRECTION('',(-1.,0.,0.));
#805=DIRECTION('center_axis',(1.,1.22464679914735E-16,0.));
#806=DIRECTION('ref_axis',(0.,0.,-1.));
#807=DIRECTION('center_axis',(1.,0.,0.));
#808=DIRECTION('ref_axis',(0.,0.,-1.));
#809=DIRECTION('center_axis',(-1.,-1.22464679914735E-16,0.));
#810=DIRECTION('ref_axis',(0.,0.,-1.));
#811=DIRECTION('',(-1.,0.,0.));
#812=DIRECTION('center_axis',(1.,1.22464679914735E-16,0.));
#813=DIRECTION('ref_axis',(0.,0.,-1.));
#814=DIRECTION('center_axis',(1.,0.,0.));
#815=DIRECTION('ref_axis',(0.,0.,-1.));
#816=DIRECTION('center_axis',(-1.,-1.22464679914735E-16,0.));
#817=DIRECTION('ref_axis',(0.,0.,-1.));
#818=DIRECTION('',(-1.,0.,0.));
#819=DIRECTION('center_axis',(1.,1.22464679914735E-16,0.));
#820=DIRECTION('ref_axis',(0.,0.,-1.));
#821=DIRECTION('center_axis',(1.,0.,0.));
#822=DIRECTION('ref_axis',(0.,0.,-1.));
#823=DIRECTION('center_axis',(-1.,-1.22464679914735E-16,0.));
#824=DIRECTION('ref_axis',(0.,0.,-1.));
#825=DIRECTION('',(-1.,0.,0.));
#826=DIRECTION('center_axis',(1.,1.22464679914735E-16,0.));
#827=DIRECTION('ref_axis',(0.,0.,-1.));
#828=DIRECTION('center_axis',(1.,0.,0.));
#829=DIRECTION('ref_axis',(0.,0.,-1.));
#830=DIRECTION('center_axis',(-1.,-1.22464679914735E-16,0.));
#831=DIRECTION('ref_axis',(0.,0.,-1.));
#832=DIRECTION('',(-1.,0.,0.));
#833=DIRECTION('center_axis',(1.,1.22464679914735E-16,0.));
#834=DIRECTION('ref_axis',(0.,0.,-1.));
#835=DIRECTION('center_axis',(1.,0.,0.));
#836=DIRECTION('ref_axis',(0.,0.,-1.));
#837=DIRECTION('center_axis',(1.,1.22464679914735E-16,0.));
#838=DIRECTION('ref_axis',(0.,0.,-1.));
#839=DIRECTION('',(1.,0.,0.));
#840=DIRECTION('center_axis',(-1.,-1.22464679914735E-16,0.));
#841=DIRECTION('ref_axis',(0.,0.,-1.));
#842=DIRECTION('',(1.,0.,0.));
#843=DIRECTION('center_axis',(1.,0.,0.));
#844=DIRECTION('ref_axis',(0.,0.,-1.));
#845=DIRECTION('center_axis',(1.,1.22464679914735E-16,0.));
#846=DIRECTION('ref_axis',(0.,0.,-1.));
#847=DIRECTION('center_axis',(-1.,-1.22464679914735E-16,0.));
#848=DIRECTION('ref_axis',(0.,0.,-1.));
#849=DIRECTION('center_axis',(1.,0.,0.));
#850=DIRECTION('ref_axis',(0.,-0.999999999999997,-8.30632351672394E-8));
#851=DIRECTION('center_axis',(-1.,-1.22464679914735E-16,1.46936793852786E-39));
#852=DIRECTION('ref_axis',(1.22464679914735E-16,-0.999999999999997,-8.30632351672394E-8));
#853=DIRECTION('',(1.,0.,0.));
#854=DIRECTION('center_axis',(1.,1.22464679914735E-16,-1.46936793852786E-39));
#855=DIRECTION('ref_axis',(1.22464679914735E-16,-0.999999999999997,-8.30632351672394E-8));
#856=DIRECTION('',(1.,0.,0.));
#857=DIRECTION('center_axis',(0.,1.,0.));
#858=DIRECTION('ref_axis',(0.,0.,1.));
#859=DIRECTION('',(0.,0.,-1.));
#860=DIRECTION('',(0.,0.,1.));
#861=DIRECTION('',(1.,0.,0.));
#862=DIRECTION('center_axis',(0.,-1.,0.));
#863=DIRECTION('ref_axis',(0.,0.,-1.));
#864=DIRECTION('',(0.,0.,1.));
#865=DIRECTION('',(1.,0.,0.));
#866=DIRECTION('',(0.,0.,-1.));
#867=DIRECTION('center_axis',(-1.,-1.22464679914735E-16,0.));
#868=DIRECTION('ref_axis',(0.,0.,1.));
#869=DIRECTION('',(0.,0.,1.));
#870=DIRECTION('',(-1.22464679914735E-16,1.,-5.67289336320398E-17));
#871=DIRECTION('',(-1.22464679914735E-16,1.,0.));
#872=DIRECTION('',(0.,0.,-1.));
#873=DIRECTION('center_axis',(0.,0.,1.));
#874=DIRECTION('ref_axis',(-1.,0.,0.));
#875=DIRECTION('',(0.,0.,-1.));
#876=DIRECTION('center_axis',(0.,0.,1.));
#877=DIRECTION('ref_axis',(-1.,0.,0.));
#878=DIRECTION('center_axis',(0.,0.,1.));
#879=DIRECTION('ref_axis',(-1.,0.,0.));
#880=DIRECTION('center_axis',(0.,0.,1.));
#881=DIRECTION('ref_axis',(-1.,0.,0.));
#882=DIRECTION('',(0.,0.,1.));
#883=DIRECTION('center_axis',(0.,0.,1.));
#884=DIRECTION('ref_axis',(1.,0.,0.));
#885=DIRECTION('',(1.22464679914735E-16,-1.,5.67289336320398E-17));
#886=DIRECTION('',(-0.17364817766693,-0.984807753012208,0.));
#887=DIRECTION('',(1.22464679914735E-16,-1.,0.));
#888=DIRECTION('center_axis',(0.,0.,-1.));
#889=DIRECTION('ref_axis',(-1.,0.,0.));
#890=DIRECTION('',(0.17364817766693,0.984807753012208,0.));
#891=DIRECTION('center_axis',(0.,0.,-1.));
#892=DIRECTION('ref_axis',(-1.,0.,0.));
#893=DIRECTION('center_axis',(-0.984807753012208,0.17364817766693,0.));
#894=DIRECTION('ref_axis',(0.,0.,1.));
#895=DIRECTION('center_axis',(-0.984807753012208,0.17364817766693,0.));
#896=DIRECTION('ref_axis',(-0.17364817766693,-0.984807753012208,0.));
#897=DIRECTION('',(0.,0.,1.));
#898=DIRECTION('',(0.,0.,-1.));
#899=DIRECTION('',(-0.17364817766693,-0.984807753012208,0.));
#900=DIRECTION('center_axis',(0.,0.,-1.));
#901=DIRECTION('ref_axis',(-1.,0.,0.));
#902=DIRECTION('center_axis',(0.,0.,-1.));
#903=DIRECTION('ref_axis',(-1.,0.,0.));
#904=DIRECTION('center_axis',(1.,-1.22464679914735E-17,1.22464679914735E-17));
#905=DIRECTION('ref_axis',(1.22464679914735E-17,1.,-1.1842378929335E-16));
#906=DIRECTION('center_axis',(0.,0.,-1.));
#907=DIRECTION('ref_axis',(-1.,0.,0.));
#908=DIRECTION('',(0.,0.,1.));
#909=DIRECTION('',(0.,0.,1.));
#910=DIRECTION('center_axis',(-1.,-1.22464679914735E-16,0.));
#911=DIRECTION('ref_axis',(1.22464679914735E-16,-1.,0.));
#912=CARTESIAN_POINT('',(0.,0.,0.));
#913=CARTESIAN_POINT('Origin',(-1.05196535559755E-13,78.9949006766429,426.099415872215));
#914=CARTESIAN_POINT('',(9.9999999999999,78.9949006766429,430.349415872215));
#915=CARTESIAN_POINT('Origin',(9.9999999999999,78.9949006766429,426.099415872215));
#916=CARTESIAN_POINT('',(-1.05196535559755E-13,78.9949006766429,430.349415872215));
#917=CARTESIAN_POINT('',(-1.05196535559755E-13,78.9949006766429,430.349415872215));
#918=CARTESIAN_POINT('Origin',(-1.05196535559755E-13,78.9949006766429,426.099415872215));
#919=CARTESIAN_POINT('Origin',(-1.14385525636002E-13,154.02869885131,399.843961847294));
#920=CARTESIAN_POINT('',(9.99999999999989,154.02869885131,404.093961847294));
#921=CARTESIAN_POINT('Origin',(9.99999999999989,154.02869885131,399.843961847294));
#922=CARTESIAN_POINT('',(-1.14385525636002E-13,154.02869885131,404.093961847294));
#923=CARTESIAN_POINT('',(-1.14385525636002E-13,154.02869885131,404.093961847294));
#924=CARTESIAN_POINT('Origin',(-1.14385525636002E-13,154.02869885131,399.843961847294));
#925=CARTESIAN_POINT('Origin',(-1.22628642351239E-13,221.338854897738,357.550196023276));
#926=CARTESIAN_POINT('',(9.99999999999988,221.338854897738,361.800196023276));
#927=CARTESIAN_POINT('Origin',(9.99999999999988,221.338854897738,357.550196023276));
#928=CARTESIAN_POINT('',(-1.22628642351239E-13,221.338854897738,361.800196023276));
#929=CARTESIAN_POINT('',(-1.22628642351239E-13,221.338854897738,361.800196023276));
#930=CARTESIAN_POINT('Origin',(-1.22628642351239E-13,221.338854897738,357.550196023276));
#931=CARTESIAN_POINT('Origin',(-1.29512541413105E-13,277.550156529025,301.338904421962));
#932=CARTESIAN_POINT('',(9.99999999999987,277.550156529025,305.588904421962));
#933=CARTESIAN_POINT('Origin',(9.99999999999987,277.550156529025,301.338904421962));
#934=CARTESIAN_POINT('',(-1.29512541413105E-13,277.550156529025,305.588904421962));
#935=CARTESIAN_POINT('',(-1.29512541413105E-13,277.550156529025,305.588904421962));
#936=CARTESIAN_POINT('Origin',(-1.29512541413105E-13,277.550156529025,301.338904421962));
#937=CARTESIAN_POINT('Origin',(-1.3469203537798E-13,319.843934363423,234.028755922156));
#938=CARTESIAN_POINT('',(9.99999999999986,319.843934363423,238.278755922156));
#939=CARTESIAN_POINT('Origin',(9.99999999999986,319.843934363423,234.028755922156));
#940=CARTESIAN_POINT('',(-1.3469203537798E-13,319.843934363423,238.278755922156));
#941=CARTESIAN_POINT('',(-1.3469203537798E-13,319.843934363423,238.278755922156));
#942=CARTESIAN_POINT('Origin',(-1.3469203537798E-13,319.843934363423,234.028755922156));
#943=CARTESIAN_POINT('Origin',(-1.3790740279078E-13,346.09940177688,158.99496243234));
#944=CARTESIAN_POINT('',(9.99999999999986,346.09940177688,163.24496243234));
#945=CARTESIAN_POINT('Origin',(9.99999999999986,346.09940177688,158.99496243234));
#946=CARTESIAN_POINT('',(-1.3790740279078E-13,346.09940177688,163.24496243234));
#947=CARTESIAN_POINT('',(-1.3790740279078E-13,346.09940177688,163.24496243234));
#948=CARTESIAN_POINT('Origin',(-1.3790740279078E-13,346.09940177688,158.99496243234));
#949=CARTESIAN_POINT('Origin',(-1.38997411703224E-13,355.,80.0000316719301));
#950=CARTESIAN_POINT('',(9.99999999999986,355.,84.2500316719301));
#951=CARTESIAN_POINT('Origin',(9.99999999999986,355.,80.0000316719301));
#952=CARTESIAN_POINT('',(-1.38997411703224E-13,355.,84.2500316719301));
#953=CARTESIAN_POINT('',(-1.38997411703224E-13,355.,84.2500316719301));
#954=CARTESIAN_POINT('Origin',(-1.38997411703224E-13,355.,80.0000316719301));
#955=CARTESIAN_POINT('Origin',(-5.20474889637625E-14,-355.,80.0000316719301));
#956=CARTESIAN_POINT('',(9.99999999999995,-355.,84.2500316719301));
#957=CARTESIAN_POINT('Origin',(9.99999999999995,-355.,80.0000316719301));
#958=CARTESIAN_POINT('',(-5.20474889637625E-14,-355.,84.2500316719301));
#959=CARTESIAN_POINT('',(-5.20474889637625E-14,-355.,84.2500316719301));
#960=CARTESIAN_POINT('Origin',(-5.20474889637625E-14,-355.,80.0000316719301));
#961=CARTESIAN_POINT('Origin',(-5.31374978762066E-14,-346.09940177688,158.99496243234));
#962=CARTESIAN_POINT('',(9.99999999999995,-346.09940177688,163.24496243234));
#963=CARTESIAN_POINT('Origin',(9.99999999999995,-346.09940177688,158.99496243234));
#964=CARTESIAN_POINT('',(-5.31374978762066E-14,-346.09940177688,163.24496243234));
#965=CARTESIAN_POINT('',(-5.31374978762066E-14,-346.09940177688,163.24496243234));
#966=CARTESIAN_POINT('Origin',(-5.31374978762066E-14,-346.09940177688,158.99496243234));
#967=CARTESIAN_POINT('Origin',(-6.15323592538818E-14,-277.550156529025,
301.338904421962));
#968=CARTESIAN_POINT('',(9.99999999999994,-277.550156529025,305.588904421962));
#969=CARTESIAN_POINT('Origin',(9.99999999999994,-277.550156529025,301.338904421962));
#970=CARTESIAN_POINT('',(-6.15323592538818E-14,-277.550156529025,305.588904421962));
#971=CARTESIAN_POINT('',(-6.15323592538818E-14,-277.550156529025,305.588904421962));
#972=CARTESIAN_POINT('Origin',(-6.15323592538818E-14,-277.550156529025,
301.338904421962));
#973=CARTESIAN_POINT('Origin',(-6.8416258315748E-14,-221.338854897738,357.550196023276));
#974=CARTESIAN_POINT('',(9.99999999999993,-221.338854897738,361.800196023276));
#975=CARTESIAN_POINT('Origin',(9.99999999999993,-221.338854897738,357.550196023276));
#976=CARTESIAN_POINT('',(-6.8416258315748E-14,-221.338854897738,361.800196023276));
#977=CARTESIAN_POINT('',(-6.8416258315748E-14,-221.338854897738,361.800196023276));
#978=CARTESIAN_POINT('Origin',(-6.8416258315748E-14,-221.338854897738,357.550196023276));
#979=CARTESIAN_POINT('Origin',(-5.63528652890073E-14,-319.843934363423,
234.028755922156));
#980=CARTESIAN_POINT('',(9.99999999999994,-319.843934363423,238.278755922156));
#981=CARTESIAN_POINT('Origin',(9.99999999999994,-319.843934363423,234.028755922156));
#982=CARTESIAN_POINT('',(-5.63528652890073E-14,-319.843934363423,238.278755922156));
#983=CARTESIAN_POINT('',(-5.63528652890073E-14,-319.843934363423,238.278755922156));
#984=CARTESIAN_POINT('Origin',(-5.63528652890073E-14,-319.843934363423,
234.028755922156));
#985=CARTESIAN_POINT('Origin',(-8.58483651072321E-14,-78.9949006766429,
426.099415872215));
#986=CARTESIAN_POINT('',(9.99999999999991,-78.9949006766429,430.349415872215));
#987=CARTESIAN_POINT('Origin',(9.99999999999991,-78.9949006766429,426.099415872215));
#988=CARTESIAN_POINT('',(-8.58483651072321E-14,-78.9949006766429,430.349415872215));
#989=CARTESIAN_POINT('',(-8.58483651072321E-14,-78.9949006766429,430.349415872215));
#990=CARTESIAN_POINT('Origin',(-8.58483651072321E-14,-78.9949006766429,
426.099415872215));
#991=CARTESIAN_POINT('Origin',(-7.66593750309847E-14,-154.02869885131,399.843961847294));
#992=CARTESIAN_POINT('',(9.99999999999992,-154.02869885131,404.093961847294));
#993=CARTESIAN_POINT('Origin',(9.99999999999992,-154.02869885131,399.843961847294));
#994=CARTESIAN_POINT('',(-7.66593750309847E-14,-154.02869885131,404.093961847294));
#995=CARTESIAN_POINT('',(-7.66593750309847E-14,-154.02869885131,404.093961847294));
#996=CARTESIAN_POINT('Origin',(-7.66593750309847E-14,-154.02869885131,399.843961847294));
#997=CARTESIAN_POINT('Origin',(-9.55224542121862E-14,3.16719299320312E-5,
435.));
#998=CARTESIAN_POINT('',(-9.55224503252512E-14,-6.7303389528206E-8,439.249999999883));
#999=CARTESIAN_POINT('',(-9.55224503252512E-14,-6.7303389528206E-8,430.750000000118));
#1000=CARTESIAN_POINT('Origin',(-9.55224542121862E-14,3.16719299320312E-5,
435.));
#1001=CARTESIAN_POINT('',(9.9999999999999,-6.7303389528206E-8,439.249999999883));
#1002=CARTESIAN_POINT('',(-9.55224503252512E-14,-6.7303389528206E-8,439.249999999883));
#1003=CARTESIAN_POINT('',(9.9999999999999,-6.7303389528206E-8,430.750000000118));
#1004=CARTESIAN_POINT('Origin',(9.9999999999999,3.16719299320312E-5,435.));
#1005=CARTESIAN_POINT('',(-9.55224503252512E-14,-6.7303389528206E-8,430.750000000118));
#1006=CARTESIAN_POINT('Origin',(-9.55224464548007E-14,-3.16719299320312E-5,
435.));
#1007=CARTESIAN_POINT('Origin',(-9.55224464548007E-14,-3.16719299320312E-5,
435.));
#1008=CARTESIAN_POINT('Origin',(9.9999999999999,-3.16719299320312E-5,435.));
#1009=CARTESIAN_POINT('Origin',(-9.55224503334935E-14,0.,80.0000000000001));
#1010=CARTESIAN_POINT('',(-4.89858719658941E-14,-380.,79.9999684359707));
#1011=CARTESIAN_POINT('',(-1.42059028701093E-13,379.999999999998,80.0000372264707));
#1012=CARTESIAN_POINT('Origin',(-9.55224503334935E-14,0.,80.0000000000001));
#1013=CARTESIAN_POINT('',(9.99999999999995,-380.,79.9999684359707));
#1014=CARTESIAN_POINT('',(-4.89858719658941E-14,-380.,79.9999684359707));
#1015=CARTESIAN_POINT('',(9.99999999999986,379.999999999998,80.0000372264707));
#1016=CARTESIAN_POINT('Origin',(9.9999999999999,0.,80.0000000000001));
#1017=CARTESIAN_POINT('',(-1.42059028701093E-13,379.999999999998,80.0000372264707));
#1018=CARTESIAN_POINT('Origin',(-1.42059028701093E-13,380.,0.));
#1019=CARTESIAN_POINT('',(-1.42059028701093E-13,380.,-2.83644668160199E-15));
#1020=CARTESIAN_POINT('',(-1.42059028701093E-13,380.,80.0000317798306));
#1021=CARTESIAN_POINT('',(9.99999999999986,380.,-2.83644668160199E-15));
#1022=CARTESIAN_POINT('',(9.99999999999986,380.,80.0000317798306));
#1023=CARTESIAN_POINT('',(-1.42059028701093E-13,380.,-2.83644668160199E-15));
#1024=CARTESIAN_POINT('Origin',(-4.89858719658941E-14,-380.,79.9999684359707));
#1025=CARTESIAN_POINT('',(-4.89858719658941E-14,-380.,0.));
#1026=CARTESIAN_POINT('',(-4.89858719658941E-14,-380.,-50.));
#1027=CARTESIAN_POINT('',(9.99999999999995,-380.,0.));
#1028=CARTESIAN_POINT('',(-4.89858719658941E-14,-380.,0.));
#1029=CARTESIAN_POINT('',(9.99999999999995,-380.,-50.));
#1030=CARTESIAN_POINT('Origin',(9.9999999999999,-9.66075982551394E-46,230.));
#1031=CARTESIAN_POINT('',(9.99999999999986,329.918508456592,4.62292835757683E-18));
#1032=CARTESIAN_POINT('',(9.99999999999986,329.918508456592,80.));
#1033=CARTESIAN_POINT('',(9.99999999999986,329.918508456592,0.));
#1034=CARTESIAN_POINT('',(9.99999999999986,380.,-2.83644668160199E-15));
#1035=CARTESIAN_POINT('',(9.99999999999994,-329.918508456592,0.));
#1036=CARTESIAN_POINT('',(9.99999999999994,-300.,0.));
#1037=CARTESIAN_POINT('',(9.99999999999994,-329.918508456592,80.));
#1038=CARTESIAN_POINT('',(9.99999999999994,-329.918508456592,0.));
#1039=CARTESIAN_POINT('Ctrl Pts',(9.99999999999982,329.918508456592,80.));
#1040=CARTESIAN_POINT('Ctrl Pts',(9.99999999999982,329.918508456592,102.876436632628));
#1041=CARTESIAN_POINT('Ctrl Pts',(9.99999999999982,327.539142008852,125.690962206261));
#1042=CARTESIAN_POINT('Ctrl Pts',(9.99999999999982,318.098532273182,170.459257905845));
#1043=CARTESIAN_POINT('Ctrl Pts',(9.99999999999982,311.062838337876,192.29187050011));
#1044=CARTESIAN_POINT('Ctrl Pts',(9.99999999999982,284.478122382174,252.522479181692));
#1045=CARTESIAN_POINT('Ctrl Pts',(9.99999999999982,259.620126726213,288.060562663253));
#1046=CARTESIAN_POINT('Ctrl Pts',(9.99999999999983,197.681034444952,347.607953091566));
#1047=CARTESIAN_POINT('Ctrl Pts',(9.99999999999982,161.192109301275,371.047954529989));
#1048=CARTESIAN_POINT('Ctrl Pts',(9.99999999999983,81.2832053711454,402.621835066501));
#1049=CARTESIAN_POINT('Ctrl Pts',(9.99999999999982,38.6271992599838,410.453850657568));
#1050=CARTESIAN_POINT('Ctrl Pts',(9.99999999999983,-47.2859639007683,409.326351139807));
#1051=CARTESIAN_POINT('Ctrl Pts',(9.99999999999982,-89.7217442842503,400.377615540905));
#1052=CARTESIAN_POINT('Ctrl Pts',(9.99999999999983,-168.774536995357,366.717567649921));
#1053=CARTESIAN_POINT('Ctrl Pts',(9.99999999999982,-204.635761537563,342.328063761821));
#1054=CARTESIAN_POINT('Ctrl Pts',(9.99999999999983,-264.990825401261,281.175720180749));
#1055=CARTESIAN_POINT('Ctrl Pts',(9.99999999999982,-288.907637416164,244.997530223014));
#1056=CARTESIAN_POINT('Ctrl Pts',(9.99999999999982,-321.527410348019,165.509837632759));
#1057=CARTESIAN_POINT('Ctrl Pts',(9.99999999999982,-329.918508456592,122.960280665542));
#1058=CARTESIAN_POINT('Ctrl Pts',(9.99999999999982,-329.918508456592,80.));
#1059=CARTESIAN_POINT('Ctrl Pts',(441.315591843335,64.5189500469782,0.));
#1060=CARTESIAN_POINT('Ctrl Pts',(370.764409330909,324.03793257563,0.));
#1061=CARTESIAN_POINT('Ctrl Pts',(9.99999999999981,329.918508456592,0.));
#1062=CARTESIAN_POINT('Ctrl Pts',(441.315591843335,64.5189500469782,80.));
#1063=CARTESIAN_POINT('Ctrl Pts',(370.764409330909,324.03793257563,80.));
#1064=CARTESIAN_POINT('Ctrl Pts',(9.99999999999981,329.918508456592,80.));
#1065=CARTESIAN_POINT('',(441.315591843335,64.5189500469786,80.));
#1066=CARTESIAN_POINT('Origin',(0.,0.,80.));
#1067=CARTESIAN_POINT('',(441.315591843335,64.5189500469786,0.));
#1068=CARTESIAN_POINT('',(441.315591843335,64.5189500469786,0.));
#1069=CARTESIAN_POINT('Origin',(0.,0.,0.));
#1070=CARTESIAN_POINT('Ctrl Pts',(450.,-4.04133443718627E-14,80.));
#1071=CARTESIAN_POINT('Ctrl Pts',(450.,-4.04133443718626E-14,80.));
#1072=CARTESIAN_POINT('Ctrl Pts',(450.,0.,80.));
#1073=CARTESIAN_POINT('Ctrl Pts',(450.,4.04133443718626E-14,80.));
#1074=CARTESIAN_POINT('Ctrl Pts',(450.,4.04133443718627E-14,80.));
#1075=CARTESIAN_POINT('Ctrl Pts',(450.,330.,80.));
#1076=CARTESIAN_POINT('Ctrl Pts',(450.,330.,410.));
#1077=CARTESIAN_POINT('Ctrl Pts',(450.,0.,410.));
#1078=CARTESIAN_POINT('Ctrl Pts',(450.,-330.,410.));
#1079=CARTESIAN_POINT('Ctrl Pts',(450.,-330.,80.));
#1080=CARTESIAN_POINT('Ctrl Pts',(8.26636589424463E-14,330.,80.));
#1081=CARTESIAN_POINT('Ctrl Pts',(8.26636589424463E-14,330.,410.));
#1082=CARTESIAN_POINT('Ctrl Pts',(7.105427357601E-14,0.,410.));
#1083=CARTESIAN_POINT('Ctrl Pts',(5.94448882095737E-14,-330.,410.));
#1084=CARTESIAN_POINT('Ctrl Pts',(5.94448882095737E-14,-330.,80.));
#1085=CARTESIAN_POINT('',(404.421864072493,-144.715777517722,80.));
#1086=CARTESIAN_POINT('Origin',(0.,0.,80.));
#1087=CARTESIAN_POINT('Ctrl Pts',(404.421864072493,-144.715777517722,80.));
#1088=CARTESIAN_POINT('Ctrl Pts',(404.421864072493,-144.715777517722,93.1730668203396));
#1089=CARTESIAN_POINT('Ctrl Pts',(404.853341727884,-142.268746135131,106.223903747695));
#1090=CARTESIAN_POINT('Ctrl Pts',(406.589065890843,-132.424965245872,131.560484350141));
#1091=CARTESIAN_POINT('Ctrl Pts',(407.9321535561,-124.807936587913,143.471129765282));
#1092=CARTESIAN_POINT('Ctrl Pts',(411.348383248865,-105.433535239698,163.570847531788));
#1093=CARTESIAN_POINT('Ctrl Pts',(413.387041856666,-93.8717277408318,171.560225673501));
#1094=CARTESIAN_POINT('Ctrl Pts',(417.894716277197,-68.3074357509184,182.547189553472));
#1095=CARTESIAN_POINT('Ctrl Pts',(420.322095875423,-54.5410819660457,185.415832076191));
#1096=CARTESIAN_POINT('Ctrl Pts',(425.223728888382,-26.7425397732119,185.558018661863));
#1097=CARTESIAN_POINT('Ctrl Pts',(427.651647603402,-12.9731284883942,182.840439564475));
#1098=CARTESIAN_POINT('Ctrl Pts',(432.161545643817,12.6037742765367,172.178041798286));
#1099=CARTESIAN_POINT('Ctrl Pts',(434.203814197437,24.186054778633,164.38058859546));
#1100=CARTESIAN_POINT('Ctrl Pts',(437.628002794041,43.6055933134955,144.76502176395));
#1101=CARTESIAN_POINT('Ctrl Pts',(438.98279842484,51.289021146881,133.175346962185));
#1102=CARTESIAN_POINT('Ctrl Pts',(440.837069351692,61.8051141429852,107.602634589963));
#1103=CARTESIAN_POINT('Ctrl Pts',(441.315591843335,64.5189500469787,93.8727034840864));
#1104=CARTESIAN_POINT('Ctrl Pts',(441.315591843335,64.5189500469787,80.));
#1105=CARTESIAN_POINT('Ctrl Pts',(9.99999999999991,-329.918508456592,0.));
#1106=CARTESIAN_POINT('Ctrl Pts',(284.16281744237,-325.449566371372,0.));
#1107=CARTESIAN_POINT('Ctrl Pts',(404.421864072493,-144.715777517722,0.));
#1108=CARTESIAN_POINT('Ctrl Pts',(9.99999999999991,-329.918508456592,80.));
#1109=CARTESIAN_POINT('Ctrl Pts',(284.16281744237,-325.449566371372,80.));
#1110=CARTESIAN_POINT('Ctrl Pts',(404.421864072493,-144.715777517722,80.));
#1111=CARTESIAN_POINT('',(404.421864072493,-144.715777517722,0.));
#1112=CARTESIAN_POINT('Origin',(0.,0.,0.));
#1113=CARTESIAN_POINT('',(404.421864072493,-144.715777517722,0.));
#1114=CARTESIAN_POINT('Origin',(225.,-165.,0.));
#1115=CARTESIAN_POINT('',(7.34788079488412E-15,300.,0.));
#1116=CARTESIAN_POINT('',(-1.42059028701093E-13,380.,-2.83644668160199E-15));
#1117=CARTESIAN_POINT('',(407.661874563541,-126.340764924469,0.));
#1118=CARTESIAN_POINT('',(-5.87830463590729E-14,-300.,0.));
#1119=CARTESIAN_POINT('',(-5.87830463590729E-14,-300.,0.));
#1120=CARTESIAN_POINT('',(375.873657476193,-133.8575880757,0.));
#1121=CARTESIAN_POINT('Origin',(0.,0.,0.));
#1122=CARTESIAN_POINT('',(410.603293009579,63.103962526742,0.));
#1123=CARTESIAN_POINT('',(375.873657476193,-133.8575880757,0.));
#1124=CARTESIAN_POINT('Origin',(0.,0.,0.));
#1125=CARTESIAN_POINT('Origin',(419.780922592868,-57.6102281646729,80.));
#1126=CARTESIAN_POINT('Origin',(410.603293009579,63.103962526742,0.));
#1127=CARTESIAN_POINT('',(410.603293009579,63.103962526742,79.9999999999869));
#1128=CARTESIAN_POINT('',(403.517597370703,22.9189856706405,160.));
#1129=CARTESIAN_POINT('Ctrl Pts',(410.603293009579,63.103962526742,80.));
#1130=CARTESIAN_POINT('Ctrl Pts',(410.603293009579,63.103962526742,89.3049377544769));
#1131=CARTESIAN_POINT('Ctrl Pts',(410.374394344517,61.8058136890421,98.5610868673764));
#1132=CARTESIAN_POINT('Ctrl Pts',(409.432656509869,56.464953028556,117.23248367831));
#1133=CARTESIAN_POINT('Ctrl Pts',(408.68415384403,52.2199834678466,126.472680000935));
#1134=CARTESIAN_POINT('Ctrl Pts',(406.57639161416,40.2662698535073,144.62045262327));
#1135=CARTESIAN_POINT('Ctrl Pts',(405.158090457652,32.2226842898617,153.112874705286));
#1136=CARTESIAN_POINT('Ctrl Pts',(403.517597370703,22.9189856706405,160.));
#1137=CARTESIAN_POINT('',(410.603293009579,63.1039625267419,0.));
#1138=CARTESIAN_POINT('',(375.873657476193,-133.8575880757,79.9999999999926));
#1139=CARTESIAN_POINT('',(375.873657476193,-133.8575880757,0.));
#1140=CARTESIAN_POINT('',(382.959353115069,-93.6726112195983,160.));
#1141=CARTESIAN_POINT('Ctrl Pts',(382.959353115069,-93.6726112195982,160.));
#1142=CARTESIAN_POINT('Ctrl Pts',(381.710573206831,-100.754794009893,154.757366695428));
#1143=CARTESIAN_POINT('Ctrl Pts',(380.588760034899,-107.11691265747,148.577046613084));
#1144=CARTESIAN_POINT('Ctrl Pts',(378.601052276319,-118.389763531421,134.22823899462));
#1145=CARTESIAN_POINT('Ctrl Pts',(377.765771438035,-123.126876563334,126.035461664297));
#1146=CARTESIAN_POINT('Ctrl Pts',(376.305857282828,-131.40646116996,105.445814582259));
#1147=CARTESIAN_POINT('Ctrl Pts',(375.873657476193,-133.8575880757,92.7862338324064));
#1148=CARTESIAN_POINT('Ctrl Pts',(375.873657476193,-133.8575880757,80.));
#1149=CARTESIAN_POINT('',(375.873657476193,-133.8575880757,160.));
#1150=CARTESIAN_POINT('Origin',(397.936828738096,-35.3768127744788,160.));
#1151=CARTESIAN_POINT('Ctrl Pts',(403.517597370703,22.9189856706405,160.));
#1152=CARTESIAN_POINT('Ctrl Pts',(404.258118760613,16.2670410920542,160.));
#1153=CARTESIAN_POINT('Ctrl Pts',(404.677755265906,9.58330210289551,160.));
#1154=CARTESIAN_POINT('Ctrl Pts',(404.874001318833,-4.49103555314793,160.));
#1155=CARTESIAN_POINT('Ctrl Pts',(404.582044355393,-11.8541427496848,160.));
#1156=CARTESIAN_POINT('Ctrl Pts',(402.447664850914,-34.7696091848065,160.));
#1157=CARTESIAN_POINT('Ctrl Pts',(399.249141585825,-50.0700179952714,159.999999999997));
#1158=CARTESIAN_POINT('Ctrl Pts',(391.269373889984,-74.7916645667234,159.999999999997));
#1159=CARTESIAN_POINT('Ctrl Pts',(387.418397993566,-84.3716929929426,160.));
#1160=CARTESIAN_POINT('Ctrl Pts',(382.959353115069,-93.6726112195982,160.));
#1161=CARTESIAN_POINT('Ctrl Pts',(2.57175827820944E-14,300.,80.));
#1162=CARTESIAN_POINT('Ctrl Pts',(2.57175827820944E-14,300.,380.));
#1163=CARTESIAN_POINT('Ctrl Pts',(3.5527136788005E-14,0.,380.));
#1164=CARTESIAN_POINT('Ctrl Pts',(4.53366907939156E-14,-300.,380.));
#1165=CARTESIAN_POINT('Ctrl Pts',(4.53366907939156E-14,-300.,80.));
#1166=CARTESIAN_POINT('Ctrl Pts',(420.,300.,80.));
#1167=CARTESIAN_POINT('Ctrl Pts',(420.,300.,380.));
#1168=CARTESIAN_POINT('Ctrl Pts',(420.,0.,380.));
#1169=CARTESIAN_POINT('Ctrl Pts',(420.,-300.,380.));
#1170=CARTESIAN_POINT('Ctrl Pts',(420.,-300.,80.));
#1171=CARTESIAN_POINT('Ctrl Pts',(420.,-3.67394039744206E-14,80.));
#1172=CARTESIAN_POINT('Ctrl Pts',(420.,-3.67394039744206E-14,80.));
#1173=CARTESIAN_POINT('Ctrl Pts',(420.,0.,80.));
#1174=CARTESIAN_POINT('Ctrl Pts',(420.,3.67394039744206E-14,80.));
#1175=CARTESIAN_POINT('Ctrl Pts',(420.,3.67394039744206E-14,80.));
#1176=CARTESIAN_POINT('',(-5.87830463590729E-14,-300.,80.));
#1177=CARTESIAN_POINT('Origin',(0.,0.,80.));
#1178=CARTESIAN_POINT('',(7.34788079488412E-15,300.,80.));
#1179=CARTESIAN_POINT('Origin',(3.67394039744206E-15,-4.62591713909782E-15,
80.));
#1180=CARTESIAN_POINT('Origin',(0.,0.,80.));
#1181=CARTESIAN_POINT('Ctrl Pts',(0.,-300.,0.));
#1182=CARTESIAN_POINT('Ctrl Pts',(259.905785543581,-300.,0.));
#1183=CARTESIAN_POINT('Ctrl Pts',(375.873657476193,-133.857588075699,0.));
#1184=CARTESIAN_POINT('Ctrl Pts',(0.,-300.,80.));
#1185=CARTESIAN_POINT('Ctrl Pts',(259.905785543581,-300.,80.));
#1186=CARTESIAN_POINT('Ctrl Pts',(375.873657476193,-133.857588075699,80.));
#1187=CARTESIAN_POINT('',(-5.87830463590729E-14,-300.,0.));
#1188=CARTESIAN_POINT('Ctrl Pts',(410.603293009579,63.103962526742,0.));
#1189=CARTESIAN_POINT('Ctrl Pts',(339.244405502189,300.,0.));
#1190=CARTESIAN_POINT('Ctrl Pts',(0.,300.,0.));
#1191=CARTESIAN_POINT('Ctrl Pts',(410.603293009579,63.103962526742,80.));
#1192=CARTESIAN_POINT('Ctrl Pts',(339.244405502189,300.,80.));
#1193=CARTESIAN_POINT('Ctrl Pts',(0.,300.,80.));
#1194=CARTESIAN_POINT('',(7.34788079488412E-15,300.,0.));
#1195=CARTESIAN_POINT('Origin',(-5.87830463590729E-14,-300.,0.));
#1196=UNCERTAINTY_MEASURE_WITH_UNIT(LENGTH_MEASURE(0.01),#1200,
'DISTANCE_ACCURACY_VALUE',
'Maximum model space distance between geometric entities at asserted c
onnectivities');
#1197=UNCERTAINTY_MEASURE_WITH_UNIT(LENGTH_MEASURE(0.01),#1200,
'DISTANCE_ACCURACY_VALUE',
'Maximum model space distance between geometric entities at asserted c
onnectivities');
#1198=(
GEOMETRIC_REPRESENTATION_CONTEXT(3)
GLOBAL_UNCERTAINTY_ASSIGNED_CONTEXT((#1196))
GLOBAL_UNIT_ASSIGNED_CONTEXT((#1200,#1202,#1203))
REPRESENTATION_CONTEXT('','3D')
);
#1199=(
GEOMETRIC_REPRESENTATION_CONTEXT(3)
GLOBAL_UNCERTAINTY_ASSIGNED_CONTEXT((#1197))
GLOBAL_UNIT_ASSIGNED_CONTEXT((#1200,#1202,#1203))
REPRESENTATION_CONTEXT('','3D')
);
#1200=(
LENGTH_UNIT()
NAMED_UNIT(*)
SI_UNIT(.MILLI.,.METRE.)
);
#1201=(
LENGTH_UNIT()
NAMED_UNIT(*)
SI_UNIT(.CENTI.,.METRE.)
);
#1202=(
NAMED_UNIT(*)
PLANE_ANGLE_UNIT()
SI_UNIT($,.RADIAN.)
);
#1203=(
NAMED_UNIT(*)
SI_UNIT($,.STERADIAN.)
SOLID_ANGLE_UNIT()
);
#1204=SHAPE_DEFINITION_REPRESENTATION(#1205,#1206);
#1205=PRODUCT_DEFINITION_SHAPE('',$,#1208);
#1206=SHAPE_REPRESENTATION('',(#666),#1198);
#1207=PRODUCT_DEFINITION_CONTEXT('part definition',#1212,'design');
#1208=PRODUCT_DEFINITION('eggshellCorePrinted','eggshellCorePrinted',#1209,
#1207);
#1209=PRODUCT_DEFINITION_FORMATION('',$,#1214);
#1210=PRODUCT_RELATED_PRODUCT_CATEGORY('eggshellCorePrinted',
'eggshellCorePrinted',(#1214));
#1211=APPLICATION_PROTOCOL_DEFINITION('international standard',
'automotive_design',2009,#1212);
#1212=APPLICATION_CONTEXT(
'Core Data for Automotive Mechanical Design Process');
#1213=PRODUCT_CONTEXT('part definition',#1212,'mechanical');
#1214=PRODUCT('eggshellCorePrinted','eggshellCorePrinted',$,(#1213));
#1215=PRESENTATION_STYLE_ASSIGNMENT((#1216));
#1216=SURFACE_STYLE_USAGE(.BOTH.,#1219);
#1217=SURFACE_STYLE_RENDERING_WITH_PROPERTIES($,#1223,(#1218));
#1218=SURFACE_STYLE_TRANSPARENT(0.);
#1219=SURFACE_SIDE_STYLE('',(#1220,#1217));
#1220=SURFACE_STYLE_FILL_AREA(#1221);
#1221=FILL_AREA_STYLE('',(#1222));
#1222=FILL_AREA_STYLE_COLOUR('',#1223);
#1223=COLOUR_RGB('',0.749019607843137,0.749019607843137,0.749019607843137);
ENDSEC;
END-ISO-10303-21;
