ISO-10303-21;
HEADER;
/* Generated by software containing ST-Developer
 * from STEP Tools, Inc. (www.steptools.com) 
 */

FILE_DESCRIPTION(
/* description */ (''),
/* implementation_level */ '2;1');

FILE_NAME(
/* name */ 
'C:\\Users\\Nathann\\ClawdDrive\\Objet3D\\neodrive\\neodrive-cad-ergon
omic-v1\\rearwheelCorePrintedRight.stp',
/* time_stamp */ '2026-03-23T14:22:31+01:00',
/* author */ ('Nathann'),
/* organization */ (''),
/* preprocessor_version */ 'ST-DEVELOPER v19',
/* originating_system */ 'Autodesk Inventor 2023',
/* authorisation */ '');

FILE_SCHEMA (('AUTOMOTIVE_DESIGN { 1 0 10303 214 3 1 1 }'));
ENDSEC;

DATA;
#10=MECHANICAL_DESIGN_GEOMETRIC_PRESENTATION_REPRESENTATION('',(#16),#1767);
#11=GEOMETRICALLY_BOUNDED_WIREFRAME_SHAPE_REPRESENTATION('',(#12),#1766);
#12=GEOMETRIC_CURVE_SET('Sketch10',(#1763));
#13=SHAPE_REPRESENTATION_RELATIONSHIP('SRR','None',#1774,#15);
#14=SHAPE_REPRESENTATION_RELATIONSHIP('SRR','None',#1774,#11);
#15=ADVANCED_BREP_SHAPE_REPRESENTATION('',(#17),#1766);
#16=STYLED_ITEM('',(#1783),#17);
#17=MANIFOLD_SOLID_BREP('Solid1',#1035);
#18=(
BOUNDED_SURFACE()
B_SPLINE_SURFACE(1,2,((#1722,#1723,#1724),(#1725,#1726,#1727)),
 .UNSPECIFIED.,.F.,.F.,.F.)
B_SPLINE_SURFACE_WITH_KNOTS((2,2),(3,3),(0.,0.366666666666667),(1.5707963267949,
2.68762734123457),.UNSPECIFIED.)
GEOMETRIC_REPRESENTATION_ITEM()
RATIONAL_B_SPLINE_SURFACE(((1.,0.848095707790286,1.),(1.,0.848095707790286,
1.)))
REPRESENTATION_ITEM('')
SURFACE()
);
#19=(
BOUNDED_SURFACE()
B_SPLINE_SURFACE(1,2,((#1741,#1742,#1743),(#1744,#1745,#1746)),
 .UNSPECIFIED.,.F.,.F.,.F.)
B_SPLINE_SURFACE_WITH_KNOTS((2,2),(3,3),(0.,0.380952380952381),(-2.92966323493415,
-1.5707963267949),.UNSPECIFIED.)
GEOMETRIC_REPRESENTATION_ITEM()
RATIONAL_B_SPLINE_SURFACE(((1.,0.777928834070253,1.),(1.,0.777928834070253,
1.)))
REPRESENTATION_ITEM('')
SURFACE()
);
#20=(
BOUNDED_SURFACE()
B_SPLINE_SURFACE(1,2,((#1748,#1749,#1750),(#1751,#1752,#1753)),
 .UNSPECIFIED.,.F.,.F.,.F.)
B_SPLINE_SURFACE_WITH_KNOTS((2,2),(3,3),(0.,0.380952380952381),(1.5707963267949,
2.67908694178583),.UNSPECIFIED.)
GEOMETRIC_REPRESENTATION_ITEM()
RATIONAL_B_SPLINE_SURFACE(((1.,0.850350504278186,1.),(1.,0.850350504278186,
1.)))
REPRESENTATION_ITEM('')
SURFACE()
);
#21=(
BOUNDED_SURFACE()
B_SPLINE_SURFACE(1,2,((#1757,#1758,#1759),(#1760,#1761,#1762)),
 .UNSPECIFIED.,.F.,.F.,.F.)
B_SPLINE_SURFACE_WITH_KNOTS((2,2),(3,3),(0.,0.366666666666667),(-2.94481318595159,
-1.5707963267949),.UNSPECIFIED.)
GEOMETRIC_REPRESENTATION_ITEM()
RATIONAL_B_SPLINE_SURFACE(((1.,0.773146806835328,1.),(1.,0.773146806835328,
1.)))
REPRESENTATION_ITEM('')
SURFACE()
);
#22=FACE_BOUND('',#194,.T.);
#23=FACE_BOUND('',#195,.T.);
#24=FACE_BOUND('',#196,.T.);
#25=FACE_BOUND('',#197,.T.);
#26=FACE_BOUND('',#198,.T.);
#27=FACE_BOUND('',#199,.T.);
#28=FACE_BOUND('',#200,.T.);
#29=FACE_BOUND('',#201,.T.);
#30=FACE_BOUND('',#202,.T.);
#31=FACE_BOUND('',#203,.T.);
#32=FACE_BOUND('',#204,.T.);
#33=FACE_BOUND('',#205,.T.);
#34=FACE_BOUND('',#206,.T.);
#35=FACE_BOUND('',#207,.T.);
#36=FACE_BOUND('',#208,.T.);
#37=FACE_BOUND('',#209,.T.);
#38=FACE_BOUND('',#210,.T.);
#39=FACE_BOUND('',#211,.T.);
#40=FACE_BOUND('',#212,.T.);
#41=FACE_BOUND('',#213,.T.);
#42=FACE_BOUND('',#216,.T.);
#43=FACE_BOUND('',#217,.T.);
#44=FACE_BOUND('',#218,.T.);
#45=FACE_BOUND('',#219,.T.);
#46=FACE_BOUND('',#220,.T.);
#47=FACE_BOUND('',#221,.T.);
#48=FACE_BOUND('',#222,.T.);
#49=FACE_BOUND('',#223,.T.);
#50=FACE_BOUND('',#224,.T.);
#51=FACE_BOUND('',#229,.T.);
#52=FACE_BOUND('',#230,.T.);
#53=FACE_BOUND('',#231,.T.);
#54=FACE_BOUND('',#232,.T.);
#55=FACE_BOUND('',#233,.T.);
#56=FACE_BOUND('',#234,.T.);
#57=FACE_BOUND('',#235,.T.);
#58=FACE_BOUND('',#236,.T.);
#59=FACE_BOUND('',#237,.T.);
#60=FACE_BOUND('',#241,.T.);
#61=FACE_BOUND('',#242,.T.);
#62=FACE_BOUND('',#243,.T.);
#63=FACE_BOUND('',#244,.T.);
#64=FACE_BOUND('',#245,.T.);
#65=FACE_BOUND('',#246,.T.);
#66=FACE_BOUND('',#247,.T.);
#67=FACE_BOUND('',#248,.T.);
#68=FACE_BOUND('',#249,.T.);
#69=FACE_BOUND('',#250,.T.);
#70=FACE_BOUND('',#251,.T.);
#71=FACE_BOUND('',#252,.T.);
#72=FACE_BOUND('',#253,.T.);
#73=FACE_BOUND('',#254,.T.);
#74=FACE_BOUND('',#255,.T.);
#75=FACE_BOUND('',#256,.T.);
#76=FACE_BOUND('',#257,.T.);
#77=FACE_BOUND('',#258,.T.);
#78=FACE_BOUND('',#259,.T.);
#79=FACE_BOUND('',#260,.T.);
#80=ELLIPSE('',#1086,450.,330.);
#81=ELLIPSE('',#1152,450.,330.);
#82=ELLIPSE('',#1158,450.,330.);
#83=ELLIPSE('',#1159,450.,330.);
#84=ELLIPSE('',#1162,450.,330.);
#85=ELLIPSE('',#1163,420.,300.);
#86=ELLIPSE('',#1164,420.,300.);
#87=ELLIPSE('',#1165,450.,330.);
#88=ELLIPSE('',#1167,420.,300.);
#89=ELLIPSE('',#1168,420.,300.);
#90=PLANE('',#1085);
#91=PLANE('',#1147);
#92=PLANE('',#1148);
#93=PLANE('',#1149);
#94=PLANE('',#1150);
#95=PLANE('',#1151);
#96=PLANE('',#1153);
#97=PLANE('',#1154);
#98=PLANE('',#1155);
#99=PLANE('',#1156);
#100=PLANE('',#1157);
#101=PLANE('',#1160);
#102=PLANE('',#1161);
#103=PLANE('',#1166);
#104=PLANE('',#1169);
#105=PLANE('',#1170);
#106=FACE_OUTER_BOUND('',#155,.T.);
#107=FACE_OUTER_BOUND('',#156,.T.);
#108=FACE_OUTER_BOUND('',#157,.T.);
#109=FACE_OUTER_BOUND('',#158,.T.);
#110=FACE_OUTER_BOUND('',#159,.T.);
#111=FACE_OUTER_BOUND('',#160,.T.);
#112=FACE_OUTER_BOUND('',#161,.T.);
#113=FACE_OUTER_BOUND('',#162,.T.);
#114=FACE_OUTER_BOUND('',#163,.T.);
#115=FACE_OUTER_BOUND('',#164,.T.);
#116=FACE_OUTER_BOUND('',#165,.T.);
#117=FACE_OUTER_BOUND('',#166,.T.);
#118=FACE_OUTER_BOUND('',#167,.T.);
#119=FACE_OUTER_BOUND('',#168,.T.);
#120=FACE_OUTER_BOUND('',#169,.T.);
#121=FACE_OUTER_BOUND('',#170,.T.);
#122=FACE_OUTER_BOUND('',#171,.T.);
#123=FACE_OUTER_BOUND('',#172,.T.);
#124=FACE_OUTER_BOUND('',#173,.T.);
#125=FACE_OUTER_BOUND('',#174,.T.);
#126=FACE_OUTER_BOUND('',#175,.T.);
#127=FACE_OUTER_BOUND('',#176,.T.);
#128=FACE_OUTER_BOUND('',#177,.T.);
#129=FACE_OUTER_BOUND('',#178,.T.);
#130=FACE_OUTER_BOUND('',#179,.T.);
#131=FACE_OUTER_BOUND('',#180,.T.);
#132=FACE_OUTER_BOUND('',#181,.T.);
#133=FACE_OUTER_BOUND('',#182,.T.);
#134=FACE_OUTER_BOUND('',#183,.T.);
#135=FACE_OUTER_BOUND('',#184,.T.);
#136=FACE_OUTER_BOUND('',#185,.T.);
#137=FACE_OUTER_BOUND('',#186,.T.);
#138=FACE_OUTER_BOUND('',#187,.T.);
#139=FACE_OUTER_BOUND('',#188,.T.);
#140=FACE_OUTER_BOUND('',#189,.T.);
#141=FACE_OUTER_BOUND('',#190,.T.);
#142=FACE_OUTER_BOUND('',#191,.T.);
#143=FACE_OUTER_BOUND('',#192,.T.);
#144=FACE_OUTER_BOUND('',#193,.T.);
#145=FACE_OUTER_BOUND('',#214,.T.);
#146=FACE_OUTER_BOUND('',#215,.T.);
#147=FACE_OUTER_BOUND('',#225,.T.);
#148=FACE_OUTER_BOUND('',#226,.T.);
#149=FACE_OUTER_BOUND('',#227,.T.);
#150=FACE_OUTER_BOUND('',#228,.T.);
#151=FACE_OUTER_BOUND('',#238,.T.);
#152=FACE_OUTER_BOUND('',#239,.T.);
#153=FACE_OUTER_BOUND('',#240,.T.);
#154=FACE_OUTER_BOUND('',#261,.T.);
#155=EDGE_LOOP('',(#683,#684,#685,#686));
#156=EDGE_LOOP('',(#687,#688,#689,#690));
#157=EDGE_LOOP('',(#691,#692,#693,#694));
#158=EDGE_LOOP('',(#695,#696,#697,#698));
#159=EDGE_LOOP('',(#699,#700,#701,#702));
#160=EDGE_LOOP('',(#703,#704,#705,#706));
#161=EDGE_LOOP('',(#707,#708,#709,#710));
#162=EDGE_LOOP('',(#711,#712,#713,#714));
#163=EDGE_LOOP('',(#715,#716,#717,#718));
#164=EDGE_LOOP('',(#719,#720,#721));
#165=EDGE_LOOP('',(#722,#723,#724,#725));
#166=EDGE_LOOP('',(#726,#727,#728,#729));
#167=EDGE_LOOP('',(#730,#731,#732,#733));
#168=EDGE_LOOP('',(#734,#735,#736,#737));
#169=EDGE_LOOP('',(#738,#739,#740,#741));
#170=EDGE_LOOP('',(#742,#743,#744,#745));
#171=EDGE_LOOP('',(#746,#747,#748,#749));
#172=EDGE_LOOP('',(#750,#751,#752,#753));
#173=EDGE_LOOP('',(#754,#755,#756,#757));
#174=EDGE_LOOP('',(#758,#759,#760,#761));
#175=EDGE_LOOP('',(#762,#763,#764,#765));
#176=EDGE_LOOP('',(#766,#767,#768,#769));
#177=EDGE_LOOP('',(#770,#771,#772,#773));
#178=EDGE_LOOP('',(#774,#775,#776,#777));
#179=EDGE_LOOP('',(#778,#779,#780,#781));
#180=EDGE_LOOP('',(#782,#783,#784,#785));
#181=EDGE_LOOP('',(#786,#787,#788,#789));
#182=EDGE_LOOP('',(#790,#791,#792,#793));
#183=EDGE_LOOP('',(#794,#795,#796,#797));
#184=EDGE_LOOP('',(#798,#799,#800,#801));
#185=EDGE_LOOP('',(#802,#803,#804,#805));
#186=EDGE_LOOP('',(#806,#807,#808,#809));
#187=EDGE_LOOP('',(#810,#811,#812,#813));
#188=EDGE_LOOP('',(#814,#815,#816,#817));
#189=EDGE_LOOP('',(#818,#819,#820));
#190=EDGE_LOOP('',(#821,#822,#823,#824));
#191=EDGE_LOOP('',(#825,#826,#827,#828));
#192=EDGE_LOOP('',(#829,#830,#831,#832));
#193=EDGE_LOOP('',(#833,#834,#835,#836,#837,#838,#839,#840,#841,#842));
#194=EDGE_LOOP('',(#843));
#195=EDGE_LOOP('',(#844));
#196=EDGE_LOOP('',(#845));
#197=EDGE_LOOP('',(#846));
#198=EDGE_LOOP('',(#847));
#199=EDGE_LOOP('',(#848));
#200=EDGE_LOOP('',(#849));
#201=EDGE_LOOP('',(#850));
#202=EDGE_LOOP('',(#851));
#203=EDGE_LOOP('',(#852));
#204=EDGE_LOOP('',(#853));
#205=EDGE_LOOP('',(#854));
#206=EDGE_LOOP('',(#855));
#207=EDGE_LOOP('',(#856));
#208=EDGE_LOOP('',(#857));
#209=EDGE_LOOP('',(#858));
#210=EDGE_LOOP('',(#859));
#211=EDGE_LOOP('',(#860));
#212=EDGE_LOOP('',(#861));
#213=EDGE_LOOP('',(#862));
#214=EDGE_LOOP('',(#863,#864,#865,#866));
#215=EDGE_LOOP('',(#867,#868,#869,#870));
#216=EDGE_LOOP('',(#871));
#217=EDGE_LOOP('',(#872));
#218=EDGE_LOOP('',(#873));
#219=EDGE_LOOP('',(#874));
#220=EDGE_LOOP('',(#875));
#221=EDGE_LOOP('',(#876));
#222=EDGE_LOOP('',(#877));
#223=EDGE_LOOP('',(#878));
#224=EDGE_LOOP('',(#879));
#225=EDGE_LOOP('',(#880,#881,#882,#883,#884,#885,#886,#887));
#226=EDGE_LOOP('',(#888,#889,#890,#891,#892));
#227=EDGE_LOOP('',(#893,#894,#895,#896));
#228=EDGE_LOOP('',(#897,#898,#899,#900));
#229=EDGE_LOOP('',(#901));
#230=EDGE_LOOP('',(#902));
#231=EDGE_LOOP('',(#903));
#232=EDGE_LOOP('',(#904));
#233=EDGE_LOOP('',(#905));
#234=EDGE_LOOP('',(#906));
#235=EDGE_LOOP('',(#907));
#236=EDGE_LOOP('',(#908));
#237=EDGE_LOOP('',(#909));
#238=EDGE_LOOP('',(#910,#911,#912,#913));
#239=EDGE_LOOP('',(#914,#915,#916,#917));
#240=EDGE_LOOP('',(#918,#919,#920,#921,#922,#923,#924,#925,#926,#927,#928,
#929,#930,#931));
#241=EDGE_LOOP('',(#932));
#242=EDGE_LOOP('',(#933));
#243=EDGE_LOOP('',(#934));
#244=EDGE_LOOP('',(#935));
#245=EDGE_LOOP('',(#936));
#246=EDGE_LOOP('',(#937));
#247=EDGE_LOOP('',(#938));
#248=EDGE_LOOP('',(#939));
#249=EDGE_LOOP('',(#940));
#250=EDGE_LOOP('',(#941));
#251=EDGE_LOOP('',(#942));
#252=EDGE_LOOP('',(#943));
#253=EDGE_LOOP('',(#944));
#254=EDGE_LOOP('',(#945));
#255=EDGE_LOOP('',(#946));
#256=EDGE_LOOP('',(#947));
#257=EDGE_LOOP('',(#948));
#258=EDGE_LOOP('',(#949));
#259=EDGE_LOOP('',(#950));
#260=EDGE_LOOP('',(#951));
#261=EDGE_LOOP('',(#952,#953,#954,#955,#956));
#262=LINE('',#1473,#331);
#263=LINE('',#1479,#332);
#264=LINE('',#1485,#333);
#265=LINE('',#1491,#334);
#266=LINE('',#1497,#335);
#267=LINE('',#1503,#336);
#268=LINE('',#1509,#337);
#269=LINE('',#1515,#338);
#270=LINE('',#1521,#339);
#271=LINE('',#1528,#340);
#272=LINE('',#1529,#341);
#273=LINE('',#1534,#342);
#274=LINE('',#1540,#343);
#275=LINE('',#1546,#344);
#276=LINE('',#1552,#345);
#277=LINE('',#1558,#346);
#278=LINE('',#1564,#347);
#279=LINE('',#1570,#348);
#280=LINE('',#1576,#349);
#281=LINE('',#1582,#350);
#282=LINE('',#1588,#351);
#283=LINE('',#1594,#352);
#284=LINE('',#1600,#353);
#285=LINE('',#1606,#354);
#286=LINE('',#1612,#355);
#287=LINE('',#1618,#356);
#288=LINE('',#1624,#357);
#289=LINE('',#1630,#358);
#290=LINE('',#1636,#359);
#291=LINE('',#1642,#360);
#292=LINE('',#1648,#361);
#293=LINE('',#1653,#362);
#294=LINE('',#1655,#363);
#295=LINE('',#1657,#364);
#296=LINE('',#1658,#365);
#297=LINE('',#1661,#366);
#298=LINE('',#1663,#367);
#299=LINE('',#1664,#368);
#300=LINE('',#1667,#369);
#301=LINE('',#1669,#370);
#302=LINE('',#1670,#371);
#303=LINE('',#1673,#372);
#304=LINE('',#1675,#373);
#305=LINE('',#1676,#374);
#306=LINE('',#1680,#375);
#307=LINE('',#1683,#376);
#308=LINE('',#1685,#377);
#309=LINE('',#1686,#378);
#310=LINE('',#1689,#379);
#311=LINE('',#1691,#380);
#312=LINE('',#1692,#381);
#313=LINE('',#1694,#382);
#314=LINE('',#1695,#383);
#315=LINE('',#1697,#384);
#316=LINE('',#1702,#385);
#317=LINE('',#1706,#386);
#318=LINE('',#1708,#387);
#319=LINE('',#1709,#388);
#320=LINE('',#1713,#389);
#321=LINE('',#1717,#390);
#322=LINE('',#1720,#391);
#323=LINE('',#1728,#392);
#324=LINE('',#1734,#393);
#325=LINE('',#1737,#394);
#326=LINE('',#1739,#395);
#327=LINE('',#1740,#396);
#328=LINE('',#1747,#397);
#329=LINE('',#1754,#398);
#330=LINE('',#1756,#399);
#331=VECTOR('',#1177,4.5);
#332=VECTOR('',#1184,4.5);
#333=VECTOR('',#1191,4.5);
#334=VECTOR('',#1198,35.);
#335=VECTOR('',#1205,4.5);
#336=VECTOR('',#1212,4.5);
#337=VECTOR('',#1219,4.5);
#338=VECTOR('',#1226,4.5);
#339=VECTOR('',#1233,4.5);
#340=VECTOR('',#1240,10.);
#341=VECTOR('',#1241,10.);
#342=VECTOR('',#1246,4.5);
#343=VECTOR('',#1253,4.5);
#344=VECTOR('',#1260,4.5);
#345=VECTOR('',#1267,4.5);
#346=VECTOR('',#1274,4.5);
#347=VECTOR('',#1281,4.5);
#348=VECTOR('',#1288,4.5);
#349=VECTOR('',#1295,4.5);
#350=VECTOR('',#1302,4.5);
#351=VECTOR('',#1309,4.5);
#352=VECTOR('',#1316,4.5);
#353=VECTOR('',#1323,4.5);
#354=VECTOR('',#1330,4.5);
#355=VECTOR('',#1337,4.5);
#356=VECTOR('',#1344,4.5);
#357=VECTOR('',#1351,4.5);
#358=VECTOR('',#1358,4.5);
#359=VECTOR('',#1365,4.5);
#360=VECTOR('',#1372,4.5);
#361=VECTOR('',#1379,4.5);
#362=VECTOR('',#1384,10.);
#363=VECTOR('',#1385,10.);
#364=VECTOR('',#1386,10.);
#365=VECTOR('',#1387,10.);
#366=VECTOR('',#1390,10.);
#367=VECTOR('',#1391,10.);
#368=VECTOR('',#1392,10.);
#369=VECTOR('',#1395,10.);
#370=VECTOR('',#1396,10.);
#371=VECTOR('',#1397,10.);
#372=VECTOR('',#1400,10.);
#373=VECTOR('',#1401,10.);
#374=VECTOR('',#1402,10.);
#375=VECTOR('',#1407,10.);
#376=VECTOR('',#1410,10.);
#377=VECTOR('',#1411,10.);
#378=VECTOR('',#1412,10.);
#379=VECTOR('',#1415,10.);
#380=VECTOR('',#1416,10.);
#381=VECTOR('',#1417,10.);
#382=VECTOR('',#1420,10.);
#383=VECTOR('',#1421,10.);
#384=VECTOR('',#1424,10.);
#385=VECTOR('',#1429,10.);
#386=VECTOR('',#1434,10.);
#387=VECTOR('',#1435,10.);
#388=VECTOR('',#1436,10.);
#389=VECTOR('',#1441,10.);
#390=VECTOR('',#1444,10.);
#391=VECTOR('',#1447,10.);
#392=VECTOR('',#1450,10.);
#393=VECTOR('',#1455,10.);
#394=VECTOR('',#1458,10.);
#395=VECTOR('',#1461,10.);
#396=VECTOR('',#1462,10.);
#397=VECTOR('',#1463,10.);
#398=VECTOR('',#1464,10.);
#399=VECTOR('',#1467,10.);
#400=CIRCLE('',#1059,4.5);
#401=CIRCLE('',#1060,4.5);
#402=CIRCLE('',#1062,4.5);
#403=CIRCLE('',#1063,4.5);
#404=CIRCLE('',#1065,4.5);
#405=CIRCLE('',#1066,4.5);
#406=CIRCLE('',#1068,35.);
#407=CIRCLE('',#1069,35.);
#408=CIRCLE('',#1071,4.5);
#409=CIRCLE('',#1072,4.5);
#410=CIRCLE('',#1074,4.5);
#411=CIRCLE('',#1075,4.5);
#412=CIRCLE('',#1077,4.5);
#413=CIRCLE('',#1078,4.5);
#414=CIRCLE('',#1080,4.5);
#415=CIRCLE('',#1081,4.5);
#416=CIRCLE('',#1083,4.5);
#417=CIRCLE('',#1084,4.5);
#418=CIRCLE('',#1088,4.5);
#419=CIRCLE('',#1089,4.5);
#420=CIRCLE('',#1091,4.5);
#421=CIRCLE('',#1092,4.5);
#422=CIRCLE('',#1094,4.5);
#423=CIRCLE('',#1095,4.5);
#424=CIRCLE('',#1097,4.5);
#425=CIRCLE('',#1098,4.5);
#426=CIRCLE('',#1100,4.5);
#427=CIRCLE('',#1101,4.5);
#428=CIRCLE('',#1103,4.5);
#429=CIRCLE('',#1104,4.5);
#430=CIRCLE('',#1106,4.5);
#431=CIRCLE('',#1107,4.5);
#432=CIRCLE('',#1109,4.5);
#433=CIRCLE('',#1110,4.5);
#434=CIRCLE('',#1112,4.5);
#435=CIRCLE('',#1113,4.5);
#436=CIRCLE('',#1115,4.5);
#437=CIRCLE('',#1116,4.5);
#438=CIRCLE('',#1118,4.5);
#439=CIRCLE('',#1119,4.5);
#440=CIRCLE('',#1121,4.5);
#441=CIRCLE('',#1122,4.5);
#442=CIRCLE('',#1124,4.5);
#443=CIRCLE('',#1125,4.5);
#444=CIRCLE('',#1127,4.5);
#445=CIRCLE('',#1128,4.5);
#446=CIRCLE('',#1130,4.5);
#447=CIRCLE('',#1131,4.5);
#448=CIRCLE('',#1133,4.5);
#449=CIRCLE('',#1134,4.5);
#450=CIRCLE('',#1136,4.5);
#451=CIRCLE('',#1137,4.5);
#452=CIRCLE('',#1139,4.5);
#453=CIRCLE('',#1140,4.5);
#454=CIRCLE('',#1142,4.5);
#455=CIRCLE('',#1143,4.5);
#456=CIRCLE('',#1145,4.5);
#457=CIRCLE('',#1146,4.5);
#458=VERTEX_POINT('',#1470);
#459=VERTEX_POINT('',#1472);
#460=VERTEX_POINT('',#1476);
#461=VERTEX_POINT('',#1478);
#462=VERTEX_POINT('',#1482);
#463=VERTEX_POINT('',#1484);
#464=VERTEX_POINT('',#1488);
#465=VERTEX_POINT('',#1490);
#466=VERTEX_POINT('',#1494);
#467=VERTEX_POINT('',#1496);
#468=VERTEX_POINT('',#1500);
#469=VERTEX_POINT('',#1502);
#470=VERTEX_POINT('',#1506);
#471=VERTEX_POINT('',#1508);
#472=VERTEX_POINT('',#1512);
#473=VERTEX_POINT('',#1514);
#474=VERTEX_POINT('',#1518);
#475=VERTEX_POINT('',#1520);
#476=VERTEX_POINT('',#1524);
#477=VERTEX_POINT('',#1525);
#478=VERTEX_POINT('',#1527);
#479=VERTEX_POINT('',#1531);
#480=VERTEX_POINT('',#1533);
#481=VERTEX_POINT('',#1537);
#482=VERTEX_POINT('',#1539);
#483=VERTEX_POINT('',#1543);
#484=VERTEX_POINT('',#1545);
#485=VERTEX_POINT('',#1549);
#486=VERTEX_POINT('',#1551);
#487=VERTEX_POINT('',#1555);
#488=VERTEX_POINT('',#1557);
#489=VERTEX_POINT('',#1561);
#490=VERTEX_POINT('',#1563);
#491=VERTEX_POINT('',#1567);
#492=VERTEX_POINT('',#1569);
#493=VERTEX_POINT('',#1573);
#494=VERTEX_POINT('',#1575);
#495=VERTEX_POINT('',#1579);
#496=VERTEX_POINT('',#1581);
#497=VERTEX_POINT('',#1585);
#498=VERTEX_POINT('',#1587);
#499=VERTEX_POINT('',#1591);
#500=VERTEX_POINT('',#1593);
#501=VERTEX_POINT('',#1597);
#502=VERTEX_POINT('',#1599);
#503=VERTEX_POINT('',#1603);
#504=VERTEX_POINT('',#1605);
#505=VERTEX_POINT('',#1609);
#506=VERTEX_POINT('',#1611);
#507=VERTEX_POINT('',#1615);
#508=VERTEX_POINT('',#1617);
#509=VERTEX_POINT('',#1621);
#510=VERTEX_POINT('',#1623);
#511=VERTEX_POINT('',#1627);
#512=VERTEX_POINT('',#1629);
#513=VERTEX_POINT('',#1633);
#514=VERTEX_POINT('',#1635);
#515=VERTEX_POINT('',#1639);
#516=VERTEX_POINT('',#1641);
#517=VERTEX_POINT('',#1645);
#518=VERTEX_POINT('',#1647);
#519=VERTEX_POINT('',#1651);
#520=VERTEX_POINT('',#1652);
#521=VERTEX_POINT('',#1654);
#522=VERTEX_POINT('',#1656);
#523=VERTEX_POINT('',#1660);
#524=VERTEX_POINT('',#1662);
#525=VERTEX_POINT('',#1666);
#526=VERTEX_POINT('',#1668);
#527=VERTEX_POINT('',#1672);
#528=VERTEX_POINT('',#1674);
#529=VERTEX_POINT('',#1678);
#530=VERTEX_POINT('',#1682);
#531=VERTEX_POINT('',#1684);
#532=VERTEX_POINT('',#1688);
#533=VERTEX_POINT('',#1690);
#534=VERTEX_POINT('',#1699);
#535=VERTEX_POINT('',#1701);
#536=VERTEX_POINT('',#1705);
#537=VERTEX_POINT('',#1707);
#538=VERTEX_POINT('',#1712);
#539=VERTEX_POINT('',#1714);
#540=VERTEX_POINT('',#1716);
#541=VERTEX_POINT('',#1718);
#542=VERTEX_POINT('',#1730);
#543=VERTEX_POINT('',#1731);
#544=VERTEX_POINT('',#1733);
#545=VERTEX_POINT('',#1735);
#546=EDGE_CURVE('',#458,#458,#400,.T.);
#547=EDGE_CURVE('',#458,#459,#262,.T.);
#548=EDGE_CURVE('',#459,#459,#401,.T.);
#549=EDGE_CURVE('',#460,#460,#402,.T.);
#550=EDGE_CURVE('',#460,#461,#263,.T.);
#551=EDGE_CURVE('',#461,#461,#403,.T.);
#552=EDGE_CURVE('',#462,#462,#404,.T.);
#553=EDGE_CURVE('',#462,#463,#264,.T.);
#554=EDGE_CURVE('',#463,#463,#405,.T.);
#555=EDGE_CURVE('',#464,#464,#406,.T.);
#556=EDGE_CURVE('',#464,#465,#265,.T.);
#557=EDGE_CURVE('',#465,#465,#407,.T.);
#558=EDGE_CURVE('',#466,#466,#408,.T.);
#559=EDGE_CURVE('',#466,#467,#266,.T.);
#560=EDGE_CURVE('',#467,#467,#409,.T.);
#561=EDGE_CURVE('',#468,#468,#410,.T.);
#562=EDGE_CURVE('',#468,#469,#267,.T.);
#563=EDGE_CURVE('',#469,#469,#411,.T.);
#564=EDGE_CURVE('',#470,#470,#412,.T.);
#565=EDGE_CURVE('',#470,#471,#268,.T.);
#566=EDGE_CURVE('',#471,#471,#413,.T.);
#567=EDGE_CURVE('',#472,#472,#414,.T.);
#568=EDGE_CURVE('',#472,#473,#269,.T.);
#569=EDGE_CURVE('',#473,#473,#415,.T.);
#570=EDGE_CURVE('',#474,#474,#416,.T.);
#571=EDGE_CURVE('',#474,#475,#270,.T.);
#572=EDGE_CURVE('',#475,#475,#417,.T.);
#573=EDGE_CURVE('',#476,#477,#80,.T.);
#574=EDGE_CURVE('',#478,#477,#271,.T.);
#575=EDGE_CURVE('',#476,#478,#272,.T.);
#576=EDGE_CURVE('',#479,#479,#418,.T.);
#577=EDGE_CURVE('',#479,#480,#273,.T.);
#578=EDGE_CURVE('',#480,#480,#419,.T.);
#579=EDGE_CURVE('',#481,#481,#420,.T.);
#580=EDGE_CURVE('',#481,#482,#274,.T.);
#581=EDGE_CURVE('',#482,#482,#421,.T.);
#582=EDGE_CURVE('',#483,#483,#422,.T.);
#583=EDGE_CURVE('',#483,#484,#275,.T.);
#584=EDGE_CURVE('',#484,#484,#423,.T.);
#585=EDGE_CURVE('',#485,#485,#424,.T.);
#586=EDGE_CURVE('',#485,#486,#276,.T.);
#587=EDGE_CURVE('',#486,#486,#425,.T.);
#588=EDGE_CURVE('',#487,#487,#426,.T.);
#589=EDGE_CURVE('',#487,#488,#277,.T.);
#590=EDGE_CURVE('',#488,#488,#427,.T.);
#591=EDGE_CURVE('',#489,#489,#428,.T.);
#592=EDGE_CURVE('',#489,#490,#278,.T.);
#593=EDGE_CURVE('',#490,#490,#429,.T.);
#594=EDGE_CURVE('',#491,#491,#430,.T.);
#595=EDGE_CURVE('',#491,#492,#279,.T.);
#596=EDGE_CURVE('',#492,#492,#431,.T.);
#597=EDGE_CURVE('',#493,#493,#432,.T.);
#598=EDGE_CURVE('',#493,#494,#280,.T.);
#599=EDGE_CURVE('',#494,#494,#433,.T.);
#600=EDGE_CURVE('',#495,#495,#434,.T.);
#601=EDGE_CURVE('',#495,#496,#281,.T.);
#602=EDGE_CURVE('',#496,#496,#435,.T.);
#603=EDGE_CURVE('',#497,#497,#436,.T.);
#604=EDGE_CURVE('',#497,#498,#282,.T.);
#605=EDGE_CURVE('',#498,#498,#437,.T.);
#606=EDGE_CURVE('',#499,#499,#438,.T.);
#607=EDGE_CURVE('',#499,#500,#283,.T.);
#608=EDGE_CURVE('',#500,#500,#439,.T.);
#609=EDGE_CURVE('',#501,#501,#440,.T.);
#610=EDGE_CURVE('',#501,#502,#284,.T.);
#611=EDGE_CURVE('',#502,#502,#441,.T.);
#612=EDGE_CURVE('',#503,#503,#442,.T.);
#613=EDGE_CURVE('',#503,#504,#285,.T.);
#614=EDGE_CURVE('',#504,#504,#443,.T.);
#615=EDGE_CURVE('',#505,#505,#444,.T.);
#616=EDGE_CURVE('',#505,#506,#286,.T.);
#617=EDGE_CURVE('',#506,#506,#445,.T.);
#618=EDGE_CURVE('',#507,#507,#446,.T.);
#619=EDGE_CURVE('',#507,#508,#287,.T.);
#620=EDGE_CURVE('',#508,#508,#447,.T.);
#621=EDGE_CURVE('',#509,#509,#448,.T.);
#622=EDGE_CURVE('',#509,#510,#288,.T.);
#623=EDGE_CURVE('',#510,#510,#449,.T.);
#624=EDGE_CURVE('',#511,#511,#450,.T.);
#625=EDGE_CURVE('',#511,#512,#289,.T.);
#626=EDGE_CURVE('',#512,#512,#451,.T.);
#627=EDGE_CURVE('',#513,#513,#452,.T.);
#628=EDGE_CURVE('',#513,#514,#290,.T.);
#629=EDGE_CURVE('',#514,#514,#453,.T.);
#630=EDGE_CURVE('',#515,#515,#454,.T.);
#631=EDGE_CURVE('',#515,#516,#291,.T.);
#632=EDGE_CURVE('',#516,#516,#455,.T.);
#633=EDGE_CURVE('',#517,#517,#456,.T.);
#634=EDGE_CURVE('',#517,#518,#292,.T.);
#635=EDGE_CURVE('',#518,#518,#457,.T.);
#636=EDGE_CURVE('',#519,#520,#293,.T.);
#637=EDGE_CURVE('',#519,#521,#294,.T.);
#638=EDGE_CURVE('',#522,#521,#295,.T.);
#639=EDGE_CURVE('',#520,#522,#296,.T.);
#640=EDGE_CURVE('',#520,#523,#297,.T.);
#641=EDGE_CURVE('',#524,#522,#298,.T.);
#642=EDGE_CURVE('',#523,#524,#299,.T.);
#643=EDGE_CURVE('',#523,#525,#300,.T.);
#644=EDGE_CURVE('',#526,#524,#301,.T.);
#645=EDGE_CURVE('',#525,#526,#302,.T.);
#646=EDGE_CURVE('',#525,#527,#303,.T.);
#647=EDGE_CURVE('',#528,#526,#304,.T.);
#648=EDGE_CURVE('',#527,#528,#305,.T.);
#649=EDGE_CURVE('',#529,#527,#81,.T.);
#650=EDGE_CURVE('',#529,#528,#306,.T.);
#651=EDGE_CURVE('',#530,#476,#307,.T.);
#652=EDGE_CURVE('',#531,#478,#308,.T.);
#653=EDGE_CURVE('',#530,#531,#309,.T.);
#654=EDGE_CURVE('',#530,#532,#310,.T.);
#655=EDGE_CURVE('',#533,#531,#311,.T.);
#656=EDGE_CURVE('',#532,#533,#312,.T.);
#657=EDGE_CURVE('',#532,#519,#313,.T.);
#658=EDGE_CURVE('',#521,#533,#314,.T.);
#659=EDGE_CURVE('',#529,#477,#315,.T.);
#660=EDGE_CURVE('',#477,#534,#82,.T.);
#661=EDGE_CURVE('',#534,#535,#316,.T.);
#662=EDGE_CURVE('',#535,#529,#83,.T.);
#663=EDGE_CURVE('',#536,#534,#317,.T.);
#664=EDGE_CURVE('',#537,#536,#318,.T.);
#665=EDGE_CURVE('',#535,#537,#319,.T.);
#666=EDGE_CURVE('',#530,#536,#84,.T.);
#667=EDGE_CURVE('',#538,#530,#320,.T.);
#668=EDGE_CURVE('',#539,#538,#85,.T.);
#669=EDGE_CURVE('',#539,#540,#321,.T.);
#670=EDGE_CURVE('',#541,#540,#86,.T.);
#671=EDGE_CURVE('',#525,#541,#322,.T.);
#672=EDGE_CURVE('',#537,#525,#87,.T.);
#673=EDGE_CURVE('',#530,#476,#323,.T.);
#674=EDGE_CURVE('',#542,#543,#88,.T.);
#675=EDGE_CURVE('',#543,#544,#324,.T.);
#676=EDGE_CURVE('',#544,#545,#89,.T.);
#677=EDGE_CURVE('',#542,#545,#325,.T.);
#678=EDGE_CURVE('',#544,#539,#326,.T.);
#679=EDGE_CURVE('',#540,#543,#327,.T.);
#680=EDGE_CURVE('',#541,#542,#328,.T.);
#681=EDGE_CURVE('',#538,#545,#329,.T.);
#682=EDGE_CURVE('',#525,#527,#330,.T.);
#683=ORIENTED_EDGE('',*,*,#546,.F.);
#684=ORIENTED_EDGE('',*,*,#547,.T.);
#685=ORIENTED_EDGE('',*,*,#548,.F.);
#686=ORIENTED_EDGE('',*,*,#547,.F.);
#687=ORIENTED_EDGE('',*,*,#549,.F.);
#688=ORIENTED_EDGE('',*,*,#550,.T.);
#689=ORIENTED_EDGE('',*,*,#551,.F.);
#690=ORIENTED_EDGE('',*,*,#550,.F.);
#691=ORIENTED_EDGE('',*,*,#552,.F.);
#692=ORIENTED_EDGE('',*,*,#553,.T.);
#693=ORIENTED_EDGE('',*,*,#554,.F.);
#694=ORIENTED_EDGE('',*,*,#553,.F.);
#695=ORIENTED_EDGE('',*,*,#555,.F.);
#696=ORIENTED_EDGE('',*,*,#556,.T.);
#697=ORIENTED_EDGE('',*,*,#557,.F.);
#698=ORIENTED_EDGE('',*,*,#556,.F.);
#699=ORIENTED_EDGE('',*,*,#558,.F.);
#700=ORIENTED_EDGE('',*,*,#559,.T.);
#701=ORIENTED_EDGE('',*,*,#560,.F.);
#702=ORIENTED_EDGE('',*,*,#559,.F.);
#703=ORIENTED_EDGE('',*,*,#561,.F.);
#704=ORIENTED_EDGE('',*,*,#562,.T.);
#705=ORIENTED_EDGE('',*,*,#563,.F.);
#706=ORIENTED_EDGE('',*,*,#562,.F.);
#707=ORIENTED_EDGE('',*,*,#564,.F.);
#708=ORIENTED_EDGE('',*,*,#565,.T.);
#709=ORIENTED_EDGE('',*,*,#566,.F.);
#710=ORIENTED_EDGE('',*,*,#565,.F.);
#711=ORIENTED_EDGE('',*,*,#567,.F.);
#712=ORIENTED_EDGE('',*,*,#568,.T.);
#713=ORIENTED_EDGE('',*,*,#569,.F.);
#714=ORIENTED_EDGE('',*,*,#568,.F.);
#715=ORIENTED_EDGE('',*,*,#570,.F.);
#716=ORIENTED_EDGE('',*,*,#571,.T.);
#717=ORIENTED_EDGE('',*,*,#572,.F.);
#718=ORIENTED_EDGE('',*,*,#571,.F.);
#719=ORIENTED_EDGE('',*,*,#573,.T.);
#720=ORIENTED_EDGE('',*,*,#574,.F.);
#721=ORIENTED_EDGE('',*,*,#575,.F.);
#722=ORIENTED_EDGE('',*,*,#576,.F.);
#723=ORIENTED_EDGE('',*,*,#577,.T.);
#724=ORIENTED_EDGE('',*,*,#578,.F.);
#725=ORIENTED_EDGE('',*,*,#577,.F.);
#726=ORIENTED_EDGE('',*,*,#579,.F.);
#727=ORIENTED_EDGE('',*,*,#580,.T.);
#728=ORIENTED_EDGE('',*,*,#581,.F.);
#729=ORIENTED_EDGE('',*,*,#580,.F.);
#730=ORIENTED_EDGE('',*,*,#582,.F.);
#731=ORIENTED_EDGE('',*,*,#583,.T.);
#732=ORIENTED_EDGE('',*,*,#584,.F.);
#733=ORIENTED_EDGE('',*,*,#583,.F.);
#734=ORIENTED_EDGE('',*,*,#585,.F.);
#735=ORIENTED_EDGE('',*,*,#586,.T.);
#736=ORIENTED_EDGE('',*,*,#587,.F.);
#737=ORIENTED_EDGE('',*,*,#586,.F.);
#738=ORIENTED_EDGE('',*,*,#588,.F.);
#739=ORIENTED_EDGE('',*,*,#589,.T.);
#740=ORIENTED_EDGE('',*,*,#590,.F.);
#741=ORIENTED_EDGE('',*,*,#589,.F.);
#742=ORIENTED_EDGE('',*,*,#591,.F.);
#743=ORIENTED_EDGE('',*,*,#592,.T.);
#744=ORIENTED_EDGE('',*,*,#593,.F.);
#745=ORIENTED_EDGE('',*,*,#592,.F.);
#746=ORIENTED_EDGE('',*,*,#594,.F.);
#747=ORIENTED_EDGE('',*,*,#595,.T.);
#748=ORIENTED_EDGE('',*,*,#596,.F.);
#749=ORIENTED_EDGE('',*,*,#595,.F.);
#750=ORIENTED_EDGE('',*,*,#597,.F.);
#751=ORIENTED_EDGE('',*,*,#598,.T.);
#752=ORIENTED_EDGE('',*,*,#599,.F.);
#753=ORIENTED_EDGE('',*,*,#598,.F.);
#754=ORIENTED_EDGE('',*,*,#600,.F.);
#755=ORIENTED_EDGE('',*,*,#601,.T.);
#756=ORIENTED_EDGE('',*,*,#602,.F.);
#757=ORIENTED_EDGE('',*,*,#601,.F.);
#758=ORIENTED_EDGE('',*,*,#603,.F.);
#759=ORIENTED_EDGE('',*,*,#604,.T.);
#760=ORIENTED_EDGE('',*,*,#605,.F.);
#761=ORIENTED_EDGE('',*,*,#604,.F.);
#762=ORIENTED_EDGE('',*,*,#606,.F.);
#763=ORIENTED_EDGE('',*,*,#607,.T.);
#764=ORIENTED_EDGE('',*,*,#608,.F.);
#765=ORIENTED_EDGE('',*,*,#607,.F.);
#766=ORIENTED_EDGE('',*,*,#609,.F.);
#767=ORIENTED_EDGE('',*,*,#610,.T.);
#768=ORIENTED_EDGE('',*,*,#611,.F.);
#769=ORIENTED_EDGE('',*,*,#610,.F.);
#770=ORIENTED_EDGE('',*,*,#612,.F.);
#771=ORIENTED_EDGE('',*,*,#613,.T.);
#772=ORIENTED_EDGE('',*,*,#614,.F.);
#773=ORIENTED_EDGE('',*,*,#613,.F.);
#774=ORIENTED_EDGE('',*,*,#615,.F.);
#775=ORIENTED_EDGE('',*,*,#616,.T.);
#776=ORIENTED_EDGE('',*,*,#617,.F.);
#777=ORIENTED_EDGE('',*,*,#616,.F.);
#778=ORIENTED_EDGE('',*,*,#618,.F.);
#779=ORIENTED_EDGE('',*,*,#619,.T.);
#780=ORIENTED_EDGE('',*,*,#620,.F.);
#781=ORIENTED_EDGE('',*,*,#619,.F.);
#782=ORIENTED_EDGE('',*,*,#621,.F.);
#783=ORIENTED_EDGE('',*,*,#622,.T.);
#784=ORIENTED_EDGE('',*,*,#623,.F.);
#785=ORIENTED_EDGE('',*,*,#622,.F.);
#786=ORIENTED_EDGE('',*,*,#624,.F.);
#787=ORIENTED_EDGE('',*,*,#625,.T.);
#788=ORIENTED_EDGE('',*,*,#626,.F.);
#789=ORIENTED_EDGE('',*,*,#625,.F.);
#790=ORIENTED_EDGE('',*,*,#627,.F.);
#791=ORIENTED_EDGE('',*,*,#628,.T.);
#792=ORIENTED_EDGE('',*,*,#629,.F.);
#793=ORIENTED_EDGE('',*,*,#628,.F.);
#794=ORIENTED_EDGE('',*,*,#630,.F.);
#795=ORIENTED_EDGE('',*,*,#631,.T.);
#796=ORIENTED_EDGE('',*,*,#632,.F.);
#797=ORIENTED_EDGE('',*,*,#631,.F.);
#798=ORIENTED_EDGE('',*,*,#633,.F.);
#799=ORIENTED_EDGE('',*,*,#634,.T.);
#800=ORIENTED_EDGE('',*,*,#635,.F.);
#801=ORIENTED_EDGE('',*,*,#634,.F.);
#802=ORIENTED_EDGE('',*,*,#636,.F.);
#803=ORIENTED_EDGE('',*,*,#637,.T.);
#804=ORIENTED_EDGE('',*,*,#638,.F.);
#805=ORIENTED_EDGE('',*,*,#639,.F.);
#806=ORIENTED_EDGE('',*,*,#640,.F.);
#807=ORIENTED_EDGE('',*,*,#639,.T.);
#808=ORIENTED_EDGE('',*,*,#641,.F.);
#809=ORIENTED_EDGE('',*,*,#642,.F.);
#810=ORIENTED_EDGE('',*,*,#643,.F.);
#811=ORIENTED_EDGE('',*,*,#642,.T.);
#812=ORIENTED_EDGE('',*,*,#644,.F.);
#813=ORIENTED_EDGE('',*,*,#645,.F.);
#814=ORIENTED_EDGE('',*,*,#646,.F.);
#815=ORIENTED_EDGE('',*,*,#645,.T.);
#816=ORIENTED_EDGE('',*,*,#647,.F.);
#817=ORIENTED_EDGE('',*,*,#648,.F.);
#818=ORIENTED_EDGE('',*,*,#649,.T.);
#819=ORIENTED_EDGE('',*,*,#648,.T.);
#820=ORIENTED_EDGE('',*,*,#650,.F.);
#821=ORIENTED_EDGE('',*,*,#651,.T.);
#822=ORIENTED_EDGE('',*,*,#575,.T.);
#823=ORIENTED_EDGE('',*,*,#652,.F.);
#824=ORIENTED_EDGE('',*,*,#653,.F.);
#825=ORIENTED_EDGE('',*,*,#654,.F.);
#826=ORIENTED_EDGE('',*,*,#653,.T.);
#827=ORIENTED_EDGE('',*,*,#655,.F.);
#828=ORIENTED_EDGE('',*,*,#656,.F.);
#829=ORIENTED_EDGE('',*,*,#657,.F.);
#830=ORIENTED_EDGE('',*,*,#656,.T.);
#831=ORIENTED_EDGE('',*,*,#658,.F.);
#832=ORIENTED_EDGE('',*,*,#637,.F.);
#833=ORIENTED_EDGE('',*,*,#658,.T.);
#834=ORIENTED_EDGE('',*,*,#655,.T.);
#835=ORIENTED_EDGE('',*,*,#652,.T.);
#836=ORIENTED_EDGE('',*,*,#574,.T.);
#837=ORIENTED_EDGE('',*,*,#659,.F.);
#838=ORIENTED_EDGE('',*,*,#650,.T.);
#839=ORIENTED_EDGE('',*,*,#647,.T.);
#840=ORIENTED_EDGE('',*,*,#644,.T.);
#841=ORIENTED_EDGE('',*,*,#641,.T.);
#842=ORIENTED_EDGE('',*,*,#638,.T.);
#843=ORIENTED_EDGE('',*,*,#633,.T.);
#844=ORIENTED_EDGE('',*,*,#630,.T.);
#845=ORIENTED_EDGE('',*,*,#627,.T.);
#846=ORIENTED_EDGE('',*,*,#624,.T.);
#847=ORIENTED_EDGE('',*,*,#621,.T.);
#848=ORIENTED_EDGE('',*,*,#618,.T.);
#849=ORIENTED_EDGE('',*,*,#615,.T.);
#850=ORIENTED_EDGE('',*,*,#612,.T.);
#851=ORIENTED_EDGE('',*,*,#609,.T.);
#852=ORIENTED_EDGE('',*,*,#606,.T.);
#853=ORIENTED_EDGE('',*,*,#603,.T.);
#854=ORIENTED_EDGE('',*,*,#600,.T.);
#855=ORIENTED_EDGE('',*,*,#597,.T.);
#856=ORIENTED_EDGE('',*,*,#594,.T.);
#857=ORIENTED_EDGE('',*,*,#591,.T.);
#858=ORIENTED_EDGE('',*,*,#588,.T.);
#859=ORIENTED_EDGE('',*,*,#585,.T.);
#860=ORIENTED_EDGE('',*,*,#582,.T.);
#861=ORIENTED_EDGE('',*,*,#579,.T.);
#862=ORIENTED_EDGE('',*,*,#576,.T.);
#863=ORIENTED_EDGE('',*,*,#659,.T.);
#864=ORIENTED_EDGE('',*,*,#660,.T.);
#865=ORIENTED_EDGE('',*,*,#661,.T.);
#866=ORIENTED_EDGE('',*,*,#662,.T.);
#867=ORIENTED_EDGE('',*,*,#661,.F.);
#868=ORIENTED_EDGE('',*,*,#663,.F.);
#869=ORIENTED_EDGE('',*,*,#664,.F.);
#870=ORIENTED_EDGE('',*,*,#665,.F.);
#871=ORIENTED_EDGE('',*,*,#546,.T.);
#872=ORIENTED_EDGE('',*,*,#549,.T.);
#873=ORIENTED_EDGE('',*,*,#552,.T.);
#874=ORIENTED_EDGE('',*,*,#555,.T.);
#875=ORIENTED_EDGE('',*,*,#558,.T.);
#876=ORIENTED_EDGE('',*,*,#561,.T.);
#877=ORIENTED_EDGE('',*,*,#564,.T.);
#878=ORIENTED_EDGE('',*,*,#567,.T.);
#879=ORIENTED_EDGE('',*,*,#570,.T.);
#880=ORIENTED_EDGE('',*,*,#664,.T.);
#881=ORIENTED_EDGE('',*,*,#666,.F.);
#882=ORIENTED_EDGE('',*,*,#667,.F.);
#883=ORIENTED_EDGE('',*,*,#668,.F.);
#884=ORIENTED_EDGE('',*,*,#669,.T.);
#885=ORIENTED_EDGE('',*,*,#670,.F.);
#886=ORIENTED_EDGE('',*,*,#671,.F.);
#887=ORIENTED_EDGE('',*,*,#672,.F.);
#888=ORIENTED_EDGE('',*,*,#663,.T.);
#889=ORIENTED_EDGE('',*,*,#660,.F.);
#890=ORIENTED_EDGE('',*,*,#573,.F.);
#891=ORIENTED_EDGE('',*,*,#673,.F.);
#892=ORIENTED_EDGE('',*,*,#666,.T.);
#893=ORIENTED_EDGE('',*,*,#674,.T.);
#894=ORIENTED_EDGE('',*,*,#675,.T.);
#895=ORIENTED_EDGE('',*,*,#676,.T.);
#896=ORIENTED_EDGE('',*,*,#677,.F.);
#897=ORIENTED_EDGE('',*,*,#669,.F.);
#898=ORIENTED_EDGE('',*,*,#678,.F.);
#899=ORIENTED_EDGE('',*,*,#675,.F.);
#900=ORIENTED_EDGE('',*,*,#679,.F.);
#901=ORIENTED_EDGE('',*,*,#548,.T.);
#902=ORIENTED_EDGE('',*,*,#551,.T.);
#903=ORIENTED_EDGE('',*,*,#554,.T.);
#904=ORIENTED_EDGE('',*,*,#557,.T.);
#905=ORIENTED_EDGE('',*,*,#560,.T.);
#906=ORIENTED_EDGE('',*,*,#563,.T.);
#907=ORIENTED_EDGE('',*,*,#566,.T.);
#908=ORIENTED_EDGE('',*,*,#569,.T.);
#909=ORIENTED_EDGE('',*,*,#572,.T.);
#910=ORIENTED_EDGE('',*,*,#679,.T.);
#911=ORIENTED_EDGE('',*,*,#674,.F.);
#912=ORIENTED_EDGE('',*,*,#680,.F.);
#913=ORIENTED_EDGE('',*,*,#670,.T.);
#914=ORIENTED_EDGE('',*,*,#678,.T.);
#915=ORIENTED_EDGE('',*,*,#668,.T.);
#916=ORIENTED_EDGE('',*,*,#681,.T.);
#917=ORIENTED_EDGE('',*,*,#676,.F.);
#918=ORIENTED_EDGE('',*,*,#671,.T.);
#919=ORIENTED_EDGE('',*,*,#680,.T.);
#920=ORIENTED_EDGE('',*,*,#677,.T.);
#921=ORIENTED_EDGE('',*,*,#681,.F.);
#922=ORIENTED_EDGE('',*,*,#667,.T.);
#923=ORIENTED_EDGE('',*,*,#673,.T.);
#924=ORIENTED_EDGE('',*,*,#651,.F.);
#925=ORIENTED_EDGE('',*,*,#654,.T.);
#926=ORIENTED_EDGE('',*,*,#657,.T.);
#927=ORIENTED_EDGE('',*,*,#636,.T.);
#928=ORIENTED_EDGE('',*,*,#640,.T.);
#929=ORIENTED_EDGE('',*,*,#643,.T.);
#930=ORIENTED_EDGE('',*,*,#646,.T.);
#931=ORIENTED_EDGE('',*,*,#682,.F.);
#932=ORIENTED_EDGE('',*,*,#578,.T.);
#933=ORIENTED_EDGE('',*,*,#581,.T.);
#934=ORIENTED_EDGE('',*,*,#584,.T.);
#935=ORIENTED_EDGE('',*,*,#587,.T.);
#936=ORIENTED_EDGE('',*,*,#590,.T.);
#937=ORIENTED_EDGE('',*,*,#593,.T.);
#938=ORIENTED_EDGE('',*,*,#596,.T.);
#939=ORIENTED_EDGE('',*,*,#599,.T.);
#940=ORIENTED_EDGE('',*,*,#602,.T.);
#941=ORIENTED_EDGE('',*,*,#605,.T.);
#942=ORIENTED_EDGE('',*,*,#608,.T.);
#943=ORIENTED_EDGE('',*,*,#611,.T.);
#944=ORIENTED_EDGE('',*,*,#614,.T.);
#945=ORIENTED_EDGE('',*,*,#617,.T.);
#946=ORIENTED_EDGE('',*,*,#620,.T.);
#947=ORIENTED_EDGE('',*,*,#623,.T.);
#948=ORIENTED_EDGE('',*,*,#626,.T.);
#949=ORIENTED_EDGE('',*,*,#629,.T.);
#950=ORIENTED_EDGE('',*,*,#632,.T.);
#951=ORIENTED_EDGE('',*,*,#635,.T.);
#952=ORIENTED_EDGE('',*,*,#665,.T.);
#953=ORIENTED_EDGE('',*,*,#672,.T.);
#954=ORIENTED_EDGE('',*,*,#682,.T.);
#955=ORIENTED_EDGE('',*,*,#649,.F.);
#956=ORIENTED_EDGE('',*,*,#662,.F.);
#957=CYLINDRICAL_SURFACE('',#1058,4.5);
#958=CYLINDRICAL_SURFACE('',#1061,4.5);
#959=CYLINDRICAL_SURFACE('',#1064,4.5);
#960=CYLINDRICAL_SURFACE('',#1067,35.);
#961=CYLINDRICAL_SURFACE('',#1070,4.5);
#962=CYLINDRICAL_SURFACE('',#1073,4.5);
#963=CYLINDRICAL_SURFACE('',#1076,4.5);
#964=CYLINDRICAL_SURFACE('',#1079,4.5);
#965=CYLINDRICAL_SURFACE('',#1082,4.5);
#966=CYLINDRICAL_SURFACE('',#1087,4.5);
#967=CYLINDRICAL_SURFACE('',#1090,4.5);
#968=CYLINDRICAL_SURFACE('',#1093,4.5);
#969=CYLINDRICAL_SURFACE('',#1096,4.5);
#970=CYLINDRICAL_SURFACE('',#1099,4.5);
#971=CYLINDRICAL_SURFACE('',#1102,4.5);
#972=CYLINDRICAL_SURFACE('',#1105,4.5);
#973=CYLINDRICAL_SURFACE('',#1108,4.5);
#974=CYLINDRICAL_SURFACE('',#1111,4.5);
#975=CYLINDRICAL_SURFACE('',#1114,4.5);
#976=CYLINDRICAL_SURFACE('',#1117,4.5);
#977=CYLINDRICAL_SURFACE('',#1120,4.5);
#978=CYLINDRICAL_SURFACE('',#1123,4.5);
#979=CYLINDRICAL_SURFACE('',#1126,4.5);
#980=CYLINDRICAL_SURFACE('',#1129,4.5);
#981=CYLINDRICAL_SURFACE('',#1132,4.5);
#982=CYLINDRICAL_SURFACE('',#1135,4.5);
#983=CYLINDRICAL_SURFACE('',#1138,4.5);
#984=CYLINDRICAL_SURFACE('',#1141,4.5);
#985=CYLINDRICAL_SURFACE('',#1144,4.5);
#986=ADVANCED_FACE('',(#106),#957,.F.);
#987=ADVANCED_FACE('',(#107),#958,.F.);
#988=ADVANCED_FACE('',(#108),#959,.F.);
#989=ADVANCED_FACE('',(#109),#960,.F.);
#990=ADVANCED_FACE('',(#110),#961,.F.);
#991=ADVANCED_FACE('',(#111),#962,.F.);
#992=ADVANCED_FACE('',(#112),#963,.F.);
#993=ADVANCED_FACE('',(#113),#964,.F.);
#994=ADVANCED_FACE('',(#114),#965,.F.);
#995=ADVANCED_FACE('',(#115),#90,.T.);
#996=ADVANCED_FACE('',(#116),#966,.F.);
#997=ADVANCED_FACE('',(#117),#967,.F.);
#998=ADVANCED_FACE('',(#118),#968,.F.);
#999=ADVANCED_FACE('',(#119),#969,.F.);
#1000=ADVANCED_FACE('',(#120),#970,.F.);
#1001=ADVANCED_FACE('',(#121),#971,.F.);
#1002=ADVANCED_FACE('',(#122),#972,.F.);
#1003=ADVANCED_FACE('',(#123),#973,.F.);
#1004=ADVANCED_FACE('',(#124),#974,.F.);
#1005=ADVANCED_FACE('',(#125),#975,.F.);
#1006=ADVANCED_FACE('',(#126),#976,.F.);
#1007=ADVANCED_FACE('',(#127),#977,.F.);
#1008=ADVANCED_FACE('',(#128),#978,.F.);
#1009=ADVANCED_FACE('',(#129),#979,.F.);
#1010=ADVANCED_FACE('',(#130),#980,.F.);
#1011=ADVANCED_FACE('',(#131),#981,.F.);
#1012=ADVANCED_FACE('',(#132),#982,.F.);
#1013=ADVANCED_FACE('',(#133),#983,.F.);
#1014=ADVANCED_FACE('',(#134),#984,.F.);
#1015=ADVANCED_FACE('',(#135),#985,.F.);
#1016=ADVANCED_FACE('',(#136),#91,.T.);
#1017=ADVANCED_FACE('',(#137),#92,.T.);
#1018=ADVANCED_FACE('',(#138),#93,.T.);
#1019=ADVANCED_FACE('',(#139),#94,.T.);
#1020=ADVANCED_FACE('',(#140),#95,.T.);
#1021=ADVANCED_FACE('',(#141),#96,.T.);
#1022=ADVANCED_FACE('',(#142),#97,.T.);
#1023=ADVANCED_FACE('',(#143),#98,.T.);
#1024=ADVANCED_FACE('',(#144,#22,#23,#24,#25,#26,#27,#28,#29,#30,#31,#32,
#33,#34,#35,#36,#37,#38,#39,#40,#41),#99,.F.);
#1025=ADVANCED_FACE('',(#145),#100,.T.);
#1026=ADVANCED_FACE('',(#146,#42,#43,#44,#45,#46,#47,#48,#49,#50),#101,
 .F.);
#1027=ADVANCED_FACE('',(#147),#102,.F.);
#1028=ADVANCED_FACE('',(#148),#18,.F.);
#1029=ADVANCED_FACE('',(#149),#103,.F.);
#1030=ADVANCED_FACE('',(#150,#51,#52,#53,#54,#55,#56,#57,#58,#59),#104,
 .T.);
#1031=ADVANCED_FACE('',(#151),#19,.T.);
#1032=ADVANCED_FACE('',(#152),#20,.T.);
#1033=ADVANCED_FACE('',(#153,#60,#61,#62,#63,#64,#65,#66,#67,#68,#69,#70,
#71,#72,#73,#74,#75,#76,#77,#78,#79),#105,.T.);
#1034=ADVANCED_FACE('',(#154),#21,.F.);
#1035=CLOSED_SHELL('',(#986,#987,#988,#989,#990,#991,#992,#993,#994,#995,
#996,#997,#998,#999,#1000,#1001,#1002,#1003,#1004,#1005,#1006,#1007,#1008,
#1009,#1010,#1011,#1012,#1013,#1014,#1015,#1016,#1017,#1018,#1019,#1020,
#1021,#1022,#1023,#1024,#1025,#1026,#1027,#1028,#1029,#1030,#1031,#1032,
#1033,#1034));
#1036=DERIVED_UNIT_ELEMENT(#1039,1.);
#1037=DERIVED_UNIT_ELEMENT(#1769,-3.);
#1038=DIMENSIONAL_EXPONENTS(1.,0.,0.,0.,0.,0.,0.);
#1039=(
CONVERSION_BASED_UNIT('gram',#1041)
MASS_UNIT()
NAMED_UNIT(#1038)
);
#1040=(
MASS_UNIT()
NAMED_UNIT(*)
SI_UNIT(.KILO.,.GRAM.)
);
#1041=MASS_MEASURE_WITH_UNIT(MASS_MEASURE(0.001),#1040);
#1042=DERIVED_UNIT((#1036,#1037));
#1043=MEASURE_REPRESENTATION_ITEM('density measure',
POSITIVE_RATIO_MEASURE(1.7),#1042);
#1044=PROPERTY_DEFINITION_REPRESENTATION(#1049,#1046);
#1045=PROPERTY_DEFINITION_REPRESENTATION(#1050,#1047);
#1046=REPRESENTATION('material name',(#1048),#1766);
#1047=REPRESENTATION('density',(#1043),#1766);
#1048=DESCRIPTIVE_REPRESENTATION_ITEM('GFRC','GFRC');
#1049=PROPERTY_DEFINITION('material property','material name',#1776);
#1050=PROPERTY_DEFINITION('material property','density of part',#1776);
#1051=DATE_TIME_ROLE('creation_date');
#1052=APPLIED_DATE_AND_TIME_ASSIGNMENT(#1053,#1051,(#1776));
#1053=DATE_AND_TIME(#1054,#1055);
#1054=CALENDAR_DATE(2026,19,3);
#1055=LOCAL_TIME(0,0,0.,#1056);
#1056=COORDINATED_UNIVERSAL_TIME_OFFSET(0,0,.BEHIND.);
#1057=AXIS2_PLACEMENT_3D('placement',#1468,#1171,#1172);
#1058=AXIS2_PLACEMENT_3D('',#1469,#1173,#1174);
#1059=AXIS2_PLACEMENT_3D('',#1471,#1175,#1176);
#1060=AXIS2_PLACEMENT_3D('',#1474,#1178,#1179);
#1061=AXIS2_PLACEMENT_3D('',#1475,#1180,#1181);
#1062=AXIS2_PLACEMENT_3D('',#1477,#1182,#1183);
#1063=AXIS2_PLACEMENT_3D('',#1480,#1185,#1186);
#1064=AXIS2_PLACEMENT_3D('',#1481,#1187,#1188);
#1065=AXIS2_PLACEMENT_3D('',#1483,#1189,#1190);
#1066=AXIS2_PLACEMENT_3D('',#1486,#1192,#1193);
#1067=AXIS2_PLACEMENT_3D('',#1487,#1194,#1195);
#1068=AXIS2_PLACEMENT_3D('',#1489,#1196,#1197);
#1069=AXIS2_PLACEMENT_3D('',#1492,#1199,#1200);
#1070=AXIS2_PLACEMENT_3D('',#1493,#1201,#1202);
#1071=AXIS2_PLACEMENT_3D('',#1495,#1203,#1204);
#1072=AXIS2_PLACEMENT_3D('',#1498,#1206,#1207);
#1073=AXIS2_PLACEMENT_3D('',#1499,#1208,#1209);
#1074=AXIS2_PLACEMENT_3D('',#1501,#1210,#1211);
#1075=AXIS2_PLACEMENT_3D('',#1504,#1213,#1214);
#1076=AXIS2_PLACEMENT_3D('',#1505,#1215,#1216);
#1077=AXIS2_PLACEMENT_3D('',#1507,#1217,#1218);
#1078=AXIS2_PLACEMENT_3D('',#1510,#1220,#1221);
#1079=AXIS2_PLACEMENT_3D('',#1511,#1222,#1223);
#1080=AXIS2_PLACEMENT_3D('',#1513,#1224,#1225);
#1081=AXIS2_PLACEMENT_3D('',#1516,#1227,#1228);
#1082=AXIS2_PLACEMENT_3D('',#1517,#1229,#1230);
#1083=AXIS2_PLACEMENT_3D('',#1519,#1231,#1232);
#1084=AXIS2_PLACEMENT_3D('',#1522,#1234,#1235);
#1085=AXIS2_PLACEMENT_3D('',#1523,#1236,#1237);
#1086=AXIS2_PLACEMENT_3D('',#1526,#1238,#1239);
#1087=AXIS2_PLACEMENT_3D('',#1530,#1242,#1243);
#1088=AXIS2_PLACEMENT_3D('',#1532,#1244,#1245);
#1089=AXIS2_PLACEMENT_3D('',#1535,#1247,#1248);
#1090=AXIS2_PLACEMENT_3D('',#1536,#1249,#1250);
#1091=AXIS2_PLACEMENT_3D('',#1538,#1251,#1252);
#1092=AXIS2_PLACEMENT_3D('',#1541,#1254,#1255);
#1093=AXIS2_PLACEMENT_3D('',#1542,#1256,#1257);
#1094=AXIS2_PLACEMENT_3D('',#1544,#1258,#1259);
#1095=AXIS2_PLACEMENT_3D('',#1547,#1261,#1262);
#1096=AXIS2_PLACEMENT_3D('',#1548,#1263,#1264);
#1097=AXIS2_PLACEMENT_3D('',#1550,#1265,#1266);
#1098=AXIS2_PLACEMENT_3D('',#1553,#1268,#1269);
#1099=AXIS2_PLACEMENT_3D('',#1554,#1270,#1271);
#1100=AXIS2_PLACEMENT_3D('',#1556,#1272,#1273);
#1101=AXIS2_PLACEMENT_3D('',#1559,#1275,#1276);
#1102=AXIS2_PLACEMENT_3D('',#1560,#1277,#1278);
#1103=AXIS2_PLACEMENT_3D('',#1562,#1279,#1280);
#1104=AXIS2_PLACEMENT_3D('',#1565,#1282,#1283);
#1105=AXIS2_PLACEMENT_3D('',#1566,#1284,#1285);
#1106=AXIS2_PLACEMENT_3D('',#1568,#1286,#1287);
#1107=AXIS2_PLACEMENT_3D('',#1571,#1289,#1290);
#1108=AXIS2_PLACEMENT_3D('',#1572,#1291,#1292);
#1109=AXIS2_PLACEMENT_3D('',#1574,#1293,#1294);
#1110=AXIS2_PLACEMENT_3D('',#1577,#1296,#1297);
#1111=AXIS2_PLACEMENT_3D('',#1578,#1298,#1299);
#1112=AXIS2_PLACEMENT_3D('',#1580,#1300,#1301);
#1113=AXIS2_PLACEMENT_3D('',#1583,#1303,#1304);
#1114=AXIS2_PLACEMENT_3D('',#1584,#1305,#1306);
#1115=AXIS2_PLACEMENT_3D('',#1586,#1307,#1308);
#1116=AXIS2_PLACEMENT_3D('',#1589,#1310,#1311);
#1117=AXIS2_PLACEMENT_3D('',#1590,#1312,#1313);
#1118=AXIS2_PLACEMENT_3D('',#1592,#1314,#1315);
#1119=AXIS2_PLACEMENT_3D('',#1595,#1317,#1318);
#1120=AXIS2_PLACEMENT_3D('',#1596,#1319,#1320);
#1121=AXIS2_PLACEMENT_3D('',#1598,#1321,#1322);
#1122=AXIS2_PLACEMENT_3D('',#1601,#1324,#1325);
#1123=AXIS2_PLACEMENT_3D('',#1602,#1326,#1327);
#1124=AXIS2_PLACEMENT_3D('',#1604,#1328,#1329);
#1125=AXIS2_PLACEMENT_3D('',#1607,#1331,#1332);
#1126=AXIS2_PLACEMENT_3D('',#1608,#1333,#1334);
#1127=AXIS2_PLACEMENT_3D('',#1610,#1335,#1336);
#1128=AXIS2_PLACEMENT_3D('',#1613,#1338,#1339);
#1129=AXIS2_PLACEMENT_3D('',#1614,#1340,#1341);
#1130=AXIS2_PLACEMENT_3D('',#1616,#1342,#1343);
#1131=AXIS2_PLACEMENT_3D('',#1619,#1345,#1346);
#1132=AXIS2_PLACEMENT_3D('',#1620,#1347,#1348);
#1133=AXIS2_PLACEMENT_3D('',#1622,#1349,#1350);
#1134=AXIS2_PLACEMENT_3D('',#1625,#1352,#1353);
#1135=AXIS2_PLACEMENT_3D('',#1626,#1354,#1355);
#1136=AXIS2_PLACEMENT_3D('',#1628,#1356,#1357);
#1137=AXIS2_PLACEMENT_3D('',#1631,#1359,#1360);
#1138=AXIS2_PLACEMENT_3D('',#1632,#1361,#1362);
#1139=AXIS2_PLACEMENT_3D('',#1634,#1363,#1364);
#1140=AXIS2_PLACEMENT_3D('',#1637,#1366,#1367);
#1141=AXIS2_PLACEMENT_3D('',#1638,#1368,#1369);
#1142=AXIS2_PLACEMENT_3D('',#1640,#1370,#1371);
#1143=AXIS2_PLACEMENT_3D('',#1643,#1373,#1374);
#1144=AXIS2_PLACEMENT_3D('',#1644,#1375,#1376);
#1145=AXIS2_PLACEMENT_3D('',#1646,#1377,#1378);
#1146=AXIS2_PLACEMENT_3D('',#1649,#1380,#1381);
#1147=AXIS2_PLACEMENT_3D('',#1650,#1382,#1383);
#1148=AXIS2_PLACEMENT_3D('',#1659,#1388,#1389);
#1149=AXIS2_PLACEMENT_3D('',#1665,#1393,#1394);
#1150=AXIS2_PLACEMENT_3D('',#1671,#1398,#1399);
#1151=AXIS2_PLACEMENT_3D('',#1677,#1403,#1404);
#1152=AXIS2_PLACEMENT_3D('',#1679,#1405,#1406);
#1153=AXIS2_PLACEMENT_3D('',#1681,#1408,#1409);
#1154=AXIS2_PLACEMENT_3D('',#1687,#1413,#1414);
#1155=AXIS2_PLACEMENT_3D('',#1693,#1418,#1419);
#1156=AXIS2_PLACEMENT_3D('',#1696,#1422,#1423);
#1157=AXIS2_PLACEMENT_3D('',#1698,#1425,#1426);
#1158=AXIS2_PLACEMENT_3D('',#1700,#1427,#1428);
#1159=AXIS2_PLACEMENT_3D('',#1703,#1430,#1431);
#1160=AXIS2_PLACEMENT_3D('',#1704,#1432,#1433);
#1161=AXIS2_PLACEMENT_3D('',#1710,#1437,#1438);
#1162=AXIS2_PLACEMENT_3D('',#1711,#1439,#1440);
#1163=AXIS2_PLACEMENT_3D('',#1715,#1442,#1443);
#1164=AXIS2_PLACEMENT_3D('',#1719,#1445,#1446);
#1165=AXIS2_PLACEMENT_3D('',#1721,#1448,#1449);
#1166=AXIS2_PLACEMENT_3D('',#1729,#1451,#1452);
#1167=AXIS2_PLACEMENT_3D('',#1732,#1453,#1454);
#1168=AXIS2_PLACEMENT_3D('',#1736,#1456,#1457);
#1169=AXIS2_PLACEMENT_3D('',#1738,#1459,#1460);
#1170=AXIS2_PLACEMENT_3D('',#1755,#1465,#1466);
#1171=DIRECTION('axis',(0.,0.,1.));
#1172=DIRECTION('refdir',(1.,0.,0.));
#1173=DIRECTION('center_axis',(-0.984807753012208,0.17364817766693,0.));
#1174=DIRECTION('ref_axis',(0.,0.,-1.));
#1175=DIRECTION('center_axis',(-0.984807753012208,0.17364817766693,0.));
#1176=DIRECTION('ref_axis',(0.,0.,-1.));
#1177=DIRECTION('',(-0.984807753012208,0.17364817766693,0.));
#1178=DIRECTION('center_axis',(0.984807753012208,-0.17364817766693,0.));
#1179=DIRECTION('ref_axis',(0.,0.,-1.));
#1180=DIRECTION('center_axis',(-0.984807753012208,0.17364817766693,0.));
#1181=DIRECTION('ref_axis',(0.,0.,-1.));
#1182=DIRECTION('center_axis',(-0.984807753012208,0.17364817766693,0.));
#1183=DIRECTION('ref_axis',(0.,0.,-1.));
#1184=DIRECTION('',(-0.984807753012208,0.17364817766693,0.));
#1185=DIRECTION('center_axis',(0.984807753012208,-0.17364817766693,0.));
#1186=DIRECTION('ref_axis',(0.,0.,-1.));
#1187=DIRECTION('center_axis',(-0.984807753012208,0.17364817766693,0.));
#1188=DIRECTION('ref_axis',(0.,0.,-1.));
#1189=DIRECTION('center_axis',(-0.984807753012208,0.17364817766693,0.));
#1190=DIRECTION('ref_axis',(0.,0.,-1.));
#1191=DIRECTION('',(-0.984807753012208,0.17364817766693,0.));
#1192=DIRECTION('center_axis',(0.984807753012208,-0.17364817766693,0.));
#1193=DIRECTION('ref_axis',(0.,0.,-1.));
#1194=DIRECTION('center_axis',(-0.984807753012208,0.17364817766693,0.));
#1195=DIRECTION('ref_axis',(0.,0.,-1.));
#1196=DIRECTION('center_axis',(-0.984807753012208,0.17364817766693,0.));
#1197=DIRECTION('ref_axis',(0.,0.,-1.));
#1198=DIRECTION('',(-0.984807753012208,0.17364817766693,0.));
#1199=DIRECTION('center_axis',(0.984807753012208,-0.17364817766693,0.));
#1200=DIRECTION('ref_axis',(0.,0.,-1.));
#1201=DIRECTION('center_axis',(-0.984807753012208,0.17364817766693,0.));
#1202=DIRECTION('ref_axis',(0.,0.,-1.));
#1203=DIRECTION('center_axis',(-0.984807753012208,0.17364817766693,0.));
#1204=DIRECTION('ref_axis',(0.,0.,-1.));
#1205=DIRECTION('',(-0.984807753012208,0.17364817766693,0.));
#1206=DIRECTION('center_axis',(0.984807753012208,-0.17364817766693,0.));
#1207=DIRECTION('ref_axis',(0.,0.,-1.));
#1208=DIRECTION('center_axis',(-0.984807753012208,0.17364817766693,0.));
#1209=DIRECTION('ref_axis',(0.,0.,-1.));
#1210=DIRECTION('center_axis',(-0.984807753012208,0.17364817766693,0.));
#1211=DIRECTION('ref_axis',(0.,0.,-1.));
#1212=DIRECTION('',(-0.984807753012208,0.17364817766693,0.));
#1213=DIRECTION('center_axis',(0.984807753012208,-0.17364817766693,0.));
#1214=DIRECTION('ref_axis',(0.,0.,-1.));
#1215=DIRECTION('center_axis',(-0.984807753012208,0.17364817766693,0.));
#1216=DIRECTION('ref_axis',(0.,0.,-1.));
#1217=DIRECTION('center_axis',(-0.984807753012208,0.17364817766693,0.));
#1218=DIRECTION('ref_axis',(0.,0.,-1.));
#1219=DIRECTION('',(-0.984807753012208,0.17364817766693,0.));
#1220=DIRECTION('center_axis',(0.984807753012208,-0.17364817766693,0.));
#1221=DIRECTION('ref_axis',(0.,0.,-1.));
#1222=DIRECTION('center_axis',(-0.984807753012208,0.17364817766693,0.));
#1223=DIRECTION('ref_axis',(0.,0.,-1.));
#1224=DIRECTION('center_axis',(-0.984807753012208,0.17364817766693,0.));
#1225=DIRECTION('ref_axis',(0.,0.,-1.));
#1226=DIRECTION('',(-0.984807753012208,0.17364817766693,0.));
#1227=DIRECTION('center_axis',(0.984807753012208,-0.17364817766693,0.));
#1228=DIRECTION('ref_axis',(0.,0.,-1.));
#1229=DIRECTION('center_axis',(-0.984807753012208,0.17364817766693,0.));
#1230=DIRECTION('ref_axis',(0.,0.,-1.));
#1231=DIRECTION('center_axis',(-0.984807753012208,0.17364817766693,0.));
#1232=DIRECTION('ref_axis',(0.,0.,-1.));
#1233=DIRECTION('',(-0.984807753012208,0.17364817766693,0.));
#1234=DIRECTION('center_axis',(0.984807753012208,-0.17364817766693,0.));
#1235=DIRECTION('ref_axis',(0.,0.,-1.));
#1236=DIRECTION('center_axis',(0.,0.,-1.));
#1237=DIRECTION('ref_axis',(-1.57661805436897E-15,1.,0.));
#1238=DIRECTION('center_axis',(0.,0.,1.));
#1239=DIRECTION('ref_axis',(-1.,0.,0.));
#1240=DIRECTION('',(-1.57661805436897E-15,1.,0.));
#1241=DIRECTION('',(1.,0.,0.));
#1242=DIRECTION('center_axis',(1.,0.,0.));
#1243=DIRECTION('ref_axis',(0.,0.,-1.));
#1244=DIRECTION('center_axis',(-1.,-1.57661805436897E-15,0.));
#1245=DIRECTION('ref_axis',(0.,0.,-1.));
#1246=DIRECTION('',(-1.,0.,0.));
#1247=DIRECTION('center_axis',(1.,1.57661805436897E-15,0.));
#1248=DIRECTION('ref_axis',(0.,0.,-1.));
#1249=DIRECTION('center_axis',(1.,0.,0.));
#1250=DIRECTION('ref_axis',(0.,0.,-1.));
#1251=DIRECTION('center_axis',(-1.,-1.57661805436897E-15,0.));
#1252=DIRECTION('ref_axis',(0.,0.,-1.));
#1253=DIRECTION('',(-1.,0.,0.));
#1254=DIRECTION('center_axis',(1.,1.57661805436897E-15,0.));
#1255=DIRECTION('ref_axis',(0.,0.,-1.));
#1256=DIRECTION('center_axis',(1.,0.,0.));
#1257=DIRECTION('ref_axis',(0.,0.,-1.));
#1258=DIRECTION('center_axis',(-1.,-1.57661805436897E-15,0.));
#1259=DIRECTION('ref_axis',(0.,0.,-1.));
#1260=DIRECTION('',(-1.,0.,0.));
#1261=DIRECTION('center_axis',(1.,1.57661805436897E-15,0.));
#1262=DIRECTION('ref_axis',(0.,0.,-1.));
#1263=DIRECTION('center_axis',(1.,0.,0.));
#1264=DIRECTION('ref_axis',(0.,0.,-1.));
#1265=DIRECTION('center_axis',(-1.,-1.57661805436897E-15,0.));
#1266=DIRECTION('ref_axis',(0.,0.,-1.));
#1267=DIRECTION('',(-1.,0.,0.));
#1268=DIRECTION('center_axis',(1.,1.57661805436897E-15,0.));
#1269=DIRECTION('ref_axis',(0.,0.,-1.));
#1270=DIRECTION('center_axis',(1.,0.,0.));
#1271=DIRECTION('ref_axis',(0.,0.,-1.));
#1272=DIRECTION('center_axis',(-1.,-1.57661805436897E-15,0.));
#1273=DIRECTION('ref_axis',(0.,0.,-1.));
#1274=DIRECTION('',(-1.,0.,0.));
#1275=DIRECTION('center_axis',(1.,1.57661805436897E-15,0.));
#1276=DIRECTION('ref_axis',(0.,0.,-1.));
#1277=DIRECTION('center_axis',(1.,0.,0.));
#1278=DIRECTION('ref_axis',(0.,0.,-1.));
#1279=DIRECTION('center_axis',(-1.,-1.57661805436897E-15,0.));
#1280=DIRECTION('ref_axis',(0.,0.,-1.));
#1281=DIRECTION('',(-1.,0.,0.));
#1282=DIRECTION('center_axis',(1.,1.57661805436897E-15,0.));
#1283=DIRECTION('ref_axis',(0.,0.,-1.));
#1284=DIRECTION('center_axis',(1.,0.,0.));
#1285=DIRECTION('ref_axis',(0.,0.,-1.));
#1286=DIRECTION('center_axis',(-1.,-1.57661805436897E-15,0.));
#1287=DIRECTION('ref_axis',(0.,0.,-1.));
#1288=DIRECTION('',(-1.,0.,0.));
#1289=DIRECTION('center_axis',(1.,1.57661805436897E-15,0.));
#1290=DIRECTION('ref_axis',(0.,0.,-1.));
#1291=DIRECTION('center_axis',(1.,0.,0.));
#1292=DIRECTION('ref_axis',(0.,0.,-1.));
#1293=DIRECTION('center_axis',(-1.,-1.57661805436897E-15,0.));
#1294=DIRECTION('ref_axis',(0.,0.,-1.));
#1295=DIRECTION('',(-1.,0.,0.));
#1296=DIRECTION('center_axis',(1.,1.57661805436897E-15,0.));
#1297=DIRECTION('ref_axis',(0.,0.,-1.));
#1298=DIRECTION('center_axis',(1.,0.,0.));
#1299=DIRECTION('ref_axis',(0.,0.,-1.));
#1300=DIRECTION('center_axis',(-1.,-1.57661805436897E-15,0.));
#1301=DIRECTION('ref_axis',(0.,0.,-1.));
#1302=DIRECTION('',(-1.,0.,0.));
#1303=DIRECTION('center_axis',(1.,1.57661805436897E-15,0.));
#1304=DIRECTION('ref_axis',(0.,0.,-1.));
#1305=DIRECTION('center_axis',(1.,0.,0.));
#1306=DIRECTION('ref_axis',(0.,0.,-1.));
#1307=DIRECTION('center_axis',(-1.,-1.57661805436897E-15,0.));
#1308=DIRECTION('ref_axis',(0.,0.,-1.));
#1309=DIRECTION('',(-1.,0.,0.));
#1310=DIRECTION('center_axis',(1.,1.57661805436897E-15,0.));
#1311=DIRECTION('ref_axis',(0.,0.,-1.));
#1312=DIRECTION('center_axis',(1.,0.,0.));
#1313=DIRECTION('ref_axis',(0.,0.,-1.));
#1314=DIRECTION('center_axis',(-1.,-1.57661805436897E-15,0.));
#1315=DIRECTION('ref_axis',(0.,0.,-1.));
#1316=DIRECTION('',(-1.,0.,0.));
#1317=DIRECTION('center_axis',(1.,1.57661805436897E-15,0.));
#1318=DIRECTION('ref_axis',(0.,0.,-1.));
#1319=DIRECTION('center_axis',(1.,0.,0.));
#1320=DIRECTION('ref_axis',(0.,0.,-1.));
#1321=DIRECTION('center_axis',(-1.,-1.57661805436897E-15,0.));
#1322=DIRECTION('ref_axis',(0.,0.,-1.));
#1323=DIRECTION('',(-1.,0.,0.));
#1324=DIRECTION('center_axis',(1.,1.57661805436897E-15,0.));
#1325=DIRECTION('ref_axis',(0.,0.,-1.));
#1326=DIRECTION('center_axis',(1.,0.,0.));
#1327=DIRECTION('ref_axis',(0.,0.,-1.));
#1328=DIRECTION('center_axis',(-1.,-1.57661805436897E-15,0.));
#1329=DIRECTION('ref_axis',(0.,0.,-1.));
#1330=DIRECTION('',(-1.,0.,0.));
#1331=DIRECTION('center_axis',(1.,1.57661805436897E-15,0.));
#1332=DIRECTION('ref_axis',(0.,0.,-1.));
#1333=DIRECTION('center_axis',(1.,0.,0.));
#1334=DIRECTION('ref_axis',(0.,0.,-1.));
#1335=DIRECTION('center_axis',(-1.,-1.57661805436897E-15,0.));
#1336=DIRECTION('ref_axis',(0.,0.,-1.));
#1337=DIRECTION('',(-1.,0.,0.));
#1338=DIRECTION('center_axis',(1.,1.57661805436897E-15,0.));
#1339=DIRECTION('ref_axis',(0.,0.,-1.));
#1340=DIRECTION('center_axis',(1.,0.,0.));
#1341=DIRECTION('ref_axis',(0.,0.,-1.));
#1342=DIRECTION('center_axis',(-1.,-1.57661805436897E-15,0.));
#1343=DIRECTION('ref_axis',(0.,0.,-1.));
#1344=DIRECTION('',(-1.,0.,0.));
#1345=DIRECTION('center_axis',(1.,1.57661805436897E-15,0.));
#1346=DIRECTION('ref_axis',(0.,0.,-1.));
#1347=DIRECTION('center_axis',(1.,0.,0.));
#1348=DIRECTION('ref_axis',(0.,0.,-1.));
#1349=DIRECTION('center_axis',(-1.,-1.57661805436897E-15,0.));
#1350=DIRECTION('ref_axis',(0.,0.,-1.));
#1351=DIRECTION('',(-1.,0.,0.));
#1352=DIRECTION('center_axis',(1.,1.57661805436897E-15,0.));
#1353=DIRECTION('ref_axis',(0.,0.,-1.));
#1354=DIRECTION('center_axis',(1.,0.,0.));
#1355=DIRECTION('ref_axis',(0.,0.,-1.));
#1356=DIRECTION('center_axis',(-1.,-1.57661805436897E-15,0.));
#1357=DIRECTION('ref_axis',(0.,0.,-1.));
#1358=DIRECTION('',(-1.,0.,0.));
#1359=DIRECTION('center_axis',(1.,1.57661805436897E-15,0.));
#1360=DIRECTION('ref_axis',(0.,0.,-1.));
#1361=DIRECTION('center_axis',(1.,0.,0.));
#1362=DIRECTION('ref_axis',(0.,0.,-1.));
#1363=DIRECTION('center_axis',(-1.,-1.57661805436897E-15,0.));
#1364=DIRECTION('ref_axis',(0.,0.,-1.));
#1365=DIRECTION('',(-1.,0.,0.));
#1366=DIRECTION('center_axis',(1.,1.57661805436897E-15,0.));
#1367=DIRECTION('ref_axis',(0.,0.,-1.));
#1368=DIRECTION('center_axis',(1.,0.,0.));
#1369=DIRECTION('ref_axis',(0.,0.,-1.));
#1370=DIRECTION('center_axis',(-1.,-1.57661805436897E-15,0.));
#1371=DIRECTION('ref_axis',(0.,0.,-1.));
#1372=DIRECTION('',(-1.,0.,0.));
#1373=DIRECTION('center_axis',(1.,1.57661805436897E-15,0.));
#1374=DIRECTION('ref_axis',(0.,0.,-1.));
#1375=DIRECTION('center_axis',(1.,0.,0.));
#1376=DIRECTION('ref_axis',(0.,0.,-1.));
#1377=DIRECTION('center_axis',(-1.,-1.57661805436897E-15,0.));
#1378=DIRECTION('ref_axis',(0.,0.,-1.));
#1379=DIRECTION('',(-1.,0.,0.));
#1380=DIRECTION('center_axis',(1.,1.57661805436897E-15,0.));
#1381=DIRECTION('ref_axis',(0.,0.,-1.));
#1382=DIRECTION('center_axis',(0.,0.,1.));
#1383=DIRECTION('ref_axis',(1.57661805436897E-15,-1.,0.));
#1384=DIRECTION('',(-1.57661805436897E-15,1.,0.));
#1385=DIRECTION('',(1.,0.,0.));
#1386=DIRECTION('',(1.57661805436897E-15,-1.,0.));
#1387=DIRECTION('',(1.,0.,0.));
#1388=DIRECTION('center_axis',(0.,1.,-2.47863745032593E-16));
#1389=DIRECTION('ref_axis',(-3.90786455441892E-31,2.47863745032593E-16,
1.));
#1390=DIRECTION('',(3.90786455441892E-31,-2.47863745032593E-16,-1.));
#1391=DIRECTION('',(-3.90786455441892E-31,2.47863745032593E-16,1.));
#1392=DIRECTION('',(1.,0.,0.));
#1393=DIRECTION('center_axis',(0.,-2.48689957516035E-15,-1.));
#1394=DIRECTION('ref_axis',(-1.57661805436897E-15,1.,-2.48689957516035E-15));
#1395=DIRECTION('',(1.57661805436897E-15,-1.,2.48689957516035E-15));
#1396=DIRECTION('',(-1.57661805436897E-15,1.,-2.48689957516035E-15));
#1397=DIRECTION('',(1.,0.,0.));
#1398=DIRECTION('center_axis',(0.,-1.,6.19659362581483E-17));
#1399=DIRECTION('ref_axis',(9.76966138604731E-32,-6.19659362581483E-17,
-1.));
#1400=DIRECTION('',(0.,0.,1.));
#1401=DIRECTION('',(9.76966138604731E-32,-6.19659362581483E-17,-1.));
#1402=DIRECTION('',(1.,0.,0.));
#1403=DIRECTION('center_axis',(0.,0.,-1.));
#1404=DIRECTION('ref_axis',(-1.57661805436897E-15,1.,0.));
#1405=DIRECTION('center_axis',(0.,0.,1.));
#1406=DIRECTION('ref_axis',(-1.,0.,0.));
#1407=DIRECTION('',(-1.57661805436897E-15,1.,0.));
#1408=DIRECTION('center_axis',(0.,1.,0.));
#1409=DIRECTION('ref_axis',(0.,0.,1.));
#1410=DIRECTION('',(0.,0.,1.));
#1411=DIRECTION('',(0.,0.,1.));
#1412=DIRECTION('',(1.,0.,0.));
#1413=DIRECTION('center_axis',(0.,0.,-1.));
#1414=DIRECTION('ref_axis',(-1.57661805436897E-15,1.,0.));
#1415=DIRECTION('',(1.57661805436897E-15,-1.,0.));
#1416=DIRECTION('',(-1.57661805436897E-15,1.,0.));
#1417=DIRECTION('',(1.,0.,0.));
#1418=DIRECTION('center_axis',(0.,-1.,0.));
#1419=DIRECTION('ref_axis',(0.,0.,-1.));
#1420=DIRECTION('',(0.,0.,1.));
#1421=DIRECTION('',(0.,0.,-1.));
#1422=DIRECTION('center_axis',(-1.,-1.57661805436897E-15,0.));
#1423=DIRECTION('ref_axis',(0.,0.,1.));
#1424=DIRECTION('',(1.57661805436897E-15,-1.,0.));
#1425=DIRECTION('center_axis',(0.,0.,1.));
#1426=DIRECTION('ref_axis',(1.,0.,0.));
#1427=DIRECTION('center_axis',(0.,0.,1.));
#1428=DIRECTION('ref_axis',(-1.,0.,0.));
#1429=DIRECTION('',(0.17364817766693,0.984807753012208,0.));
#1430=DIRECTION('center_axis',(0.,0.,1.));
#1431=DIRECTION('ref_axis',(-1.,0.,0.));
#1432=DIRECTION('center_axis',(-0.984807753012208,0.17364817766693,0.));
#1433=DIRECTION('ref_axis',(0.,0.,1.));
#1434=DIRECTION('',(0.,0.,1.));
#1435=DIRECTION('',(-0.17364817766693,-0.984807753012208,0.));
#1436=DIRECTION('',(0.,0.,-1.));
#1437=DIRECTION('center_axis',(0.,0.,1.));
#1438=DIRECTION('ref_axis',(1.,0.,0.));
#1439=DIRECTION('center_axis',(0.,0.,1.));
#1440=DIRECTION('ref_axis',(-1.,0.,0.));
#1441=DIRECTION('',(1.22464679914735E-16,-1.,0.));
#1442=DIRECTION('center_axis',(0.,0.,-1.));
#1443=DIRECTION('ref_axis',(-1.,0.,0.));
#1444=DIRECTION('',(0.17364817766693,0.984807753012208,0.));
#1445=DIRECTION('center_axis',(0.,0.,-1.));
#1446=DIRECTION('ref_axis',(-1.,0.,0.));
#1447=DIRECTION('',(1.57661805436897E-15,-1.,0.));
#1448=DIRECTION('center_axis',(0.,0.,1.));
#1449=DIRECTION('ref_axis',(-1.,0.,0.));
#1450=DIRECTION('',(0.,0.,1.));
#1451=DIRECTION('center_axis',(0.,0.,1.));
#1452=DIRECTION('ref_axis',(1.,0.,0.));
#1453=DIRECTION('center_axis',(0.,0.,-1.));
#1454=DIRECTION('ref_axis',(-1.,0.,0.));
#1455=DIRECTION('',(-0.17364817766693,-0.984807753012208,0.));
#1456=DIRECTION('center_axis',(0.,0.,-1.));
#1457=DIRECTION('ref_axis',(-1.,0.,0.));
#1458=DIRECTION('',(1.57661805436897E-15,-1.,0.));
#1459=DIRECTION('center_axis',(-0.984807753012208,0.17364817766693,0.));
#1460=DIRECTION('ref_axis',(-0.17364817766693,-0.984807753012208,0.));
#1461=DIRECTION('',(0.,0.,-1.));
#1462=DIRECTION('',(0.,0.,1.));
#1463=DIRECTION('',(0.,0.,1.));
#1464=DIRECTION('',(0.,0.,1.));
#1465=DIRECTION('center_axis',(-1.,-1.57661805436897E-15,0.));
#1466=DIRECTION('ref_axis',(1.57661805436897E-15,-1.,0.));
#1467=DIRECTION('',(0.,0.,1.));
#1468=CARTESIAN_POINT('',(0.,0.,0.));
#1469=CARTESIAN_POINT('Origin',(418.313718285847,-65.9311572767456,125.));
#1470=CARTESIAN_POINT('',(418.313718285847,-65.9311572767456,129.5));
#1471=CARTESIAN_POINT('Origin',(418.313718285847,-65.9311572767456,125.));
#1472=CARTESIAN_POINT('',(388.769485695481,-60.7217119467377,129.5));
#1473=CARTESIAN_POINT('',(418.313718285847,-65.9311572767456,129.5));
#1474=CARTESIAN_POINT('Origin',(388.769485695481,-60.7217119467377,125.));
#1475=CARTESIAN_POINT('Origin',(425.067047504141,-27.6311240591446,108.89087296526));
#1476=CARTESIAN_POINT('',(425.067047504141,-27.6311240591446,113.39087296526));
#1477=CARTESIAN_POINT('Origin',(425.067047504141,-27.6311240591446,108.89087296526));
#1478=CARTESIAN_POINT('',(395.522814913775,-22.4216787291367,113.39087296526));
#1479=CARTESIAN_POINT('',(425.067047504141,-27.6311240591446,113.39087296526));
#1480=CARTESIAN_POINT('Origin',(395.522814913775,-22.4216787291367,108.89087296526));
#1481=CARTESIAN_POINT('Origin',(411.560389067554,-104.231190494347,108.89087296526));
#1482=CARTESIAN_POINT('',(411.560389067554,-104.231190494347,113.39087296526));
#1483=CARTESIAN_POINT('Origin',(411.560389067554,-104.231190494347,108.89087296526));
#1484=CARTESIAN_POINT('',(382.016156477188,-99.0217451643388,113.39087296526));
#1485=CARTESIAN_POINT('',(411.560389067554,-104.231190494347,113.39087296526));
#1486=CARTESIAN_POINT('Origin',(382.016156477188,-99.0217451643388,108.89087296526));
#1487=CARTESIAN_POINT('Origin',(418.313718285847,-65.9311572767456,70.));
#1488=CARTESIAN_POINT('',(418.313718285847,-65.9311572767456,105.));
#1489=CARTESIAN_POINT('Origin',(418.313718285847,-65.9311572767456,70.));
#1490=CARTESIAN_POINT('',(388.769485695481,-60.7217119467377,105.));
#1491=CARTESIAN_POINT('',(418.313718285847,-65.9311572767456,105.));
#1492=CARTESIAN_POINT('Origin',(388.769485695481,-60.7217119467377,70.));
#1493=CARTESIAN_POINT('Origin',(425.067047504141,-27.6311240591446,31.1091270347399));
#1494=CARTESIAN_POINT('',(425.067047504141,-27.6311240591446,35.6091270347399));
#1495=CARTESIAN_POINT('Origin',(425.067047504141,-27.6311240591446,31.1091270347399));
#1496=CARTESIAN_POINT('',(395.522814913775,-22.4216787291367,35.6091270347399));
#1497=CARTESIAN_POINT('',(425.067047504141,-27.6311240591446,35.6091270347399));
#1498=CARTESIAN_POINT('Origin',(395.522814913775,-22.4216787291367,31.1091270347399));
#1499=CARTESIAN_POINT('Origin',(408.763068514166,-120.095583692417,70.));
#1500=CARTESIAN_POINT('',(408.763068514166,-120.095583692417,74.5));
#1501=CARTESIAN_POINT('Origin',(408.763068514166,-120.095583692417,70.));
#1502=CARTESIAN_POINT('',(379.2188359238,-114.886138362409,74.5));
#1503=CARTESIAN_POINT('',(408.763068514166,-120.095583692417,74.5));
#1504=CARTESIAN_POINT('Origin',(379.2188359238,-114.886138362409,70.));
#1505=CARTESIAN_POINT('Origin',(427.864368057528,-11.7667308610742,70.));
#1506=CARTESIAN_POINT('',(427.864368057528,-11.7667308610742,74.5));
#1507=CARTESIAN_POINT('Origin',(427.864368057528,-11.7667308610742,70.));
#1508=CARTESIAN_POINT('',(398.320135467162,-6.55728553106628,74.5));
#1509=CARTESIAN_POINT('',(427.864368057528,-11.7667308610742,74.5));
#1510=CARTESIAN_POINT('Origin',(398.320135467162,-6.55728553106628,70.));
#1511=CARTESIAN_POINT('Origin',(418.313718285847,-65.9311572767457,15.));
#1512=CARTESIAN_POINT('',(418.313718285847,-65.9311572767457,19.5));
#1513=CARTESIAN_POINT('Origin',(418.313718285847,-65.9311572767457,15.));
#1514=CARTESIAN_POINT('',(388.769485695481,-60.7217119467377,19.5));
#1515=CARTESIAN_POINT('',(418.313718285847,-65.9311572767457,19.5));
#1516=CARTESIAN_POINT('Origin',(388.769485695481,-60.7217119467377,15.));
#1517=CARTESIAN_POINT('Origin',(411.560389067554,-104.231190494347,31.1091270347399));
#1518=CARTESIAN_POINT('',(411.560389067554,-104.231190494347,35.6091270347399));
#1519=CARTESIAN_POINT('Origin',(411.560389067554,-104.231190494347,31.1091270347399));
#1520=CARTESIAN_POINT('',(382.016156477188,-99.0217451643388,35.6091270347399));
#1521=CARTESIAN_POINT('',(411.560389067554,-104.231190494347,35.6091270347399));
#1522=CARTESIAN_POINT('Origin',(382.016156477188,-99.0217451643388,31.1091270347399));
#1523=CARTESIAN_POINT('Origin',(1.00061725504733E-12,-330.,165.));
#1524=CARTESIAN_POINT('',(-5.51091059616309E-14,-330.,165.));
#1525=CARTESIAN_POINT('',(5.000000000001,-329.979629000876,165.));
#1526=CARTESIAN_POINT('Origin',(0.,0.,165.));
#1527=CARTESIAN_POINT('',(5.000000000001,-330.,165.));
#1528=CARTESIAN_POINT('',(4.99999999999996,330.,165.));
#1529=CARTESIAN_POINT('',(1.00061725504733E-12,-330.,165.));
#1530=CARTESIAN_POINT('Origin',(1.04003270640656E-12,-355.,40.0000000000002));
#1531=CARTESIAN_POINT('',(5.00000000000104,-355.,44.5000000000002));
#1532=CARTESIAN_POINT('Origin',(5.00000000000104,-355.,40.0000000000002));
#1533=CARTESIAN_POINT('',(1.04003270640656E-12,-355.,44.5000000000002));
#1534=CARTESIAN_POINT('',(1.04003270640656E-12,-355.,44.5000000000002));
#1535=CARTESIAN_POINT('Origin',(1.04003270640656E-12,-355.,40.0000000000002));
#1536=CARTESIAN_POINT('Origin',(1.04003270640656E-12,-355.,90.0000000000002));
#1537=CARTESIAN_POINT('',(5.00000000000104,-355.,94.5000000000002));
#1538=CARTESIAN_POINT('Origin',(5.00000000000104,-355.,90.0000000000002));
#1539=CARTESIAN_POINT('',(1.04003270640656E-12,-355.,94.5000000000002));
#1540=CARTESIAN_POINT('',(1.04003270640656E-12,-355.,94.5000000000002));
#1541=CARTESIAN_POINT('Origin',(1.04003270640656E-12,-355.,90.0000000000002));
#1542=CARTESIAN_POINT('Origin',(1.04003270640656E-12,-355.,140.));
#1543=CARTESIAN_POINT('',(5.00000000000104,-355.,144.5));
#1544=CARTESIAN_POINT('Origin',(5.00000000000104,-355.,140.));
#1545=CARTESIAN_POINT('',(1.04003270640656E-12,-355.,144.5));
#1546=CARTESIAN_POINT('',(1.04003270640656E-12,-355.,144.5));
#1547=CARTESIAN_POINT('Origin',(1.04003270640656E-12,-355.,140.));
#1548=CARTESIAN_POINT('Origin',(1.04003270640656E-12,-355.,190.));
#1549=CARTESIAN_POINT('',(5.00000000000104,-355.,194.5));
#1550=CARTESIAN_POINT('Origin',(5.00000000000104,-355.,190.));
#1551=CARTESIAN_POINT('',(1.04003270640656E-12,-355.,194.5));
#1552=CARTESIAN_POINT('',(1.04003270640656E-12,-355.,194.5));
#1553=CARTESIAN_POINT('Origin',(1.04003270640656E-12,-355.,190.));
#1554=CARTESIAN_POINT('Origin',(-7.9366112195409E-14,355.,140.));
#1555=CARTESIAN_POINT('',(4.99999999999992,355.,144.5));
#1556=CARTESIAN_POINT('Origin',(4.99999999999992,355.,140.));
#1557=CARTESIAN_POINT('',(-7.9366112195409E-14,355.,144.5));
#1558=CARTESIAN_POINT('',(-7.9366112195409E-14,355.,144.5));
#1559=CARTESIAN_POINT('Origin',(-7.9366112195409E-14,355.,140.));
#1560=CARTESIAN_POINT('Origin',(-7.9366112195409E-14,355.,90.0000000000002));
#1561=CARTESIAN_POINT('',(4.99999999999992,355.,94.5000000000002));
#1562=CARTESIAN_POINT('Origin',(4.99999999999992,355.,90.0000000000002));
#1563=CARTESIAN_POINT('',(-7.9366112195409E-14,355.,94.5000000000002));
#1564=CARTESIAN_POINT('',(-7.9366112195409E-14,355.,94.5000000000002));
#1565=CARTESIAN_POINT('Origin',(-7.9366112195409E-14,355.,90.0000000000002));
#1566=CARTESIAN_POINT('Origin',(-7.9366112195409E-14,355.,40.0000000000002));
#1567=CARTESIAN_POINT('',(4.99999999999992,355.,44.5000000000002));
#1568=CARTESIAN_POINT('Origin',(4.99999999999992,355.,40.0000000000002));
#1569=CARTESIAN_POINT('',(-7.9366112195409E-14,355.,44.5000000000002));
#1570=CARTESIAN_POINT('',(-7.9366112195409E-14,355.,44.5000000000002));
#1571=CARTESIAN_POINT('Origin',(-7.9366112195409E-14,355.,40.0000000000002));
#1572=CARTESIAN_POINT('Origin',(-7.9366112195409E-14,355.,190.));
#1573=CARTESIAN_POINT('',(4.99999999999992,355.,194.5));
#1574=CARTESIAN_POINT('Origin',(4.99999999999992,355.,190.));
#1575=CARTESIAN_POINT('',(-7.9366112195409E-14,355.,194.5));
#1576=CARTESIAN_POINT('',(-7.9366112195409E-14,355.,194.5));
#1577=CARTESIAN_POINT('Origin',(-7.9366112195409E-14,355.,190.));
#1578=CARTESIAN_POINT('Origin',(3.14788401396832E-13,105.,190.));
#1579=CARTESIAN_POINT('',(5.00000000000031,105.,194.5));
#1580=CARTESIAN_POINT('Origin',(5.00000000000031,105.,190.));
#1581=CARTESIAN_POINT('',(3.14788401396832E-13,105.,194.5));
#1582=CARTESIAN_POINT('',(3.14788401396832E-13,105.,194.5));
#1583=CARTESIAN_POINT('Origin',(3.14788401396832E-13,105.,190.));
#1584=CARTESIAN_POINT('Origin',(1.57126595959936E-13,205.,190.));
#1585=CARTESIAN_POINT('',(5.00000000000016,205.,194.5));
#1586=CARTESIAN_POINT('Origin',(5.00000000000016,205.,190.));
#1587=CARTESIAN_POINT('',(1.57126595959936E-13,205.,194.5));
#1588=CARTESIAN_POINT('',(1.57126595959936E-13,205.,194.5));
#1589=CARTESIAN_POINT('Origin',(1.57126595959936E-13,205.,190.));
#1590=CARTESIAN_POINT('Origin',(9.61201803688109E-13,-305.,190.));
#1591=CARTESIAN_POINT('',(5.00000000000096,-305.,194.5));
#1592=CARTESIAN_POINT('Origin',(5.00000000000096,-305.,190.));
#1593=CARTESIAN_POINT('',(9.61201803688109E-13,-305.,194.5));
#1594=CARTESIAN_POINT('',(9.61201803688109E-13,-305.,194.5));
#1595=CARTESIAN_POINT('Origin',(9.61201803688109E-13,-305.,190.));
#1596=CARTESIAN_POINT('Origin',(8.8237090096966E-13,-255.,190.));
#1597=CARTESIAN_POINT('',(5.00000000000088,-255.,194.5));
#1598=CARTESIAN_POINT('Origin',(5.00000000000088,-255.,190.));
#1599=CARTESIAN_POINT('',(8.8237090096966E-13,-255.,194.5));
#1600=CARTESIAN_POINT('',(8.8237090096966E-13,-255.,194.5));
#1601=CARTESIAN_POINT('Origin',(8.8237090096966E-13,-255.,190.));
#1602=CARTESIAN_POINT('Origin',(8.03539998251212E-13,-205.,190.));
#1603=CARTESIAN_POINT('',(5.0000000000008,-205.,194.5));
#1604=CARTESIAN_POINT('Origin',(5.0000000000008,-205.,190.));
#1605=CARTESIAN_POINT('',(8.03539998251212E-13,-205.,194.5));
#1606=CARTESIAN_POINT('',(8.03539998251212E-13,-205.,194.5));
#1607=CARTESIAN_POINT('Origin',(8.03539998251212E-13,-205.,190.));
#1608=CARTESIAN_POINT('Origin',(7.24709095532764E-13,-155.,190.));
#1609=CARTESIAN_POINT('',(5.00000000000072,-155.,194.5));
#1610=CARTESIAN_POINT('Origin',(5.00000000000072,-155.,190.));
#1611=CARTESIAN_POINT('',(7.24709095532764E-13,-155.,194.5));
#1612=CARTESIAN_POINT('',(7.24709095532764E-13,-155.,194.5));
#1613=CARTESIAN_POINT('Origin',(7.24709095532764E-13,-155.,190.));
#1614=CARTESIAN_POINT('Origin',(6.45878192814315E-13,-105.,190.));
#1615=CARTESIAN_POINT('',(5.00000000000064,-105.,194.5));
#1616=CARTESIAN_POINT('Origin',(5.00000000000064,-105.,190.));
#1617=CARTESIAN_POINT('',(6.45878192814315E-13,-105.,194.5));
#1618=CARTESIAN_POINT('',(6.45878192814315E-13,-105.,194.5));
#1619=CARTESIAN_POINT('Origin',(6.45878192814315E-13,-105.,190.));
#1620=CARTESIAN_POINT('Origin',(5.67047290095867E-13,-55.,190.));
#1621=CARTESIAN_POINT('',(5.00000000000057,-55.,194.5));
#1622=CARTESIAN_POINT('Origin',(5.00000000000057,-55.,190.));
#1623=CARTESIAN_POINT('',(5.67047290095867E-13,-55.,194.5));
#1624=CARTESIAN_POINT('',(5.67047290095867E-13,-55.,194.5));
#1625=CARTESIAN_POINT('Origin',(5.67047290095867E-13,-55.,190.));
#1626=CARTESIAN_POINT('Origin',(-5.35209476960713E-16,305.,190.));
#1627=CARTESIAN_POINT('',(5.,305.,194.5));
#1628=CARTESIAN_POINT('Origin',(5.,305.,190.));
#1629=CARTESIAN_POINT('',(-5.35209476960714E-16,305.,194.5));
#1630=CARTESIAN_POINT('',(-5.35209476960713E-16,305.,194.5));
#1631=CARTESIAN_POINT('Origin',(-5.35209476960713E-16,305.,190.));
#1632=CARTESIAN_POINT('Origin',(7.82956932414876E-14,255.,190.));
#1633=CARTESIAN_POINT('',(5.00000000000008,255.,194.5));
#1634=CARTESIAN_POINT('Origin',(5.00000000000008,255.,190.));
#1635=CARTESIAN_POINT('',(7.82956932414876E-14,255.,194.5));
#1636=CARTESIAN_POINT('',(7.82956932414876E-14,255.,194.5));
#1637=CARTESIAN_POINT('Origin',(7.82956932414876E-14,255.,190.));
#1638=CARTESIAN_POINT('Origin',(2.35957498678384E-13,155.,190.));
#1639=CARTESIAN_POINT('',(5.00000000000024,155.,194.5));
#1640=CARTESIAN_POINT('Origin',(5.00000000000024,155.,190.));
#1641=CARTESIAN_POINT('',(2.35957498678384E-13,155.,194.5));
#1642=CARTESIAN_POINT('',(2.35957498678384E-13,155.,194.5));
#1643=CARTESIAN_POINT('Origin',(2.35957498678384E-13,155.,190.));
#1644=CARTESIAN_POINT('Origin',(3.93619304115281E-13,55.,190.));
#1645=CARTESIAN_POINT('',(5.00000000000039,55.,194.5));
#1646=CARTESIAN_POINT('Origin',(5.00000000000039,55.,190.));
#1647=CARTESIAN_POINT('',(3.93619304115281E-13,55.,194.5));
#1648=CARTESIAN_POINT('',(3.93619304115281E-13,55.,194.5));
#1649=CARTESIAN_POINT('Origin',(3.93619304115281E-13,55.,190.));
#1650=CARTESIAN_POINT('Origin',(-1.18781563554633E-13,380.,215.));
#1651=CARTESIAN_POINT('',(1.07944815776578E-12,-380.,215.));
#1652=CARTESIAN_POINT('',(-1.18781563554633E-13,380.,215.));
#1653=CARTESIAN_POINT('',(1.07944815776578E-12,-380.,215.));
#1654=CARTESIAN_POINT('',(5.00000000000108,-380.,215.));
#1655=CARTESIAN_POINT('',(1.07944815776578E-12,-380.,215.));
#1656=CARTESIAN_POINT('',(4.99999999999988,380.,215.));
#1657=CARTESIAN_POINT('',(5.00000000000108,-380.,215.));
#1658=CARTESIAN_POINT('',(-1.18781563554633E-13,380.,215.));
#1659=CARTESIAN_POINT('Origin',(-1.18781563554633E-13,380.,-1.4210854715202E-13));
#1660=CARTESIAN_POINT('',(-1.18781563554633E-13,380.,-1.24344978758018E-13));
#1661=CARTESIAN_POINT('',(-1.18781563554633E-13,380.,215.));
#1662=CARTESIAN_POINT('',(4.99999999999988,380.,-1.24344978758018E-13));
#1663=CARTESIAN_POINT('',(4.99999999999988,380.,215.));
#1664=CARTESIAN_POINT('',(-1.18781563554633E-13,380.,-1.24344978758018E-13));
#1665=CARTESIAN_POINT('Origin',(-3.99506608361849E-14,330.,-4.73316543132607E-29));
#1666=CARTESIAN_POINT('',(-3.99506608361849E-14,330.,0.));
#1667=CARTESIAN_POINT('',(-1.18781563554633E-13,380.,-1.24344978758018E-13));
#1668=CARTESIAN_POINT('',(4.99999999999996,330.,0.));
#1669=CARTESIAN_POINT('',(4.99999999999988,380.,-1.24344978758018E-13));
#1670=CARTESIAN_POINT('',(-3.99506608361849E-14,330.,0.));
#1671=CARTESIAN_POINT('Origin',(-3.99506608361849E-14,330.,165.));
#1672=CARTESIAN_POINT('',(-3.99506608361849E-14,330.,165.));
#1673=CARTESIAN_POINT('',(-3.99506608361849E-14,330.,0.));
#1674=CARTESIAN_POINT('',(4.99999999999996,330.,165.));
#1675=CARTESIAN_POINT('',(4.99999999999996,330.,0.));
#1676=CARTESIAN_POINT('',(-3.99506608361849E-14,330.,165.));
#1677=CARTESIAN_POINT('Origin',(1.00061725504733E-12,-330.,165.));
#1678=CARTESIAN_POINT('',(4.99999999999996,329.979629000876,165.));
#1679=CARTESIAN_POINT('Origin',(0.,0.,165.));
#1680=CARTESIAN_POINT('',(4.99999999999996,330.,165.));
#1681=CARTESIAN_POINT('Origin',(1.00061725504733E-12,-330.,0.));
#1682=CARTESIAN_POINT('',(-5.51091059616309E-14,-330.,0.));
#1683=CARTESIAN_POINT('',(-5.51091059616309E-14,-330.,0.));
#1684=CARTESIAN_POINT('',(5.000000000001,-330.,0.));
#1685=CARTESIAN_POINT('',(5.000000000001,-330.,215.));
#1686=CARTESIAN_POINT('',(1.00061725504733E-12,-330.,0.));
#1687=CARTESIAN_POINT('Origin',(1.07944815776578E-12,-380.,0.));
#1688=CARTESIAN_POINT('',(1.07944815776578E-12,-380.,0.));
#1689=CARTESIAN_POINT('',(1.00061725504733E-12,-330.,0.));
#1690=CARTESIAN_POINT('',(5.00000000000108,-380.,0.));
#1691=CARTESIAN_POINT('',(5.000000000001,-330.,0.));
#1692=CARTESIAN_POINT('',(1.07944815776578E-12,-380.,0.));
#1693=CARTESIAN_POINT('Origin',(1.07944815776578E-12,-380.,215.));
#1694=CARTESIAN_POINT('',(1.07944815776578E-12,-380.,0.));
#1695=CARTESIAN_POINT('',(5.00000000000108,-380.,0.));
#1696=CARTESIAN_POINT('Origin',(5.00000000000048,0.,107.5));
#1697=CARTESIAN_POINT('',(5.00000000000046,-1.73427985980586E-13,165.));
#1698=CARTESIAN_POINT('Origin',(225.,0.,165.));
#1699=CARTESIAN_POINT('',(404.421864072493,-144.715777517722,165.));
#1700=CARTESIAN_POINT('Origin',(0.,0.,165.));
#1701=CARTESIAN_POINT('',(441.315591843335,64.5189500469789,165.));
#1702=CARTESIAN_POINT('',(421.804573192808,-46.1335353079742,165.));
#1703=CARTESIAN_POINT('Origin',(0.,0.,165.));
#1704=CARTESIAN_POINT('Origin',(419.849658027035,-57.2204101465204,80.8274701723587));
#1705=CARTESIAN_POINT('',(404.421864072493,-144.715777517722,0.));
#1706=CARTESIAN_POINT('',(404.421864072493,-144.715777517722,0.));
#1707=CARTESIAN_POINT('',(441.315591843335,64.5189500469789,0.));
#1708=CARTESIAN_POINT('',(407.696242280624,-126.145855915393,0.));
#1709=CARTESIAN_POINT('',(441.315591843335,64.5189500469789,0.));
#1710=CARTESIAN_POINT('Origin',(225.,-165.,0.));
#1711=CARTESIAN_POINT('Origin',(0.,0.,0.));
#1712=CARTESIAN_POINT('',(-5.87830463590729E-14,-300.,0.));
#1713=CARTESIAN_POINT('',(-5.87830463590729E-14,-300.,0.));
#1714=CARTESIAN_POINT('',(375.873657476193,-133.8575880757,0.));
#1715=CARTESIAN_POINT('Origin',(0.,0.,0.));
#1716=CARTESIAN_POINT('',(410.603293009579,63.103962526742,0.));
#1717=CARTESIAN_POINT('',(375.873657476193,-133.8575880757,0.));
#1718=CARTESIAN_POINT('',(7.34788079488412E-15,300.,0.));
#1719=CARTESIAN_POINT('Origin',(0.,0.,0.));
#1720=CARTESIAN_POINT('',(-3.99506608361849E-14,330.,0.));
#1721=CARTESIAN_POINT('Origin',(0.,0.,0.));
#1722=CARTESIAN_POINT('Ctrl Pts',(0.,-330.,0.));
#1723=CARTESIAN_POINT('Ctrl Pts',(281.13498953369,-330.,0.));
#1724=CARTESIAN_POINT('Ctrl Pts',(404.421864072493,-144.715777517722,0.));
#1725=CARTESIAN_POINT('Ctrl Pts',(0.,-330.,165.));
#1726=CARTESIAN_POINT('Ctrl Pts',(281.13498953369,-330.,165.));
#1727=CARTESIAN_POINT('Ctrl Pts',(404.421864072493,-144.715777517722,165.));
#1728=CARTESIAN_POINT('',(-5.51091059616309E-14,-330.,0.));
#1729=CARTESIAN_POINT('Origin',(225.,0.,160.));
#1730=CARTESIAN_POINT('',(7.34788079488412E-15,300.,160.));
#1731=CARTESIAN_POINT('',(410.603293009579,63.103962526742,160.));
#1732=CARTESIAN_POINT('Origin',(0.,0.,160.));
#1733=CARTESIAN_POINT('',(375.873657476193,-133.8575880757,160.));
#1734=CARTESIAN_POINT('',(375.873657476193,-133.8575880757,160.));
#1735=CARTESIAN_POINT('',(-5.87830463590729E-14,-300.,160.));
#1736=CARTESIAN_POINT('Origin',(0.,0.,160.));
#1737=CARTESIAN_POINT('',(-3.99506608361849E-14,330.,160.));
#1738=CARTESIAN_POINT('Origin',(410.603293009579,63.103962526742,0.));
#1739=CARTESIAN_POINT('',(375.873657476193,-133.8575880757,0.));
#1740=CARTESIAN_POINT('',(410.603293009579,63.1039625267419,0.));
#1741=CARTESIAN_POINT('Ctrl Pts',(410.603293009579,63.103962526742,0.));
#1742=CARTESIAN_POINT('Ctrl Pts',(339.244405502189,300.,0.));
#1743=CARTESIAN_POINT('Ctrl Pts',(0.,300.,0.));
#1744=CARTESIAN_POINT('Ctrl Pts',(410.603293009579,63.103962526742,160.));
#1745=CARTESIAN_POINT('Ctrl Pts',(339.244405502189,300.,160.));
#1746=CARTESIAN_POINT('Ctrl Pts',(0.,300.,160.));
#1747=CARTESIAN_POINT('',(7.34788079488412E-15,300.,0.));
#1748=CARTESIAN_POINT('Ctrl Pts',(0.,-300.,0.));
#1749=CARTESIAN_POINT('Ctrl Pts',(259.905785543581,-300.,0.));
#1750=CARTESIAN_POINT('Ctrl Pts',(375.873657476193,-133.8575880757,0.));
#1751=CARTESIAN_POINT('Ctrl Pts',(0.,-300.,160.));
#1752=CARTESIAN_POINT('Ctrl Pts',(259.905785543581,-300.,160.));
#1753=CARTESIAN_POINT('Ctrl Pts',(375.873657476193,-133.8575880757,160.));
#1754=CARTESIAN_POINT('',(-5.87830463590729E-14,-300.,0.));
#1755=CARTESIAN_POINT('Origin',(-3.99506608361849E-14,330.,0.));
#1756=CARTESIAN_POINT('',(-3.99506608361849E-14,330.,0.));
#1757=CARTESIAN_POINT('Ctrl Pts',(441.315591843335,64.5189500469785,0.));
#1758=CARTESIAN_POINT('Ctrl Pts',(369.143599543086,330.,0.));
#1759=CARTESIAN_POINT('Ctrl Pts',(0.,330.,0.));
#1760=CARTESIAN_POINT('Ctrl Pts',(441.315591843335,64.5189500469785,165.));
#1761=CARTESIAN_POINT('Ctrl Pts',(369.143599543086,330.,165.));
#1762=CARTESIAN_POINT('Ctrl Pts',(0.,330.,165.));
#1763=CARTESIAN_POINT('',(4.80333297105574E-13,0.,0.));
#1764=UNCERTAINTY_MEASURE_WITH_UNIT(LENGTH_MEASURE(0.01),#1768,
'DISTANCE_ACCURACY_VALUE',
'Maximum model space distance between geometric entities at asserted c
onnectivities');
#1765=UNCERTAINTY_MEASURE_WITH_UNIT(LENGTH_MEASURE(0.01),#1768,
'DISTANCE_ACCURACY_VALUE',
'Maximum model space distance between geometric entities at asserted c
onnectivities');
#1766=(
GEOMETRIC_REPRESENTATION_CONTEXT(3)
GLOBAL_UNCERTAINTY_ASSIGNED_CONTEXT((#1764))
GLOBAL_UNIT_ASSIGNED_CONTEXT((#1768,#1770,#1771))
REPRESENTATION_CONTEXT('','3D')
);
#1767=(
GEOMETRIC_REPRESENTATION_CONTEXT(3)
GLOBAL_UNCERTAINTY_ASSIGNED_CONTEXT((#1765))
GLOBAL_UNIT_ASSIGNED_CONTEXT((#1768,#1770,#1771))
REPRESENTATION_CONTEXT('','3D')
);
#1768=(
LENGTH_UNIT()
NAMED_UNIT(*)
SI_UNIT(.MILLI.,.METRE.)
);
#1769=(
LENGTH_UNIT()
NAMED_UNIT(*)
SI_UNIT(.CENTI.,.METRE.)
);
#1770=(
NAMED_UNIT(*)
PLANE_ANGLE_UNIT()
SI_UNIT($,.RADIAN.)
);
#1771=(
NAMED_UNIT(*)
SI_UNIT($,.STERADIAN.)
SOLID_ANGLE_UNIT()
);
#1772=SHAPE_DEFINITION_REPRESENTATION(#1773,#1774);
#1773=PRODUCT_DEFINITION_SHAPE('',$,#1776);
#1774=SHAPE_REPRESENTATION('',(#1057),#1766);
#1775=PRODUCT_DEFINITION_CONTEXT('part definition',#1780,'design');
#1776=PRODUCT_DEFINITION('eggshellCorePrinted','rearwheelCorePrintedR',
#1777,#1775);
#1777=PRODUCT_DEFINITION_FORMATION('',$,#1782);
#1778=PRODUCT_RELATED_PRODUCT_CATEGORY('rearwheelCorePrintedR',
'rearwheelCorePrintedR',(#1782));
#1779=APPLICATION_PROTOCOL_DEFINITION('international standard',
'automotive_design',2009,#1780);
#1780=APPLICATION_CONTEXT(
'Core Data for Automotive Mechanical Design Process');
#1781=PRODUCT_CONTEXT('part definition',#1780,'mechanical');
#1782=PRODUCT('eggshellCorePrinted','rearwheelCorePrintedR',$,(#1781));
#1783=PRESENTATION_STYLE_ASSIGNMENT((#1785));
#1784=PRESENTATION_STYLE_ASSIGNMENT((#1786));
#1785=SURFACE_STYLE_USAGE(.BOTH.,#1787);
#1786=SURFACE_STYLE_USAGE(.BOTH.,#1788);
#1787=SURFACE_SIDE_STYLE('',(#1789));
#1788=SURFACE_SIDE_STYLE('',(#1790));
#1789=SURFACE_STYLE_FILL_AREA(#1791);
#1790=SURFACE_STYLE_FILL_AREA(#1792);
#1791=FILL_AREA_STYLE('',(#1793));
#1792=FILL_AREA_STYLE('',(#1794));
#1793=FILL_AREA_STYLE_COLOUR('',#1795);
#1794=FILL_AREA_STYLE_COLOUR('',#1796);
#1795=COLOUR_RGB('',0.694117647058824,0.694117647058824,0.694117647058824);
#1796=COLOUR_RGB('',0.227450980392157,0.580392156862745,0.341176470588235);
ENDSEC;
END-ISO-10303-21;
