ISO-10303-21;
HEADER;
/* Generated by software containing ST-Developer
 * from STEP Tools, Inc. (www.steptools.com) 
 */

FILE_DESCRIPTION(
/* description */ (''),
/* implementation_level */ '2;1');

FILE_NAME(
/* name */ 
'C:\\Users\\Nathann\\ClawdDrive\\Objet3D\\neodrive\\neodrive-cad-ergon
omic-v1\\rearwheelCorePrintedLeft.stp',
/* time_stamp */ '2026-03-23T14:22:41+01:00',
/* author */ ('Nathann'),
/* organization */ (''),
/* preprocessor_version */ 'ST-DEVELOPER v19',
/* originating_system */ 'Autodesk Inventor 2023',
/* authorisation */ '');

FILE_SCHEMA (('AUTOMOTIVE_DESIGN { 1 0 10303 214 3 1 1 }'));
ENDSEC;

DATA;
#10=MECHANICAL_DESIGN_GEOMETRIC_PRESENTATION_REPRESENTATION('',(#13),#1603);
#11=SHAPE_REPRESENTATION_RELATIONSHIP('SRR','None',#1610,#12);
#12=ADVANCED_BREP_SHAPE_REPRESENTATION('',(#14),#1602);
#13=STYLED_ITEM('',(#1619),#14);
#14=MANIFOLD_SOLID_BREP('Solid1',#934);
#15=(
BOUNDED_SURFACE()
B_SPLINE_SURFACE(1,2,((#1564,#1565,#1566),(#1567,#1568,#1569)),
 .UNSPECIFIED.,.F.,.F.,.F.)
B_SPLINE_SURFACE_WITH_KNOTS((2,2),(3,3),(-0.0111111111111111,0.355555555555556),
(-2.94481318595159,-1.5819076665424),.UNSPECIFIED.)
GEOMETRIC_REPRESENTATION_ITEM()
RATIONAL_B_SPLINE_SURFACE(((1.,0.776658413366773,1.),(1.,0.776658413366773,
1.)))
REPRESENTATION_ITEM('')
SURFACE()
);
#16=(
BOUNDED_SURFACE()
B_SPLINE_SURFACE(1,2,((#1582,#1583,#1584),(#1585,#1586,#1587)),
 .UNSPECIFIED.,.F.,.F.,.F.)
B_SPLINE_SURFACE_WITH_KNOTS((2,2),(3,3),(0.,0.380952380952381),(-2.92966323493415,
-1.5707963267949),.UNSPECIFIED.)
GEOMETRIC_REPRESENTATION_ITEM()
RATIONAL_B_SPLINE_SURFACE(((1.,0.777928834070253,1.),(1.,0.777928834070253,
1.)))
REPRESENTATION_ITEM('')
SURFACE()
);
#17=(
BOUNDED_SURFACE()
B_SPLINE_SURFACE(1,2,((#1588,#1589,#1590),(#1591,#1592,#1593)),
 .UNSPECIFIED.,.F.,.F.,.F.)
B_SPLINE_SURFACE_WITH_KNOTS((2,2),(3,3),(0.,0.380952380952381),(1.5707963267949,
2.67908694178583),.UNSPECIFIED.)
GEOMETRIC_REPRESENTATION_ITEM()
RATIONAL_B_SPLINE_SURFACE(((1.,0.850350504278186,1.),(1.,0.850350504278186,
1.)))
REPRESENTATION_ITEM('')
SURFACE()
);
#18=(
BOUNDED_SURFACE()
B_SPLINE_SURFACE(1,2,((#1594,#1595,#1596),(#1597,#1598,#1599)),
 .UNSPECIFIED.,.F.,.F.,.F.)
B_SPLINE_SURFACE_WITH_KNOTS((2,2),(3,3),(-0.0111111111111111,0.355555555555556),
(1.5819076665424,2.68762734123457),.UNSPECIFIED.)
GEOMETRIC_REPRESENTATION_ITEM()
RATIONAL_B_SPLINE_SURFACE(((1.,0.851026237383627,1.),(1.,0.851026237383627,
1.)))
REPRESENTATION_ITEM('')
SURFACE()
);
#19=ELLIPSE('',#1051,420.,300.);
#20=ELLIPSE('',#1052,420.,300.);
#21=ELLIPSE('',#1053,450.,330.);
#22=ELLIPSE('',#1054,450.,330.);
#23=ELLIPSE('',#1055,450.,330.);
#24=ELLIPSE('',#1057,450.,330.);
#25=ELLIPSE('',#1059,420.,300.);
#26=ELLIPSE('',#1060,420.,300.);
#27=FACE_BOUND('',#148,.T.);
#28=FACE_BOUND('',#149,.T.);
#29=FACE_BOUND('',#150,.T.);
#30=FACE_BOUND('',#151,.T.);
#31=FACE_BOUND('',#152,.T.);
#32=FACE_BOUND('',#153,.T.);
#33=FACE_BOUND('',#154,.T.);
#34=FACE_BOUND('',#155,.T.);
#35=FACE_BOUND('',#156,.T.);
#36=FACE_BOUND('',#157,.T.);
#37=FACE_BOUND('',#158,.T.);
#38=FACE_BOUND('',#159,.T.);
#39=FACE_BOUND('',#160,.T.);
#40=FACE_BOUND('',#161,.T.);
#41=FACE_BOUND('',#162,.T.);
#42=FACE_BOUND('',#163,.T.);
#43=FACE_BOUND('',#164,.T.);
#44=FACE_BOUND('',#165,.T.);
#45=FACE_BOUND('',#166,.T.);
#46=FACE_BOUND('',#167,.T.);
#47=FACE_BOUND('',#192,.T.);
#48=FACE_BOUND('',#193,.T.);
#49=FACE_BOUND('',#194,.T.);
#50=FACE_BOUND('',#195,.T.);
#51=FACE_BOUND('',#196,.T.);
#52=FACE_BOUND('',#197,.T.);
#53=FACE_BOUND('',#198,.T.);
#54=FACE_BOUND('',#199,.T.);
#55=FACE_BOUND('',#200,.T.);
#56=FACE_BOUND('',#201,.T.);
#57=FACE_BOUND('',#202,.T.);
#58=FACE_BOUND('',#203,.T.);
#59=FACE_BOUND('',#204,.T.);
#60=FACE_BOUND('',#205,.T.);
#61=FACE_BOUND('',#206,.T.);
#62=FACE_BOUND('',#207,.T.);
#63=FACE_BOUND('',#208,.T.);
#64=FACE_BOUND('',#209,.T.);
#65=FACE_BOUND('',#210,.T.);
#66=FACE_BOUND('',#211,.T.);
#67=FACE_BOUND('',#213,.T.);
#68=FACE_BOUND('',#214,.T.);
#69=FACE_BOUND('',#215,.T.);
#70=FACE_BOUND('',#216,.T.);
#71=FACE_BOUND('',#217,.T.);
#72=FACE_BOUND('',#218,.T.);
#73=FACE_BOUND('',#219,.T.);
#74=FACE_BOUND('',#220,.T.);
#75=FACE_BOUND('',#221,.T.);
#76=FACE_BOUND('',#227,.T.);
#77=FACE_BOUND('',#228,.T.);
#78=FACE_BOUND('',#229,.T.);
#79=FACE_BOUND('',#230,.T.);
#80=FACE_BOUND('',#231,.T.);
#81=FACE_BOUND('',#232,.T.);
#82=FACE_BOUND('',#233,.T.);
#83=FACE_BOUND('',#234,.T.);
#84=FACE_BOUND('',#235,.T.);
#85=PLANE('',#984);
#86=PLANE('',#1045);
#87=PLANE('',#1046);
#88=PLANE('',#1047);
#89=PLANE('',#1048);
#90=PLANE('',#1049);
#91=PLANE('',#1050);
#92=PLANE('',#1056);
#93=PLANE('',#1058);
#94=PLANE('',#1061);
#95=FACE_OUTER_BOUND('',#138,.T.);
#96=FACE_OUTER_BOUND('',#139,.T.);
#97=FACE_OUTER_BOUND('',#140,.T.);
#98=FACE_OUTER_BOUND('',#141,.T.);
#99=FACE_OUTER_BOUND('',#142,.T.);
#100=FACE_OUTER_BOUND('',#143,.T.);
#101=FACE_OUTER_BOUND('',#144,.T.);
#102=FACE_OUTER_BOUND('',#145,.T.);
#103=FACE_OUTER_BOUND('',#146,.T.);
#104=FACE_OUTER_BOUND('',#147,.T.);
#105=FACE_OUTER_BOUND('',#168,.T.);
#106=FACE_OUTER_BOUND('',#169,.T.);
#107=FACE_OUTER_BOUND('',#170,.T.);
#108=FACE_OUTER_BOUND('',#171,.T.);
#109=FACE_OUTER_BOUND('',#172,.T.);
#110=FACE_OUTER_BOUND('',#173,.T.);
#111=FACE_OUTER_BOUND('',#174,.T.);
#112=FACE_OUTER_BOUND('',#175,.T.);
#113=FACE_OUTER_BOUND('',#176,.T.);
#114=FACE_OUTER_BOUND('',#177,.T.);
#115=FACE_OUTER_BOUND('',#178,.T.);
#116=FACE_OUTER_BOUND('',#179,.T.);
#117=FACE_OUTER_BOUND('',#180,.T.);
#118=FACE_OUTER_BOUND('',#181,.T.);
#119=FACE_OUTER_BOUND('',#182,.T.);
#120=FACE_OUTER_BOUND('',#183,.T.);
#121=FACE_OUTER_BOUND('',#184,.T.);
#122=FACE_OUTER_BOUND('',#185,.T.);
#123=FACE_OUTER_BOUND('',#186,.T.);
#124=FACE_OUTER_BOUND('',#187,.T.);
#125=FACE_OUTER_BOUND('',#188,.T.);
#126=FACE_OUTER_BOUND('',#189,.T.);
#127=FACE_OUTER_BOUND('',#190,.T.);
#128=FACE_OUTER_BOUND('',#191,.T.);
#129=FACE_OUTER_BOUND('',#212,.T.);
#130=FACE_OUTER_BOUND('',#222,.T.);
#131=FACE_OUTER_BOUND('',#223,.T.);
#132=FACE_OUTER_BOUND('',#224,.T.);
#133=FACE_OUTER_BOUND('',#225,.T.);
#134=FACE_OUTER_BOUND('',#226,.T.);
#135=FACE_OUTER_BOUND('',#236,.T.);
#136=FACE_OUTER_BOUND('',#237,.T.);
#137=FACE_OUTER_BOUND('',#238,.T.);
#138=EDGE_LOOP('',(#616,#617,#618,#619));
#139=EDGE_LOOP('',(#620,#621,#622,#623));
#140=EDGE_LOOP('',(#624,#625,#626,#627));
#141=EDGE_LOOP('',(#628,#629,#630,#631));
#142=EDGE_LOOP('',(#632,#633,#634,#635));
#143=EDGE_LOOP('',(#636,#637,#638,#639));
#144=EDGE_LOOP('',(#640,#641,#642,#643));
#145=EDGE_LOOP('',(#644,#645,#646,#647));
#146=EDGE_LOOP('',(#648,#649,#650,#651));
#147=EDGE_LOOP('',(#652,#653,#654,#655,#656,#657,#658,#659));
#148=EDGE_LOOP('',(#660));
#149=EDGE_LOOP('',(#661));
#150=EDGE_LOOP('',(#662));
#151=EDGE_LOOP('',(#663));
#152=EDGE_LOOP('',(#664));
#153=EDGE_LOOP('',(#665));
#154=EDGE_LOOP('',(#666));
#155=EDGE_LOOP('',(#667));
#156=EDGE_LOOP('',(#668));
#157=EDGE_LOOP('',(#669));
#158=EDGE_LOOP('',(#670));
#159=EDGE_LOOP('',(#671));
#160=EDGE_LOOP('',(#672));
#161=EDGE_LOOP('',(#673));
#162=EDGE_LOOP('',(#674));
#163=EDGE_LOOP('',(#675));
#164=EDGE_LOOP('',(#676));
#165=EDGE_LOOP('',(#677));
#166=EDGE_LOOP('',(#678));
#167=EDGE_LOOP('',(#679));
#168=EDGE_LOOP('',(#680,#681,#682,#683));
#169=EDGE_LOOP('',(#684,#685,#686,#687));
#170=EDGE_LOOP('',(#688,#689,#690,#691));
#171=EDGE_LOOP('',(#692,#693,#694,#695));
#172=EDGE_LOOP('',(#696,#697,#698,#699));
#173=EDGE_LOOP('',(#700,#701,#702,#703));
#174=EDGE_LOOP('',(#704,#705,#706,#707));
#175=EDGE_LOOP('',(#708,#709,#710,#711));
#176=EDGE_LOOP('',(#712,#713,#714,#715));
#177=EDGE_LOOP('',(#716,#717,#718,#719));
#178=EDGE_LOOP('',(#720,#721,#722,#723));
#179=EDGE_LOOP('',(#724,#725,#726,#727));
#180=EDGE_LOOP('',(#728,#729,#730,#731));
#181=EDGE_LOOP('',(#732,#733,#734,#735));
#182=EDGE_LOOP('',(#736,#737,#738,#739));
#183=EDGE_LOOP('',(#740,#741,#742,#743));
#184=EDGE_LOOP('',(#744,#745,#746,#747));
#185=EDGE_LOOP('',(#748,#749,#750,#751));
#186=EDGE_LOOP('',(#752,#753,#754,#755));
#187=EDGE_LOOP('',(#756,#757,#758,#759));
#188=EDGE_LOOP('',(#760,#761,#762,#763));
#189=EDGE_LOOP('',(#764,#765,#766,#767));
#190=EDGE_LOOP('',(#768,#769,#770,#771));
#191=EDGE_LOOP('',(#772,#773,#774,#775,#776,#777,#778,#779));
#192=EDGE_LOOP('',(#780));
#193=EDGE_LOOP('',(#781));
#194=EDGE_LOOP('',(#782));
#195=EDGE_LOOP('',(#783));
#196=EDGE_LOOP('',(#784));
#197=EDGE_LOOP('',(#785));
#198=EDGE_LOOP('',(#786));
#199=EDGE_LOOP('',(#787));
#200=EDGE_LOOP('',(#788));
#201=EDGE_LOOP('',(#789));
#202=EDGE_LOOP('',(#790));
#203=EDGE_LOOP('',(#791));
#204=EDGE_LOOP('',(#792));
#205=EDGE_LOOP('',(#793));
#206=EDGE_LOOP('',(#794));
#207=EDGE_LOOP('',(#795));
#208=EDGE_LOOP('',(#796));
#209=EDGE_LOOP('',(#797));
#210=EDGE_LOOP('',(#798));
#211=EDGE_LOOP('',(#799));
#212=EDGE_LOOP('',(#800,#801,#802,#803));
#213=EDGE_LOOP('',(#804));
#214=EDGE_LOOP('',(#805));
#215=EDGE_LOOP('',(#806));
#216=EDGE_LOOP('',(#807));
#217=EDGE_LOOP('',(#808));
#218=EDGE_LOOP('',(#809));
#219=EDGE_LOOP('',(#810));
#220=EDGE_LOOP('',(#811));
#221=EDGE_LOOP('',(#812));
#222=EDGE_LOOP('',(#813,#814,#815,#816,#817,#818,#819,#820,#821,#822,#823,
#824));
#223=EDGE_LOOP('',(#825,#826,#827,#828));
#224=EDGE_LOOP('',(#829,#830,#831,#832));
#225=EDGE_LOOP('',(#833,#834,#835,#836));
#226=EDGE_LOOP('',(#837,#838,#839,#840));
#227=EDGE_LOOP('',(#841));
#228=EDGE_LOOP('',(#842));
#229=EDGE_LOOP('',(#843));
#230=EDGE_LOOP('',(#844));
#231=EDGE_LOOP('',(#845));
#232=EDGE_LOOP('',(#846));
#233=EDGE_LOOP('',(#847));
#234=EDGE_LOOP('',(#848));
#235=EDGE_LOOP('',(#849));
#236=EDGE_LOOP('',(#850,#851,#852,#853));
#237=EDGE_LOOP('',(#854,#855,#856,#857));
#238=EDGE_LOOP('',(#858,#859,#860,#861));
#239=LINE('',#1336,#296);
#240=LINE('',#1342,#297);
#241=LINE('',#1348,#298);
#242=LINE('',#1354,#299);
#243=LINE('',#1360,#300);
#244=LINE('',#1366,#301);
#245=LINE('',#1372,#302);
#246=LINE('',#1378,#303);
#247=LINE('',#1384,#304);
#248=LINE('',#1389,#305);
#249=LINE('',#1391,#306);
#250=LINE('',#1393,#307);
#251=LINE('',#1395,#308);
#252=LINE('',#1397,#309);
#253=LINE('',#1399,#310);
#254=LINE('',#1401,#311);
#255=LINE('',#1402,#312);
#256=LINE('',#1445,#313);
#257=LINE('',#1449,#314);
#258=LINE('',#1453,#315);
#259=LINE('',#1457,#316);
#260=LINE('',#1461,#317);
#261=LINE('',#1465,#318);
#262=LINE('',#1469,#319);
#263=LINE('',#1473,#320);
#264=LINE('',#1477,#321);
#265=LINE('',#1481,#322);
#266=LINE('',#1485,#323);
#267=LINE('',#1489,#324);
#268=LINE('',#1493,#325);
#269=LINE('',#1497,#326);
#270=LINE('',#1501,#327);
#271=LINE('',#1505,#328);
#272=LINE('',#1509,#329);
#273=LINE('',#1513,#330);
#274=LINE('',#1517,#331);
#275=LINE('',#1521,#332);
#276=LINE('',#1526,#333);
#277=LINE('',#1527,#334);
#278=LINE('',#1528,#335);
#279=LINE('',#1531,#336);
#280=LINE('',#1532,#337);
#281=LINE('',#1535,#338);
#282=LINE('',#1536,#339);
#283=LINE('',#1539,#340);
#284=LINE('',#1541,#341);
#285=LINE('',#1543,#342);
#286=LINE('',#1545,#343);
#287=LINE('',#1546,#344);
#288=LINE('',#1550,#345);
#289=LINE('',#1552,#346);
#290=LINE('',#1554,#347);
#291=LINE('',#1555,#348);
#292=LINE('',#1560,#349);
#293=LINE('',#1578,#350);
#294=LINE('',#1580,#351);
#295=LINE('',#1581,#352);
#296=VECTOR('',#1068,4.5);
#297=VECTOR('',#1075,4.5);
#298=VECTOR('',#1082,4.5);
#299=VECTOR('',#1089,35.);
#300=VECTOR('',#1096,4.5);
#301=VECTOR('',#1103,4.5);
#302=VECTOR('',#1110,4.5);
#303=VECTOR('',#1117,4.5);
#304=VECTOR('',#1124,4.5);
#305=VECTOR('',#1129,10.);
#306=VECTOR('',#1130,10.);
#307=VECTOR('',#1131,10.);
#308=VECTOR('',#1132,10.);
#309=VECTOR('',#1133,10.);
#310=VECTOR('',#1134,10.);
#311=VECTOR('',#1135,10.);
#312=VECTOR('',#1136,10.);
#313=VECTOR('',#1179,4.5);
#314=VECTOR('',#1184,4.5);
#315=VECTOR('',#1189,4.5);
#316=VECTOR('',#1194,4.5);
#317=VECTOR('',#1199,4.5);
#318=VECTOR('',#1204,4.5);
#319=VECTOR('',#1209,4.5);
#320=VECTOR('',#1214,4.5);
#321=VECTOR('',#1219,4.5);
#322=VECTOR('',#1224,4.5);
#323=VECTOR('',#1229,4.5);
#324=VECTOR('',#1234,4.5);
#325=VECTOR('',#1239,4.5);
#326=VECTOR('',#1244,4.5);
#327=VECTOR('',#1249,4.5);
#328=VECTOR('',#1254,4.5);
#329=VECTOR('',#1259,4.5);
#330=VECTOR('',#1264,4.5);
#331=VECTOR('',#1269,4.50000000000003);
#332=VECTOR('',#1274,4.5);
#333=VECTOR('',#1279,10.);
#334=VECTOR('',#1280,10.);
#335=VECTOR('',#1281,10.);
#336=VECTOR('',#1284,10.);
#337=VECTOR('',#1285,10.);
#338=VECTOR('',#1288,10.);
#339=VECTOR('',#1289,10.);
#340=VECTOR('',#1292,10.);
#341=VECTOR('',#1293,10.);
#342=VECTOR('',#1294,10.);
#343=VECTOR('',#1295,10.);
#344=VECTOR('',#1296,10.);
#345=VECTOR('',#1299,10.);
#346=VECTOR('',#1300,10.);
#347=VECTOR('',#1301,10.);
#348=VECTOR('',#1302,10.);
#349=VECTOR('',#1307,10.);
#350=VECTOR('',#1326,10.);
#351=VECTOR('',#1329,10.);
#352=VECTOR('',#1330,10.);
#353=CIRCLE('',#958,4.5);
#354=CIRCLE('',#959,4.5);
#355=CIRCLE('',#961,4.5);
#356=CIRCLE('',#962,4.5);
#357=CIRCLE('',#964,4.5);
#358=CIRCLE('',#965,4.5);
#359=CIRCLE('',#967,35.);
#360=CIRCLE('',#968,35.);
#361=CIRCLE('',#970,4.5);
#362=CIRCLE('',#971,4.5);
#363=CIRCLE('',#973,4.5);
#364=CIRCLE('',#974,4.5);
#365=CIRCLE('',#976,4.5);
#366=CIRCLE('',#977,4.5);
#367=CIRCLE('',#979,4.5);
#368=CIRCLE('',#980,4.5);
#369=CIRCLE('',#982,4.5);
#370=CIRCLE('',#983,4.5);
#371=CIRCLE('',#985,4.5);
#372=CIRCLE('',#986,4.5);
#373=CIRCLE('',#987,4.5);
#374=CIRCLE('',#988,4.5);
#375=CIRCLE('',#989,4.5);
#376=CIRCLE('',#990,4.5);
#377=CIRCLE('',#991,4.5);
#378=CIRCLE('',#992,4.5);
#379=CIRCLE('',#993,4.5);
#380=CIRCLE('',#994,4.5);
#381=CIRCLE('',#995,4.5);
#382=CIRCLE('',#996,4.5);
#383=CIRCLE('',#997,4.5);
#384=CIRCLE('',#998,4.5);
#385=CIRCLE('',#999,4.5);
#386=CIRCLE('',#1000,4.5);
#387=CIRCLE('',#1001,4.5);
#388=CIRCLE('',#1002,4.5);
#389=CIRCLE('',#1003,4.50000000000003);
#390=CIRCLE('',#1004,4.5);
#391=CIRCLE('',#1006,4.5);
#392=CIRCLE('',#1008,4.5);
#393=CIRCLE('',#1010,4.5);
#394=CIRCLE('',#1012,4.5);
#395=CIRCLE('',#1014,4.5);
#396=CIRCLE('',#1016,4.5);
#397=CIRCLE('',#1018,4.5);
#398=CIRCLE('',#1020,4.5);
#399=CIRCLE('',#1022,4.5);
#400=CIRCLE('',#1024,4.5);
#401=CIRCLE('',#1026,4.5);
#402=CIRCLE('',#1028,4.5);
#403=CIRCLE('',#1030,4.5);
#404=CIRCLE('',#1032,4.5);
#405=CIRCLE('',#1034,4.5);
#406=CIRCLE('',#1036,4.5);
#407=CIRCLE('',#1038,4.5);
#408=CIRCLE('',#1040,4.5);
#409=CIRCLE('',#1042,4.50000000000003);
#410=CIRCLE('',#1044,4.5);
#411=VERTEX_POINT('',#1333);
#412=VERTEX_POINT('',#1335);
#413=VERTEX_POINT('',#1339);
#414=VERTEX_POINT('',#1341);
#415=VERTEX_POINT('',#1345);
#416=VERTEX_POINT('',#1347);
#417=VERTEX_POINT('',#1351);
#418=VERTEX_POINT('',#1353);
#419=VERTEX_POINT('',#1357);
#420=VERTEX_POINT('',#1359);
#421=VERTEX_POINT('',#1363);
#422=VERTEX_POINT('',#1365);
#423=VERTEX_POINT('',#1369);
#424=VERTEX_POINT('',#1371);
#425=VERTEX_POINT('',#1375);
#426=VERTEX_POINT('',#1377);
#427=VERTEX_POINT('',#1381);
#428=VERTEX_POINT('',#1383);
#429=VERTEX_POINT('',#1387);
#430=VERTEX_POINT('',#1388);
#431=VERTEX_POINT('',#1390);
#432=VERTEX_POINT('',#1392);
#433=VERTEX_POINT('',#1394);
#434=VERTEX_POINT('',#1396);
#435=VERTEX_POINT('',#1398);
#436=VERTEX_POINT('',#1400);
#437=VERTEX_POINT('',#1403);
#438=VERTEX_POINT('',#1405);
#439=VERTEX_POINT('',#1407);
#440=VERTEX_POINT('',#1409);
#441=VERTEX_POINT('',#1411);
#442=VERTEX_POINT('',#1413);
#443=VERTEX_POINT('',#1415);
#444=VERTEX_POINT('',#1417);
#445=VERTEX_POINT('',#1419);
#446=VERTEX_POINT('',#1421);
#447=VERTEX_POINT('',#1423);
#448=VERTEX_POINT('',#1425);
#449=VERTEX_POINT('',#1427);
#450=VERTEX_POINT('',#1429);
#451=VERTEX_POINT('',#1431);
#452=VERTEX_POINT('',#1433);
#453=VERTEX_POINT('',#1435);
#454=VERTEX_POINT('',#1437);
#455=VERTEX_POINT('',#1439);
#456=VERTEX_POINT('',#1441);
#457=VERTEX_POINT('',#1444);
#458=VERTEX_POINT('',#1448);
#459=VERTEX_POINT('',#1452);
#460=VERTEX_POINT('',#1456);
#461=VERTEX_POINT('',#1460);
#462=VERTEX_POINT('',#1464);
#463=VERTEX_POINT('',#1468);
#464=VERTEX_POINT('',#1472);
#465=VERTEX_POINT('',#1476);
#466=VERTEX_POINT('',#1480);
#467=VERTEX_POINT('',#1484);
#468=VERTEX_POINT('',#1488);
#469=VERTEX_POINT('',#1492);
#470=VERTEX_POINT('',#1496);
#471=VERTEX_POINT('',#1500);
#472=VERTEX_POINT('',#1504);
#473=VERTEX_POINT('',#1508);
#474=VERTEX_POINT('',#1512);
#475=VERTEX_POINT('',#1516);
#476=VERTEX_POINT('',#1520);
#477=VERTEX_POINT('',#1524);
#478=VERTEX_POINT('',#1525);
#479=VERTEX_POINT('',#1530);
#480=VERTEX_POINT('',#1534);
#481=VERTEX_POINT('',#1538);
#482=VERTEX_POINT('',#1540);
#483=VERTEX_POINT('',#1542);
#484=VERTEX_POINT('',#1544);
#485=VERTEX_POINT('',#1548);
#486=VERTEX_POINT('',#1549);
#487=VERTEX_POINT('',#1551);
#488=VERTEX_POINT('',#1553);
#489=VERTEX_POINT('',#1557);
#490=VERTEX_POINT('',#1559);
#491=VERTEX_POINT('',#1574);
#492=VERTEX_POINT('',#1576);
#493=EDGE_CURVE('',#411,#411,#353,.T.);
#494=EDGE_CURVE('',#411,#412,#239,.T.);
#495=EDGE_CURVE('',#412,#412,#354,.T.);
#496=EDGE_CURVE('',#413,#413,#355,.T.);
#497=EDGE_CURVE('',#413,#414,#240,.T.);
#498=EDGE_CURVE('',#414,#414,#356,.T.);
#499=EDGE_CURVE('',#415,#415,#357,.T.);
#500=EDGE_CURVE('',#415,#416,#241,.T.);
#501=EDGE_CURVE('',#416,#416,#358,.T.);
#502=EDGE_CURVE('',#417,#417,#359,.T.);
#503=EDGE_CURVE('',#417,#418,#242,.T.);
#504=EDGE_CURVE('',#418,#418,#360,.T.);
#505=EDGE_CURVE('',#419,#419,#361,.T.);
#506=EDGE_CURVE('',#419,#420,#243,.T.);
#507=EDGE_CURVE('',#420,#420,#362,.T.);
#508=EDGE_CURVE('',#421,#421,#363,.T.);
#509=EDGE_CURVE('',#421,#422,#244,.T.);
#510=EDGE_CURVE('',#422,#422,#364,.T.);
#511=EDGE_CURVE('',#423,#423,#365,.T.);
#512=EDGE_CURVE('',#423,#424,#245,.T.);
#513=EDGE_CURVE('',#424,#424,#366,.T.);
#514=EDGE_CURVE('',#425,#425,#367,.T.);
#515=EDGE_CURVE('',#425,#426,#246,.T.);
#516=EDGE_CURVE('',#426,#426,#368,.T.);
#517=EDGE_CURVE('',#427,#427,#369,.T.);
#518=EDGE_CURVE('',#427,#428,#247,.T.);
#519=EDGE_CURVE('',#428,#428,#370,.T.);
#520=EDGE_CURVE('',#429,#430,#248,.T.);
#521=EDGE_CURVE('',#431,#429,#249,.T.);
#522=EDGE_CURVE('',#432,#431,#250,.T.);
#523=EDGE_CURVE('',#432,#433,#251,.T.);
#524=EDGE_CURVE('',#433,#434,#252,.T.);
#525=EDGE_CURVE('',#434,#435,#253,.T.);
#526=EDGE_CURVE('',#435,#436,#254,.T.);
#527=EDGE_CURVE('',#436,#430,#255,.T.);
#528=EDGE_CURVE('',#437,#437,#371,.T.);
#529=EDGE_CURVE('',#438,#438,#372,.T.);
#530=EDGE_CURVE('',#439,#439,#373,.T.);
#531=EDGE_CURVE('',#440,#440,#374,.T.);
#532=EDGE_CURVE('',#441,#441,#375,.T.);
#533=EDGE_CURVE('',#442,#442,#376,.T.);
#534=EDGE_CURVE('',#443,#443,#377,.T.);
#535=EDGE_CURVE('',#444,#444,#378,.T.);
#536=EDGE_CURVE('',#445,#445,#379,.T.);
#537=EDGE_CURVE('',#446,#446,#380,.T.);
#538=EDGE_CURVE('',#447,#447,#381,.T.);
#539=EDGE_CURVE('',#448,#448,#382,.T.);
#540=EDGE_CURVE('',#449,#449,#383,.T.);
#541=EDGE_CURVE('',#450,#450,#384,.T.);
#542=EDGE_CURVE('',#451,#451,#385,.T.);
#543=EDGE_CURVE('',#452,#452,#386,.T.);
#544=EDGE_CURVE('',#453,#453,#387,.T.);
#545=EDGE_CURVE('',#454,#454,#388,.T.);
#546=EDGE_CURVE('',#455,#455,#389,.T.);
#547=EDGE_CURVE('',#456,#456,#390,.T.);
#548=EDGE_CURVE('',#437,#457,#256,.T.);
#549=EDGE_CURVE('',#457,#457,#391,.T.);
#550=EDGE_CURVE('',#438,#458,#257,.T.);
#551=EDGE_CURVE('',#458,#458,#392,.T.);
#552=EDGE_CURVE('',#439,#459,#258,.T.);
#553=EDGE_CURVE('',#459,#459,#393,.T.);
#554=EDGE_CURVE('',#440,#460,#259,.T.);
#555=EDGE_CURVE('',#460,#460,#394,.T.);
#556=EDGE_CURVE('',#441,#461,#260,.T.);
#557=EDGE_CURVE('',#461,#461,#395,.T.);
#558=EDGE_CURVE('',#442,#462,#261,.T.);
#559=EDGE_CURVE('',#462,#462,#396,.T.);
#560=EDGE_CURVE('',#443,#463,#262,.T.);
#561=EDGE_CURVE('',#463,#463,#397,.T.);
#562=EDGE_CURVE('',#444,#464,#263,.T.);
#563=EDGE_CURVE('',#464,#464,#398,.T.);
#564=EDGE_CURVE('',#445,#465,#264,.T.);
#565=EDGE_CURVE('',#465,#465,#399,.T.);
#566=EDGE_CURVE('',#446,#466,#265,.T.);
#567=EDGE_CURVE('',#466,#466,#400,.T.);
#568=EDGE_CURVE('',#447,#467,#266,.T.);
#569=EDGE_CURVE('',#467,#467,#401,.T.);
#570=EDGE_CURVE('',#448,#468,#267,.T.);
#571=EDGE_CURVE('',#468,#468,#402,.T.);
#572=EDGE_CURVE('',#449,#469,#268,.T.);
#573=EDGE_CURVE('',#469,#469,#403,.T.);
#574=EDGE_CURVE('',#450,#470,#269,.T.);
#575=EDGE_CURVE('',#470,#470,#404,.T.);
#576=EDGE_CURVE('',#451,#471,#270,.T.);
#577=EDGE_CURVE('',#471,#471,#405,.T.);
#578=EDGE_CURVE('',#452,#472,#271,.T.);
#579=EDGE_CURVE('',#472,#472,#406,.T.);
#580=EDGE_CURVE('',#453,#473,#272,.T.);
#581=EDGE_CURVE('',#473,#473,#407,.T.);
#582=EDGE_CURVE('',#454,#474,#273,.T.);
#583=EDGE_CURVE('',#474,#474,#408,.T.);
#584=EDGE_CURVE('',#455,#475,#274,.T.);
#585=EDGE_CURVE('',#475,#475,#409,.T.);
#586=EDGE_CURVE('',#456,#476,#275,.T.);
#587=EDGE_CURVE('',#476,#476,#410,.T.);
#588=EDGE_CURVE('',#477,#478,#276,.T.);
#589=EDGE_CURVE('',#477,#436,#277,.T.);
#590=EDGE_CURVE('',#478,#435,#278,.T.);
#591=EDGE_CURVE('',#478,#479,#279,.T.);
#592=EDGE_CURVE('',#479,#434,#280,.T.);
#593=EDGE_CURVE('',#479,#480,#281,.T.);
#594=EDGE_CURVE('',#480,#433,#282,.T.);
#595=EDGE_CURVE('',#481,#477,#283,.T.);
#596=EDGE_CURVE('',#482,#480,#284,.T.);
#597=EDGE_CURVE('',#483,#482,#285,.T.);
#598=EDGE_CURVE('',#483,#484,#286,.T.);
#599=EDGE_CURVE('',#484,#481,#287,.T.);
#600=EDGE_CURVE('',#485,#486,#288,.T.);
#601=EDGE_CURVE('',#487,#485,#289,.T.);
#602=EDGE_CURVE('',#488,#487,#290,.T.);
#603=EDGE_CURVE('',#486,#488,#291,.T.);
#604=EDGE_CURVE('',#481,#489,#19,.T.);
#605=EDGE_CURVE('',#489,#490,#292,.T.);
#606=EDGE_CURVE('',#490,#482,#20,.T.);
#607=EDGE_CURVE('',#432,#488,#21,.T.);
#608=EDGE_CURVE('',#487,#430,#22,.T.);
#609=EDGE_CURVE('',#429,#485,#23,.T.);
#610=EDGE_CURVE('',#486,#431,#24,.T.);
#611=EDGE_CURVE('',#484,#491,#25,.T.);
#612=EDGE_CURVE('',#492,#483,#26,.T.);
#613=EDGE_CURVE('',#492,#491,#293,.T.);
#614=EDGE_CURVE('',#490,#492,#294,.T.);
#615=EDGE_CURVE('',#491,#489,#295,.T.);
#616=ORIENTED_EDGE('',*,*,#493,.F.);
#617=ORIENTED_EDGE('',*,*,#494,.T.);
#618=ORIENTED_EDGE('',*,*,#495,.F.);
#619=ORIENTED_EDGE('',*,*,#494,.F.);
#620=ORIENTED_EDGE('',*,*,#496,.F.);
#621=ORIENTED_EDGE('',*,*,#497,.T.);
#622=ORIENTED_EDGE('',*,*,#498,.F.);
#623=ORIENTED_EDGE('',*,*,#497,.F.);
#624=ORIENTED_EDGE('',*,*,#499,.F.);
#625=ORIENTED_EDGE('',*,*,#500,.T.);
#626=ORIENTED_EDGE('',*,*,#501,.F.);
#627=ORIENTED_EDGE('',*,*,#500,.F.);
#628=ORIENTED_EDGE('',*,*,#502,.F.);
#629=ORIENTED_EDGE('',*,*,#503,.T.);
#630=ORIENTED_EDGE('',*,*,#504,.F.);
#631=ORIENTED_EDGE('',*,*,#503,.F.);
#632=ORIENTED_EDGE('',*,*,#505,.F.);
#633=ORIENTED_EDGE('',*,*,#506,.T.);
#634=ORIENTED_EDGE('',*,*,#507,.F.);
#635=ORIENTED_EDGE('',*,*,#506,.F.);
#636=ORIENTED_EDGE('',*,*,#508,.F.);
#637=ORIENTED_EDGE('',*,*,#509,.T.);
#638=ORIENTED_EDGE('',*,*,#510,.F.);
#639=ORIENTED_EDGE('',*,*,#509,.F.);
#640=ORIENTED_EDGE('',*,*,#511,.F.);
#641=ORIENTED_EDGE('',*,*,#512,.T.);
#642=ORIENTED_EDGE('',*,*,#513,.F.);
#643=ORIENTED_EDGE('',*,*,#512,.F.);
#644=ORIENTED_EDGE('',*,*,#514,.F.);
#645=ORIENTED_EDGE('',*,*,#515,.T.);
#646=ORIENTED_EDGE('',*,*,#516,.F.);
#647=ORIENTED_EDGE('',*,*,#515,.F.);
#648=ORIENTED_EDGE('',*,*,#517,.F.);
#649=ORIENTED_EDGE('',*,*,#518,.T.);
#650=ORIENTED_EDGE('',*,*,#519,.F.);
#651=ORIENTED_EDGE('',*,*,#518,.F.);
#652=ORIENTED_EDGE('',*,*,#520,.F.);
#653=ORIENTED_EDGE('',*,*,#521,.F.);
#654=ORIENTED_EDGE('',*,*,#522,.F.);
#655=ORIENTED_EDGE('',*,*,#523,.T.);
#656=ORIENTED_EDGE('',*,*,#524,.T.);
#657=ORIENTED_EDGE('',*,*,#525,.T.);
#658=ORIENTED_EDGE('',*,*,#526,.T.);
#659=ORIENTED_EDGE('',*,*,#527,.T.);
#660=ORIENTED_EDGE('',*,*,#528,.T.);
#661=ORIENTED_EDGE('',*,*,#529,.T.);
#662=ORIENTED_EDGE('',*,*,#530,.T.);
#663=ORIENTED_EDGE('',*,*,#531,.T.);
#664=ORIENTED_EDGE('',*,*,#532,.T.);
#665=ORIENTED_EDGE('',*,*,#533,.T.);
#666=ORIENTED_EDGE('',*,*,#534,.T.);
#667=ORIENTED_EDGE('',*,*,#535,.T.);
#668=ORIENTED_EDGE('',*,*,#536,.T.);
#669=ORIENTED_EDGE('',*,*,#537,.T.);
#670=ORIENTED_EDGE('',*,*,#538,.T.);
#671=ORIENTED_EDGE('',*,*,#539,.T.);
#672=ORIENTED_EDGE('',*,*,#540,.T.);
#673=ORIENTED_EDGE('',*,*,#541,.T.);
#674=ORIENTED_EDGE('',*,*,#542,.T.);
#675=ORIENTED_EDGE('',*,*,#543,.T.);
#676=ORIENTED_EDGE('',*,*,#544,.T.);
#677=ORIENTED_EDGE('',*,*,#545,.T.);
#678=ORIENTED_EDGE('',*,*,#546,.T.);
#679=ORIENTED_EDGE('',*,*,#547,.T.);
#680=ORIENTED_EDGE('',*,*,#528,.F.);
#681=ORIENTED_EDGE('',*,*,#548,.T.);
#682=ORIENTED_EDGE('',*,*,#549,.F.);
#683=ORIENTED_EDGE('',*,*,#548,.F.);
#684=ORIENTED_EDGE('',*,*,#529,.F.);
#685=ORIENTED_EDGE('',*,*,#550,.T.);
#686=ORIENTED_EDGE('',*,*,#551,.F.);
#687=ORIENTED_EDGE('',*,*,#550,.F.);
#688=ORIENTED_EDGE('',*,*,#530,.F.);
#689=ORIENTED_EDGE('',*,*,#552,.T.);
#690=ORIENTED_EDGE('',*,*,#553,.F.);
#691=ORIENTED_EDGE('',*,*,#552,.F.);
#692=ORIENTED_EDGE('',*,*,#531,.F.);
#693=ORIENTED_EDGE('',*,*,#554,.T.);
#694=ORIENTED_EDGE('',*,*,#555,.F.);
#695=ORIENTED_EDGE('',*,*,#554,.F.);
#696=ORIENTED_EDGE('',*,*,#532,.F.);
#697=ORIENTED_EDGE('',*,*,#556,.T.);
#698=ORIENTED_EDGE('',*,*,#557,.F.);
#699=ORIENTED_EDGE('',*,*,#556,.F.);
#700=ORIENTED_EDGE('',*,*,#533,.F.);
#701=ORIENTED_EDGE('',*,*,#558,.T.);
#702=ORIENTED_EDGE('',*,*,#559,.F.);
#703=ORIENTED_EDGE('',*,*,#558,.F.);
#704=ORIENTED_EDGE('',*,*,#534,.F.);
#705=ORIENTED_EDGE('',*,*,#560,.T.);
#706=ORIENTED_EDGE('',*,*,#561,.F.);
#707=ORIENTED_EDGE('',*,*,#560,.F.);
#708=ORIENTED_EDGE('',*,*,#535,.F.);
#709=ORIENTED_EDGE('',*,*,#562,.T.);
#710=ORIENTED_EDGE('',*,*,#563,.F.);
#711=ORIENTED_EDGE('',*,*,#562,.F.);
#712=ORIENTED_EDGE('',*,*,#536,.F.);
#713=ORIENTED_EDGE('',*,*,#564,.T.);
#714=ORIENTED_EDGE('',*,*,#565,.F.);
#715=ORIENTED_EDGE('',*,*,#564,.F.);
#716=ORIENTED_EDGE('',*,*,#537,.F.);
#717=ORIENTED_EDGE('',*,*,#566,.T.);
#718=ORIENTED_EDGE('',*,*,#567,.F.);
#719=ORIENTED_EDGE('',*,*,#566,.F.);
#720=ORIENTED_EDGE('',*,*,#538,.F.);
#721=ORIENTED_EDGE('',*,*,#568,.T.);
#722=ORIENTED_EDGE('',*,*,#569,.F.);
#723=ORIENTED_EDGE('',*,*,#568,.F.);
#724=ORIENTED_EDGE('',*,*,#539,.F.);
#725=ORIENTED_EDGE('',*,*,#570,.T.);
#726=ORIENTED_EDGE('',*,*,#571,.F.);
#727=ORIENTED_EDGE('',*,*,#570,.F.);
#728=ORIENTED_EDGE('',*,*,#540,.F.);
#729=ORIENTED_EDGE('',*,*,#572,.T.);
#730=ORIENTED_EDGE('',*,*,#573,.F.);
#731=ORIENTED_EDGE('',*,*,#572,.F.);
#732=ORIENTED_EDGE('',*,*,#541,.F.);
#733=ORIENTED_EDGE('',*,*,#574,.T.);
#734=ORIENTED_EDGE('',*,*,#575,.F.);
#735=ORIENTED_EDGE('',*,*,#574,.F.);
#736=ORIENTED_EDGE('',*,*,#542,.F.);
#737=ORIENTED_EDGE('',*,*,#576,.T.);
#738=ORIENTED_EDGE('',*,*,#577,.F.);
#739=ORIENTED_EDGE('',*,*,#576,.F.);
#740=ORIENTED_EDGE('',*,*,#543,.F.);
#741=ORIENTED_EDGE('',*,*,#578,.T.);
#742=ORIENTED_EDGE('',*,*,#579,.F.);
#743=ORIENTED_EDGE('',*,*,#578,.F.);
#744=ORIENTED_EDGE('',*,*,#544,.F.);
#745=ORIENTED_EDGE('',*,*,#580,.T.);
#746=ORIENTED_EDGE('',*,*,#581,.F.);
#747=ORIENTED_EDGE('',*,*,#580,.F.);
#748=ORIENTED_EDGE('',*,*,#545,.F.);
#749=ORIENTED_EDGE('',*,*,#582,.T.);
#750=ORIENTED_EDGE('',*,*,#583,.F.);
#751=ORIENTED_EDGE('',*,*,#582,.F.);
#752=ORIENTED_EDGE('',*,*,#546,.F.);
#753=ORIENTED_EDGE('',*,*,#584,.T.);
#754=ORIENTED_EDGE('',*,*,#585,.F.);
#755=ORIENTED_EDGE('',*,*,#584,.F.);
#756=ORIENTED_EDGE('',*,*,#547,.F.);
#757=ORIENTED_EDGE('',*,*,#586,.T.);
#758=ORIENTED_EDGE('',*,*,#587,.F.);
#759=ORIENTED_EDGE('',*,*,#586,.F.);
#760=ORIENTED_EDGE('',*,*,#588,.F.);
#761=ORIENTED_EDGE('',*,*,#589,.T.);
#762=ORIENTED_EDGE('',*,*,#526,.F.);
#763=ORIENTED_EDGE('',*,*,#590,.F.);
#764=ORIENTED_EDGE('',*,*,#591,.F.);
#765=ORIENTED_EDGE('',*,*,#590,.T.);
#766=ORIENTED_EDGE('',*,*,#525,.F.);
#767=ORIENTED_EDGE('',*,*,#592,.F.);
#768=ORIENTED_EDGE('',*,*,#593,.F.);
#769=ORIENTED_EDGE('',*,*,#592,.T.);
#770=ORIENTED_EDGE('',*,*,#524,.F.);
#771=ORIENTED_EDGE('',*,*,#594,.F.);
#772=ORIENTED_EDGE('',*,*,#595,.T.);
#773=ORIENTED_EDGE('',*,*,#588,.T.);
#774=ORIENTED_EDGE('',*,*,#591,.T.);
#775=ORIENTED_EDGE('',*,*,#593,.T.);
#776=ORIENTED_EDGE('',*,*,#596,.F.);
#777=ORIENTED_EDGE('',*,*,#597,.F.);
#778=ORIENTED_EDGE('',*,*,#598,.T.);
#779=ORIENTED_EDGE('',*,*,#599,.T.);
#780=ORIENTED_EDGE('',*,*,#549,.T.);
#781=ORIENTED_EDGE('',*,*,#551,.T.);
#782=ORIENTED_EDGE('',*,*,#553,.T.);
#783=ORIENTED_EDGE('',*,*,#555,.T.);
#784=ORIENTED_EDGE('',*,*,#557,.T.);
#785=ORIENTED_EDGE('',*,*,#559,.T.);
#786=ORIENTED_EDGE('',*,*,#561,.T.);
#787=ORIENTED_EDGE('',*,*,#563,.T.);
#788=ORIENTED_EDGE('',*,*,#565,.T.);
#789=ORIENTED_EDGE('',*,*,#567,.T.);
#790=ORIENTED_EDGE('',*,*,#569,.T.);
#791=ORIENTED_EDGE('',*,*,#571,.T.);
#792=ORIENTED_EDGE('',*,*,#573,.T.);
#793=ORIENTED_EDGE('',*,*,#575,.T.);
#794=ORIENTED_EDGE('',*,*,#577,.T.);
#795=ORIENTED_EDGE('',*,*,#579,.T.);
#796=ORIENTED_EDGE('',*,*,#581,.T.);
#797=ORIENTED_EDGE('',*,*,#583,.T.);
#798=ORIENTED_EDGE('',*,*,#585,.T.);
#799=ORIENTED_EDGE('',*,*,#587,.T.);
#800=ORIENTED_EDGE('',*,*,#600,.F.);
#801=ORIENTED_EDGE('',*,*,#601,.F.);
#802=ORIENTED_EDGE('',*,*,#602,.F.);
#803=ORIENTED_EDGE('',*,*,#603,.F.);
#804=ORIENTED_EDGE('',*,*,#493,.T.);
#805=ORIENTED_EDGE('',*,*,#496,.T.);
#806=ORIENTED_EDGE('',*,*,#499,.T.);
#807=ORIENTED_EDGE('',*,*,#502,.T.);
#808=ORIENTED_EDGE('',*,*,#505,.T.);
#809=ORIENTED_EDGE('',*,*,#508,.T.);
#810=ORIENTED_EDGE('',*,*,#511,.T.);
#811=ORIENTED_EDGE('',*,*,#514,.T.);
#812=ORIENTED_EDGE('',*,*,#517,.T.);
#813=ORIENTED_EDGE('',*,*,#604,.T.);
#814=ORIENTED_EDGE('',*,*,#605,.T.);
#815=ORIENTED_EDGE('',*,*,#606,.T.);
#816=ORIENTED_EDGE('',*,*,#596,.T.);
#817=ORIENTED_EDGE('',*,*,#594,.T.);
#818=ORIENTED_EDGE('',*,*,#523,.F.);
#819=ORIENTED_EDGE('',*,*,#607,.T.);
#820=ORIENTED_EDGE('',*,*,#602,.T.);
#821=ORIENTED_EDGE('',*,*,#608,.T.);
#822=ORIENTED_EDGE('',*,*,#527,.F.);
#823=ORIENTED_EDGE('',*,*,#589,.F.);
#824=ORIENTED_EDGE('',*,*,#595,.F.);
#825=ORIENTED_EDGE('',*,*,#520,.T.);
#826=ORIENTED_EDGE('',*,*,#608,.F.);
#827=ORIENTED_EDGE('',*,*,#601,.T.);
#828=ORIENTED_EDGE('',*,*,#609,.F.);
#829=ORIENTED_EDGE('',*,*,#521,.T.);
#830=ORIENTED_EDGE('',*,*,#609,.T.);
#831=ORIENTED_EDGE('',*,*,#600,.T.);
#832=ORIENTED_EDGE('',*,*,#610,.T.);
#833=ORIENTED_EDGE('',*,*,#611,.F.);
#834=ORIENTED_EDGE('',*,*,#598,.F.);
#835=ORIENTED_EDGE('',*,*,#612,.F.);
#836=ORIENTED_EDGE('',*,*,#613,.T.);
#837=ORIENTED_EDGE('',*,*,#613,.F.);
#838=ORIENTED_EDGE('',*,*,#614,.F.);
#839=ORIENTED_EDGE('',*,*,#605,.F.);
#840=ORIENTED_EDGE('',*,*,#615,.F.);
#841=ORIENTED_EDGE('',*,*,#495,.T.);
#842=ORIENTED_EDGE('',*,*,#498,.T.);
#843=ORIENTED_EDGE('',*,*,#501,.T.);
#844=ORIENTED_EDGE('',*,*,#504,.T.);
#845=ORIENTED_EDGE('',*,*,#507,.T.);
#846=ORIENTED_EDGE('',*,*,#510,.T.);
#847=ORIENTED_EDGE('',*,*,#513,.T.);
#848=ORIENTED_EDGE('',*,*,#516,.T.);
#849=ORIENTED_EDGE('',*,*,#519,.T.);
#850=ORIENTED_EDGE('',*,*,#615,.T.);
#851=ORIENTED_EDGE('',*,*,#604,.F.);
#852=ORIENTED_EDGE('',*,*,#599,.F.);
#853=ORIENTED_EDGE('',*,*,#611,.T.);
#854=ORIENTED_EDGE('',*,*,#614,.T.);
#855=ORIENTED_EDGE('',*,*,#612,.T.);
#856=ORIENTED_EDGE('',*,*,#597,.T.);
#857=ORIENTED_EDGE('',*,*,#606,.F.);
#858=ORIENTED_EDGE('',*,*,#522,.T.);
#859=ORIENTED_EDGE('',*,*,#610,.F.);
#860=ORIENTED_EDGE('',*,*,#603,.T.);
#861=ORIENTED_EDGE('',*,*,#607,.F.);
#862=CYLINDRICAL_SURFACE('',#957,4.5);
#863=CYLINDRICAL_SURFACE('',#960,4.5);
#864=CYLINDRICAL_SURFACE('',#963,4.5);
#865=CYLINDRICAL_SURFACE('',#966,35.);
#866=CYLINDRICAL_SURFACE('',#969,4.5);
#867=CYLINDRICAL_SURFACE('',#972,4.5);
#868=CYLINDRICAL_SURFACE('',#975,4.5);
#869=CYLINDRICAL_SURFACE('',#978,4.5);
#870=CYLINDRICAL_SURFACE('',#981,4.5);
#871=CYLINDRICAL_SURFACE('',#1005,4.5);
#872=CYLINDRICAL_SURFACE('',#1007,4.5);
#873=CYLINDRICAL_SURFACE('',#1009,4.5);
#874=CYLINDRICAL_SURFACE('',#1011,4.5);
#875=CYLINDRICAL_SURFACE('',#1013,4.5);
#876=CYLINDRICAL_SURFACE('',#1015,4.5);
#877=CYLINDRICAL_SURFACE('',#1017,4.5);
#878=CYLINDRICAL_SURFACE('',#1019,4.5);
#879=CYLINDRICAL_SURFACE('',#1021,4.5);
#880=CYLINDRICAL_SURFACE('',#1023,4.5);
#881=CYLINDRICAL_SURFACE('',#1025,4.5);
#882=CYLINDRICAL_SURFACE('',#1027,4.5);
#883=CYLINDRICAL_SURFACE('',#1029,4.5);
#884=CYLINDRICAL_SURFACE('',#1031,4.5);
#885=CYLINDRICAL_SURFACE('',#1033,4.5);
#886=CYLINDRICAL_SURFACE('',#1035,4.5);
#887=CYLINDRICAL_SURFACE('',#1037,4.5);
#888=CYLINDRICAL_SURFACE('',#1039,4.5);
#889=CYLINDRICAL_SURFACE('',#1041,4.50000000000003);
#890=CYLINDRICAL_SURFACE('',#1043,4.5);
#891=ADVANCED_FACE('',(#95),#862,.F.);
#892=ADVANCED_FACE('',(#96),#863,.F.);
#893=ADVANCED_FACE('',(#97),#864,.F.);
#894=ADVANCED_FACE('',(#98),#865,.F.);
#895=ADVANCED_FACE('',(#99),#866,.F.);
#896=ADVANCED_FACE('',(#100),#867,.F.);
#897=ADVANCED_FACE('',(#101),#868,.F.);
#898=ADVANCED_FACE('',(#102),#869,.F.);
#899=ADVANCED_FACE('',(#103),#870,.F.);
#900=ADVANCED_FACE('',(#104,#27,#28,#29,#30,#31,#32,#33,#34,#35,#36,#37,
#38,#39,#40,#41,#42,#43,#44,#45,#46),#85,.F.);
#901=ADVANCED_FACE('',(#105),#871,.F.);
#902=ADVANCED_FACE('',(#106),#872,.F.);
#903=ADVANCED_FACE('',(#107),#873,.F.);
#904=ADVANCED_FACE('',(#108),#874,.F.);
#905=ADVANCED_FACE('',(#109),#875,.F.);
#906=ADVANCED_FACE('',(#110),#876,.F.);
#907=ADVANCED_FACE('',(#111),#877,.F.);
#908=ADVANCED_FACE('',(#112),#878,.F.);
#909=ADVANCED_FACE('',(#113),#879,.F.);
#910=ADVANCED_FACE('',(#114),#880,.F.);
#911=ADVANCED_FACE('',(#115),#881,.F.);
#912=ADVANCED_FACE('',(#116),#882,.F.);
#913=ADVANCED_FACE('',(#117),#883,.F.);
#914=ADVANCED_FACE('',(#118),#884,.F.);
#915=ADVANCED_FACE('',(#119),#885,.F.);
#916=ADVANCED_FACE('',(#120),#886,.F.);
#917=ADVANCED_FACE('',(#121),#887,.F.);
#918=ADVANCED_FACE('',(#122),#888,.F.);
#919=ADVANCED_FACE('',(#123),#889,.F.);
#920=ADVANCED_FACE('',(#124),#890,.F.);
#921=ADVANCED_FACE('',(#125),#86,.T.);
#922=ADVANCED_FACE('',(#126),#87,.T.);
#923=ADVANCED_FACE('',(#127),#88,.T.);
#924=ADVANCED_FACE('',(#128,#47,#48,#49,#50,#51,#52,#53,#54,#55,#56,#57,
#58,#59,#60,#61,#62,#63,#64,#65,#66),#89,.T.);
#925=ADVANCED_FACE('',(#129,#67,#68,#69,#70,#71,#72,#73,#74,#75),#90,.F.);
#926=ADVANCED_FACE('',(#130),#91,.T.);
#927=ADVANCED_FACE('',(#131),#15,.F.);
#928=ADVANCED_FACE('',(#132),#92,.T.);
#929=ADVANCED_FACE('',(#133),#93,.F.);
#930=ADVANCED_FACE('',(#134,#76,#77,#78,#79,#80,#81,#82,#83,#84),#94,.T.);
#931=ADVANCED_FACE('',(#135),#16,.T.);
#932=ADVANCED_FACE('',(#136),#17,.T.);
#933=ADVANCED_FACE('',(#137),#18,.F.);
#934=CLOSED_SHELL('',(#891,#892,#893,#894,#895,#896,#897,#898,#899,#900,
#901,#902,#903,#904,#905,#906,#907,#908,#909,#910,#911,#912,#913,#914,#915,
#916,#917,#918,#919,#920,#921,#922,#923,#924,#925,#926,#927,#928,#929,#930,
#931,#932,#933));
#935=DERIVED_UNIT_ELEMENT(#938,1.);
#936=DERIVED_UNIT_ELEMENT(#1605,-3.);
#937=DIMENSIONAL_EXPONENTS(1.,0.,0.,0.,0.,0.,0.);
#938=(
CONVERSION_BASED_UNIT('gram',#940)
MASS_UNIT()
NAMED_UNIT(#937)
);
#939=(
MASS_UNIT()
NAMED_UNIT(*)
SI_UNIT(.KILO.,.GRAM.)
);
#940=MASS_MEASURE_WITH_UNIT(MASS_MEASURE(0.001),#939);
#941=DERIVED_UNIT((#935,#936));
#942=MEASURE_REPRESENTATION_ITEM('density measure',
POSITIVE_RATIO_MEASURE(1.7),#941);
#943=PROPERTY_DEFINITION_REPRESENTATION(#948,#945);
#944=PROPERTY_DEFINITION_REPRESENTATION(#949,#946);
#945=REPRESENTATION('material name',(#947),#1602);
#946=REPRESENTATION('density',(#942),#1602);
#947=DESCRIPTIVE_REPRESENTATION_ITEM('GFRC','GFRC');
#948=PROPERTY_DEFINITION('material property','material name',#1612);
#949=PROPERTY_DEFINITION('material property','density of part',#1612);
#950=DATE_TIME_ROLE('creation_date');
#951=APPLIED_DATE_AND_TIME_ASSIGNMENT(#952,#950,(#1612));
#952=DATE_AND_TIME(#953,#954);
#953=CALENDAR_DATE(2026,19,3);
#954=LOCAL_TIME(0,0,0.,#955);
#955=COORDINATED_UNIVERSAL_TIME_OFFSET(0,0,.BEHIND.);
#956=AXIS2_PLACEMENT_3D('placement',#1331,#1062,#1063);
#957=AXIS2_PLACEMENT_3D('',#1332,#1064,#1065);
#958=AXIS2_PLACEMENT_3D('',#1334,#1066,#1067);
#959=AXIS2_PLACEMENT_3D('',#1337,#1069,#1070);
#960=AXIS2_PLACEMENT_3D('',#1338,#1071,#1072);
#961=AXIS2_PLACEMENT_3D('',#1340,#1073,#1074);
#962=AXIS2_PLACEMENT_3D('',#1343,#1076,#1077);
#963=AXIS2_PLACEMENT_3D('',#1344,#1078,#1079);
#964=AXIS2_PLACEMENT_3D('',#1346,#1080,#1081);
#965=AXIS2_PLACEMENT_3D('',#1349,#1083,#1084);
#966=AXIS2_PLACEMENT_3D('',#1350,#1085,#1086);
#967=AXIS2_PLACEMENT_3D('',#1352,#1087,#1088);
#968=AXIS2_PLACEMENT_3D('',#1355,#1090,#1091);
#969=AXIS2_PLACEMENT_3D('',#1356,#1092,#1093);
#970=AXIS2_PLACEMENT_3D('',#1358,#1094,#1095);
#971=AXIS2_PLACEMENT_3D('',#1361,#1097,#1098);
#972=AXIS2_PLACEMENT_3D('',#1362,#1099,#1100);
#973=AXIS2_PLACEMENT_3D('',#1364,#1101,#1102);
#974=AXIS2_PLACEMENT_3D('',#1367,#1104,#1105);
#975=AXIS2_PLACEMENT_3D('',#1368,#1106,#1107);
#976=AXIS2_PLACEMENT_3D('',#1370,#1108,#1109);
#977=AXIS2_PLACEMENT_3D('',#1373,#1111,#1112);
#978=AXIS2_PLACEMENT_3D('',#1374,#1113,#1114);
#979=AXIS2_PLACEMENT_3D('',#1376,#1115,#1116);
#980=AXIS2_PLACEMENT_3D('',#1379,#1118,#1119);
#981=AXIS2_PLACEMENT_3D('',#1380,#1120,#1121);
#982=AXIS2_PLACEMENT_3D('',#1382,#1122,#1123);
#983=AXIS2_PLACEMENT_3D('',#1385,#1125,#1126);
#984=AXIS2_PLACEMENT_3D('',#1386,#1127,#1128);
#985=AXIS2_PLACEMENT_3D('',#1404,#1137,#1138);
#986=AXIS2_PLACEMENT_3D('',#1406,#1139,#1140);
#987=AXIS2_PLACEMENT_3D('',#1408,#1141,#1142);
#988=AXIS2_PLACEMENT_3D('',#1410,#1143,#1144);
#989=AXIS2_PLACEMENT_3D('',#1412,#1145,#1146);
#990=AXIS2_PLACEMENT_3D('',#1414,#1147,#1148);
#991=AXIS2_PLACEMENT_3D('',#1416,#1149,#1150);
#992=AXIS2_PLACEMENT_3D('',#1418,#1151,#1152);
#993=AXIS2_PLACEMENT_3D('',#1420,#1153,#1154);
#994=AXIS2_PLACEMENT_3D('',#1422,#1155,#1156);
#995=AXIS2_PLACEMENT_3D('',#1424,#1157,#1158);
#996=AXIS2_PLACEMENT_3D('',#1426,#1159,#1160);
#997=AXIS2_PLACEMENT_3D('',#1428,#1161,#1162);
#998=AXIS2_PLACEMENT_3D('',#1430,#1163,#1164);
#999=AXIS2_PLACEMENT_3D('',#1432,#1165,#1166);
#1000=AXIS2_PLACEMENT_3D('',#1434,#1167,#1168);
#1001=AXIS2_PLACEMENT_3D('',#1436,#1169,#1170);
#1002=AXIS2_PLACEMENT_3D('',#1438,#1171,#1172);
#1003=AXIS2_PLACEMENT_3D('',#1440,#1173,#1174);
#1004=AXIS2_PLACEMENT_3D('',#1442,#1175,#1176);
#1005=AXIS2_PLACEMENT_3D('',#1443,#1177,#1178);
#1006=AXIS2_PLACEMENT_3D('',#1446,#1180,#1181);
#1007=AXIS2_PLACEMENT_3D('',#1447,#1182,#1183);
#1008=AXIS2_PLACEMENT_3D('',#1450,#1185,#1186);
#1009=AXIS2_PLACEMENT_3D('',#1451,#1187,#1188);
#1010=AXIS2_PLACEMENT_3D('',#1454,#1190,#1191);
#1011=AXIS2_PLACEMENT_3D('',#1455,#1192,#1193);
#1012=AXIS2_PLACEMENT_3D('',#1458,#1195,#1196);
#1013=AXIS2_PLACEMENT_3D('',#1459,#1197,#1198);
#1014=AXIS2_PLACEMENT_3D('',#1462,#1200,#1201);
#1015=AXIS2_PLACEMENT_3D('',#1463,#1202,#1203);
#1016=AXIS2_PLACEMENT_3D('',#1466,#1205,#1206);
#1017=AXIS2_PLACEMENT_3D('',#1467,#1207,#1208);
#1018=AXIS2_PLACEMENT_3D('',#1470,#1210,#1211);
#1019=AXIS2_PLACEMENT_3D('',#1471,#1212,#1213);
#1020=AXIS2_PLACEMENT_3D('',#1474,#1215,#1216);
#1021=AXIS2_PLACEMENT_3D('',#1475,#1217,#1218);
#1022=AXIS2_PLACEMENT_3D('',#1478,#1220,#1221);
#1023=AXIS2_PLACEMENT_3D('',#1479,#1222,#1223);
#1024=AXIS2_PLACEMENT_3D('',#1482,#1225,#1226);
#1025=AXIS2_PLACEMENT_3D('',#1483,#1227,#1228);
#1026=AXIS2_PLACEMENT_3D('',#1486,#1230,#1231);
#1027=AXIS2_PLACEMENT_3D('',#1487,#1232,#1233);
#1028=AXIS2_PLACEMENT_3D('',#1490,#1235,#1236);
#1029=AXIS2_PLACEMENT_3D('',#1491,#1237,#1238);
#1030=AXIS2_PLACEMENT_3D('',#1494,#1240,#1241);
#1031=AXIS2_PLACEMENT_3D('',#1495,#1242,#1243);
#1032=AXIS2_PLACEMENT_3D('',#1498,#1245,#1246);
#1033=AXIS2_PLACEMENT_3D('',#1499,#1247,#1248);
#1034=AXIS2_PLACEMENT_3D('',#1502,#1250,#1251);
#1035=AXIS2_PLACEMENT_3D('',#1503,#1252,#1253);
#1036=AXIS2_PLACEMENT_3D('',#1506,#1255,#1256);
#1037=AXIS2_PLACEMENT_3D('',#1507,#1257,#1258);
#1038=AXIS2_PLACEMENT_3D('',#1510,#1260,#1261);
#1039=AXIS2_PLACEMENT_3D('',#1511,#1262,#1263);
#1040=AXIS2_PLACEMENT_3D('',#1514,#1265,#1266);
#1041=AXIS2_PLACEMENT_3D('',#1515,#1267,#1268);
#1042=AXIS2_PLACEMENT_3D('',#1518,#1270,#1271);
#1043=AXIS2_PLACEMENT_3D('',#1519,#1272,#1273);
#1044=AXIS2_PLACEMENT_3D('',#1522,#1275,#1276);
#1045=AXIS2_PLACEMENT_3D('',#1523,#1277,#1278);
#1046=AXIS2_PLACEMENT_3D('',#1529,#1282,#1283);
#1047=AXIS2_PLACEMENT_3D('',#1533,#1286,#1287);
#1048=AXIS2_PLACEMENT_3D('',#1537,#1290,#1291);
#1049=AXIS2_PLACEMENT_3D('',#1547,#1297,#1298);
#1050=AXIS2_PLACEMENT_3D('',#1556,#1303,#1304);
#1051=AXIS2_PLACEMENT_3D('',#1558,#1305,#1306);
#1052=AXIS2_PLACEMENT_3D('',#1561,#1308,#1309);
#1053=AXIS2_PLACEMENT_3D('',#1562,#1310,#1311);
#1054=AXIS2_PLACEMENT_3D('',#1563,#1312,#1313);
#1055=AXIS2_PLACEMENT_3D('',#1570,#1314,#1315);
#1056=AXIS2_PLACEMENT_3D('',#1571,#1316,#1317);
#1057=AXIS2_PLACEMENT_3D('',#1572,#1318,#1319);
#1058=AXIS2_PLACEMENT_3D('',#1573,#1320,#1321);
#1059=AXIS2_PLACEMENT_3D('',#1575,#1322,#1323);
#1060=AXIS2_PLACEMENT_3D('',#1577,#1324,#1325);
#1061=AXIS2_PLACEMENT_3D('',#1579,#1327,#1328);
#1062=DIRECTION('axis',(0.,0.,1.));
#1063=DIRECTION('refdir',(1.,0.,0.));
#1064=DIRECTION('center_axis',(-0.984807753012208,0.17364817766693,0.));
#1065=DIRECTION('ref_axis',(0.,0.,-1.));
#1066=DIRECTION('center_axis',(-0.984807753012208,0.17364817766693,0.));
#1067=DIRECTION('ref_axis',(0.,0.,-1.));
#1068=DIRECTION('',(-0.984807753012208,0.17364817766693,0.));
#1069=DIRECTION('center_axis',(0.984807753012208,-0.17364817766693,0.));
#1070=DIRECTION('ref_axis',(0.,0.,-1.));
#1071=DIRECTION('center_axis',(-0.984807753012208,0.17364817766693,0.));
#1072=DIRECTION('ref_axis',(0.,0.,-1.));
#1073=DIRECTION('center_axis',(-0.984807753012208,0.17364817766693,0.));
#1074=DIRECTION('ref_axis',(0.,0.,-1.));
#1075=DIRECTION('',(-0.984807753012208,0.17364817766693,0.));
#1076=DIRECTION('center_axis',(0.984807753012208,-0.17364817766693,0.));
#1077=DIRECTION('ref_axis',(0.,0.,-1.));
#1078=DIRECTION('center_axis',(-0.984807753012208,0.17364817766693,0.));
#1079=DIRECTION('ref_axis',(0.,0.,-1.));
#1080=DIRECTION('center_axis',(-0.984807753012208,0.17364817766693,0.));
#1081=DIRECTION('ref_axis',(0.,0.,-1.));
#1082=DIRECTION('',(-0.984807753012208,0.17364817766693,0.));
#1083=DIRECTION('center_axis',(0.984807753012208,-0.17364817766693,0.));
#1084=DIRECTION('ref_axis',(0.,0.,-1.));
#1085=DIRECTION('center_axis',(-0.984807753012208,0.17364817766693,0.));
#1086=DIRECTION('ref_axis',(0.,0.,-1.));
#1087=DIRECTION('center_axis',(-0.984807753012208,0.17364817766693,0.));
#1088=DIRECTION('ref_axis',(0.,0.,-1.));
#1089=DIRECTION('',(-0.984807753012208,0.17364817766693,0.));
#1090=DIRECTION('center_axis',(0.984807753012208,-0.17364817766693,0.));
#1091=DIRECTION('ref_axis',(0.,0.,-1.));
#1092=DIRECTION('center_axis',(-0.984807753012208,0.17364817766693,0.));
#1093=DIRECTION('ref_axis',(0.,0.,-1.));
#1094=DIRECTION('center_axis',(-0.984807753012208,0.17364817766693,0.));
#1095=DIRECTION('ref_axis',(0.,0.,-1.));
#1096=DIRECTION('',(-0.984807753012208,0.17364817766693,0.));
#1097=DIRECTION('center_axis',(0.984807753012208,-0.17364817766693,0.));
#1098=DIRECTION('ref_axis',(0.,0.,-1.));
#1099=DIRECTION('center_axis',(-0.984807753012208,0.17364817766693,0.));
#1100=DIRECTION('ref_axis',(0.,0.,-1.));
#1101=DIRECTION('center_axis',(-0.984807753012208,0.17364817766693,0.));
#1102=DIRECTION('ref_axis',(0.,0.,-1.));
#1103=DIRECTION('',(-0.984807753012208,0.17364817766693,0.));
#1104=DIRECTION('center_axis',(0.984807753012208,-0.17364817766693,0.));
#1105=DIRECTION('ref_axis',(0.,0.,-1.));
#1106=DIRECTION('center_axis',(-0.984807753012208,0.17364817766693,0.));
#1107=DIRECTION('ref_axis',(0.,0.,-1.));
#1108=DIRECTION('center_axis',(-0.984807753012208,0.17364817766693,0.));
#1109=DIRECTION('ref_axis',(0.,0.,-1.));
#1110=DIRECTION('',(-0.984807753012208,0.17364817766693,0.));
#1111=DIRECTION('center_axis',(0.984807753012208,-0.17364817766693,0.));
#1112=DIRECTION('ref_axis',(0.,0.,-1.));
#1113=DIRECTION('center_axis',(-0.984807753012208,0.17364817766693,0.));
#1114=DIRECTION('ref_axis',(0.,0.,-1.));
#1115=DIRECTION('center_axis',(-0.984807753012208,0.17364817766693,0.));
#1116=DIRECTION('ref_axis',(0.,0.,-1.));
#1117=DIRECTION('',(-0.984807753012208,0.17364817766693,0.));
#1118=DIRECTION('center_axis',(0.984807753012208,-0.17364817766693,0.));
#1119=DIRECTION('ref_axis',(0.,0.,-1.));
#1120=DIRECTION('center_axis',(-0.984807753012208,0.17364817766693,0.));
#1121=DIRECTION('ref_axis',(0.,0.,-1.));
#1122=DIRECTION('center_axis',(-0.984807753012208,0.17364817766693,0.));
#1123=DIRECTION('ref_axis',(0.,0.,-1.));
#1124=DIRECTION('',(-0.984807753012208,0.17364817766693,0.));
#1125=DIRECTION('center_axis',(0.984807753012208,-0.17364817766693,0.));
#1126=DIRECTION('ref_axis',(0.,0.,-1.));
#1127=DIRECTION('center_axis',(-1.,-1.57661805436897E-15,0.));
#1128=DIRECTION('ref_axis',(0.,0.,1.));
#1129=DIRECTION('',(0.,0.,1.));
#1130=DIRECTION('',(-1.57661805436897E-15,1.,0.));
#1131=DIRECTION('',(0.,0.,-1.));
#1132=DIRECTION('',(1.57661805436897E-15,-1.,4.28626379701574E-16));
#1133=DIRECTION('',(0.,0.,-1.));
#1134=DIRECTION('',(-1.57661805436897E-15,1.,0.));
#1135=DIRECTION('',(8.48677655757646E-32,-5.3828995133341E-17,1.));
#1136=DIRECTION('',(1.57661805436897E-15,-1.,0.));
#1137=DIRECTION('center_axis',(-1.,-1.57661805436897E-15,0.));
#1138=DIRECTION('ref_axis',(0.,0.,-1.));
#1139=DIRECTION('center_axis',(-1.,-1.57661805436897E-15,0.));
#1140=DIRECTION('ref_axis',(0.,0.,-1.));
#1141=DIRECTION('center_axis',(-1.,-1.57661805436897E-15,0.));
#1142=DIRECTION('ref_axis',(0.,0.,-1.));
#1143=DIRECTION('center_axis',(-1.,-1.57661805436897E-15,0.));
#1144=DIRECTION('ref_axis',(0.,0.,-1.));
#1145=DIRECTION('center_axis',(-1.,-1.57661805436897E-15,0.));
#1146=DIRECTION('ref_axis',(0.,0.,-1.));
#1147=DIRECTION('center_axis',(-1.,-1.57661805436897E-15,0.));
#1148=DIRECTION('ref_axis',(0.,0.,-1.));
#1149=DIRECTION('center_axis',(-1.,-1.57661805436897E-15,0.));
#1150=DIRECTION('ref_axis',(0.,0.,-1.));
#1151=DIRECTION('center_axis',(-1.,-1.57661805436897E-15,0.));
#1152=DIRECTION('ref_axis',(0.,0.,-1.));
#1153=DIRECTION('center_axis',(-1.,-1.57661805436897E-15,0.));
#1154=DIRECTION('ref_axis',(0.,0.,-1.));
#1155=DIRECTION('center_axis',(-1.,-1.57661805436897E-15,0.));
#1156=DIRECTION('ref_axis',(0.,0.,-1.));
#1157=DIRECTION('center_axis',(-1.,-1.57661805436897E-15,0.));
#1158=DIRECTION('ref_axis',(0.,0.,-1.));
#1159=DIRECTION('center_axis',(-1.,-1.57661805436897E-15,0.));
#1160=DIRECTION('ref_axis',(0.,0.,-1.));
#1161=DIRECTION('center_axis',(-1.,-1.57661805436897E-15,0.));
#1162=DIRECTION('ref_axis',(0.,0.,-1.));
#1163=DIRECTION('center_axis',(-1.,-1.57661805436897E-15,0.));
#1164=DIRECTION('ref_axis',(0.,0.,-1.));
#1165=DIRECTION('center_axis',(-1.,-1.57661805436897E-15,0.));
#1166=DIRECTION('ref_axis',(0.,0.,-1.));
#1167=DIRECTION('center_axis',(-1.,-1.57661805436897E-15,0.));
#1168=DIRECTION('ref_axis',(0.,0.,-1.));
#1169=DIRECTION('center_axis',(-1.,-1.57661805436897E-15,0.));
#1170=DIRECTION('ref_axis',(0.,0.,-1.));
#1171=DIRECTION('center_axis',(-1.,-1.57661805436897E-15,0.));
#1172=DIRECTION('ref_axis',(0.,0.,-1.));
#1173=DIRECTION('center_axis',(-1.,-1.57661805436897E-15,0.));
#1174=DIRECTION('ref_axis',(0.,0.,-1.));
#1175=DIRECTION('center_axis',(-1.,-1.57661805436897E-15,0.));
#1176=DIRECTION('ref_axis',(0.,0.,-1.));
#1177=DIRECTION('center_axis',(1.,0.,0.));
#1178=DIRECTION('ref_axis',(0.,0.,-1.));
#1179=DIRECTION('',(-1.,0.,0.));
#1180=DIRECTION('center_axis',(1.,1.57661805436897E-15,0.));
#1181=DIRECTION('ref_axis',(0.,0.,-1.));
#1182=DIRECTION('center_axis',(1.,0.,0.));
#1183=DIRECTION('ref_axis',(0.,0.,-1.));
#1184=DIRECTION('',(-1.,0.,0.));
#1185=DIRECTION('center_axis',(1.,1.57661805436897E-15,0.));
#1186=DIRECTION('ref_axis',(0.,0.,-1.));
#1187=DIRECTION('center_axis',(1.,0.,0.));
#1188=DIRECTION('ref_axis',(0.,0.,-1.));
#1189=DIRECTION('',(-1.,0.,0.));
#1190=DIRECTION('center_axis',(1.,1.57661805436897E-15,0.));
#1191=DIRECTION('ref_axis',(0.,0.,-1.));
#1192=DIRECTION('center_axis',(1.,0.,0.));
#1193=DIRECTION('ref_axis',(0.,0.,-1.));
#1194=DIRECTION('',(-1.,0.,0.));
#1195=DIRECTION('center_axis',(1.,1.57661805436897E-15,0.));
#1196=DIRECTION('ref_axis',(0.,0.,-1.));
#1197=DIRECTION('center_axis',(1.,0.,0.));
#1198=DIRECTION('ref_axis',(0.,0.,-1.));
#1199=DIRECTION('',(-1.,0.,0.));
#1200=DIRECTION('center_axis',(1.,1.57661805436897E-15,0.));
#1201=DIRECTION('ref_axis',(0.,0.,-1.));
#1202=DIRECTION('center_axis',(1.,0.,0.));
#1203=DIRECTION('ref_axis',(0.,0.,-1.));
#1204=DIRECTION('',(-1.,0.,0.));
#1205=DIRECTION('center_axis',(1.,1.57661805436897E-15,0.));
#1206=DIRECTION('ref_axis',(0.,0.,-1.));
#1207=DIRECTION('center_axis',(1.,0.,0.));
#1208=DIRECTION('ref_axis',(0.,0.,-1.));
#1209=DIRECTION('',(-1.,0.,0.));
#1210=DIRECTION('center_axis',(1.,1.57661805436897E-15,0.));
#1211=DIRECTION('ref_axis',(0.,0.,-1.));
#1212=DIRECTION('center_axis',(1.,0.,0.));
#1213=DIRECTION('ref_axis',(0.,0.,-1.));
#1214=DIRECTION('',(-1.,0.,0.));
#1215=DIRECTION('center_axis',(1.,1.57661805436897E-15,0.));
#1216=DIRECTION('ref_axis',(0.,0.,-1.));
#1217=DIRECTION('center_axis',(1.,0.,0.));
#1218=DIRECTION('ref_axis',(0.,0.,-1.));
#1219=DIRECTION('',(-1.,0.,0.));
#1220=DIRECTION('center_axis',(1.,1.57661805436897E-15,0.));
#1221=DIRECTION('ref_axis',(0.,0.,-1.));
#1222=DIRECTION('center_axis',(1.,0.,0.));
#1223=DIRECTION('ref_axis',(0.,0.,-1.));
#1224=DIRECTION('',(-1.,0.,0.));
#1225=DIRECTION('center_axis',(1.,1.57661805436897E-15,0.));
#1226=DIRECTION('ref_axis',(0.,0.,-1.));
#1227=DIRECTION('center_axis',(1.,0.,0.));
#1228=DIRECTION('ref_axis',(0.,0.,-1.));
#1229=DIRECTION('',(-1.,0.,0.));
#1230=DIRECTION('center_axis',(1.,1.57661805436897E-15,0.));
#1231=DIRECTION('ref_axis',(0.,0.,-1.));
#1232=DIRECTION('center_axis',(1.,0.,0.));
#1233=DIRECTION('ref_axis',(0.,0.,-1.));
#1234=DIRECTION('',(-1.,0.,0.));
#1235=DIRECTION('center_axis',(1.,1.57661805436897E-15,0.));
#1236=DIRECTION('ref_axis',(0.,0.,-1.));
#1237=DIRECTION('center_axis',(1.,0.,0.));
#1238=DIRECTION('ref_axis',(0.,0.,-1.));
#1239=DIRECTION('',(-1.,0.,0.));
#1240=DIRECTION('center_axis',(1.,1.57661805436897E-15,0.));
#1241=DIRECTION('ref_axis',(0.,0.,-1.));
#1242=DIRECTION('center_axis',(1.,0.,0.));
#1243=DIRECTION('ref_axis',(0.,0.,-1.));
#1244=DIRECTION('',(-1.,0.,0.));
#1245=DIRECTION('center_axis',(1.,1.57661805436897E-15,0.));
#1246=DIRECTION('ref_axis',(0.,0.,-1.));
#1247=DIRECTION('center_axis',(1.,0.,0.));
#1248=DIRECTION('ref_axis',(0.,0.,-1.));
#1249=DIRECTION('',(-1.,0.,0.));
#1250=DIRECTION('center_axis',(1.,1.57661805436897E-15,0.));
#1251=DIRECTION('ref_axis',(0.,0.,-1.));
#1252=DIRECTION('center_axis',(1.,0.,0.));
#1253=DIRECTION('ref_axis',(0.,0.,-1.));
#1254=DIRECTION('',(-1.,0.,0.));
#1255=DIRECTION('center_axis',(1.,1.57661805436897E-15,0.));
#1256=DIRECTION('ref_axis',(0.,0.,-1.));
#1257=DIRECTION('center_axis',(1.,0.,0.));
#1258=DIRECTION('ref_axis',(0.,0.,-1.));
#1259=DIRECTION('',(-1.,0.,0.));
#1260=DIRECTION('center_axis',(1.,1.57661805436897E-15,0.));
#1261=DIRECTION('ref_axis',(0.,0.,-1.));
#1262=DIRECTION('center_axis',(1.,0.,0.));
#1263=DIRECTION('ref_axis',(0.,0.,-1.));
#1264=DIRECTION('',(-1.,0.,0.));
#1265=DIRECTION('center_axis',(1.,1.57661805436897E-15,0.));
#1266=DIRECTION('ref_axis',(0.,0.,-1.));
#1267=DIRECTION('center_axis',(1.,0.,0.));
#1268=DIRECTION('ref_axis',(0.,0.,-1.));
#1269=DIRECTION('',(-1.,0.,0.));
#1270=DIRECTION('center_axis',(1.,1.57661805436897E-15,0.));
#1271=DIRECTION('ref_axis',(0.,0.,-1.));
#1272=DIRECTION('center_axis',(1.,0.,0.));
#1273=DIRECTION('ref_axis',(0.,0.,-1.));
#1274=DIRECTION('',(-1.,0.,0.));
#1275=DIRECTION('center_axis',(1.,1.57661805436897E-15,0.));
#1276=DIRECTION('ref_axis',(0.,0.,-1.));
#1277=DIRECTION('center_axis',(0.,1.,5.3828995133341E-17));
#1278=DIRECTION('ref_axis',(8.48677655757646E-32,-5.3828995133341E-17,1.));
#1279=DIRECTION('',(-8.48677655757646E-32,5.3828995133341E-17,-1.));
#1280=DIRECTION('',(1.,0.,0.));
#1281=DIRECTION('',(1.,0.,0.));
#1282=DIRECTION('center_axis',(0.,0.,-1.));
#1283=DIRECTION('ref_axis',(-1.57661805436897E-15,1.,0.));
#1284=DIRECTION('',(1.57661805436897E-15,-1.,0.));
#1285=DIRECTION('',(1.,0.,0.));
#1286=DIRECTION('center_axis',(0.,-1.,0.));
#1287=DIRECTION('ref_axis',(0.,0.,-1.));
#1288=DIRECTION('',(0.,0.,1.));
#1289=DIRECTION('',(1.,0.,0.));
#1290=DIRECTION('center_axis',(-1.,-1.57661805436897E-15,0.));
#1291=DIRECTION('ref_axis',(1.57661805436897E-15,-1.,0.));
#1292=DIRECTION('',(-1.57661805436897E-15,1.,0.));
#1293=DIRECTION('',(1.22464679914735E-16,-1.,0.));
#1294=DIRECTION('',(0.,0.,1.));
#1295=DIRECTION('',(-1.22464679914735E-16,1.,0.));
#1296=DIRECTION('',(0.,0.,1.));
#1297=DIRECTION('center_axis',(-0.984807753012208,0.17364817766693,0.));
#1298=DIRECTION('ref_axis',(0.,0.,1.));
#1299=DIRECTION('',(-0.17364817766693,-0.984807753012208,0.));
#1300=DIRECTION('',(0.,0.,-1.));
#1301=DIRECTION('',(0.17364817766693,0.984807753012208,0.));
#1302=DIRECTION('',(0.,0.,1.));
#1303=DIRECTION('center_axis',(0.,0.,1.));
#1304=DIRECTION('ref_axis',(1.,0.,0.));
#1305=DIRECTION('center_axis',(0.,0.,-1.));
#1306=DIRECTION('ref_axis',(-1.,0.,0.));
#1307=DIRECTION('',(-0.17364817766693,-0.984807753012208,0.));
#1308=DIRECTION('center_axis',(0.,0.,-1.));
#1309=DIRECTION('ref_axis',(-1.,0.,0.));
#1310=DIRECTION('center_axis',(0.,0.,1.));
#1311=DIRECTION('ref_axis',(-1.,0.,0.));
#1312=DIRECTION('center_axis',(0.,0.,1.));
#1313=DIRECTION('ref_axis',(-1.,0.,0.));
#1314=DIRECTION('center_axis',(0.,0.,-1.));
#1315=DIRECTION('ref_axis',(-1.,0.,0.));
#1316=DIRECTION('center_axis',(0.,0.,-1.));
#1317=DIRECTION('ref_axis',(-1.,0.,0.));
#1318=DIRECTION('center_axis',(0.,0.,-1.));
#1319=DIRECTION('ref_axis',(-1.,0.,0.));
#1320=DIRECTION('center_axis',(0.,0.,-1.));
#1321=DIRECTION('ref_axis',(-1.,0.,0.));
#1322=DIRECTION('center_axis',(0.,0.,-1.));
#1323=DIRECTION('ref_axis',(-1.,0.,0.));
#1324=DIRECTION('center_axis',(0.,0.,-1.));
#1325=DIRECTION('ref_axis',(-1.,0.,0.));
#1326=DIRECTION('',(0.17364817766693,0.984807753012208,0.));
#1327=DIRECTION('center_axis',(-0.984807753012208,0.17364817766693,0.));
#1328=DIRECTION('ref_axis',(-0.17364817766693,-0.984807753012208,0.));
#1329=DIRECTION('',(0.,0.,-1.));
#1330=DIRECTION('',(0.,0.,1.));
#1331=CARTESIAN_POINT('',(0.,0.,0.));
#1332=CARTESIAN_POINT('Origin',(418.313718285847,-65.9311572767456,35.));
#1333=CARTESIAN_POINT('',(418.313718285847,-65.9311572767456,39.5));
#1334=CARTESIAN_POINT('Origin',(418.313718285847,-65.9311572767456,35.));
#1335=CARTESIAN_POINT('',(388.769485695481,-60.7217119467377,39.5));
#1336=CARTESIAN_POINT('',(418.313718285847,-65.9311572767456,39.5));
#1337=CARTESIAN_POINT('Origin',(388.769485695481,-60.7217119467377,35.));
#1338=CARTESIAN_POINT('Origin',(411.560389067554,-104.231190494347,128.89087296526));
#1339=CARTESIAN_POINT('',(411.560389067554,-104.231190494347,133.39087296526));
#1340=CARTESIAN_POINT('Origin',(411.560389067554,-104.231190494347,128.89087296526));
#1341=CARTESIAN_POINT('',(382.016156477188,-99.0217451643388,133.39087296526));
#1342=CARTESIAN_POINT('',(411.560389067554,-104.231190494347,133.39087296526));
#1343=CARTESIAN_POINT('Origin',(382.016156477188,-99.0217451643388,128.89087296526));
#1344=CARTESIAN_POINT('Origin',(411.560389067554,-104.231190494347,51.1091270347398));
#1345=CARTESIAN_POINT('',(411.560389067554,-104.231190494347,55.6091270347398));
#1346=CARTESIAN_POINT('Origin',(411.560389067554,-104.231190494347,51.1091270347398));
#1347=CARTESIAN_POINT('',(382.016156477188,-99.0217451643388,55.6091270347398));
#1348=CARTESIAN_POINT('',(411.560389067554,-104.231190494347,55.6091270347398));
#1349=CARTESIAN_POINT('Origin',(382.016156477188,-99.0217451643388,51.1091270347398));
#1350=CARTESIAN_POINT('Origin',(418.313718285847,-65.9311572767456,90.));
#1351=CARTESIAN_POINT('',(418.313718285847,-65.9311572767456,125.));
#1352=CARTESIAN_POINT('Origin',(418.313718285847,-65.9311572767456,90.));
#1353=CARTESIAN_POINT('',(388.769485695481,-60.7217119467377,125.));
#1354=CARTESIAN_POINT('',(418.313718285847,-65.9311572767456,125.));
#1355=CARTESIAN_POINT('Origin',(388.769485695481,-60.7217119467377,90.));
#1356=CARTESIAN_POINT('Origin',(418.313718285847,-65.9311572767457,145.));
#1357=CARTESIAN_POINT('',(418.313718285847,-65.9311572767457,149.5));
#1358=CARTESIAN_POINT('Origin',(418.313718285847,-65.9311572767457,145.));
#1359=CARTESIAN_POINT('',(388.769485695481,-60.7217119467378,149.5));
#1360=CARTESIAN_POINT('',(418.313718285847,-65.9311572767457,149.5));
#1361=CARTESIAN_POINT('Origin',(388.769485695481,-60.7217119467378,145.));
#1362=CARTESIAN_POINT('Origin',(425.067047504141,-27.6311240591446,128.89087296526));
#1363=CARTESIAN_POINT('',(425.067047504141,-27.6311240591446,133.39087296526));
#1364=CARTESIAN_POINT('Origin',(425.067047504141,-27.6311240591446,128.89087296526));
#1365=CARTESIAN_POINT('',(395.522814913775,-22.4216787291367,133.39087296526));
#1366=CARTESIAN_POINT('',(425.067047504141,-27.6311240591446,133.39087296526));
#1367=CARTESIAN_POINT('Origin',(395.522814913775,-22.4216787291367,128.89087296526));
#1368=CARTESIAN_POINT('Origin',(427.864368057528,-11.7667308610742,90.));
#1369=CARTESIAN_POINT('',(427.864368057528,-11.7667308610742,94.5));
#1370=CARTESIAN_POINT('Origin',(427.864368057528,-11.7667308610742,90.));
#1371=CARTESIAN_POINT('',(398.320135467162,-6.55728553106628,94.5));
#1372=CARTESIAN_POINT('',(427.864368057528,-11.7667308610742,94.5));
#1373=CARTESIAN_POINT('Origin',(398.320135467162,-6.55728553106628,90.));
#1374=CARTESIAN_POINT('Origin',(408.763068514166,-120.095583692417,90.));
#1375=CARTESIAN_POINT('',(408.763068514166,-120.095583692417,94.5));
#1376=CARTESIAN_POINT('Origin',(408.763068514166,-120.095583692417,90.));
#1377=CARTESIAN_POINT('',(379.2188359238,-114.886138362409,94.5));
#1378=CARTESIAN_POINT('',(408.763068514166,-120.095583692417,94.5));
#1379=CARTESIAN_POINT('Origin',(379.2188359238,-114.886138362409,90.));
#1380=CARTESIAN_POINT('Origin',(425.067047504141,-27.6311240591446,51.1091270347399));
#1381=CARTESIAN_POINT('',(425.067047504141,-27.6311240591446,55.6091270347399));
#1382=CARTESIAN_POINT('Origin',(425.067047504141,-27.6311240591446,51.1091270347399));
#1383=CARTESIAN_POINT('',(395.522814913775,-22.4216787291367,55.6091270347399));
#1384=CARTESIAN_POINT('',(425.067047504141,-27.6311240591446,55.6091270347399));
#1385=CARTESIAN_POINT('Origin',(395.522814913775,-22.4216787291367,51.1091270347399));
#1386=CARTESIAN_POINT('Origin',(5.00000000000102,-340.,52.5));
#1387=CARTESIAN_POINT('',(4.99999999999996,329.979629000876,-5.));
#1388=CARTESIAN_POINT('',(4.99999999999996,329.979629000876,160.));
#1389=CARTESIAN_POINT('',(4.99999999999996,329.979629000876,0.));
#1390=CARTESIAN_POINT('',(5.000000000001,-329.979629000876,-5.));
#1391=CARTESIAN_POINT('',(5.00000000000076,-170.,-5.));
#1392=CARTESIAN_POINT('',(5.000000000001,-329.979629000876,160.));
#1393=CARTESIAN_POINT('',(5.000000000001,-329.979629000876,0.));
#1394=CARTESIAN_POINT('',(5.00000000000108,-380.,160.));
#1395=CARTESIAN_POINT('',(5.00000000000108,-380.,160.));
#1396=CARTESIAN_POINT('',(5.00000000000108,-380.,-55.));
#1397=CARTESIAN_POINT('',(5.00000000000108,-380.,-55.));
#1398=CARTESIAN_POINT('',(4.99999999999988,380.,-55.0000000000002));
#1399=CARTESIAN_POINT('',(5.00000000000095,-300.,-55.));
#1400=CARTESIAN_POINT('',(4.99999999999988,380.,160.));
#1401=CARTESIAN_POINT('',(4.99999999999988,380.,160.));
#1402=CARTESIAN_POINT('',(5.00000000000001,300.,160.));
#1403=CARTESIAN_POINT('',(4.99999999999992,355.,24.4999999999998));
#1404=CARTESIAN_POINT('Origin',(4.99999999999992,355.,19.9999999999998));
#1405=CARTESIAN_POINT('',(4.99999999999992,355.,74.4999999999998));
#1406=CARTESIAN_POINT('Origin',(4.99999999999992,355.,69.9999999999998));
#1407=CARTESIAN_POINT('',(4.99999999999992,355.,124.5));
#1408=CARTESIAN_POINT('Origin',(4.99999999999992,355.,120.));
#1409=CARTESIAN_POINT('',(5.0000000000008,-205.,-25.5000000000002));
#1410=CARTESIAN_POINT('Origin',(5.0000000000008,-205.,-30.0000000000002));
#1411=CARTESIAN_POINT('',(5.00000000000065,-105.,-25.5000000000001));
#1412=CARTESIAN_POINT('Origin',(5.00000000000065,-105.,-30.0000000000001));
#1413=CARTESIAN_POINT('',(5.00000000000039,55.,-25.5000000000001));
#1414=CARTESIAN_POINT('Origin',(5.00000000000039,55.,-30.0000000000001));
#1415=CARTESIAN_POINT('',(5.00000000000024,155.,-25.5000000000001));
#1416=CARTESIAN_POINT('Origin',(5.00000000000024,155.,-30.0000000000001));
#1417=CARTESIAN_POINT('',(5.00000000000008,255.,-25.5000000000002));
#1418=CARTESIAN_POINT('Origin',(5.00000000000008,255.,-30.0000000000002));
#1419=CARTESIAN_POINT('',(5.,305.,-25.5000000000002));
#1420=CARTESIAN_POINT('Origin',(5.,305.,-30.0000000000002));
#1421=CARTESIAN_POINT('',(4.99999999999992,355.,-25.5000000000002));
#1422=CARTESIAN_POINT('Origin',(4.99999999999992,355.,-30.0000000000002));
#1423=CARTESIAN_POINT('',(5.00000000000016,205.,-25.5000000000002));
#1424=CARTESIAN_POINT('Origin',(5.00000000000016,205.,-30.0000000000002));
#1425=CARTESIAN_POINT('',(5.00000000000032,105.,-25.5000000000001));
#1426=CARTESIAN_POINT('Origin',(5.00000000000032,105.,-30.0000000000001));
#1427=CARTESIAN_POINT('',(5.00000000000057,-55.,-25.5000000000001));
#1428=CARTESIAN_POINT('Origin',(5.00000000000057,-55.,-30.0000000000001));
#1429=CARTESIAN_POINT('',(5.00000000000072,-155.,-25.5000000000001));
#1430=CARTESIAN_POINT('Origin',(5.00000000000072,-155.,-30.0000000000001));
#1431=CARTESIAN_POINT('',(5.00000000000088,-255.,-25.5000000000002));
#1432=CARTESIAN_POINT('Origin',(5.00000000000088,-255.,-30.0000000000002));
#1433=CARTESIAN_POINT('',(5.00000000000104,-355.,24.4999999999998));
#1434=CARTESIAN_POINT('Origin',(5.00000000000104,-355.,19.9999999999998));
#1435=CARTESIAN_POINT('',(5.00000000000104,-355.,74.4999999999998));
#1436=CARTESIAN_POINT('Origin',(5.00000000000104,-355.,69.9999999999998));
#1437=CARTESIAN_POINT('',(5.00000000000104,-355.,124.5));
#1438=CARTESIAN_POINT('Origin',(5.00000000000104,-355.,120.));
#1439=CARTESIAN_POINT('',(5.00000000000104,-355.,-25.5000000000002));
#1440=CARTESIAN_POINT('Origin',(5.00000000000104,-355.,-30.0000000000002));
#1441=CARTESIAN_POINT('',(5.00000000000096,-305.,-25.5000000000002));
#1442=CARTESIAN_POINT('Origin',(5.00000000000096,-305.,-30.0000000000002));
#1443=CARTESIAN_POINT('Origin',(-7.93661121954089E-14,355.,19.9999999999998));
#1444=CARTESIAN_POINT('',(-7.93661121954089E-14,355.,24.4999999999998));
#1445=CARTESIAN_POINT('',(-7.93661121954089E-14,355.,24.4999999999998));
#1446=CARTESIAN_POINT('Origin',(-7.93661121954089E-14,355.,19.9999999999998));
#1447=CARTESIAN_POINT('Origin',(-7.93661121954089E-14,355.,69.9999999999998));
#1448=CARTESIAN_POINT('',(-7.93661121954089E-14,355.,74.4999999999998));
#1449=CARTESIAN_POINT('',(-7.93661121954089E-14,355.,74.4999999999998));
#1450=CARTESIAN_POINT('Origin',(-7.93661121954089E-14,355.,69.9999999999998));
#1451=CARTESIAN_POINT('Origin',(-7.93661121954089E-14,355.,120.));
#1452=CARTESIAN_POINT('',(-7.93661121954089E-14,355.,124.5));
#1453=CARTESIAN_POINT('',(-7.93661121954089E-14,355.,124.5));
#1454=CARTESIAN_POINT('Origin',(-7.93661121954089E-14,355.,120.));
#1455=CARTESIAN_POINT('Origin',(8.03539998251212E-13,-205.,-30.0000000000002));
#1456=CARTESIAN_POINT('',(8.03539998251212E-13,-205.,-25.5000000000002));
#1457=CARTESIAN_POINT('',(8.03539998251212E-13,-205.,-25.5000000000002));
#1458=CARTESIAN_POINT('Origin',(8.03539998251212E-13,-205.,-30.0000000000002));
#1459=CARTESIAN_POINT('Origin',(6.45878192814315E-13,-105.,-30.0000000000001));
#1460=CARTESIAN_POINT('',(6.45878192814315E-13,-105.,-25.5000000000001));
#1461=CARTESIAN_POINT('',(6.45878192814315E-13,-105.,-25.5000000000001));
#1462=CARTESIAN_POINT('Origin',(6.45878192814315E-13,-105.,-30.0000000000001));
#1463=CARTESIAN_POINT('Origin',(3.93619304115281E-13,55.,-30.0000000000001));
#1464=CARTESIAN_POINT('',(3.93619304115281E-13,55.,-25.5000000000001));
#1465=CARTESIAN_POINT('',(3.93619304115281E-13,55.,-25.5000000000001));
#1466=CARTESIAN_POINT('Origin',(3.93619304115281E-13,55.,-30.0000000000001));
#1467=CARTESIAN_POINT('Origin',(2.35957498678384E-13,155.,-30.0000000000001));
#1468=CARTESIAN_POINT('',(2.35957498678384E-13,155.,-25.5000000000001));
#1469=CARTESIAN_POINT('',(2.35957498678384E-13,155.,-25.5000000000001));
#1470=CARTESIAN_POINT('Origin',(2.35957498678384E-13,155.,-30.0000000000001));
#1471=CARTESIAN_POINT('Origin',(7.82956932414877E-14,255.,-30.0000000000002));
#1472=CARTESIAN_POINT('',(7.82956932414877E-14,255.,-25.5000000000002));
#1473=CARTESIAN_POINT('',(7.82956932414877E-14,255.,-25.5000000000002));
#1474=CARTESIAN_POINT('Origin',(7.82956932414877E-14,255.,-30.0000000000002));
#1475=CARTESIAN_POINT('Origin',(-5.35209476960636E-16,305.,-30.0000000000002));
#1476=CARTESIAN_POINT('',(-5.35209476960637E-16,305.,-25.5000000000002));
#1477=CARTESIAN_POINT('',(-5.35209476960636E-16,305.,-25.5000000000002));
#1478=CARTESIAN_POINT('Origin',(-5.35209476960636E-16,305.,-30.0000000000002));
#1479=CARTESIAN_POINT('Origin',(-7.93661121954089E-14,355.,-30.0000000000002));
#1480=CARTESIAN_POINT('',(-7.93661121954089E-14,355.,-25.5000000000002));
#1481=CARTESIAN_POINT('',(-7.93661121954089E-14,355.,-25.5000000000002));
#1482=CARTESIAN_POINT('Origin',(-7.93661121954089E-14,355.,-30.0000000000002));
#1483=CARTESIAN_POINT('Origin',(1.57126595959936E-13,205.,-30.0000000000002));
#1484=CARTESIAN_POINT('',(1.57126595959936E-13,205.,-25.5000000000002));
#1485=CARTESIAN_POINT('',(1.57126595959936E-13,205.,-25.5000000000002));
#1486=CARTESIAN_POINT('Origin',(1.57126595959936E-13,205.,-30.0000000000002));
#1487=CARTESIAN_POINT('Origin',(3.14788401396833E-13,105.,-30.0000000000001));
#1488=CARTESIAN_POINT('',(3.14788401396833E-13,105.,-25.5000000000001));
#1489=CARTESIAN_POINT('',(3.14788401396833E-13,105.,-25.5000000000001));
#1490=CARTESIAN_POINT('Origin',(3.14788401396833E-13,105.,-30.0000000000001));
#1491=CARTESIAN_POINT('Origin',(5.67047290095867E-13,-55.,-30.0000000000001));
#1492=CARTESIAN_POINT('',(5.67047290095867E-13,-55.,-25.5000000000001));
#1493=CARTESIAN_POINT('',(5.67047290095867E-13,-55.,-25.5000000000001));
#1494=CARTESIAN_POINT('Origin',(5.67047290095867E-13,-55.,-30.0000000000001));
#1495=CARTESIAN_POINT('Origin',(7.24709095532764E-13,-155.,-30.0000000000001));
#1496=CARTESIAN_POINT('',(7.24709095532764E-13,-155.,-25.5000000000001));
#1497=CARTESIAN_POINT('',(7.24709095532764E-13,-155.,-25.5000000000001));
#1498=CARTESIAN_POINT('Origin',(7.24709095532764E-13,-155.,-30.0000000000001));
#1499=CARTESIAN_POINT('Origin',(8.8237090096966E-13,-255.,-30.0000000000002));
#1500=CARTESIAN_POINT('',(8.8237090096966E-13,-255.,-25.5000000000002));
#1501=CARTESIAN_POINT('',(8.8237090096966E-13,-255.,-25.5000000000002));
#1502=CARTESIAN_POINT('Origin',(8.8237090096966E-13,-255.,-30.0000000000002));
#1503=CARTESIAN_POINT('Origin',(1.04003270640656E-12,-355.,19.9999999999998));
#1504=CARTESIAN_POINT('',(1.04003270640656E-12,-355.,24.4999999999998));
#1505=CARTESIAN_POINT('',(1.04003270640656E-12,-355.,24.4999999999998));
#1506=CARTESIAN_POINT('Origin',(1.04003270640656E-12,-355.,19.9999999999998));
#1507=CARTESIAN_POINT('Origin',(1.04003270640656E-12,-355.,69.9999999999998));
#1508=CARTESIAN_POINT('',(1.04003270640656E-12,-355.,74.4999999999998));
#1509=CARTESIAN_POINT('',(1.04003270640656E-12,-355.,74.4999999999998));
#1510=CARTESIAN_POINT('Origin',(1.04003270640656E-12,-355.,69.9999999999998));
#1511=CARTESIAN_POINT('Origin',(1.04003270640656E-12,-355.,120.));
#1512=CARTESIAN_POINT('',(1.04003270640656E-12,-355.,124.5));
#1513=CARTESIAN_POINT('',(1.04003270640656E-12,-355.,124.5));
#1514=CARTESIAN_POINT('Origin',(1.04003270640656E-12,-355.,120.));
#1515=CARTESIAN_POINT('Origin',(1.04003270640656E-12,-355.,-30.0000000000002));
#1516=CARTESIAN_POINT('',(1.04003270640656E-12,-355.,-25.5000000000002));
#1517=CARTESIAN_POINT('',(1.04003270640656E-12,-355.,-25.5000000000002));
#1518=CARTESIAN_POINT('Origin',(1.04003270640656E-12,-355.,-30.0000000000002));
#1519=CARTESIAN_POINT('Origin',(9.61201803688109E-13,-305.,-30.0000000000002));
#1520=CARTESIAN_POINT('',(9.61201803688109E-13,-305.,-25.5000000000002));
#1521=CARTESIAN_POINT('',(9.61201803688109E-13,-305.,-25.5000000000002));
#1522=CARTESIAN_POINT('Origin',(9.61201803688109E-13,-305.,-30.0000000000002));
#1523=CARTESIAN_POINT('Origin',(-1.18781563554633E-13,380.,-55.0000000000002));
#1524=CARTESIAN_POINT('',(-1.18781563554633E-13,380.,160.));
#1525=CARTESIAN_POINT('',(-1.18781563554633E-13,380.,-55.0000000000002));
#1526=CARTESIAN_POINT('',(-1.18781563554633E-13,380.,160.));
#1527=CARTESIAN_POINT('',(-1.18781563554633E-13,380.,160.));
#1528=CARTESIAN_POINT('',(-1.18781563554633E-13,380.,-55.0000000000002));
#1529=CARTESIAN_POINT('Origin',(1.07944815776578E-12,-380.,-55.));
#1530=CARTESIAN_POINT('',(1.07944815776578E-12,-380.,-55.));
#1531=CARTESIAN_POINT('',(9.53318713416264E-13,-300.,-55.));
#1532=CARTESIAN_POINT('',(1.07944815776578E-12,-380.,-55.));
#1533=CARTESIAN_POINT('Origin',(1.07944815776578E-12,-380.,160.));
#1534=CARTESIAN_POINT('',(1.07944815776578E-12,-380.,160.));
#1535=CARTESIAN_POINT('',(1.07944815776578E-12,-380.,-55.));
#1536=CARTESIAN_POINT('',(1.07944815776578E-12,-380.,160.));
#1537=CARTESIAN_POINT('Origin',(-3.99506608361849E-14,330.,0.));
#1538=CARTESIAN_POINT('',(7.34788079488412E-15,300.,160.));
#1539=CARTESIAN_POINT('',(7.34788079488418E-15,300.,160.));
#1540=CARTESIAN_POINT('',(-5.87830463590729E-14,-300.,160.));
#1541=CARTESIAN_POINT('',(-5.87830463590729E-14,-300.,160.));
#1542=CARTESIAN_POINT('',(-5.87830463590729E-14,-300.,0.));
#1543=CARTESIAN_POINT('',(-5.87830463590729E-14,-300.,0.));
#1544=CARTESIAN_POINT('',(7.34788079488412E-15,300.,0.));
#1545=CARTESIAN_POINT('',(-5.51091059616309E-14,-330.,0.));
#1546=CARTESIAN_POINT('',(7.34788079488412E-15,300.,0.));
#1547=CARTESIAN_POINT('Origin',(418.000990350456,-67.7047255312181,63.8907476450047));
#1548=CARTESIAN_POINT('',(441.315591843335,64.5189500469789,-5.));
#1549=CARTESIAN_POINT('',(404.421864072493,-144.715777517722,-5.));
#1550=CARTESIAN_POINT('',(420.880239354519,-51.375693000323,-5.));
#1551=CARTESIAN_POINT('',(441.315591843335,64.5189500469789,160.));
#1552=CARTESIAN_POINT('',(441.315591843335,64.5189500469789,0.));
#1553=CARTESIAN_POINT('',(404.421864072493,-144.715777517722,160.));
#1554=CARTESIAN_POINT('',(406.771908442335,-131.388013607742,160.));
#1555=CARTESIAN_POINT('',(404.421864072493,-144.715777517722,0.));
#1556=CARTESIAN_POINT('Origin',(225.,-165.,160.));
#1557=CARTESIAN_POINT('',(410.603293009579,63.103962526742,160.));
#1558=CARTESIAN_POINT('Origin',(0.,0.,160.));
#1559=CARTESIAN_POINT('',(375.873657476193,-133.8575880757,160.));
#1560=CARTESIAN_POINT('',(375.873657476193,-133.8575880757,160.));
#1561=CARTESIAN_POINT('Origin',(0.,0.,160.));
#1562=CARTESIAN_POINT('Origin',(0.,0.,160.));
#1563=CARTESIAN_POINT('Origin',(0.,0.,160.));
#1564=CARTESIAN_POINT('Ctrl Pts',(441.315591843335,64.5189500469785,-5.));
#1565=CARTESIAN_POINT('Ctrl Pts',(369.957606365158,327.005716775924,-5.));
#1566=CARTESIAN_POINT('Ctrl Pts',(4.99999999999993,329.979629000876,-5.));
#1567=CARTESIAN_POINT('Ctrl Pts',(441.315591843335,64.5189500469785,160.));
#1568=CARTESIAN_POINT('Ctrl Pts',(369.957606365158,327.005716775924,160.));
#1569=CARTESIAN_POINT('Ctrl Pts',(4.99999999999993,329.979629000876,160.));
#1570=CARTESIAN_POINT('Origin',(0.,0.,-5.));
#1571=CARTESIAN_POINT('Origin',(225.,0.,-5.));
#1572=CARTESIAN_POINT('Origin',(0.,0.,-5.));
#1573=CARTESIAN_POINT('Origin',(225.,0.,0.));
#1574=CARTESIAN_POINT('',(410.603293009579,63.103962526742,0.));
#1575=CARTESIAN_POINT('Origin',(0.,0.,0.));
#1576=CARTESIAN_POINT('',(375.873657476193,-133.8575880757,0.));
#1577=CARTESIAN_POINT('Origin',(0.,0.,0.));
#1578=CARTESIAN_POINT('',(375.873657476193,-133.8575880757,0.));
#1579=CARTESIAN_POINT('Origin',(410.603293009579,63.103962526742,0.));
#1580=CARTESIAN_POINT('',(375.873657476193,-133.8575880757,0.));
#1581=CARTESIAN_POINT('',(410.603293009579,63.1039625267419,0.));
#1582=CARTESIAN_POINT('Ctrl Pts',(410.603293009579,63.103962526742,0.));
#1583=CARTESIAN_POINT('Ctrl Pts',(339.244405502189,300.,0.));
#1584=CARTESIAN_POINT('Ctrl Pts',(0.,300.,0.));
#1585=CARTESIAN_POINT('Ctrl Pts',(410.603293009579,63.103962526742,160.));
#1586=CARTESIAN_POINT('Ctrl Pts',(339.244405502189,300.,160.));
#1587=CARTESIAN_POINT('Ctrl Pts',(0.,300.,160.));
#1588=CARTESIAN_POINT('Ctrl Pts',(0.,-300.,0.));
#1589=CARTESIAN_POINT('Ctrl Pts',(259.905785543581,-300.,0.));
#1590=CARTESIAN_POINT('Ctrl Pts',(375.873657476193,-133.8575880757,0.));
#1591=CARTESIAN_POINT('Ctrl Pts',(0.,-300.,160.));
#1592=CARTESIAN_POINT('Ctrl Pts',(259.905785543581,-300.,160.));
#1593=CARTESIAN_POINT('Ctrl Pts',(375.873657476193,-133.8575880757,160.));
#1594=CARTESIAN_POINT('Ctrl Pts',(5.00000000000102,-329.979629000876,-5.));
#1595=CARTESIAN_POINT('Ctrl Pts',(282.65400025272,-327.71712340774,-5.));
#1596=CARTESIAN_POINT('Ctrl Pts',(404.421864072493,-144.715777517722,-5.));
#1597=CARTESIAN_POINT('Ctrl Pts',(5.00000000000102,-329.979629000876,160.));
#1598=CARTESIAN_POINT('Ctrl Pts',(282.65400025272,-327.71712340774,160.));
#1599=CARTESIAN_POINT('Ctrl Pts',(404.421864072493,-144.715777517722,160.));
#1600=UNCERTAINTY_MEASURE_WITH_UNIT(LENGTH_MEASURE(0.01),#1604,
'DISTANCE_ACCURACY_VALUE',
'Maximum model space distance between geometric entities at asserted c
onnectivities');
#1601=UNCERTAINTY_MEASURE_WITH_UNIT(LENGTH_MEASURE(0.01),#1604,
'DISTANCE_ACCURACY_VALUE',
'Maximum model space distance between geometric entities at asserted c
onnectivities');
#1602=(
GEOMETRIC_REPRESENTATION_CONTEXT(3)
GLOBAL_UNCERTAINTY_ASSIGNED_CONTEXT((#1600))
GLOBAL_UNIT_ASSIGNED_CONTEXT((#1604,#1606,#1607))
REPRESENTATION_CONTEXT('','3D')
);
#1603=(
GEOMETRIC_REPRESENTATION_CONTEXT(3)
GLOBAL_UNCERTAINTY_ASSIGNED_CONTEXT((#1601))
GLOBAL_UNIT_ASSIGNED_CONTEXT((#1604,#1606,#1607))
REPRESENTATION_CONTEXT('','3D')
);
#1604=(
LENGTH_UNIT()
NAMED_UNIT(*)
SI_UNIT(.MILLI.,.METRE.)
);
#1605=(
LENGTH_UNIT()
NAMED_UNIT(*)
SI_UNIT(.CENTI.,.METRE.)
);
#1606=(
NAMED_UNIT(*)
PLANE_ANGLE_UNIT()
SI_UNIT($,.RADIAN.)
);
#1607=(
NAMED_UNIT(*)
SI_UNIT($,.STERADIAN.)
SOLID_ANGLE_UNIT()
);
#1608=SHAPE_DEFINITION_REPRESENTATION(#1609,#1610);
#1609=PRODUCT_DEFINITION_SHAPE('',$,#1612);
#1610=SHAPE_REPRESENTATION('',(#956),#1602);
#1611=PRODUCT_DEFINITION_CONTEXT('part definition',#1616,'design');
#1612=PRODUCT_DEFINITION('eggshellCorePrinted','rearwheelCorePrintedL',
#1613,#1611);
#1613=PRODUCT_DEFINITION_FORMATION('',$,#1618);
#1614=PRODUCT_RELATED_PRODUCT_CATEGORY('rearwheelCorePrintedL',
'rearwheelCorePrintedL',(#1618));
#1615=APPLICATION_PROTOCOL_DEFINITION('international standard',
'automotive_design',2009,#1616);
#1616=APPLICATION_CONTEXT(
'Core Data for Automotive Mechanical Design Process');
#1617=PRODUCT_CONTEXT('part definition',#1616,'mechanical');
#1618=PRODUCT('eggshellCorePrinted','rearwheelCorePrintedL',$,(#1617));
#1619=PRESENTATION_STYLE_ASSIGNMENT((#1620));
#1620=SURFACE_STYLE_USAGE(.BOTH.,#1621);
#1621=SURFACE_SIDE_STYLE('',(#1622));
#1622=SURFACE_STYLE_FILL_AREA(#1623);
#1623=FILL_AREA_STYLE('',(#1624));
#1624=FILL_AREA_STYLE_COLOUR('',#1625);
#1625=COLOUR_RGB('',0.694117647058824,0.694117647058824,0.694117647058824);
ENDSEC;
END-ISO-10303-21;
